999
DXF generated by OpenJsCad
  0
SECTION
  2
HEADER
  0
ENDSEC
  0
SECTION
  2
TABLES
  0
TABLE
  2
LTYPE
  70
1
  0
LTYPE
  2
CONTINUOUS
  3
Solid Line
  72
65
  73
0
  40
0.0
  0
ENDTAB
  0
TABLE
  2
LAYER
  70
1
  0
LAYER
  2
OpenJsCad
  62
7
  6
continuous
  0
ENDTAB
  0
TABLE
  2
STYLE
  70
0
  0
ENDTAB
  0
TABLE
  2
VIEW
  70
0
  0
ENDTAB
  0
ENDSEC
  0
SECTION
  2
BLOCKS
  0
ENDSEC
  0
SECTION
  2
ENTITIES
  0
LWPOLYLINE
  8
OpenJsCad
  90
199
  70
1
 10
-71
 20
-37.5
 30
0.0
 10
-26.563561324015577
 20
-37.5
 30
0.0
 10
-26.428941916244323
 20
-37.175
 30
0.0
 10
-26.166726188957803
 20
-36.8332738110422
 30
0.0
 10
-25.825
 20
-36.57105808375567
 30
0.0
 10
-25.427051424419158
 20
-36.406222386623035
 30
0.0
 10
-25
 20
-36.35
 30
0.0
 10
-24.572948575580842
 20
-36.406222386623035
 30
0.0
 10
-24.175
 20
-36.57105808375567
 30
0.0
 10
-23.833273811042197
 20
-36.8332738110422
 30
0.0
 10
-23.571058083755677
 20
-37.175
 30
0.0
 10
-23.43643867598442
 20
-37.5
 30
0.0
 10
23.436438675984423
 20
-37.5
 30
0.0
 10
23.571058083755677
 20
-37.175
 30
0.0
 10
23.833273811042197
 20
-36.8332738110422
 30
0.0
 10
24.175
 20
-36.57105808375567
 30
0.0
 10
24.572948575580842
 20
-36.406222386623035
 30
0.0
 10
25
 20
-36.35
 30
0.0
 10
25.427051424419158
 20
-36.406222386623035
 30
0.0
 10
25.825
 20
-36.57105808375567
 30
0.0
 10
26.166726188957803
 20
-36.8332738110422
 30
0.0
 10
26.428941916244323
 20
-37.175
 30
0.0
 10
26.563561324015588
 20
-37.5
 30
0.0
 10
71
 20
-37.5
 30
0.0
 10
72.03527618041008
 20
-37.36370330515627
 30
0.0
 10
73
 20
-36.96410161513776
 30
0.0
 10
73.82842712474618
 20
-36.32842712474619
 30
0.0
 10
74.46410161513775
 20
-35.5
 30
0.0
 10
74.86370330515628
 20
-34.53527618041008
 30
0.0
 10
75
 20
-33.5
 30
0.0
 10
75
 20
-26.5
 30
0.0
 10
74.86370330515628
 20
-25.464723819589917
 30
0.0
 10
74.46410161513775
 20
-24.5
 30
0.0
 10
73.82842712474618
 20
-23.67157287525381
 30
0.0
 10
73
 20
-23.035898384862247
 30
0.0
 10
72.03527618041008
 20
-22.636296694843725
 30
0.0
 10
71
 20
-22.500000000000142
 30
0.0
 10
67.5
 20
-22.500000000000004
 30
0.0
 10
66.02842959232179
 20
-22.451825772868578
 30
0.0
 10
64.56316067504883
 20
-22.307509380910734
 30
0.0
 10
63.11046775463711
 20
-22.067668809072682
 30
0.0
 10
61.676571485193286
 20
-21.733331091504038
 30
0.0
 10
60.26761203067886
 20
-21.305927913639877
 30
0.0
 10
58.88962277178548
 20
-20.787289481503954
 30
0.0
 10
57.54850447007247
 20
-20.179636684485487
 30
0.0
 10
56.249999999999986
 20
-19.485571585149863
 30
0.0
 10
54.99966975705895
 20
-18.70806627680727
 30
0.0
 10
53.80286784730378
 20
-17.850450156552785
 30
0.0
 10
52.664719160248445
 20
-16.916395668276987
 30
0.0
 10
51.59009742330267
 20
-15.909902576697311
 30
0.0
 10
50.58360433172301
 20
-14.83528083975155
 30
0.0
 10
49.649549843447204
 20
-13.697132152696215
 30
0.0
 10
48.79193372319273
 20
-12.500330242941043
 30
0.0
 10
48.01442841485013
 20
-11.249999999999993
 30
0.0
 10
47.32036331551451
 20
-9.951495529927533
 30
0.0
 10
46.712710518496046
 20
-8.610377228214517
 30
0.0
 10
46.19407208636012
 20
-7.232387969321135
 30
0.0
 10
45.76666890849596
 20
-5.823428514806718
 30
0.0
 10
45.432331190927314
 20
-4.3895322453628784
 30
0.0
 10
45.19249061908927
 20
-2.9368393249511646
 30
0.0
 10
45.048174227131426
 20
-1.4715704076782146
 30
0.0
 10
45
 20
2.7554552980815448e-15
 30
0.0
 10
45.048174227131426
 20
1.4715704076782201
 30
0.0
 10
45.19249061908927
 20
2.93683932495117
 30
0.0
 10
45.432331190927314
 20
4.389532245362884
 30
0.0
 10
45.766668908495966
 20
5.823428514806723
 30
0.0
 10
46.19407208636012
 20
7.232387969321139
 30
0.0
 10
46.71271051849605
 20
8.610377228214523
 30
0.0
 10
47.32036331551451
 20
9.951495529927538
 30
0.0
 10
48.01442841485013
 20
11.249999999999998
 30
0.0
 10
48.791933723192734
 20
12.500330242941056
 30
0.0
 10
49.64954984344722
 20
13.69713215269622
 30
0.0
 10
50.58360433172301
 20
14.835280839751551
 30
0.0
 10
51.59009742330268
 20
15.90990257669732
 30
0.0
 10
52.66471916024845
 20
16.91639566827699
 30
0.0
 10
53.80286784730379
 20
17.850450156552792
 30
0.0
 10
54.999669757058946
 20
18.708066276807266
 30
0.0
 10
56.25000000000001
 20
19.48557158514987
 30
0.0
 10
57.54850447007247
 20
20.179636684485487
 30
0.0
 10
58.88962277178548
 20
20.787289481503954
 30
0.0
 10
60.26761203067886
 20
21.305927913639877
 30
0.0
 10
61.676571485193286
 20
21.733331091504038
 30
0.0
 10
63.110467754637114
 20
22.067668809072686
 30
0.0
 10
64.56316067504883
 20
22.307509380910734
 30
0.0
 10
66.02842959232179
 20
22.451825772868578
 30
0.0
 10
67.5
 20
22.500000000000007
 30
0.0
 10
71
 20
22.500000000000142
 30
0.0
 10
72.03527618041008
 20
22.63629669484373
 30
0.0
 10
73
 20
23.035898384862247
 30
0.0
 10
73.82842712474618
 20
23.67157287525381
 30
0.0
 10
74.46410161513775
 20
24.5
 30
0.0
 10
74.86370330515628
 20
25.464723819589917
 30
0.0
 10
75
 20
26.5
 30
0.0
 10
75
 20
33.5
 30
0.0
 10
74.86370330515628
 20
34.53527618041008
 30
0.0
 10
74.46410161513775
 20
35.5
 30
0.0
 10
73.82842712474618
 20
36.32842712474619
 30
0.0
 10
73
 20
36.96410161513776
 30
0.0
 10
72.03527618041008
 20
37.36370330515627
 30
0.0
 10
71
 20
37.5
 30
0.0
 10
26.563561324015577
 20
37.5
 30
0.0
 10
26.428941916244323
 20
37.175
 30
0.0
 10
26.166726188957803
 20
36.8332738110422
 30
0.0
 10
25.825
 20
36.57105808375567
 30
0.0
 10
25.427051424419158
 20
36.406222386623035
 30
0.0
 10
25
 20
36.35
 30
0.0
 10
24.572948575580842
 20
36.406222386623035
 30
0.0
 10
24.175
 20
36.57105808375567
 30
0.0
 10
23.833273811042197
 20
36.8332738110422
 30
0.0
 10
23.571058083755677
 20
37.175
 30
0.0
 10
23.436438675984427
 20
37.5
 30
0.0
 10
-23.436438675984423
 20
37.5
 30
0.0
 10
-23.571058083755677
 20
37.175
 30
0.0
 10
-23.833273811042197
 20
36.8332738110422
 30
0.0
 10
-24.175
 20
36.57105808375567
 30
0.0
 10
-24.572948575580842
 20
36.406222386623035
 30
0.0
 10
-25
 20
36.35
 30
0.0
 10
-25.427051424419158
 20
36.406222386623035
 30
0.0
 10
-25.825
 20
36.57105808375567
 30
0.0
 10
-26.166726188957803
 20
36.8332738110422
 30
0.0
 10
-26.428941916244323
 20
37.175
 30
0.0
 10
-26.56356132401558
 20
37.5
 30
0.0
 10
-71
 20
37.5
 30
0.0
 10
-72.03527618041008
 20
37.36370330515627
 30
0.0
 10
-73
 20
36.96410161513776
 30
0.0
 10
-73.82842712474618
 20
36.32842712474619
 30
0.0
 10
-74.46410161513775
 20
35.5
 30
0.0
 10
-74.86370330515628
 20
34.53527618041009
 30
0.0
 10
-75
 20
33.5
 30
0.0
 10
-75
 20
26.5
 30
0.0
 10
-74.86370330515628
 20
25.464723819589917
 30
0.0
 10
-74.46410161513775
 20
24.5
 30
0.0
 10
-73.82842712474618
 20
23.67157287525381
 30
0.0
 10
-73
 20
23.035898384862247
 30
0.0
 10
-72.03527618041008
 20
22.636296694843725
 30
0.0
 10
-71
 20
22.499999999994664
 30
0.0
 10
-67.5
 20
22.500000000000004
 30
0.0
 10
-66.02842959232177
 20
22.451825772868578
 30
0.0
 10
-64.56316067504883
 20
22.307509380910734
 30
0.0
 10
-63.110467754637114
 20
22.067668809072686
 30
0.0
 10
-61.676571485193286
 20
21.733331091504038
 30
0.0
 10
-60.26761203067886
 20
21.305927913639877
 30
0.0
 10
-58.88962277178548
 20
20.78728948150395
 30
0.0
 10
-57.54850447007247
 20
20.179636684485487
 30
0.0
 10
-56.25
 20
19.48557158514987
 30
0.0
 10
-54.999669757058946
 20
18.708066276807266
 30
0.0
 10
-53.80286784730379
 20
17.850450156552792
 30
0.0
 10
-52.66471916024845
 20
16.91639566827699
 30
0.0
 10
-51.59009742330268
 20
15.909902576697318
 30
0.0
 10
-50.58360433172301
 20
14.83528083975155
 30
0.0
 10
-49.649549843447204
 20
13.697132152696215
 30
0.0
 10
-48.79193372319273
 20
12.500330242941049
 30
0.0
 10
-48.01442841485013
 20
11.249999999999998
 30
0.0
 10
-47.32036331551451
 20
9.951495529927527
 30
0.0
 10
-46.71271051849605
 20
8.61037722821452
 30
0.0
 10
-46.19407208636012
 20
7.2323879693211355
 30
0.0
 10
-45.76666890849596
 20
5.823428514806716
 30
0.0
 10
-45.432331190927314
 20
4.3895322453628856
 30
0.0
 10
-45.19249061908927
 20
2.93683932495116
 30
0.0
 10
-45.048174227131426
 20
1.4715704076782188
 30
0.0
 10
-45
 20
0
 30
0.0
 10
-45.048174227131426
 20
-1.471570407678213
 30
0.0
 10
-45.19249061908927
 20
-2.936839324951163
 30
0.0
 10
-45.432331190927314
 20
-4.389532245362896
 30
0.0
 10
-45.76666890849597
 20
-5.823428514806736
 30
0.0
 10
-46.19407208636012
 20
-7.232387969321142
 30
0.0
 10
-46.712710518496046
 20
-8.610377228214515
 30
0.0
 10
-47.32036331551451
 20
-9.951495529927533
 30
0.0
 10
-48.01442841485014
 20
-11.25000000000001
 30
0.0
 10
-48.79193372319274
 20
-12.500330242941066
 30
0.0
 10
-49.64954984344722
 20
-13.69713215269622
 30
0.0
 10
-50.58360433172301
 20
-14.835280839751546
 30
0.0
 10
-51.59009742330269
 20
-15.909902576697323
 30
0.0
 10
-52.664719160248445
 20
-16.916395668276987
 30
0.0
 10
-53.8028678473038
 20
-17.850450156552803
 30
0.0
 10
-54.99966975705896
 20
-18.708066276807273
 30
0.0
 10
-56.25
 20
-19.48557158514987
 30
0.0
 10
-57.54850447007247
 20
-20.17963668448549
 30
0.0
 10
-58.8896227717855
 20
-20.787289481503958
 30
0.0
 10
-60.26761203067887
 20
-21.305927913639877
 30
0.0
 10
-61.67657148519329
 20
-21.733331091504038
 30
0.0
 10
-63.110467754637114
 20
-22.067668809072686
 30
0.0
 10
-64.56316067504885
 20
-22.307509380910737
 30
0.0
 10
-66.0284295923218
 20
-22.45182577286858
 30
0.0
 10
-67.5
 20
-22.500000000000004
 30
0.0
 10
-71
 20
-22.5
 30
0.0
 10
-72.03527618041008
 20
-22.636296694843725
 30
0.0
 10
-73
 20
-23.035898384862247
 30
0.0
 10
-73.82842712474618
 20
-23.67157287525381
 30
0.0
 10
-74.46410161513775
 20
-24.5
 30
0.0
 10
-74.86370330515628
 20
-25.464723819589917
 30
0.0
 10
-75
 20
-26.5
 30
0.0
 10
-75
 20
-33.5
 30
0.0
 10
-74.86370330515628
 20
-34.53527618041008
 30
0.0
 10
-74.46410161513775
 20
-35.5
 30
0.0
 10
-73.82842712474618
 20
-36.32842712474619
 30
0.0
 10
-73
 20
-36.96410161513775
 30
0.0
 10
-72.03527618041008
 20
-37.36370330515627
 30
0.0
 10
-71
 20
-37.5
 30
0.0
  0
LWPOLYLINE
  8
OpenJsCad
  90
25
  70
1
 10
1.5937776133769626
 20
-29.572948575580842
 30
0.0
 10
1.65
 20
-30
 30
0.0
 10
1.5937776133769623
 20
-30.42705142441916
 30
0.0
 10
1.4289419162443233
 20
-30.825
 30
0.0
 10
1.1667261889578031
 20
-31.166726188957803
 30
0.0
 10
0.8250000000000002
 20
-31.428941916244323
 30
0.0
 10
0.42705142441915844
 20
-31.593777613376965
 30
0.0
 10
-3.031000827889699e-16
 20
-31.65
 30
0.0
 10
-0.427051424419159
 20
-31.59377761337696
 30
0.0
 10
-0.8250000000000007
 20
-31.428941916244323
 30
0.0
 10
-1.166726188957804
 20
-31.166726188957803
 30
0.0
 10
-1.428941916244324
 20
-30.825
 30
0.0
 10
-1.5937776133769626
 20
-30.427051424419158
 30
0.0
 10
-1.65
 20
-30
 30
0.0
 10
-1.5937776133769626
 20
-29.572948575580842
 30
0.0
 10
-1.4289419162443238
 20
-29.175
 30
0.0
 10
-1.1667261889578033
 20
-28.833273811042197
 30
0.0
 10
-0.8249999999999996
 20
-28.571058083755677
 30
0.0
 10
-0.427051424419159
 20
-28.40622238662304
 30
0.0
 10
1.0103336092965664e-16
 20
-28.35
 30
0.0
 10
0.4270514244191592
 20
-28.40622238662304
 30
0.0
 10
0.8250000000000002
 20
-28.571058083755677
 30
0.0
 10
1.1667261889578033
 20
-28.833273811042197
 30
0.0
 10
1.4289419162443238
 20
-29.175
 30
0.0
 10
1.5937776133769626
 20
-29.572948575580842
 30
0.0
  0
LWPOLYLINE
  8
OpenJsCad
  90
25
  70
1
 10
-65.90622238662304
 20
-29.572948575580842
 30
0.0
 10
-65.85
 20
-30
 30
0.0
 10
-65.90622238662304
 20
-30.42705142441916
 30
0.0
 10
-66.07105808375567
 20
-30.825
 30
0.0
 10
-66.33327381104219
 20
-31.166726188957803
 30
0.0
 10
-66.675
 20
-31.428941916244323
 30
0.0
 10
-67.07294857558084
 20
-31.593777613376965
 30
0.0
 10
-67.5
 20
-31.65
 30
0.0
 10
-67.92705142441916
 20
-31.59377761337696
 30
0.0
 10
-68.325
 20
-31.428941916244323
 30
0.0
 10
-68.66672618895781
 20
-31.166726188957803
 30
0.0
 10
-68.92894191624433
 20
-30.825
 30
0.0
 10
-69.09377761337696
 20
-30.427051424419158
 30
0.0
 10
-69.15
 20
-30
 30
0.0
 10
-69.09377761337696
 20
-29.572948575580842
 30
0.0
 10
-68.92894191624433
 20
-29.175
 30
0.0
 10
-68.66672618895781
 20
-28.833273811042197
 30
0.0
 10
-68.325
 20
-28.571058083755677
 30
0.0
 10
-67.92705142441916
 20
-28.40622238662304
 30
0.0
 10
-67.5
 20
-28.35
 30
0.0
 10
-67.07294857558084
 20
-28.40622238662304
 30
0.0
 10
-66.675
 20
-28.571058083755677
 30
0.0
 10
-66.33327381104219
 20
-28.833273811042197
 30
0.0
 10
-66.07105808375567
 20
-29.175
 30
0.0
 10
-65.90622238662304
 20
-29.572948575580842
 30
0.0
  0
LWPOLYLINE
  8
OpenJsCad
  90
25
  70
1
 10
-32.156222386623035
 20
-29.572948575580842
 30
0.0
 10
-32.1
 20
-30
 30
0.0
 10
-32.156222386623035
 20
-30.42705142441916
 30
0.0
 10
-32.32105808375567
 20
-30.825
 30
0.0
 10
-32.5832738110422
 20
-31.166726188957803
 30
0.0
 10
-32.925
 20
-31.428941916244323
 30
0.0
 10
-33.32294857558084
 20
-31.593777613376965
 30
0.0
 10
-33.75
 20
-31.65
 30
0.0
 10
-34.17705142441916
 20
-31.59377761337696
 30
0.0
 10
-34.575
 20
-31.428941916244323
 30
0.0
 10
-34.9167261889578
 20
-31.166726188957803
 30
0.0
 10
-35.17894191624433
 20
-30.825
 30
0.0
 10
-35.343777613376965
 20
-30.427051424419158
 30
0.0
 10
-35.4
 20
-30
 30
0.0
 10
-35.343777613376965
 20
-29.572948575580842
 30
0.0
 10
-35.17894191624433
 20
-29.175
 30
0.0
 10
-34.9167261889578
 20
-28.833273811042197
 30
0.0
 10
-34.575
 20
-28.571058083755677
 30
0.0
 10
-34.17705142441916
 20
-28.40622238662304
 30
0.0
 10
-33.75
 20
-28.35
 30
0.0
 10
-33.32294857558084
 20
-28.40622238662304
 30
0.0
 10
-32.925
 20
-28.571058083755677
 30
0.0
 10
-32.5832738110422
 20
-28.833273811042197
 30
0.0
 10
-32.32105808375567
 20
-29.175
 30
0.0
 10
-32.156222386623035
 20
-29.572948575580842
 30
0.0
  0
LWPOLYLINE
  8
OpenJsCad
  90
25
  70
1
 10
69.09377761337696
 20
-29.572948575580842
 30
0.0
 10
69.15
 20
-30
 30
0.0
 10
69.09377761337696
 20
-30.42705142441916
 30
0.0
 10
68.92894191624433
 20
-30.825
 30
0.0
 10
68.66672618895781
 20
-31.166726188957803
 30
0.0
 10
68.325
 20
-31.428941916244323
 30
0.0
 10
67.92705142441916
 20
-31.593777613376965
 30
0.0
 10
67.5
 20
-31.65
 30
0.0
 10
67.07294857558084
 20
-31.59377761337696
 30
0.0
 10
66.675
 20
-31.428941916244323
 30
0.0
 10
66.33327381104219
 20
-31.166726188957803
 30
0.0
 10
66.07105808375567
 20
-30.825
 30
0.0
 10
65.90622238662304
 20
-30.427051424419158
 30
0.0
 10
65.85
 20
-30
 30
0.0
 10
65.90622238662304
 20
-29.572948575580842
 30
0.0
 10
66.07105808375567
 20
-29.175
 30
0.0
 10
66.33327381104219
 20
-28.833273811042197
 30
0.0
 10
66.675
 20
-28.571058083755677
 30
0.0
 10
67.07294857558084
 20
-28.40622238662304
 30
0.0
 10
67.5
 20
-28.35
 30
0.0
 10
67.92705142441916
 20
-28.40622238662304
 30
0.0
 10
68.325
 20
-28.571058083755677
 30
0.0
 10
68.66672618895781
 20
-28.833273811042197
 30
0.0
 10
68.92894191624433
 20
-29.175
 30
0.0
 10
69.09377761337696
 20
-29.572948575580842
 30
0.0
  0
LWPOLYLINE
  8
OpenJsCad
  90
25
  70
1
 10
35.343777613376965
 20
-29.572948575580842
 30
0.0
 10
35.4
 20
-30
 30
0.0
 10
35.343777613376965
 20
-30.42705142441916
 30
0.0
 10
35.17894191624433
 20
-30.825
 30
0.0
 10
34.9167261889578
 20
-31.166726188957803
 30
0.0
 10
34.575
 20
-31.428941916244323
 30
0.0
 10
34.17705142441916
 20
-31.593777613376965
 30
0.0
 10
33.75
 20
-31.65
 30
0.0
 10
33.32294857558084
 20
-31.59377761337696
 30
0.0
 10
32.925
 20
-31.428941916244323
 30
0.0
 10
32.5832738110422
 20
-31.166726188957803
 30
0.0
 10
32.32105808375567
 20
-30.825
 30
0.0
 10
32.156222386623035
 20
-30.427051424419158
 30
0.0
 10
32.1
 20
-30
 30
0.0
 10
32.156222386623035
 20
-29.572948575580842
 30
0.0
 10
32.32105808375567
 20
-29.175
 30
0.0
 10
32.5832738110422
 20
-28.833273811042197
 30
0.0
 10
32.925
 20
-28.571058083755677
 30
0.0
 10
33.32294857558084
 20
-28.40622238662304
 30
0.0
 10
33.75
 20
-28.35
 30
0.0
 10
34.17705142441916
 20
-28.40622238662304
 30
0.0
 10
34.575
 20
-28.571058083755677
 30
0.0
 10
34.9167261889578
 20
-28.833273811042197
 30
0.0
 10
35.17894191624433
 20
-29.175
 30
0.0
 10
35.343777613376965
 20
-29.572948575580842
 30
0.0
  0
LWPOLYLINE
  8
OpenJsCad
  90
25
  70
1
 10
1.5937776133769626
 20
30.427051424419158
 30
0.0
 10
1.65
 20
30
 30
0.0
 10
1.5937776133769623
 20
29.57294857558084
 30
0.0
 10
1.4289419162443233
 20
29.175
 30
0.0
 10
1.1667261889578031
 20
28.833273811042197
 30
0.0
 10
0.8250000000000002
 20
28.571058083755677
 30
0.0
 10
0.42705142441915844
 20
28.406222386623035
 30
0.0
 10
-3.031000827889699e-16
 20
28.35
 30
0.0
 10
-0.427051424419159
 20
28.40622238662304
 30
0.0
 10
-0.8250000000000007
 20
28.571058083755677
 30
0.0
 10
-1.166726188957804
 20
28.833273811042197
 30
0.0
 10
-1.428941916244324
 20
29.175
 30
0.0
 10
-1.5937776133769626
 20
29.572948575580842
 30
0.0
 10
-1.65
 20
30
 30
0.0
 10
-1.5937776133769626
 20
30.427051424419158
 30
0.0
 10
-1.4289419162443238
 20
30.825
 30
0.0
 10
-1.1667261889578033
 20
31.166726188957803
 30
0.0
 10
-0.8249999999999996
 20
31.428941916244323
 30
0.0
 10
-0.427051424419159
 20
31.59377761337696
 30
0.0
 10
1.0103336092965664e-16
 20
31.65
 30
0.0
 10
0.4270514244191592
 20
31.59377761337696
 30
0.0
 10
0.8250000000000002
 20
31.428941916244323
 30
0.0
 10
1.1667261889578033
 20
31.166726188957803
 30
0.0
 10
1.4289419162443238
 20
30.825
 30
0.0
 10
1.5937776133769626
 20
30.427051424419158
 30
0.0
  0
LWPOLYLINE
  8
OpenJsCad
  90
25
  70
1
 10
-65.90622238662304
 20
30.427051424419158
 30
0.0
 10
-65.85
 20
30
 30
0.0
 10
-65.90622238662304
 20
29.57294857558084
 30
0.0
 10
-66.07105808375567
 20
29.175
 30
0.0
 10
-66.33327381104219
 20
28.833273811042197
 30
0.0
 10
-66.675
 20
28.571058083755677
 30
0.0
 10
-67.07294857558084
 20
28.406222386623035
 30
0.0
 10
-67.5
 20
28.35
 30
0.0
 10
-67.92705142441916
 20
28.40622238662304
 30
0.0
 10
-68.325
 20
28.571058083755677
 30
0.0
 10
-68.66672618895781
 20
28.833273811042197
 30
0.0
 10
-68.92894191624433
 20
29.175
 30
0.0
 10
-69.09377761337696
 20
29.572948575580842
 30
0.0
 10
-69.15
 20
30
 30
0.0
 10
-69.09377761337696
 20
30.427051424419158
 30
0.0
 10
-68.92894191624433
 20
30.825
 30
0.0
 10
-68.66672618895781
 20
31.166726188957803
 30
0.0
 10
-68.325
 20
31.428941916244323
 30
0.0
 10
-67.92705142441916
 20
31.59377761337696
 30
0.0
 10
-67.5
 20
31.65
 30
0.0
 10
-67.07294857558084
 20
31.59377761337696
 30
0.0
 10
-66.675
 20
31.428941916244323
 30
0.0
 10
-66.33327381104219
 20
31.166726188957803
 30
0.0
 10
-66.07105808375567
 20
30.825
 30
0.0
 10
-65.90622238662304
 20
30.427051424419158
 30
0.0
  0
LWPOLYLINE
  8
OpenJsCad
  90
25
  70
1
 10
-32.156222386623035
 20
30.427051424419158
 30
0.0
 10
-32.1
 20
30
 30
0.0
 10
-32.156222386623035
 20
29.57294857558084
 30
0.0
 10
-32.32105808375567
 20
29.175
 30
0.0
 10
-32.5832738110422
 20
28.833273811042197
 30
0.0
 10
-32.925
 20
28.571058083755677
 30
0.0
 10
-33.32294857558084
 20
28.406222386623035
 30
0.0
 10
-33.75
 20
28.35
 30
0.0
 10
-34.17705142441916
 20
28.40622238662304
 30
0.0
 10
-34.575
 20
28.571058083755677
 30
0.0
 10
-34.9167261889578
 20
28.833273811042197
 30
0.0
 10
-35.17894191624433
 20
29.175
 30
0.0
 10
-35.343777613376965
 20
29.572948575580842
 30
0.0
 10
-35.4
 20
30
 30
0.0
 10
-35.343777613376965
 20
30.427051424419158
 30
0.0
 10
-35.17894191624433
 20
30.825
 30
0.0
 10
-34.9167261889578
 20
31.166726188957803
 30
0.0
 10
-34.575
 20
31.428941916244323
 30
0.0
 10
-34.17705142441916
 20
31.59377761337696
 30
0.0
 10
-33.75
 20
31.65
 30
0.0
 10
-33.32294857558084
 20
31.59377761337696
 30
0.0
 10
-32.925
 20
31.428941916244323
 30
0.0
 10
-32.5832738110422
 20
31.166726188957803
 30
0.0
 10
-32.32105808375567
 20
30.825
 30
0.0
 10
-32.156222386623035
 20
30.427051424419158
 30
0.0
  0
LWPOLYLINE
  8
OpenJsCad
  90
25
  70
1
 10
69.09377761337696
 20
30.427051424419158
 30
0.0
 10
69.15
 20
30
 30
0.0
 10
69.09377761337696
 20
29.57294857558084
 30
0.0
 10
68.92894191624433
 20
29.175
 30
0.0
 10
68.66672618895781
 20
28.833273811042197
 30
0.0
 10
68.325
 20
28.571058083755677
 30
0.0
 10
67.92705142441916
 20
28.406222386623035
 30
0.0
 10
67.5
 20
28.35
 30
0.0
 10
67.07294857558084
 20
28.40622238662304
 30
0.0
 10
66.675
 20
28.571058083755677
 30
0.0
 10
66.33327381104219
 20
28.833273811042197
 30
0.0
 10
66.07105808375567
 20
29.175
 30
0.0
 10
65.90622238662304
 20
29.572948575580842
 30
0.0
 10
65.85
 20
30
 30
0.0
 10
65.90622238662304
 20
30.427051424419158
 30
0.0
 10
66.07105808375567
 20
30.825
 30
0.0
 10
66.33327381104219
 20
31.166726188957803
 30
0.0
 10
66.675
 20
31.428941916244323
 30
0.0
 10
67.07294857558084
 20
31.59377761337696
 30
0.0
 10
67.5
 20
31.65
 30
0.0
 10
67.92705142441916
 20
31.59377761337696
 30
0.0
 10
68.325
 20
31.428941916244323
 30
0.0
 10
68.66672618895781
 20
31.166726188957803
 30
0.0
 10
68.92894191624433
 20
30.825
 30
0.0
 10
69.09377761337696
 20
30.427051424419158
 30
0.0
  0
LWPOLYLINE
  8
OpenJsCad
  90
25
  70
1
 10
35.343777613376965
 20
30.427051424419158
 30
0.0
 10
35.4
 20
30
 30
0.0
 10
35.343777613376965
 20
29.57294857558084
 30
0.0
 10
35.17894191624433
 20
29.175
 30
0.0
 10
34.9167261889578
 20
28.833273811042197
 30
0.0
 10
34.575
 20
28.571058083755677
 30
0.0
 10
34.17705142441916
 20
28.406222386623035
 30
0.0
 10
33.75
 20
28.35
 30
0.0
 10
33.32294857558084
 20
28.40622238662304
 30
0.0
 10
32.925
 20
28.571058083755677
 30
0.0
 10
32.5832738110422
 20
28.833273811042197
 30
0.0
 10
32.32105808375567
 20
29.175
 30
0.0
 10
32.156222386623035
 20
29.572948575580842
 30
0.0
 10
32.1
 20
30
 30
0.0
 10
32.156222386623035
 20
30.427051424419158
 30
0.0
 10
32.32105808375567
 20
30.825
 30
0.0
 10
32.5832738110422
 20
31.166726188957803
 30
0.0
 10
32.925
 20
31.428941916244323
 30
0.0
 10
33.32294857558084
 20
31.59377761337696
 30
0.0
 10
33.75
 20
31.65
 30
0.0
 10
34.17705142441916
 20
31.59377761337696
 30
0.0
 10
34.575
 20
31.428941916244323
 30
0.0
 10
34.9167261889578
 20
31.166726188957803
 30
0.0
 10
35.17894191624433
 20
30.825
 30
0.0
 10
35.343777613376965
 20
30.427051424419158
 30
0.0
  0
LWPOLYLINE
  8
OpenJsCad
  90
49
  70
1
 10
10.905893475111915
 20
1.4357881144205673
 30
0.0
 10
11
 20
0
 30
0.0
 10
10.905893475111915
 20
-1.4357881144205686
 30
0.0
 10
10.625184089179749
 20
-2.8470094961277375
 30
0.0
 10
10.162674857624156
 20
-4.209517756015985
 30
0.0
 10
9.526279441628823
 20
-5.500000000000005
 30
0.0
 10
8.726886743203584
 20
-6.696375719095929
 30
0.0
 10
7.778174593052021
 20
-7.778174593052024
 30
0.0
 10
6.6963757190959186
 20
-8.726886743203593
 30
0.0
 10
5.500000000000001
 20
-9.526279441628825
 30
0.0
 10
4.20951775601598
 20
-10.162674857624157
 30
0.0
 10
2.8470094961277232
 20
-10.625184089179752
 30
0.0
 10
1.435788114420564
 20
-10.905893475111915
 30
0.0
 10
-2.0206672185931327e-15
 20
-11
 30
0.0
 10
-1.435788114420568
 20
-10.905893475111915
 30
0.0
 10
-2.847009496127727
 20
-10.62518408917975
 30
0.0
 10
-4.209517756015985
 20
-10.162674857624156
 30
0.0
 10
-5.500000000000005
 20
-9.526279441628823
 30
0.0
 10
-6.696375719095929
 20
-8.726886743203584
 30
0.0
 10
-7.778174593052027
 20
-7.778174593052018
 30
0.0
 10
-8.726886743203586
 20
-6.696375719095927
 30
0.0
 10
-9.526279441628827
 20
-5.499999999999997
 30
0.0
 10
-10.162674857624156
 20
-4.209517756015987
 30
0.0
 10
-10.62518408917975
 20
-2.8470094961277286
 30
0.0
 10
-10.905893475111915
 20
-1.4357881144205695
 30
0.0
 10
-11
 20
1.3471114790620886e-15
 30
0.0
 10
-10.905893475111915
 20
1.435788114420572
 30
0.0
 10
-10.62518408917975
 20
2.8470094961277312
 30
0.0
 10
-10.162674857624154
 20
4.209517756015988
 30
0.0
 10
-9.526279441628827
 20
5.499999999999999
 30
0.0
 10
-8.726886743203584
 20
6.696375719095929
 30
0.0
 10
-7.778174593052022
 20
7.778174593052023
 30
0.0
 10
-6.696375719095927
 20
8.726886743203586
 30
0.0
 10
-5.499999999999997
 20
9.526279441628827
 30
0.0
 10
-4.209517756015985
 20
10.162674857624156
 30
0.0
 10
-2.847009496127727
 20
10.62518408917975
 30
0.0
 10
-1.4357881144205675
 20
10.905893475111915
 30
0.0
 10
6.735557395310443e-16
 20
11
 30
0.0
 10
1.4357881144205689
 20
10.905893475111915
 30
0.0
 10
2.847009496127728
 20
10.62518408917975
 30
0.0
 10
4.209517756015988
 20
10.162674857624154
 30
0.0
 10
5.500000000000001
 20
9.526279441628825
 30
0.0
 10
6.696375719095927
 20
8.726886743203586
 30
0.0
 10
7.778174593052023
 20
7.778174593052022
 30
0.0
 10
8.726886743203586
 20
6.696375719095927
 30
0.0
 10
9.526279441628827
 20
5.499999999999999
 30
0.0
 10
10.162674857624154
 20
4.2095177560159875
 30
0.0
 10
10.62518408917975
 20
2.847009496127728
 30
0.0
 10
10.905893475111915
 20
1.4357881144205673
 30
0.0
  0
LWPOLYLINE
  8
OpenJsCad
  90
25
  70
1
 10
-13.906222386623037
 20
-15.07294857558084
 30
0.0
 10
-13.85
 20
-15.5
 30
0.0
 10
-13.906222386623037
 20
-15.92705142441916
 30
0.0
 10
-14.071058083755677
 20
-16.325
 30
0.0
 10
-14.333273811042197
 20
-16.666726188957803
 30
0.0
 10
-14.675
 20
-16.928941916244323
 30
0.0
 10
-15.072948575580842
 20
-17.093777613376965
 30
0.0
 10
-15.5
 20
-17.15
 30
0.0
 10
-15.927051424419158
 20
-17.09377761337696
 30
0.0
 10
-16.325
 20
-16.928941916244323
 30
0.0
 10
-16.666726188957803
 20
-16.666726188957803
 30
0.0
 10
-16.928941916244323
 20
-16.325
 30
0.0
 10
-17.09377761337696
 20
-15.92705142441916
 30
0.0
 10
-17.15
 20
-15.5
 30
0.0
 10
-17.09377761337696
 20
-15.07294857558084
 30
0.0
 10
-16.928941916244323
 20
-14.675
 30
0.0
 10
-16.666726188957803
 20
-14.333273811042197
 30
0.0
 10
-16.325
 20
-14.071058083755677
 30
0.0
 10
-15.927051424419158
 20
-13.906222386623037
 30
0.0
 10
-15.5
 20
-13.85
 30
0.0
 10
-15.07294857558084
 20
-13.906222386623037
 30
0.0
 10
-14.675
 20
-14.071058083755677
 30
0.0
 10
-14.333273811042197
 20
-14.333273811042197
 30
0.0
 10
-14.071058083755677
 20
-14.675
 30
0.0
 10
-13.906222386623037
 20
-15.07294857558084
 30
0.0
  0
LWPOLYLINE
  8
OpenJsCad
  90
25
  70
1
 10
-13.906222386623037
 20
15.92705142441916
 30
0.0
 10
-13.85
 20
15.5
 30
0.0
 10
-13.906222386623037
 20
15.07294857558084
 30
0.0
 10
-14.071058083755677
 20
14.674999999999999
 30
0.0
 10
-14.333273811042197
 20
14.333273811042197
 30
0.0
 10
-14.675
 20
14.071058083755677
 30
0.0
 10
-15.072948575580842
 20
13.906222386623037
 30
0.0
 10
-15.5
 20
13.85
 30
0.0
 10
-15.927051424419158
 20
13.906222386623037
 30
0.0
 10
-16.325
 20
14.071058083755677
 30
0.0
 10
-16.666726188957803
 20
14.333273811042197
 30
0.0
 10
-16.928941916244323
 20
14.675
 30
0.0
 10
-17.09377761337696
 20
15.07294857558084
 30
0.0
 10
-17.15
 20
15.5
 30
0.0
 10
-17.09377761337696
 20
15.92705142441916
 30
0.0
 10
-16.928941916244323
 20
16.325
 30
0.0
 10
-16.666726188957803
 20
16.666726188957803
 30
0.0
 10
-16.325
 20
16.928941916244323
 30
0.0
 10
-15.927051424419158
 20
17.09377761337696
 30
0.0
 10
-15.5
 20
17.15
 30
0.0
 10
-15.07294857558084
 20
17.09377761337696
 30
0.0
 10
-14.675
 20
16.928941916244323
 30
0.0
 10
-14.333273811042197
 20
16.666726188957803
 30
0.0
 10
-14.071058083755677
 20
16.325
 30
0.0
 10
-13.906222386623037
 20
15.92705142441916
 30
0.0
  0
LWPOLYLINE
  8
OpenJsCad
  90
25
  70
1
 10
17.09377761337696
 20
-15.07294857558084
 30
0.0
 10
17.15
 20
-15.5
 30
0.0
 10
17.09377761337696
 20
-15.92705142441916
 30
0.0
 10
16.928941916244323
 20
-16.325
 30
0.0
 10
16.666726188957803
 20
-16.666726188957803
 30
0.0
 10
16.325
 20
-16.928941916244323
 30
0.0
 10
15.927051424419158
 20
-17.093777613376965
 30
0.0
 10
15.5
 20
-17.15
 30
0.0
 10
15.072948575580842
 20
-17.09377761337696
 30
0.0
 10
14.674999999999999
 20
-16.928941916244323
 30
0.0
 10
14.333273811042195
 20
-16.666726188957803
 30
0.0
 10
14.071058083755677
 20
-16.325
 30
0.0
 10
13.906222386623037
 20
-15.92705142441916
 30
0.0
 10
13.85
 20
-15.5
 30
0.0
 10
13.906222386623037
 20
-15.07294857558084
 30
0.0
 10
14.071058083755677
 20
-14.675
 30
0.0
 10
14.333273811042197
 20
-14.333273811042197
 30
0.0
 10
14.675
 20
-14.071058083755677
 30
0.0
 10
15.072948575580842
 20
-13.906222386623037
 30
0.0
 10
15.5
 20
-13.85
 30
0.0
 10
15.92705142441916
 20
-13.906222386623037
 30
0.0
 10
16.325
 20
-14.071058083755677
 30
0.0
 10
16.666726188957803
 20
-14.333273811042197
 30
0.0
 10
16.928941916244323
 20
-14.675
 30
0.0
 10
17.09377761337696
 20
-15.07294857558084
 30
0.0
  0
LWPOLYLINE
  8
OpenJsCad
  90
25
  70
1
 10
17.09377761337696
 20
15.92705142441916
 30
0.0
 10
17.15
 20
15.5
 30
0.0
 10
17.09377761337696
 20
15.07294857558084
 30
0.0
 10
16.928941916244323
 20
14.674999999999999
 30
0.0
 10
16.666726188957803
 20
14.333273811042197
 30
0.0
 10
16.325
 20
14.071058083755677
 30
0.0
 10
15.927051424419158
 20
13.906222386623037
 30
0.0
 10
15.5
 20
13.85
 30
0.0
 10
15.072948575580842
 20
13.906222386623037
 30
0.0
 10
14.674999999999999
 20
14.071058083755677
 30
0.0
 10
14.333273811042195
 20
14.333273811042197
 30
0.0
 10
14.071058083755677
 20
14.675
 30
0.0
 10
13.906222386623037
 20
15.07294857558084
 30
0.0
 10
13.85
 20
15.5
 30
0.0
 10
13.906222386623037
 20
15.92705142441916
 30
0.0
 10
14.071058083755677
 20
16.325
 30
0.0
 10
14.333273811042197
 20
16.666726188957803
 30
0.0
 10
14.675
 20
16.928941916244323
 30
0.0
 10
15.072948575580842
 20
17.09377761337696
 30
0.0
 10
15.5
 20
17.15
 30
0.0
 10
15.92705142441916
 20
17.09377761337696
 30
0.0
 10
16.325
 20
16.928941916244323
 30
0.0
 10
16.666726188957803
 20
16.666726188957803
 30
0.0
 10
16.928941916244323
 20
16.325
 30
0.0
 10
17.09377761337696
 20
15.92705142441916
 30
0.0
  0
ENDSEC
  0
EOF
