999
DXF generated by OpenJsCad
  0
SECTION
  2
HEADER
  0
ENDSEC
  0
SECTION
  2
TABLES
  0
TABLE
  2
LTYPE
  70
1
  0
LTYPE
  2
CONTINUOUS
  3
Solid Line
  72
65
  73
0
  40
0.0
  0
ENDTAB
  0
TABLE
  2
LAYER
  70
1
  0
LAYER
  2
OpenJsCad
  62
7
  6
continuous
  0
ENDTAB
  0
TABLE
  2
STYLE
  70
0
  0
ENDTAB
  0
TABLE
  2
VIEW
  70
0
  0
ENDTAB
  0
ENDSEC
  0
SECTION
  2
BLOCKS
  0
ENDSEC
  0
SECTION
  2
ENTITIES
  0
LWPOLYLINE
  8
OpenJsCad
  90
107
  70
1
 10
-71
 20
-37.5
 30
0.0
 10
71
 20
-37.5
 30
0.0
 10
72.03527618041008
 20
-37.36370330515627
 30
0.0
 10
73
 20
-36.96410161513776
 30
0.0
 10
73.82842712474618
 20
-36.32842712474619
 30
0.0
 10
74.46410161513775
 20
-35.5
 30
0.0
 10
74.86370330515628
 20
-34.53527618041008
 30
0.0
 10
75
 20
-33.5
 30
0.0
 10
75
 20
-26.5
 30
0.0
 10
74.86370330515628
 20
-25.464723819589917
 30
0.0
 10
74.46410161513775
 20
-24.5
 30
0.0
 10
73.82842712474618
 20
-23.67157287525381
 30
0.0
 10
73
 20
-23.035898384862247
 30
0.0
 10
72.03527618041008
 20
-22.636296694843725
 30
0.0
 10
71
 20
-22.5
 30
0.0
 10
67.5
 20
-22.5
 30
0.0
 10
64.56316067504883
 20
-22.307509380910734
 30
0.0
 10
61.676571485193286
 20
-21.733331091504038
 30
0.0
 10
58.88962277178548
 20
-20.787289481503954
 30
0.0
 10
56.249999999999986
 20
-19.485571585149863
 30
0.0
 10
53.80286784730378
 20
-17.850450156552785
 30
0.0
 10
51.59009742330267
 20
-15.909902576697311
 30
0.0
 10
49.649549843447204
 20
-13.697132152696215
 30
0.0
 10
48.01442841485013
 20
-11.249999999999993
 30
0.0
 10
46.712710518496046
 20
-8.610377228214517
 30
0.0
 10
45.76666890849596
 20
-5.823428514806718
 30
0.0
 10
45.19249061908927
 20
-2.9368393249511646
 30
0.0
 10
45
 20
2.7554552980815448e-15
 30
0.0
 10
45.19249061908927
 20
2.93683932495117
 30
0.0
 10
45.766668908495966
 20
5.823428514806723
 30
0.0
 10
46.71271051849605
 20
8.610377228214523
 30
0.0
 10
48.01442841485013
 20
11.249999999999998
 30
0.0
 10
49.64954984344722
 20
13.69713215269622
 30
0.0
 10
51.59009742330268
 20
15.90990257669732
 30
0.0
 10
53.80286784730379
 20
17.850450156552792
 30
0.0
 10
56.25000000000001
 20
19.48557158514987
 30
0.0
 10
58.88962277178548
 20
20.787289481503954
 30
0.0
 10
61.676571485193286
 20
21.733331091504038
 30
0.0
 10
64.56316067504883
 20
22.307509380910734
 30
0.0
 10
67.5
 20
22.5
 30
0.0
 10
71
 20
22.5
 30
0.0
 10
72.03527618041008
 20
22.63629669484373
 30
0.0
 10
73
 20
23.035898384862247
 30
0.0
 10
73.82842712474618
 20
23.67157287525381
 30
0.0
 10
74.46410161513775
 20
24.5
 30
0.0
 10
74.86370330515628
 20
25.464723819589917
 30
0.0
 10
75
 20
26.5
 30
0.0
 10
75
 20
33.5
 30
0.0
 10
74.86370330515628
 20
34.53527618041008
 30
0.0
 10
74.46410161513775
 20
35.5
 30
0.0
 10
73.82842712474618
 20
36.32842712474619
 30
0.0
 10
73
 20
36.96410161513776
 30
0.0
 10
72.03527618041008
 20
37.36370330515627
 30
0.0
 10
71
 20
37.5
 30
0.0
 10
-71
 20
37.5
 30
0.0
 10
-72.03527618041008
 20
37.36370330515627
 30
0.0
 10
-73
 20
36.96410161513776
 30
0.0
 10
-73.82842712474618
 20
36.32842712474619
 30
0.0
 10
-74.46410161513775
 20
35.5
 30
0.0
 10
-74.86370330515628
 20
34.53527618041009
 30
0.0
 10
-75
 20
33.5
 30
0.0
 10
-75
 20
26.5
 30
0.0
 10
-74.86370330515628
 20
25.464723819589917
 30
0.0
 10
-74.46410161513775
 20
24.5
 30
0.0
 10
-73.82842712474618
 20
23.67157287525381
 30
0.0
 10
-73
 20
23.035898384862247
 30
0.0
 10
-72.03527618041008
 20
22.636296694843725
 30
0.0
 10
-71
 20
22.5
 30
0.0
 10
-67.5
 20
22.5
 30
0.0
 10
-64.56316067504883
 20
22.307509380910734
 30
0.0
 10
-61.676571485193286
 20
21.733331091504038
 30
0.0
 10
-58.88962277178548
 20
20.78728948150395
 30
0.0
 10
-56.25
 20
19.48557158514987
 30
0.0
 10
-53.80286784730379
 20
17.850450156552792
 30
0.0
 10
-51.59009742330268
 20
15.909902576697318
 30
0.0
 10
-49.649549843447204
 20
13.697132152696215
 30
0.0
 10
-48.01442841485013
 20
11.249999999999998
 30
0.0
 10
-46.71271051849605
 20
8.61037722821452
 30
0.0
 10
-45.76666890849596
 20
5.823428514806716
 30
0.0
 10
-45.19249061908927
 20
2.93683932495116
 30
0.0
 10
-45
 20
0
 30
0.0
 10
-45.19249061908927
 20
-2.936839324951163
 30
0.0
 10
-45.76666890849597
 20
-5.823428514806736
 30
0.0
 10
-46.712710518496046
 20
-8.610377228214515
 30
0.0
 10
-48.01442841485014
 20
-11.25000000000001
 30
0.0
 10
-49.64954984344722
 20
-13.69713215269622
 30
0.0
 10
-51.59009742330269
 20
-15.909902576697323
 30
0.0
 10
-53.8028678473038
 20
-17.850450156552803
 30
0.0
 10
-56.25
 20
-19.48557158514987
 30
0.0
 10
-58.8896227717855
 20
-20.787289481503958
 30
0.0
 10
-61.67657148519329
 20
-21.733331091504038
 30
0.0
 10
-64.56316067504885
 20
-22.307509380910737
 30
0.0
 10
-67.5
 20
-22.5
 30
0.0
 10
-71
 20
-22.5
 30
0.0
 10
-72.03527618041008
 20
-22.636296694843725
 30
0.0
 10
-73
 20
-23.035898384862247
 30
0.0
 10
-73.82842712474618
 20
-23.67157287525381
 30
0.0
 10
-74.46410161513775
 20
-24.5
 30
0.0
 10
-74.86370330515628
 20
-25.464723819589917
 30
0.0
 10
-75
 20
-26.5
 30
0.0
 10
-75
 20
-33.5
 30
0.0
 10
-74.86370330515628
 20
-34.53527618041008
 30
0.0
 10
-74.46410161513775
 20
-35.5
 30
0.0
 10
-73.82842712474618
 20
-36.32842712474619
 30
0.0
 10
-73
 20
-36.96410161513775
 30
0.0
 10
-72.03527618041008
 20
-37.36370330515627
 30
0.0
 10
-71
 20
-37.5
 30
0.0
  0
LWPOLYLINE
  8
OpenJsCad
  90
25
  70
1
 10
1.4488887394336025
 20
-29.61177143234622
 30
0.0
 10
1.5
 20
-30
 30
0.0
 10
1.448888739433602
 20
-30.388228567653783
 30
0.0
 10
1.2990381056766576
 20
-30.75
 30
0.0
 10
1.060660171779821
 20
-31.060660171779823
 30
0.0
 10
0.7500000000000002
 20
-31.299038105676658
 30
0.0
 10
0.38822856765378044
 20
-31.448888739433603
 30
0.0
 10
-2.755455298081545e-16
 20
-31.5
 30
0.0
 10
-0.38822856765378094
 20
-31.448888739433603
 30
0.0
 10
-0.7500000000000007
 20
-31.299038105676658
 30
0.0
 10
-1.0606601717798219
 20
-31.06066017177982
 30
0.0
 10
-1.2990381056766582
 20
-30.75
 30
0.0
 10
-1.4488887394336025
 20
-30.38822856765378
 30
0.0
 10
-1.5
 20
-30
 30
0.0
 10
-1.4488887394336023
 20
-29.611771432346217
 30
0.0
 10
-1.299038105676658
 20
-29.25
 30
0.0
 10
-1.0606601717798212
 20
-28.939339828220177
 30
0.0
 10
-0.7499999999999997
 20
-28.700961894323342
 30
0.0
 10
-0.38822856765378094
 20
-28.551111260566397
 30
0.0
 10
9.184850993605148e-17
 20
-28.5
 30
0.0
 10
0.3882285676537811
 20
-28.551111260566397
 30
0.0
 10
0.7500000000000002
 20
-28.700961894323342
 30
0.0
 10
1.0606601717798214
 20
-28.939339828220177
 30
0.0
 10
1.299038105676658
 20
-29.25
 30
0.0
 10
1.4488887394336025
 20
-29.61177143234622
 30
0.0
  0
LWPOLYLINE
  8
OpenJsCad
  90
25
  70
1
 10
-66.0511112605664
 20
-29.61177143234622
 30
0.0
 10
-66
 20
-30
 30
0.0
 10
-66.0511112605664
 20
-30.388228567653783
 30
0.0
 10
-66.20096189432334
 20
-30.75
 30
0.0
 10
-66.43933982822018
 20
-31.060660171779823
 30
0.0
 10
-66.75
 20
-31.299038105676658
 30
0.0
 10
-67.11177143234622
 20
-31.448888739433603
 30
0.0
 10
-67.5
 20
-31.5
 30
0.0
 10
-67.88822856765378
 20
-31.448888739433603
 30
0.0
 10
-68.25
 20
-31.299038105676658
 30
0.0
 10
-68.56066017177982
 20
-31.06066017177982
 30
0.0
 10
-68.79903810567666
 20
-30.75
 30
0.0
 10
-68.9488887394336
 20
-30.38822856765378
 30
0.0
 10
-69
 20
-30
 30
0.0
 10
-68.9488887394336
 20
-29.611771432346217
 30
0.0
 10
-68.79903810567666
 20
-29.25
 30
0.0
 10
-68.56066017177982
 20
-28.939339828220177
 30
0.0
 10
-68.25
 20
-28.700961894323342
 30
0.0
 10
-67.88822856765378
 20
-28.551111260566397
 30
0.0
 10
-67.5
 20
-28.5
 30
0.0
 10
-67.11177143234622
 20
-28.551111260566397
 30
0.0
 10
-66.75
 20
-28.700961894323342
 30
0.0
 10
-66.43933982822018
 20
-28.939339828220177
 30
0.0
 10
-66.20096189432334
 20
-29.25
 30
0.0
 10
-66.0511112605664
 20
-29.61177143234622
 30
0.0
  0
LWPOLYLINE
  8
OpenJsCad
  90
25
  70
1
 10
-32.3011112605664
 20
-29.61177143234622
 30
0.0
 10
-32.25
 20
-30
 30
0.0
 10
-32.3011112605664
 20
-30.388228567653783
 30
0.0
 10
-32.45096189432334
 20
-30.75
 30
0.0
 10
-32.68933982822018
 20
-31.060660171779823
 30
0.0
 10
-33
 20
-31.299038105676658
 30
0.0
 10
-33.36177143234622
 20
-31.448888739433603
 30
0.0
 10
-33.75
 20
-31.5
 30
0.0
 10
-34.13822856765378
 20
-31.448888739433603
 30
0.0
 10
-34.5
 20
-31.299038105676658
 30
0.0
 10
-34.81066017177982
 20
-31.06066017177982
 30
0.0
 10
-35.04903810567666
 20
-30.75
 30
0.0
 10
-35.1988887394336
 20
-30.38822856765378
 30
0.0
 10
-35.25
 20
-30
 30
0.0
 10
-35.1988887394336
 20
-29.611771432346217
 30
0.0
 10
-35.04903810567666
 20
-29.25
 30
0.0
 10
-34.81066017177982
 20
-28.939339828220177
 30
0.0
 10
-34.5
 20
-28.700961894323342
 30
0.0
 10
-34.13822856765378
 20
-28.551111260566397
 30
0.0
 10
-33.75
 20
-28.5
 30
0.0
 10
-33.36177143234622
 20
-28.551111260566397
 30
0.0
 10
-33
 20
-28.700961894323342
 30
0.0
 10
-32.68933982822018
 20
-28.939339828220177
 30
0.0
 10
-32.45096189432334
 20
-29.25
 30
0.0
 10
-32.3011112605664
 20
-29.61177143234622
 30
0.0
  0
LWPOLYLINE
  8
OpenJsCad
  90
25
  70
1
 10
68.9488887394336
 20
-29.61177143234622
 30
0.0
 10
69
 20
-30
 30
0.0
 10
68.9488887394336
 20
-30.388228567653783
 30
0.0
 10
68.79903810567666
 20
-30.75
 30
0.0
 10
68.56066017177982
 20
-31.060660171779823
 30
0.0
 10
68.25
 20
-31.299038105676658
 30
0.0
 10
67.88822856765378
 20
-31.448888739433603
 30
0.0
 10
67.5
 20
-31.5
 30
0.0
 10
67.11177143234622
 20
-31.448888739433603
 30
0.0
 10
66.75
 20
-31.299038105676658
 30
0.0
 10
66.43933982822018
 20
-31.06066017177982
 30
0.0
 10
66.20096189432334
 20
-30.75
 30
0.0
 10
66.0511112605664
 20
-30.38822856765378
 30
0.0
 10
66
 20
-30
 30
0.0
 10
66.0511112605664
 20
-29.611771432346217
 30
0.0
 10
66.20096189432334
 20
-29.25
 30
0.0
 10
66.43933982822018
 20
-28.939339828220177
 30
0.0
 10
66.75
 20
-28.700961894323342
 30
0.0
 10
67.11177143234622
 20
-28.551111260566397
 30
0.0
 10
67.5
 20
-28.5
 30
0.0
 10
67.88822856765378
 20
-28.551111260566397
 30
0.0
 10
68.25
 20
-28.700961894323342
 30
0.0
 10
68.56066017177982
 20
-28.939339828220177
 30
0.0
 10
68.79903810567666
 20
-29.25
 30
0.0
 10
68.9488887394336
 20
-29.61177143234622
 30
0.0
  0
LWPOLYLINE
  8
OpenJsCad
  90
25
  70
1
 10
35.1988887394336
 20
-29.61177143234622
 30
0.0
 10
35.25
 20
-30
 30
0.0
 10
35.1988887394336
 20
-30.388228567653783
 30
0.0
 10
35.04903810567666
 20
-30.75
 30
0.0
 10
34.81066017177982
 20
-31.060660171779823
 30
0.0
 10
34.5
 20
-31.299038105676658
 30
0.0
 10
34.13822856765378
 20
-31.448888739433603
 30
0.0
 10
33.75
 20
-31.5
 30
0.0
 10
33.36177143234622
 20
-31.448888739433603
 30
0.0
 10
33
 20
-31.299038105676658
 30
0.0
 10
32.68933982822018
 20
-31.06066017177982
 30
0.0
 10
32.45096189432334
 20
-30.75
 30
0.0
 10
32.3011112605664
 20
-30.38822856765378
 30
0.0
 10
32.25
 20
-30
 30
0.0
 10
32.3011112605664
 20
-29.611771432346217
 30
0.0
 10
32.45096189432334
 20
-29.25
 30
0.0
 10
32.68933982822018
 20
-28.939339828220177
 30
0.0
 10
33
 20
-28.700961894323342
 30
0.0
 10
33.36177143234622
 20
-28.551111260566397
 30
0.0
 10
33.75
 20
-28.5
 30
0.0
 10
34.13822856765378
 20
-28.551111260566397
 30
0.0
 10
34.5
 20
-28.700961894323342
 30
0.0
 10
34.81066017177982
 20
-28.939339828220177
 30
0.0
 10
35.04903810567666
 20
-29.25
 30
0.0
 10
35.1988887394336
 20
-29.61177143234622
 30
0.0
  0
LWPOLYLINE
  8
OpenJsCad
  90
25
  70
1
 10
1.4488887394336025
 20
30.38822856765378
 30
0.0
 10
1.5
 20
30
 30
0.0
 10
1.448888739433602
 20
29.611771432346217
 30
0.0
 10
1.2990381056766576
 20
29.25
 30
0.0
 10
1.060660171779821
 20
28.939339828220177
 30
0.0
 10
0.7500000000000002
 20
28.700961894323342
 30
0.0
 10
0.38822856765378044
 20
28.551111260566397
 30
0.0
 10
-2.755455298081545e-16
 20
28.5
 30
0.0
 10
-0.38822856765378094
 20
28.551111260566397
 30
0.0
 10
-0.7500000000000007
 20
28.700961894323342
 30
0.0
 10
-1.0606601717798219
 20
28.93933982822018
 30
0.0
 10
-1.2990381056766582
 20
29.25
 30
0.0
 10
-1.4488887394336025
 20
29.61177143234622
 30
0.0
 10
-1.5
 20
30
 30
0.0
 10
-1.4488887394336023
 20
30.388228567653783
 30
0.0
 10
-1.299038105676658
 20
30.75
 30
0.0
 10
-1.0606601717798212
 20
31.060660171779823
 30
0.0
 10
-0.7499999999999997
 20
31.299038105676658
 30
0.0
 10
-0.38822856765378094
 20
31.448888739433603
 30
0.0
 10
9.184850993605148e-17
 20
31.5
 30
0.0
 10
0.3882285676537811
 20
31.448888739433603
 30
0.0
 10
0.7500000000000002
 20
31.299038105676658
 30
0.0
 10
1.0606601717798214
 20
31.060660171779823
 30
0.0
 10
1.299038105676658
 20
30.75
 30
0.0
 10
1.4488887394336025
 20
30.38822856765378
 30
0.0
  0
LWPOLYLINE
  8
OpenJsCad
  90
25
  70
1
 10
-66.0511112605664
 20
30.38822856765378
 30
0.0
 10
-66
 20
30
 30
0.0
 10
-66.0511112605664
 20
29.611771432346217
 30
0.0
 10
-66.20096189432334
 20
29.25
 30
0.0
 10
-66.43933982822018
 20
28.939339828220177
 30
0.0
 10
-66.75
 20
28.700961894323342
 30
0.0
 10
-67.11177143234622
 20
28.551111260566397
 30
0.0
 10
-67.5
 20
28.5
 30
0.0
 10
-67.88822856765378
 20
28.551111260566397
 30
0.0
 10
-68.25
 20
28.700961894323342
 30
0.0
 10
-68.56066017177982
 20
28.93933982822018
 30
0.0
 10
-68.79903810567666
 20
29.25
 30
0.0
 10
-68.9488887394336
 20
29.61177143234622
 30
0.0
 10
-69
 20
30
 30
0.0
 10
-68.9488887394336
 20
30.388228567653783
 30
0.0
 10
-68.79903810567666
 20
30.75
 30
0.0
 10
-68.56066017177982
 20
31.060660171779823
 30
0.0
 10
-68.25
 20
31.299038105676658
 30
0.0
 10
-67.88822856765378
 20
31.448888739433603
 30
0.0
 10
-67.5
 20
31.5
 30
0.0
 10
-67.11177143234622
 20
31.448888739433603
 30
0.0
 10
-66.75
 20
31.299038105676658
 30
0.0
 10
-66.43933982822018
 20
31.060660171779823
 30
0.0
 10
-66.20096189432334
 20
30.75
 30
0.0
 10
-66.0511112605664
 20
30.38822856765378
 30
0.0
  0
LWPOLYLINE
  8
OpenJsCad
  90
25
  70
1
 10
-32.3011112605664
 20
30.38822856765378
 30
0.0
 10
-32.25
 20
30
 30
0.0
 10
-32.3011112605664
 20
29.611771432346217
 30
0.0
 10
-32.45096189432334
 20
29.25
 30
0.0
 10
-32.68933982822018
 20
28.939339828220177
 30
0.0
 10
-33
 20
28.700961894323342
 30
0.0
 10
-33.36177143234622
 20
28.551111260566397
 30
0.0
 10
-33.75
 20
28.5
 30
0.0
 10
-34.13822856765378
 20
28.551111260566397
 30
0.0
 10
-34.5
 20
28.700961894323342
 30
0.0
 10
-34.81066017177982
 20
28.93933982822018
 30
0.0
 10
-35.04903810567666
 20
29.25
 30
0.0
 10
-35.1988887394336
 20
29.61177143234622
 30
0.0
 10
-35.25
 20
30
 30
0.0
 10
-35.1988887394336
 20
30.388228567653783
 30
0.0
 10
-35.04903810567666
 20
30.75
 30
0.0
 10
-34.81066017177982
 20
31.060660171779823
 30
0.0
 10
-34.5
 20
31.299038105676658
 30
0.0
 10
-34.13822856765378
 20
31.448888739433603
 30
0.0
 10
-33.75
 20
31.5
 30
0.0
 10
-33.36177143234622
 20
31.448888739433603
 30
0.0
 10
-33
 20
31.299038105676658
 30
0.0
 10
-32.68933982822018
 20
31.060660171779823
 30
0.0
 10
-32.45096189432334
 20
30.75
 30
0.0
 10
-32.3011112605664
 20
30.38822856765378
 30
0.0
  0
LWPOLYLINE
  8
OpenJsCad
  90
25
  70
1
 10
68.9488887394336
 20
30.38822856765378
 30
0.0
 10
69
 20
30
 30
0.0
 10
68.9488887394336
 20
29.611771432346217
 30
0.0
 10
68.79903810567666
 20
29.25
 30
0.0
 10
68.56066017177982
 20
28.939339828220177
 30
0.0
 10
68.25
 20
28.700961894323342
 30
0.0
 10
67.88822856765378
 20
28.551111260566397
 30
0.0
 10
67.5
 20
28.5
 30
0.0
 10
67.11177143234622
 20
28.551111260566397
 30
0.0
 10
66.75
 20
28.700961894323342
 30
0.0
 10
66.43933982822018
 20
28.93933982822018
 30
0.0
 10
66.20096189432334
 20
29.25
 30
0.0
 10
66.0511112605664
 20
29.61177143234622
 30
0.0
 10
66
 20
30
 30
0.0
 10
66.0511112605664
 20
30.388228567653783
 30
0.0
 10
66.20096189432334
 20
30.75
 30
0.0
 10
66.43933982822018
 20
31.060660171779823
 30
0.0
 10
66.75
 20
31.299038105676658
 30
0.0
 10
67.11177143234622
 20
31.448888739433603
 30
0.0
 10
67.5
 20
31.5
 30
0.0
 10
67.88822856765378
 20
31.448888739433603
 30
0.0
 10
68.25
 20
31.299038105676658
 30
0.0
 10
68.56066017177982
 20
31.060660171779823
 30
0.0
 10
68.79903810567666
 20
30.75
 30
0.0
 10
68.9488887394336
 20
30.38822856765378
 30
0.0
  0
LWPOLYLINE
  8
OpenJsCad
  90
25
  70
1
 10
35.1988887394336
 20
30.38822856765378
 30
0.0
 10
35.25
 20
30
 30
0.0
 10
35.1988887394336
 20
29.611771432346217
 30
0.0
 10
35.04903810567666
 20
29.25
 30
0.0
 10
34.81066017177982
 20
28.939339828220177
 30
0.0
 10
34.5
 20
28.700961894323342
 30
0.0
 10
34.13822856765378
 20
28.551111260566397
 30
0.0
 10
33.75
 20
28.5
 30
0.0
 10
33.36177143234622
 20
28.551111260566397
 30
0.0
 10
33
 20
28.700961894323342
 30
0.0
 10
32.68933982822018
 20
28.93933982822018
 30
0.0
 10
32.45096189432334
 20
29.25
 30
0.0
 10
32.3011112605664
 20
29.61177143234622
 30
0.0
 10
32.25
 20
30
 30
0.0
 10
32.3011112605664
 20
30.388228567653783
 30
0.0
 10
32.45096189432334
 20
30.75
 30
0.0
 10
32.68933982822018
 20
31.060660171779823
 30
0.0
 10
33
 20
31.299038105676658
 30
0.0
 10
33.36177143234622
 20
31.448888739433603
 30
0.0
 10
33.75
 20
31.5
 30
0.0
 10
34.13822856765378
 20
31.448888739433603
 30
0.0
 10
34.5
 20
31.299038105676658
 30
0.0
 10
34.81066017177982
 20
31.060660171779823
 30
0.0
 10
35.04903810567666
 20
30.75
 30
0.0
 10
35.1988887394336
 20
30.38822856765378
 30
0.0
  0
LWPOLYLINE
  8
OpenJsCad
  90
97
  70
1
 10
10.976448155624638
 20
0.7194344215315737
 30
0.0
 10
11
 20
0
 30
0.0
 10
10.976448155624638
 20
-0.7194344215315708
 30
0.0
 10
10.905893475111915
 20
-1.4357881144205686
 30
0.0
 10
10.788638084435533
 20
-2.145993542177416
 30
0.0
 10
10.625184089179749
 20
-2.8470094961277375
 30
0.0
 10
10.416231424446162
 20
-3.5358341183347806
 30
0.0
 10
10.162674857624156
 20
-4.209517756015985
 30
0.0
 10
9.865600156859571
 20
-4.865175592409016
 30
0.0
 10
9.526279441628823
 20
-5.500000000000005
 30
0.0
 10
9.146165735327992
 20
-6.111272563215633
 30
0.0
 10
8.726886743203584
 20
-6.696375719095929
 30
0.0
 10
8.270237882268752
 20
-7.252803966100756
 30
0.0
 10
7.778174593052021
 20
-7.778174593052024
 30
0.0
 10
7.2528039661007595
 20
-8.270237882268749
 30
0.0
 10
6.6963757190959186
 20
-8.726886743203593
 30
0.0
 10
6.11127256321562
 20
-9.146165735328
 30
0.0
 10
5.500000000000001
 20
-9.526279441628825
 30
0.0
 10
4.865175592409011
 20
-9.865600156859573
 30
0.0
 10
4.20951775601598
 20
-10.162674857624157
 30
0.0
 10
3.535834118334776
 20
-10.416231424446163
 30
0.0
 10
2.8470094961277232
 20
-10.625184089179752
 30
0.0
 10
2.1459935421774112
 20
-10.788638084435535
 30
0.0
 10
1.435788114420564
 20
-10.905893475111915
 30
0.0
 10
0.719434421531566
 20
-10.97644815562464
 30
0.0
 10
-2.0206672185931327e-15
 20
-11
 30
0.0
 10
-0.71943442153157
 20
-10.976448155624638
 30
0.0
 10
-1.435788114420568
 20
-10.905893475111915
 30
0.0
 10
-2.1459935421774152
 20
-10.788638084435533
 30
0.0
 10
-2.847009496127727
 20
-10.62518408917975
 30
0.0
 10
-3.5358341183347797
 20
-10.416231424446162
 30
0.0
 10
-4.209517756015985
 20
-10.162674857624156
 30
0.0
 10
-4.865175592409015
 20
-9.865600156859571
 30
0.0
 10
-5.500000000000005
 20
-9.526279441628823
 30
0.0
 10
-6.111272563215624
 20
-9.146165735327997
 30
0.0
 10
-6.696375719095929
 20
-8.726886743203584
 30
0.0
 10
-7.2528039661007595
 20
-8.27023788226875
 30
0.0
 10
-7.778174593052027
 20
-7.778174593052018
 30
0.0
 10
-8.270237882268752
 20
-7.252803966100757
 30
0.0
 10
-8.726886743203586
 20
-6.696375719095927
 30
0.0
 10
-9.146165735328
 20
-6.111272563215621
 30
0.0
 10
-9.526279441628827
 20
-5.499999999999997
 30
0.0
 10
-9.865600156859571
 20
-4.865175592409016
 30
0.0
 10
-10.162674857624156
 20
-4.209517756015987
 30
0.0
 10
-10.416231424446163
 20
-3.535834118334777
 30
0.0
 10
-10.62518408917975
 20
-2.8470094961277286
 30
0.0
 10
-10.788638084435537
 20
-2.1459935421774072
 30
0.0
 10
-10.905893475111915
 20
-1.4357881144205695
 30
0.0
 10
-10.976448155624638
 20
-0.7194344215315716
 30
0.0
 10
-11
 20
1.3471114790620886e-15
 30
0.0
 10
-10.976448155624638
 20
0.7194344215315743
 30
0.0
 10
-10.905893475111915
 20
1.435788114420572
 30
0.0
 10
-10.788638084435535
 20
2.14599354217741
 30
0.0
 10
-10.62518408917975
 20
2.8470094961277312
 30
0.0
 10
-10.416231424446162
 20
3.5358341183347792
 30
0.0
 10
-10.162674857624154
 20
4.209517756015988
 30
0.0
 10
-9.86560015685957
 20
4.8651755924090185
 30
0.0
 10
-9.526279441628827
 20
5.499999999999999
 30
0.0
 10
-9.146165735327996
 20
6.1112725632156275
 30
0.0
 10
-8.726886743203584
 20
6.696375719095929
 30
0.0
 10
-8.27023788226875
 20
7.252803966100759
 30
0.0
 10
-7.778174593052022
 20
7.778174593052023
 30
0.0
 10
-7.252803966100757
 20
8.270237882268752
 30
0.0
 10
-6.696375719095927
 20
8.726886743203586
 30
0.0
 10
-6.111272563215625
 20
9.146165735327996
 30
0.0
 10
-5.499999999999997
 20
9.526279441628827
 30
0.0
 10
-4.865175592409012
 20
9.865600156859571
 30
0.0
 10
-4.209517756015985
 20
10.162674857624156
 30
0.0
 10
-3.5358341183347775
 20
10.416231424446163
 30
0.0
 10
-2.847009496127727
 20
10.62518408917975
 30
0.0
 10
-2.1459935421774103
 20
10.788638084435535
 30
0.0
 10
-1.4357881144205675
 20
10.905893475111915
 30
0.0
 10
-0.7194344215315746
 20
10.976448155624638
 30
0.0
 10
6.735557395310443e-16
 20
11
 30
0.0
 10
0.719434421531576
 20
10.976448155624638
 30
0.0
 10
1.4357881144205689
 20
10.905893475111915
 30
0.0
 10
2.1459935421774117
 20
10.788638084435535
 30
0.0
 10
2.847009496127728
 20
10.62518408917975
 30
0.0
 10
3.535834118334779
 20
10.416231424446162
 30
0.0
 10
4.209517756015988
 20
10.162674857624154
 30
0.0
 10
4.865175592409014
 20
9.865600156859571
 30
0.0
 10
5.500000000000001
 20
9.526279441628825
 30
0.0
 10
6.111272563215627
 20
9.146165735327996
 30
0.0
 10
6.696375719095927
 20
8.726886743203586
 30
0.0
 10
7.252803966100757
 20
8.270237882268752
 30
0.0
 10
7.778174593052023
 20
7.778174593052022
 30
0.0
 10
8.270237882268752
 20
7.252803966100757
 30
0.0
 10
8.726886743203586
 20
6.696375719095927
 30
0.0
 10
9.146165735327997
 20
6.111272563215624
 30
0.0
 10
9.526279441628827
 20
5.499999999999999
 30
0.0
 10
9.865600156859571
 20
4.865175592409014
 30
0.0
 10
10.162674857624154
 20
4.2095177560159875
 30
0.0
 10
10.416231424446163
 20
3.5358341183347775
 30
0.0
 10
10.62518408917975
 20
2.847009496127728
 30
0.0
 10
10.788638084435535
 20
2.145993542177411
 30
0.0
 10
10.905893475111915
 20
1.4357881144205673
 30
0.0
 10
10.976448155624638
 20
0.7194344215315737
 30
0.0
  0
LWPOLYLINE
  8
OpenJsCad
  90
25
  70
1
 10
-14.051111260566397
 20
-15.111771432346218
 30
0.0
 10
-14
 20
-15.5
 30
0.0
 10
-14.051111260566397
 20
-15.888228567653782
 30
0.0
 10
-14.200961894323342
 20
-16.25
 30
0.0
 10
-14.439339828220179
 20
-16.560660171779823
 30
0.0
 10
-14.75
 20
-16.799038105676658
 30
0.0
 10
-15.11177143234622
 20
-16.948888739433603
 30
0.0
 10
-15.5
 20
-17
 30
0.0
 10
-15.888228567653782
 20
-16.948888739433603
 30
0.0
 10
-16.25
 20
-16.799038105676658
 30
0.0
 10
-16.560660171779823
 20
-16.56066017177982
 30
0.0
 10
-16.799038105676658
 20
-16.25
 30
0.0
 10
-16.948888739433603
 20
-15.888228567653782
 30
0.0
 10
-17
 20
-15.5
 30
0.0
 10
-16.948888739433603
 20
-15.111771432346218
 30
0.0
 10
-16.799038105676658
 20
-14.75
 30
0.0
 10
-16.560660171779823
 20
-14.439339828220179
 30
0.0
 10
-16.25
 20
-14.200961894323342
 30
0.0
 10
-15.888228567653782
 20
-14.051111260566397
 30
0.0
 10
-15.5
 20
-14
 30
0.0
 10
-15.111771432346218
 20
-14.051111260566397
 30
0.0
 10
-14.75
 20
-14.200961894323342
 30
0.0
 10
-14.439339828220179
 20
-14.439339828220179
 30
0.0
 10
-14.200961894323342
 20
-14.75
 30
0.0
 10
-14.051111260566397
 20
-15.111771432346218
 30
0.0
  0
LWPOLYLINE
  8
OpenJsCad
  90
25
  70
1
 10
-14.051111260566397
 20
15.888228567653782
 30
0.0
 10
-14
 20
15.5
 30
0.0
 10
-14.051111260566397
 20
15.111771432346218
 30
0.0
 10
-14.200961894323342
 20
14.75
 30
0.0
 10
-14.439339828220179
 20
14.439339828220179
 30
0.0
 10
-14.75
 20
14.200961894323342
 30
0.0
 10
-15.11177143234622
 20
14.051111260566397
 30
0.0
 10
-15.5
 20
14
 30
0.0
 10
-15.888228567653782
 20
14.051111260566397
 30
0.0
 10
-16.25
 20
14.200961894323342
 30
0.0
 10
-16.560660171779823
 20
14.439339828220179
 30
0.0
 10
-16.799038105676658
 20
14.75
 30
0.0
 10
-16.948888739433603
 20
15.111771432346218
 30
0.0
 10
-17
 20
15.5
 30
0.0
 10
-16.948888739433603
 20
15.888228567653782
 30
0.0
 10
-16.799038105676658
 20
16.25
 30
0.0
 10
-16.560660171779823
 20
16.560660171779823
 30
0.0
 10
-16.25
 20
16.799038105676658
 30
0.0
 10
-15.888228567653782
 20
16.948888739433603
 30
0.0
 10
-15.5
 20
17
 30
0.0
 10
-15.111771432346218
 20
16.948888739433603
 30
0.0
 10
-14.75
 20
16.799038105676658
 30
0.0
 10
-14.439339828220179
 20
16.560660171779823
 30
0.0
 10
-14.200961894323342
 20
16.25
 30
0.0
 10
-14.051111260566397
 20
15.888228567653782
 30
0.0
  0
LWPOLYLINE
  8
OpenJsCad
  90
25
  70
1
 10
16.948888739433603
 20
-15.111771432346218
 30
0.0
 10
17
 20
-15.5
 30
0.0
 10
16.948888739433603
 20
-15.888228567653782
 30
0.0
 10
16.799038105676658
 20
-16.25
 30
0.0
 10
16.560660171779823
 20
-16.560660171779823
 30
0.0
 10
16.25
 20
-16.799038105676658
 30
0.0
 10
15.88822856765378
 20
-16.948888739433603
 30
0.0
 10
15.5
 20
-17
 30
0.0
 10
15.111771432346218
 20
-16.948888739433603
 30
0.0
 10
14.75
 20
-16.799038105676658
 30
0.0
 10
14.439339828220177
 20
-16.56066017177982
 30
0.0
 10
14.200961894323342
 20
-16.25
 30
0.0
 10
14.051111260566397
 20
-15.888228567653782
 30
0.0
 10
14
 20
-15.5
 30
0.0
 10
14.051111260566397
 20
-15.111771432346218
 30
0.0
 10
14.200961894323342
 20
-14.75
 30
0.0
 10
14.439339828220179
 20
-14.439339828220179
 30
0.0
 10
14.75
 20
-14.200961894323342
 30
0.0
 10
15.111771432346218
 20
-14.051111260566397
 30
0.0
 10
15.5
 20
-14
 30
0.0
 10
15.888228567653782
 20
-14.051111260566397
 30
0.0
 10
16.25
 20
-14.200961894323342
 30
0.0
 10
16.560660171779823
 20
-14.439339828220179
 30
0.0
 10
16.799038105676658
 20
-14.75
 30
0.0
 10
16.948888739433603
 20
-15.111771432346218
 30
0.0
  0
LWPOLYLINE
  8
OpenJsCad
  90
25
  70
1
 10
16.948888739433603
 20
15.888228567653782
 30
0.0
 10
17
 20
15.5
 30
0.0
 10
16.948888739433603
 20
15.111771432346218
 30
0.0
 10
16.799038105676658
 20
14.75
 30
0.0
 10
16.560660171779823
 20
14.439339828220179
 30
0.0
 10
16.25
 20
14.200961894323342
 30
0.0
 10
15.88822856765378
 20
14.051111260566397
 30
0.0
 10
15.5
 20
14
 30
0.0
 10
15.111771432346218
 20
14.051111260566397
 30
0.0
 10
14.75
 20
14.200961894323342
 30
0.0
 10
14.439339828220177
 20
14.439339828220179
 30
0.0
 10
14.200961894323342
 20
14.75
 30
0.0
 10
14.051111260566397
 20
15.111771432346218
 30
0.0
 10
14
 20
15.5
 30
0.0
 10
14.051111260566397
 20
15.888228567653782
 30
0.0
 10
14.200961894323342
 20
16.25
 30
0.0
 10
14.439339828220179
 20
16.560660171779823
 30
0.0
 10
14.75
 20
16.799038105676658
 30
0.0
 10
15.111771432346218
 20
16.948888739433603
 30
0.0
 10
15.5
 20
17
 30
0.0
 10
15.888228567653782
 20
16.948888739433603
 30
0.0
 10
16.25
 20
16.799038105676658
 30
0.0
 10
16.560660171779823
 20
16.560660171779823
 30
0.0
 10
16.799038105676658
 20
16.25
 30
0.0
 10
16.948888739433603
 20
15.888228567653782
 30
0.0
  0
ENDSEC
  0
EOF
