999
DXF generated by OpenJsCad
  0
SECTION
  2
HEADER
  0
ENDSEC
  0
SECTION
  2
TABLES
  0
TABLE
  2
LTYPE
  70
1
  0
LTYPE
  2
CONTINUOUS
  3
Solid Line
  72
65
  73
0
  40
0.0
  0
ENDTAB
  0
TABLE
  2
LAYER
  70
1
  0
LAYER
  2
OpenJsCad
  62
7
  6
continuous
  0
ENDTAB
  0
TABLE
  2
STYLE
  70
0
  0
ENDTAB
  0
TABLE
  2
VIEW
  70
0
  0
ENDTAB
  0
ENDSEC
  0
SECTION
  2
BLOCKS
  0
ENDSEC
  0
SECTION
  2
ENTITIES
  0
LWPOLYLINE
  8
OpenJsCad
  90
55
  70
1
 10
-167.13457268119896
 20
30
 30
0.0
 10
-167.13457268119896
 20
-30
 30
0.0
 10
-166.87901637836697
 20
-31.941142838268902
 30
0.0
 10
-166.12976320958225
 20
-33.75
 30
0.0
 10
-164.93787354009805
 20
-35.30330085889911
 30
0.0
 10
-163.38457268119896
 20
-36.49519052838329
 30
0.0
 10
-161.57571551946788
 20
-37.24444369716801
 30
0.0
 10
-159.63457268119896
 20
-37.5
 30
0.0
 10
159.63457268119896
 20
-37.5
 30
0.0
 10
161.57571551946788
 20
-37.24444369716801
 30
0.0
 10
163.38457268119896
 20
-36.49519052838329
 30
0.0
 10
164.93787354009805
 20
-35.30330085889911
 30
0.0
 10
166.12976320958225
 20
-33.75000000000001
 30
0.0
 10
166.87901637836697
 20
-31.941142838268906
 30
0.0
 10
167.13457268119896
 20
-30
 30
0.0
 10
167.13457268119896
 20
30
 30
0.0
 10
166.87901637836697
 20
31.941142838268906
 30
0.0
 10
166.12976320958225
 20
33.75
 30
0.0
 10
164.93787354009805
 20
35.30330085889911
 30
0.0
 10
163.38457268119896
 20
36.49519052838329
 30
0.0
 10
161.57571551946788
 20
37.24444369716801
 30
0.0
 10
159.63457268119896
 20
37.5
 30
0.0
 10
152.13457268119896
 20
37.5
 30
0.0
 10
152.13457268119896
 20
45.643593539448986
 30
0.0
 10
137.4743186433546
 20
54.10769515458673
 30
0.0
 10
134.3493186433546
 20
48.69503638093399
 30
0.0
 10
133.92112265720908
 20
48.09748957430873
 30
0.0
 10
133.38457873794562
 20
47.59496135484186
 30
0.0
 10
132.7603059674842
 20
47.206763600186406
 30
0.0
 10
132.07229479829738
 20
46.94781453234999
 30
0.0
 10
131.34698511377596
 20
46.82806541878923
 30
0.0
 10
130.61225015833773
 20
46.8521181507822
 30
0.0
 10
129.89632538427608
 20
47.019048395327346
 30
0.0
 10
129.22672337916293
 20
47.32244111674234
 30
0.0
 10
108.13457268119896
 20
59.5
 30
0.0
 10
-108.13457268119896
 20
59.5
 30
0.0
 10
-129.22672337916293
 20
47.32244111674235
 30
0.0
 10
-129.89632538427608
 20
47.019048395327346
 30
0.0
 10
-130.61225015833773
 20
46.8521181507822
 30
0.0
 10
-131.34698511377596
 20
46.82806541878924
 30
0.0
 10
-132.07229479829738
 20
46.94781453234999
 30
0.0
 10
-132.7603059674842
 20
47.20676360018641
 30
0.0
 10
-133.38457873794562
 20
47.594961354841864
 30
0.0
 10
-133.92112265720908
 20
48.09748957430874
 30
0.0
 10
-134.34931864335456
 20
48.69503638093399
 30
0.0
 10
-137.4743186433546
 20
54.10769515458675
 30
0.0
 10
-152.13457268119896
 20
45.643593539449
 30
0.0
 10
-152.13457268119896
 20
37.5
 30
0.0
 10
-159.63457268119896
 20
37.5
 30
0.0
 10
-161.57571551946788
 20
37.24444369716801
 30
0.0
 10
-163.38457268119896
 20
36.49519052838329
 30
0.0
 10
-164.93787354009805
 20
35.30330085889911
 30
0.0
 10
-166.12976320958225
 20
33.75
 30
0.0
 10
-166.87901637836697
 20
31.941142838268906
 30
0.0
 10
-167.13457268119896
 20
30
 30
0.0
  0
LWPOLYLINE
  8
OpenJsCad
  90
5
  70
1
 10
-115
 20
37.5
 30
0.0
 10
-125
 20
37.5
 30
0.0
 10
-125
 20
39.5
 30
0.0
 10
-115
 20
39.5
 30
0.0
 10
-115
 20
37.5
 30
0.0
  0
LWPOLYLINE
  8
OpenJsCad
  90
5
  70
1
 10
-67
 20
37.5
 30
0.0
 10
-77
 20
37.5
 30
0.0
 10
-77
 20
39.5
 30
0.0
 10
-67
 20
39.5
 30
0.0
 10
-67
 20
37.5
 30
0.0
  0
LWPOLYLINE
  8
OpenJsCad
  90
5
  70
1
 10
-19
 20
37.5
 30
0.0
 10
-29
 20
37.5
 30
0.0
 10
-29
 20
39.5
 30
0.0
 10
-19
 20
39.5
 30
0.0
 10
-19
 20
37.5
 30
0.0
  0
LWPOLYLINE
  8
OpenJsCad
  90
5
  70
1
 10
29
 20
37.5
 30
0.0
 10
19
 20
37.5
 30
0.0
 10
19
 20
39.5
 30
0.0
 10
29
 20
39.5
 30
0.0
 10
29
 20
37.5
 30
0.0
  0
LWPOLYLINE
  8
OpenJsCad
  90
5
  70
1
 10
77
 20
37.5
 30
0.0
 10
67
 20
37.5
 30
0.0
 10
67
 20
39.5
 30
0.0
 10
77
 20
39.5
 30
0.0
 10
77
 20
37.5
 30
0.0
  0
LWPOLYLINE
  8
OpenJsCad
  90
5
  70
1
 10
125
 20
37.5
 30
0.0
 10
115
 20
37.5
 30
0.0
 10
115
 20
39.5
 30
0.0
 10
125
 20
39.5
 30
0.0
 10
125
 20
37.5
 30
0.0
  0
LWPOLYLINE
  8
OpenJsCad
  90
25
  70
1
 10
-158.18568394176535
 20
-29.61177143234622
 30
0.0
 10
-158.13457268119896
 20
-30
 30
0.0
 10
-158.18568394176535
 20
-30.388228567653783
 30
0.0
 10
-158.3355345755223
 20
-30.75
 30
0.0
 10
-158.57391250941913
 20
-31.060660171779823
 30
0.0
 10
-158.88457268119896
 20
-31.299038105676658
 30
0.0
 10
-159.24634411354518
 20
-31.448888739433603
 30
0.0
 10
-159.63457268119896
 20
-31.5
 30
0.0
 10
-160.02280124885274
 20
-31.448888739433603
 30
0.0
 10
-160.38457268119896
 20
-31.299038105676658
 30
0.0
 10
-160.6952328529788
 20
-31.06066017177982
 30
0.0
 10
-160.93361078687562
 20
-30.75
 30
0.0
 10
-161.08346142063257
 20
-30.38822856765378
 30
0.0
 10
-161.13457268119896
 20
-30
 30
0.0
 10
-161.08346142063257
 20
-29.611771432346217
 30
0.0
 10
-160.93361078687562
 20
-29.25
 30
0.0
 10
-160.6952328529788
 20
-28.939339828220177
 30
0.0
 10
-160.38457268119896
 20
-28.700961894323342
 30
0.0
 10
-160.02280124885274
 20
-28.551111260566397
 30
0.0
 10
-159.63457268119896
 20
-28.5
 30
0.0
 10
-159.24634411354518
 20
-28.551111260566397
 30
0.0
 10
-158.88457268119896
 20
-28.700961894323342
 30
0.0
 10
-158.57391250941913
 20
-28.939339828220177
 30
0.0
 10
-158.3355345755223
 20
-29.25
 30
0.0
 10
-158.18568394176535
 20
-29.61177143234622
 30
0.0
  0
LWPOLYLINE
  8
OpenJsCad
  90
25
  70
1
 10
-158.18568394176535
 20
30.38822856765378
 30
0.0
 10
-158.13457268119896
 20
30
 30
0.0
 10
-158.18568394176535
 20
29.611771432346217
 30
0.0
 10
-158.3355345755223
 20
29.25
 30
0.0
 10
-158.57391250941913
 20
28.939339828220177
 30
0.0
 10
-158.88457268119896
 20
28.700961894323342
 30
0.0
 10
-159.24634411354518
 20
28.551111260566397
 30
0.0
 10
-159.63457268119896
 20
28.5
 30
0.0
 10
-160.02280124885274
 20
28.551111260566397
 30
0.0
 10
-160.38457268119896
 20
28.700961894323342
 30
0.0
 10
-160.6952328529788
 20
28.93933982822018
 30
0.0
 10
-160.93361078687562
 20
29.25
 30
0.0
 10
-161.08346142063257
 20
29.61177143234622
 30
0.0
 10
-161.13457268119896
 20
30
 30
0.0
 10
-161.08346142063257
 20
30.388228567653783
 30
0.0
 10
-160.93361078687562
 20
30.75
 30
0.0
 10
-160.6952328529788
 20
31.060660171779823
 30
0.0
 10
-160.38457268119896
 20
31.299038105676658
 30
0.0
 10
-160.02280124885274
 20
31.448888739433603
 30
0.0
 10
-159.63457268119896
 20
31.5
 30
0.0
 10
-159.24634411354518
 20
31.448888739433603
 30
0.0
 10
-158.88457268119896
 20
31.299038105676658
 30
0.0
 10
-158.57391250941913
 20
31.060660171779823
 30
0.0
 10
-158.3355345755223
 20
30.75
 30
0.0
 10
-158.18568394176535
 20
30.38822856765378
 30
0.0
  0
LWPOLYLINE
  8
OpenJsCad
  90
25
  70
1
 10
161.08346142063257
 20
-29.61177143234622
 30
0.0
 10
161.13457268119896
 20
-30
 30
0.0
 10
161.08346142063257
 20
-30.388228567653783
 30
0.0
 10
160.93361078687562
 20
-30.75
 30
0.0
 10
160.6952328529788
 20
-31.060660171779823
 30
0.0
 10
160.38457268119896
 20
-31.299038105676658
 30
0.0
 10
160.02280124885274
 20
-31.448888739433603
 30
0.0
 10
159.63457268119896
 20
-31.5
 30
0.0
 10
159.24634411354518
 20
-31.448888739433603
 30
0.0
 10
158.88457268119896
 20
-31.299038105676658
 30
0.0
 10
158.57391250941913
 20
-31.06066017177982
 30
0.0
 10
158.3355345755223
 20
-30.75
 30
0.0
 10
158.18568394176535
 20
-30.38822856765378
 30
0.0
 10
158.13457268119896
 20
-30
 30
0.0
 10
158.18568394176535
 20
-29.611771432346217
 30
0.0
 10
158.3355345755223
 20
-29.25
 30
0.0
 10
158.57391250941913
 20
-28.939339828220177
 30
0.0
 10
158.88457268119896
 20
-28.700961894323342
 30
0.0
 10
159.24634411354518
 20
-28.551111260566397
 30
0.0
 10
159.63457268119896
 20
-28.5
 30
0.0
 10
160.02280124885274
 20
-28.551111260566397
 30
0.0
 10
160.38457268119896
 20
-28.700961894323342
 30
0.0
 10
160.6952328529788
 20
-28.939339828220177
 30
0.0
 10
160.93361078687562
 20
-29.25
 30
0.0
 10
161.08346142063257
 20
-29.61177143234622
 30
0.0
  0
LWPOLYLINE
  8
OpenJsCad
  90
25
  70
1
 10
161.08346142063257
 20
30.38822856765378
 30
0.0
 10
161.13457268119896
 20
30
 30
0.0
 10
161.08346142063257
 20
29.611771432346217
 30
0.0
 10
160.93361078687562
 20
29.25
 30
0.0
 10
160.6952328529788
 20
28.939339828220177
 30
0.0
 10
160.38457268119896
 20
28.700961894323342
 30
0.0
 10
160.02280124885274
 20
28.551111260566397
 30
0.0
 10
159.63457268119896
 20
28.5
 30
0.0
 10
159.24634411354518
 20
28.551111260566397
 30
0.0
 10
158.88457268119896
 20
28.700961894323342
 30
0.0
 10
158.57391250941913
 20
28.93933982822018
 30
0.0
 10
158.3355345755223
 20
29.25
 30
0.0
 10
158.18568394176535
 20
29.61177143234622
 30
0.0
 10
158.13457268119896
 20
30
 30
0.0
 10
158.18568394176535
 20
30.388228567653783
 30
0.0
 10
158.3355345755223
 20
30.75
 30
0.0
 10
158.57391250941913
 20
31.060660171779823
 30
0.0
 10
158.88457268119896
 20
31.299038105676658
 30
0.0
 10
159.24634411354518
 20
31.448888739433603
 30
0.0
 10
159.63457268119896
 20
31.5
 30
0.0
 10
160.02280124885274
 20
31.448888739433603
 30
0.0
 10
160.38457268119896
 20
31.299038105676658
 30
0.0
 10
160.6952328529788
 20
31.060660171779823
 30
0.0
 10
160.93361078687562
 20
30.75
 30
0.0
 10
161.08346142063257
 20
30.38822856765378
 30
0.0
  0
LWPOLYLINE
  8
OpenJsCad
  90
5
  70
1
 10
-152.13457268119896
 20
-10
 30
0.0
 10
-152.13457268119896
 20
-20
 30
0.0
 10
-154.13457268119896
 20
-20
 30
0.0
 10
-154.13457268119896
 20
-10
 30
0.0
 10
-152.13457268119896
 20
-10
 30
0.0
  0
LWPOLYLINE
  8
OpenJsCad
  90
5
  70
1
 10
-152.13457268119896
 20
20
 30
0.0
 10
-152.13457268119896
 20
10
 30
0.0
 10
-154.13457268119896
 20
10
 30
0.0
 10
-154.13457268119896
 20
20
 30
0.0
 10
-152.13457268119896
 20
20
 30
0.0
  0
LWPOLYLINE
  8
OpenJsCad
  90
5
  70
1
 10
152.13457268119896
 20
-20
 30
0.0
 10
152.13457268119896
 20
-10
 30
0.0
 10
154.13457268119896
 20
-10
 30
0.0
 10
154.13457268119896
 20
-20
 30
0.0
 10
152.13457268119896
 20
-20
 30
0.0
  0
LWPOLYLINE
  8
OpenJsCad
  90
5
  70
1
 10
152.13457268119896
 20
10
 30
0.0
 10
152.13457268119896
 20
20
 30
0.0
 10
154.13457268119896
 20
20
 30
0.0
 10
154.13457268119896
 20
10
 30
0.0
 10
152.13457268119896
 20
10
 30
0.0
  0
LWPOLYLINE
  8
OpenJsCad
  90
56
  70
1
 10
-117.09457268119897
 20
23.1
 30
0.0
 10
-96.93457268119897
 20
23.1
 30
0.0
 10
-96.93457268119897
 20
21.1
 30
0.0
 10
-117.09457268119897
 20
21.1
 30
0.0
 10
-119.03571551946787
 20
20.844443697168014
 30
0.0
 10
-120.84457268119897
 20
20.09519052838329
 30
0.0
 10
-122.39787354009808
 20
18.903300858899108
 30
0.0
 10
-123.58976320958226
 20
17.350000000000005
 30
0.0
 10
-124.33901637836698
 20
15.541142838268907
 30
0.0
 10
-124.59457268119897
 20
13.600000000000001
 30
0.0
 10
-124.59457268119897
 20
7.0459482271339535
 30
0.0
 10
-124.30768593799539
 20
6.696375719095927
 30
0.0
 10
-123.88840694587097
 20
6.111272563215625
 30
0.0
 10
-123.50829323957014
 20
5.499999999999997
 30
0.0
 10
-123.1689725243394
 20
4.865175592409013
 30
0.0
 10
-122.87189782357481
 20
4.209517756015985
 30
0.0
 10
-122.6183412567528
 20
3.5358341183347775
 30
0.0
 10
-122.40938859201921
 20
2.8470094961277277
 30
0.0
 10
-122.24593459676343
 20
2.1459935421774103
 30
0.0
 10
-122.12867920608706
 20
1.435788114420568
 30
0.0
 10
-122.05812452557433
 20
0.7194344215315748
 30
0.0
 10
-122.03457268119897
 20
0
 30
0.0
 10
-122.05812452557433
 20
-0.719434421531576
 30
0.0
 10
-122.12867920608706
 20
-1.4357881144205675
 30
0.0
 10
-122.24593459676343
 20
-2.145993542177411
 30
0.0
 10
-122.40938859201921
 20
-2.8470094961277286
 30
0.0
 10
-122.6183412567528
 20
-3.5358341183347775
 30
0.0
 10
-122.87189782357481
 20
-4.2095177560159875
 30
0.0
 10
-123.1689725243394
 20
-4.865175592409014
 30
0.0
 10
-123.50829323957014
 20
-5.5
 30
0.0
 10
-123.88840694587097
 20
-6.111272563215625
 30
0.0
 10
-124.30768593799539
 20
-6.696375719095927
 30
0.0
 10
-124.59457268119897
 20
-7.045948227133955
 30
0.0
 10
-124.59457268119897
 20
-13.600000000000001
 30
0.0
 10
-124.33901637836698
 20
-15.541142838268911
 30
0.0
 10
-123.58976320958226
 20
-17.35
 30
0.0
 10
-122.39787354009808
 20
-18.903300858899108
 30
0.0
 10
-120.84457268119897
 20
-20.09519052838329
 30
0.0
 10
-119.03571551946787
 20
-20.844443697168014
 30
0.0
 10
-117.09457268119897
 20
-21.1
 30
0.0
 10
-96.93457268119897
 20
-21.1
 30
0.0
 10
-96.93457268119897
 20
-23.1
 30
0.0
 10
-117.09457268119897
 20
-23.1
 30
0.0
 10
-119.55335360967291
 20
-22.77629534974615
 30
0.0
 10
-121.84457268119897
 20
-21.827241335952166
 30
0.0
 10
-123.81208710247117
 20
-20.3175144212722
 30
0.0
 10
-125.32181401715114
 20
-18.35
 30
0.0
 10
-126.27086803094511
 20
-16.058780928473954
 30
0.0
 10
-126.59457268119897
 20
-13.600000000000001
 30
0.0
 10
-126.59457268119897
 20
13.600000000000001
 30
0.0
 10
-126.27086803094511
 20
16.05878092847395
 30
0.0
 10
-125.32181401715113
 20
18.35000000000001
 30
0.0
 10
-123.81208710247117
 20
20.317514421272204
 30
0.0
 10
-121.84457268119897
 20
21.827241335952166
 30
0.0
 10
-119.55335360967291
 20
22.77629534974615
 30
0.0
 10
-117.09457268119897
 20
23.1
 30
0.0
  0
LWPOLYLINE
  8
OpenJsCad
  90
56
  70
1
 10
96.93457268119897
 20
23.1
 30
0.0
 10
117.09457268119897
 20
23.1
 30
0.0
 10
119.55335360967291
 20
22.77629534974615
 30
0.0
 10
121.84457268119897
 20
21.827241335952166
 30
0.0
 10
123.81208710247117
 20
20.3175144212722
 30
0.0
 10
125.32181401715114
 20
18.35
 30
0.0
 10
126.27086803094511
 20
16.058780928473954
 30
0.0
 10
126.59457268119897
 20
13.600000000000001
 30
0.0
 10
126.59457268119897
 20
-13.600000000000001
 30
0.0
 10
126.27086803094511
 20
-16.05878092847395
 30
0.0
 10
125.32181401715113
 20
-18.35000000000001
 30
0.0
 10
123.81208710247117
 20
-20.317514421272204
 30
0.0
 10
121.84457268119897
 20
-21.827241335952166
 30
0.0
 10
119.55335360967291
 20
-22.77629534974615
 30
0.0
 10
117.09457268119897
 20
-23.1
 30
0.0
 10
96.93457268119897
 20
-23.1
 30
0.0
 10
96.93457268119897
 20
-21.1
 30
0.0
 10
117.09457268119897
 20
-21.1
 30
0.0
 10
119.03571551946787
 20
-20.844443697168014
 30
0.0
 10
120.84457268119897
 20
-20.09519052838329
 30
0.0
 10
122.39787354009808
 20
-18.903300858899108
 30
0.0
 10
123.58976320958226
 20
-17.350000000000005
 30
0.0
 10
124.33901637836698
 20
-15.541142838268907
 30
0.0
 10
124.59457268119897
 20
-13.600000000000001
 30
0.0
 10
124.59457268119897
 20
-7.0459482271339535
 30
0.0
 10
124.30768593799539
 20
-6.696375719095927
 30
0.0
 10
123.88840694587097
 20
-6.111272563215625
 30
0.0
 10
123.50829323957014
 20
-5.499999999999997
 30
0.0
 10
123.1689725243394
 20
-4.865175592409013
 30
0.0
 10
122.87189782357481
 20
-4.209517756015985
 30
0.0
 10
122.6183412567528
 20
-3.5358341183347775
 30
0.0
 10
122.40938859201921
 20
-2.8470094961277277
 30
0.0
 10
122.24593459676343
 20
-2.1459935421774103
 30
0.0
 10
122.12867920608706
 20
-1.435788114420568
 30
0.0
 10
122.05812452557433
 20
-0.7194344215315748
 30
0.0
 10
122.03457268119897
 20
0
 30
0.0
 10
122.05812452557433
 20
0.719434421531576
 30
0.0
 10
122.12867920608706
 20
1.4357881144205675
 30
0.0
 10
122.24593459676343
 20
2.145993542177411
 30
0.0
 10
122.40938859201921
 20
2.8470094961277286
 30
0.0
 10
122.6183412567528
 20
3.5358341183347775
 30
0.0
 10
122.87189782357481
 20
4.2095177560159875
 30
0.0
 10
123.1689725243394
 20
4.865175592409014
 30
0.0
 10
123.50829323957014
 20
5.5
 30
0.0
 10
123.88840694587097
 20
6.111272563215625
 30
0.0
 10
124.30768593799539
 20
6.696375719095927
 30
0.0
 10
124.59457268119897
 20
7.045948227133955
 30
0.0
 10
124.59457268119897
 20
13.600000000000001
 30
0.0
 10
124.33901637836698
 20
15.541142838268911
 30
0.0
 10
123.58976320958226
 20
17.35
 30
0.0
 10
122.39787354009808
 20
18.903300858899108
 30
0.0
 10
120.84457268119897
 20
20.09519052838329
 30
0.0
 10
119.03571551946787
 20
20.844443697168014
 30
0.0
 10
117.09457268119897
 20
21.1
 30
0.0
 10
96.93457268119897
 20
21.1
 30
0.0
 10
96.93457268119897
 20
23.1
 30
0.0
  0
LWPOLYLINE
  8
OpenJsCad
  90
25
  70
1
 10
-117.14634411354518
 20
14.051111260566397
 30
0.0
 10
-117.53457268119897
 20
14
 30
0.0
 10
-117.92280124885275
 20
14.051111260566397
 30
0.0
 10
-118.28457268119897
 20
14.200961894323342
 30
0.0
 10
-118.59523285297878
 20
14.439339828220179
 30
0.0
 10
-118.83361078687562
 20
14.75
 30
0.0
 10
-118.98346142063257
 20
15.11177143234622
 30
0.0
 10
-119.03457268119897
 20
15.5
 30
0.0
 10
-118.98346142063257
 20
15.888228567653782
 30
0.0
 10
-118.83361078687562
 20
16.25
 30
0.0
 10
-118.59523285297878
 20
16.560660171779823
 30
0.0
 10
-118.28457268119897
 20
16.799038105676658
 30
0.0
 10
-117.92280124885275
 20
16.948888739433603
 30
0.0
 10
-117.53457268119897
 20
17
 30
0.0
 10
-117.14634411354518
 20
16.948888739433603
 30
0.0
 10
-116.78457268119897
 20
16.799038105676658
 30
0.0
 10
-116.47391250941914
 20
16.560660171779823
 30
0.0
 10
-116.23553457552231
 20
16.25
 30
0.0
 10
-116.08568394176537
 20
15.888228567653782
 30
0.0
 10
-116.03457268119897
 20
15.5
 30
0.0
 10
-116.08568394176537
 20
15.111771432346218
 30
0.0
 10
-116.23553457552231
 20
14.75
 30
0.0
 10
-116.47391250941914
 20
14.439339828220179
 30
0.0
 10
-116.78457268119897
 20
14.200961894323342
 30
0.0
 10
-117.14634411354518
 20
14.051111260566397
 30
0.0
  0
LWPOLYLINE
  8
OpenJsCad
  90
25
  70
1
 10
-117.14634411354518
 20
-16.948888739433603
 30
0.0
 10
-117.53457268119897
 20
-17
 30
0.0
 10
-117.92280124885275
 20
-16.948888739433603
 30
0.0
 10
-118.28457268119897
 20
-16.799038105676658
 30
0.0
 10
-118.59523285297878
 20
-16.560660171779823
 30
0.0
 10
-118.83361078687562
 20
-16.25
 30
0.0
 10
-118.98346142063257
 20
-15.88822856765378
 30
0.0
 10
-119.03457268119897
 20
-15.5
 30
0.0
 10
-118.98346142063257
 20
-15.111771432346218
 30
0.0
 10
-118.83361078687562
 20
-14.75
 30
0.0
 10
-118.59523285297878
 20
-14.439339828220177
 30
0.0
 10
-118.28457268119897
 20
-14.200961894323342
 30
0.0
 10
-117.92280124885275
 20
-14.051111260566397
 30
0.0
 10
-117.53457268119897
 20
-14
 30
0.0
 10
-117.14634411354518
 20
-14.051111260566397
 30
0.0
 10
-116.78457268119897
 20
-14.200961894323342
 30
0.0
 10
-116.47391250941914
 20
-14.439339828220179
 30
0.0
 10
-116.23553457552231
 20
-14.75
 30
0.0
 10
-116.08568394176537
 20
-15.111771432346218
 30
0.0
 10
-116.03457268119897
 20
-15.5
 30
0.0
 10
-116.08568394176537
 20
-15.888228567653782
 30
0.0
 10
-116.23553457552231
 20
-16.25
 30
0.0
 10
-116.47391250941914
 20
-16.560660171779823
 30
0.0
 10
-116.78457268119897
 20
-16.799038105676658
 30
0.0
 10
-117.14634411354518
 20
-16.948888739433603
 30
0.0
  0
LWPOLYLINE
  8
OpenJsCad
  90
5
  70
1
 10
-99.93457268119897
 20
5
 30
0.0
 10
-97.93457268119897
 20
5
 30
0.0
 10
-97.93457268119897
 20
-5
 30
0.0
 10
-99.93457268119897
 20
-5
 30
0.0
 10
-99.93457268119897
 20
5
 30
0.0
  0
LWPOLYLINE
  8
OpenJsCad
  90
5
  70
1
 10
97.93457268119897
 20
5
 30
0.0
 10
99.93457268119897
 20
5
 30
0.0
 10
99.93457268119897
 20
-5
 30
0.0
 10
97.93457268119897
 20
-5
 30
0.0
 10
97.93457268119897
 20
5
 30
0.0
  0
LWPOLYLINE
  8
OpenJsCad
  90
25
  70
1
 10
117.14634411354518
 20
-14.051111260566397
 30
0.0
 10
117.53457268119897
 20
-14
 30
0.0
 10
117.92280124885275
 20
-14.051111260566397
 30
0.0
 10
118.28457268119897
 20
-14.200961894323342
 30
0.0
 10
118.59523285297878
 20
-14.439339828220179
 30
0.0
 10
118.83361078687562
 20
-14.75
 30
0.0
 10
118.98346142063257
 20
-15.11177143234622
 30
0.0
 10
119.03457268119897
 20
-15.5
 30
0.0
 10
118.98346142063257
 20
-15.888228567653782
 30
0.0
 10
118.83361078687562
 20
-16.25
 30
0.0
 10
118.59523285297878
 20
-16.560660171779823
 30
0.0
 10
118.28457268119897
 20
-16.799038105676658
 30
0.0
 10
117.92280124885275
 20
-16.948888739433603
 30
0.0
 10
117.53457268119897
 20
-17
 30
0.0
 10
117.14634411354518
 20
-16.948888739433603
 30
0.0
 10
116.78457268119897
 20
-16.799038105676658
 30
0.0
 10
116.47391250941914
 20
-16.560660171779823
 30
0.0
 10
116.23553457552231
 20
-16.25
 30
0.0
 10
116.08568394176537
 20
-15.888228567653782
 30
0.0
 10
116.03457268119897
 20
-15.5
 30
0.0
 10
116.08568394176537
 20
-15.111771432346218
 30
0.0
 10
116.23553457552231
 20
-14.75
 30
0.0
 10
116.47391250941914
 20
-14.439339828220179
 30
0.0
 10
116.78457268119897
 20
-14.200961894323342
 30
0.0
 10
117.14634411354518
 20
-14.051111260566397
 30
0.0
  0
LWPOLYLINE
  8
OpenJsCad
  90
25
  70
1
 10
117.14634411354518
 20
16.948888739433603
 30
0.0
 10
117.53457268119897
 20
17
 30
0.0
 10
117.92280124885275
 20
16.948888739433603
 30
0.0
 10
118.28457268119897
 20
16.799038105676658
 30
0.0
 10
118.59523285297878
 20
16.560660171779823
 30
0.0
 10
118.83361078687562
 20
16.25
 30
0.0
 10
118.98346142063257
 20
15.88822856765378
 30
0.0
 10
119.03457268119897
 20
15.5
 30
0.0
 10
118.98346142063257
 20
15.111771432346218
 30
0.0
 10
118.83361078687562
 20
14.75
 30
0.0
 10
118.59523285297878
 20
14.439339828220177
 30
0.0
 10
118.28457268119897
 20
14.200961894323342
 30
0.0
 10
117.92280124885275
 20
14.051111260566397
 30
0.0
 10
117.53457268119897
 20
14
 30
0.0
 10
117.14634411354518
 20
14.051111260566397
 30
0.0
 10
116.78457268119897
 20
14.200961894323342
 30
0.0
 10
116.47391250941914
 20
14.439339828220179
 30
0.0
 10
116.23553457552231
 20
14.75
 30
0.0
 10
116.08568394176537
 20
15.111771432346218
 30
0.0
 10
116.03457268119897
 20
15.5
 30
0.0
 10
116.08568394176537
 20
15.888228567653782
 30
0.0
 10
116.23553457552231
 20
16.25
 30
0.0
 10
116.47391250941914
 20
16.560660171779823
 30
0.0
 10
116.78457268119897
 20
16.799038105676658
 30
0.0
 10
117.14634411354518
 20
16.948888739433603
 30
0.0
  0
ENDSEC
  0
EOF
