999
DXF generated by OpenJsCad
  0
SECTION
  2
HEADER
  0
ENDSEC
  0
SECTION
  2
TABLES
  0
TABLE
  2
LTYPE
  70
1
  0
LTYPE
  2
CONTINUOUS
  3
Solid Line
  72
65
  73
0
  40
0.0
  0
ENDTAB
  0
TABLE
  2
LAYER
  70
1
  0
LAYER
  2
OpenJsCad
  62
7
  6
continuous
  0
ENDTAB
  0
TABLE
  2
STYLE
  70
0
  0
ENDTAB
  0
TABLE
  2
VIEW
  70
0
  0
ENDTAB
  0
ENDSEC
  0
SECTION
  2
BLOCKS
  0
ENDSEC
  0
SECTION
  2
ENTITIES
  0
LWPOLYLINE
  8
OpenJsCad
  90
55
  70
1
 10
-167.13457268119896
 20
30
 30
0.0
 10
-167.13457268119896
 20
-30
 30
0.0
 10
-166.87901637836697
 20
-31.941142838268902
 30
0.0
 10
-166.12976320958225
 20
-33.75
 30
0.0
 10
-164.93787354009805
 20
-35.30330085889911
 30
0.0
 10
-163.38457268119896
 20
-36.49519052838329
 30
0.0
 10
-161.57571551946788
 20
-37.24444369716801
 30
0.0
 10
-159.63457268119896
 20
-37.5
 30
0.0
 10
159.63457268119896
 20
-37.5
 30
0.0
 10
161.57571551946788
 20
-37.24444369716801
 30
0.0
 10
163.38457268119896
 20
-36.49519052838329
 30
0.0
 10
164.93787354009805
 20
-35.30330085889911
 30
0.0
 10
166.12976320958225
 20
-33.75000000000001
 30
0.0
 10
166.87901637836697
 20
-31.941142838268906
 30
0.0
 10
167.13457268119896
 20
-30
 30
0.0
 10
167.13457268119896
 20
30
 30
0.0
 10
166.87901637836697
 20
31.941142838268906
 30
0.0
 10
166.12976320958225
 20
33.75
 30
0.0
 10
164.93787354009805
 20
35.30330085889911
 30
0.0
 10
163.38457268119896
 20
36.49519052838329
 30
0.0
 10
161.57571551946788
 20
37.24444369716801
 30
0.0
 10
159.63457268119896
 20
37.5
 30
0.0
 10
152.13457268119896
 20
37.5
 30
0.0
 10
152.13457268119896
 20
45.643593539448986
 30
0.0
 10
137.4743186433546
 20
54.10769515458673
 30
0.0
 10
134.3493186433546
 20
48.69503638093399
 30
0.0
 10
133.92112265720908
 20
48.09748957430873
 30
0.0
 10
133.38457873794562
 20
47.59496135484186
 30
0.0
 10
132.7603059674842
 20
47.206763600186406
 30
0.0
 10
132.07229479829738
 20
46.94781453234999
 30
0.0
 10
131.34698511377596
 20
46.82806541878923
 30
0.0
 10
130.61225015833773
 20
46.8521181507822
 30
0.0
 10
129.89632538427608
 20
47.019048395327346
 30
0.0
 10
129.22672337916293
 20
47.32244111674234
 30
0.0
 10
108.13457268119896
 20
59.5
 30
0.0
 10
-108.13457268119896
 20
59.5
 30
0.0
 10
-129.22672337916293
 20
47.32244111674235
 30
0.0
 10
-129.89632538427608
 20
47.019048395327346
 30
0.0
 10
-130.61225015833773
 20
46.8521181507822
 30
0.0
 10
-131.34698511377596
 20
46.82806541878924
 30
0.0
 10
-132.07229479829738
 20
46.94781453234999
 30
0.0
 10
-132.7603059674842
 20
47.20676360018641
 30
0.0
 10
-133.38457873794562
 20
47.594961354841864
 30
0.0
 10
-133.92112265720908
 20
48.09748957430874
 30
0.0
 10
-134.34931864335456
 20
48.69503638093399
 30
0.0
 10
-137.4743186433546
 20
54.10769515458675
 30
0.0
 10
-152.13457268119896
 20
45.643593539449
 30
0.0
 10
-152.13457268119896
 20
37.5
 30
0.0
 10
-159.63457268119896
 20
37.5
 30
0.0
 10
-161.57571551946788
 20
37.24444369716801
 30
0.0
 10
-163.38457268119896
 20
36.49519052838329
 30
0.0
 10
-164.93787354009805
 20
35.30330085889911
 30
0.0
 10
-166.12976320958225
 20
33.75
 30
0.0
 10
-166.87901637836697
 20
31.941142838268906
 30
0.0
 10
-167.13457268119896
 20
30
 30
0.0
  0
LWPOLYLINE
  8
OpenJsCad
  90
5
  70
1
 10
-115
 20
37.5
 30
0.0
 10
-125
 20
37.5
 30
0.0
 10
-125
 20
39.5
 30
0.0
 10
-115
 20
39.5
 30
0.0
 10
-115
 20
37.5
 30
0.0
  0
LWPOLYLINE
  8
OpenJsCad
  90
5
  70
1
 10
-67
 20
37.5
 30
0.0
 10
-77
 20
37.5
 30
0.0
 10
-77
 20
39.5
 30
0.0
 10
-67
 20
39.5
 30
0.0
 10
-67
 20
37.5
 30
0.0
  0
LWPOLYLINE
  8
OpenJsCad
  90
5
  70
1
 10
-19
 20
37.5
 30
0.0
 10
-29
 20
37.5
 30
0.0
 10
-29
 20
39.5
 30
0.0
 10
-19
 20
39.5
 30
0.0
 10
-19
 20
37.5
 30
0.0
  0
LWPOLYLINE
  8
OpenJsCad
  90
5
  70
1
 10
29
 20
37.5
 30
0.0
 10
19
 20
37.5
 30
0.0
 10
19
 20
39.5
 30
0.0
 10
29
 20
39.5
 30
0.0
 10
29
 20
37.5
 30
0.0
  0
LWPOLYLINE
  8
OpenJsCad
  90
5
  70
1
 10
77
 20
37.5
 30
0.0
 10
67
 20
37.5
 30
0.0
 10
67
 20
39.5
 30
0.0
 10
77
 20
39.5
 30
0.0
 10
77
 20
37.5
 30
0.0
  0
LWPOLYLINE
  8
OpenJsCad
  90
5
  70
1
 10
125
 20
37.5
 30
0.0
 10
115
 20
37.5
 30
0.0
 10
115
 20
39.5
 30
0.0
 10
125
 20
39.5
 30
0.0
 10
125
 20
37.5
 30
0.0
  0
LWPOLYLINE
  8
OpenJsCad
  90
25
  70
1
 10
-158.18568394176535
 20
-29.61177143234622
 30
0.0
 10
-158.13457268119896
 20
-30
 30
0.0
 10
-158.18568394176535
 20
-30.388228567653783
 30
0.0
 10
-158.3355345755223
 20
-30.75
 30
0.0
 10
-158.57391250941913
 20
-31.060660171779823
 30
0.0
 10
-158.88457268119896
 20
-31.299038105676658
 30
0.0
 10
-159.24634411354518
 20
-31.448888739433603
 30
0.0
 10
-159.63457268119896
 20
-31.5
 30
0.0
 10
-160.02280124885274
 20
-31.448888739433603
 30
0.0
 10
-160.38457268119896
 20
-31.299038105676658
 30
0.0
 10
-160.6952328529788
 20
-31.06066017177982
 30
0.0
 10
-160.93361078687562
 20
-30.75
 30
0.0
 10
-161.08346142063257
 20
-30.38822856765378
 30
0.0
 10
-161.13457268119896
 20
-30
 30
0.0
 10
-161.08346142063257
 20
-29.611771432346217
 30
0.0
 10
-160.93361078687562
 20
-29.25
 30
0.0
 10
-160.6952328529788
 20
-28.939339828220177
 30
0.0
 10
-160.38457268119896
 20
-28.700961894323342
 30
0.0
 10
-160.02280124885274
 20
-28.551111260566397
 30
0.0
 10
-159.63457268119896
 20
-28.5
 30
0.0
 10
-159.24634411354518
 20
-28.551111260566397
 30
0.0
 10
-158.88457268119896
 20
-28.700961894323342
 30
0.0
 10
-158.57391250941913
 20
-28.939339828220177
 30
0.0
 10
-158.3355345755223
 20
-29.25
 30
0.0
 10
-158.18568394176535
 20
-29.61177143234622
 30
0.0
  0
LWPOLYLINE
  8
OpenJsCad
  90
25
  70
1
 10
-158.18568394176535
 20
30.38822856765378
 30
0.0
 10
-158.13457268119896
 20
30
 30
0.0
 10
-158.18568394176535
 20
29.611771432346217
 30
0.0
 10
-158.3355345755223
 20
29.25
 30
0.0
 10
-158.57391250941913
 20
28.939339828220177
 30
0.0
 10
-158.88457268119896
 20
28.700961894323342
 30
0.0
 10
-159.24634411354518
 20
28.551111260566397
 30
0.0
 10
-159.63457268119896
 20
28.5
 30
0.0
 10
-160.02280124885274
 20
28.551111260566397
 30
0.0
 10
-160.38457268119896
 20
28.700961894323342
 30
0.0
 10
-160.6952328529788
 20
28.93933982822018
 30
0.0
 10
-160.93361078687562
 20
29.25
 30
0.0
 10
-161.08346142063257
 20
29.61177143234622
 30
0.0
 10
-161.13457268119896
 20
30
 30
0.0
 10
-161.08346142063257
 20
30.388228567653783
 30
0.0
 10
-160.93361078687562
 20
30.75
 30
0.0
 10
-160.6952328529788
 20
31.060660171779823
 30
0.0
 10
-160.38457268119896
 20
31.299038105676658
 30
0.0
 10
-160.02280124885274
 20
31.448888739433603
 30
0.0
 10
-159.63457268119896
 20
31.5
 30
0.0
 10
-159.24634411354518
 20
31.448888739433603
 30
0.0
 10
-158.88457268119896
 20
31.299038105676658
 30
0.0
 10
-158.57391250941913
 20
31.060660171779823
 30
0.0
 10
-158.3355345755223
 20
30.75
 30
0.0
 10
-158.18568394176535
 20
30.38822856765378
 30
0.0
  0
LWPOLYLINE
  8
OpenJsCad
  90
25
  70
1
 10
161.08346142063257
 20
-29.61177143234622
 30
0.0
 10
161.13457268119896
 20
-30
 30
0.0
 10
161.08346142063257
 20
-30.388228567653783
 30
0.0
 10
160.93361078687562
 20
-30.75
 30
0.0
 10
160.6952328529788
 20
-31.060660171779823
 30
0.0
 10
160.38457268119896
 20
-31.299038105676658
 30
0.0
 10
160.02280124885274
 20
-31.448888739433603
 30
0.0
 10
159.63457268119896
 20
-31.5
 30
0.0
 10
159.24634411354518
 20
-31.448888739433603
 30
0.0
 10
158.88457268119896
 20
-31.299038105676658
 30
0.0
 10
158.57391250941913
 20
-31.06066017177982
 30
0.0
 10
158.3355345755223
 20
-30.75
 30
0.0
 10
158.18568394176535
 20
-30.38822856765378
 30
0.0
 10
158.13457268119896
 20
-30
 30
0.0
 10
158.18568394176535
 20
-29.611771432346217
 30
0.0
 10
158.3355345755223
 20
-29.25
 30
0.0
 10
158.57391250941913
 20
-28.939339828220177
 30
0.0
 10
158.88457268119896
 20
-28.700961894323342
 30
0.0
 10
159.24634411354518
 20
-28.551111260566397
 30
0.0
 10
159.63457268119896
 20
-28.5
 30
0.0
 10
160.02280124885274
 20
-28.551111260566397
 30
0.0
 10
160.38457268119896
 20
-28.700961894323342
 30
0.0
 10
160.6952328529788
 20
-28.939339828220177
 30
0.0
 10
160.93361078687562
 20
-29.25
 30
0.0
 10
161.08346142063257
 20
-29.61177143234622
 30
0.0
  0
LWPOLYLINE
  8
OpenJsCad
  90
25
  70
1
 10
161.08346142063257
 20
30.38822856765378
 30
0.0
 10
161.13457268119896
 20
30
 30
0.0
 10
161.08346142063257
 20
29.611771432346217
 30
0.0
 10
160.93361078687562
 20
29.25
 30
0.0
 10
160.6952328529788
 20
28.939339828220177
 30
0.0
 10
160.38457268119896
 20
28.700961894323342
 30
0.0
 10
160.02280124885274
 20
28.551111260566397
 30
0.0
 10
159.63457268119896
 20
28.5
 30
0.0
 10
159.24634411354518
 20
28.551111260566397
 30
0.0
 10
158.88457268119896
 20
28.700961894323342
 30
0.0
 10
158.57391250941913
 20
28.93933982822018
 30
0.0
 10
158.3355345755223
 20
29.25
 30
0.0
 10
158.18568394176535
 20
29.61177143234622
 30
0.0
 10
158.13457268119896
 20
30
 30
0.0
 10
158.18568394176535
 20
30.388228567653783
 30
0.0
 10
158.3355345755223
 20
30.75
 30
0.0
 10
158.57391250941913
 20
31.060660171779823
 30
0.0
 10
158.88457268119896
 20
31.299038105676658
 30
0.0
 10
159.24634411354518
 20
31.448888739433603
 30
0.0
 10
159.63457268119896
 20
31.5
 30
0.0
 10
160.02280124885274
 20
31.448888739433603
 30
0.0
 10
160.38457268119896
 20
31.299038105676658
 30
0.0
 10
160.6952328529788
 20
31.060660171779823
 30
0.0
 10
160.93361078687562
 20
30.75
 30
0.0
 10
161.08346142063257
 20
30.38822856765378
 30
0.0
  0
LWPOLYLINE
  8
OpenJsCad
  90
5
  70
1
 10
-152.13457268119896
 20
-10
 30
0.0
 10
-152.13457268119896
 20
-20
 30
0.0
 10
-154.13457268119896
 20
-20
 30
0.0
 10
-154.13457268119896
 20
-10
 30
0.0
 10
-152.13457268119896
 20
-10
 30
0.0
  0
LWPOLYLINE
  8
OpenJsCad
  90
5
  70
1
 10
-152.13457268119896
 20
20
 30
0.0
 10
-152.13457268119896
 20
10
 30
0.0
 10
-154.13457268119896
 20
10
 30
0.0
 10
-154.13457268119896
 20
20
 30
0.0
 10
-152.13457268119896
 20
20
 30
0.0
  0
LWPOLYLINE
  8
OpenJsCad
  90
5
  70
1
 10
152.13457268119896
 20
-20
 30
0.0
 10
152.13457268119896
 20
-10
 30
0.0
 10
154.13457268119896
 20
-10
 30
0.0
 10
154.13457268119896
 20
-20
 30
0.0
 10
152.13457268119896
 20
-20
 30
0.0
  0
LWPOLYLINE
  8
OpenJsCad
  90
5
  70
1
 10
152.13457268119896
 20
10
 30
0.0
 10
152.13457268119896
 20
20
 30
0.0
 10
154.13457268119896
 20
20
 30
0.0
 10
154.13457268119896
 20
10
 30
0.0
 10
152.13457268119896
 20
10
 30
0.0
  0
LWPOLYLINE
  8
OpenJsCad
  90
82
  70
1
 10
-128.03457268119897
 20
23.1
 30
0.0
 10
-96.93457268119897
 20
23.1
 30
0.0
 10
-96.93457268119897
 20
21.1
 30
0.0
 10
-128.03457268119897
 20
21.1
 30
0.0
 10
-129.32866790671156
 20
20.929629131445346
 30
0.0
 10
-130.53457268119897
 20
20.430127018922192
 30
0.0
 10
-131.5701065871317
 20
19.63553390593274
 30
0.0
 10
-132.36469970012115
 20
18.600000000000005
 30
0.0
 10
-132.8642018126443
 20
17.394095225512604
 30
0.0
 10
-133.03457268119897
 20
16.1
 30
0.0
 10
-133.03457268119897
 20
11
 30
0.0
 10
-132.31513825966738
 20
10.976448155624638
 30
0.0
 10
-131.5987845667784
 20
10.905893475111913
 30
0.0
 10
-130.88857913902154
 20
10.788638084435535
 30
0.0
 10
-130.18756318507124
 20
10.62518408917975
 30
0.0
 10
-129.4987385628642
 20
10.416231424446163
 30
0.0
 10
-128.82505492518297
 20
10.162674857624154
 30
0.0
 10
-128.16939708878994
 20
9.86560015685957
 30
0.0
 10
-127.53457268119897
 20
9.526279441628827
 30
0.0
 10
-126.92330011798335
 20
9.146165735327994
 30
0.0
 10
-126.33819696210304
 20
8.726886743203586
 30
0.0
 10
-125.78176871509821
 20
8.27023788226875
 30
0.0
 10
-125.25639808814694
 20
7.778174593052021
 30
0.0
 10
-124.76433479893021
 20
7.252803966100759
 30
0.0
 10
-124.30768593799539
 20
6.696375719095927
 30
0.0
 10
-123.88840694587097
 20
6.111272563215625
 30
0.0
 10
-123.50829323957014
 20
5.499999999999997
 30
0.0
 10
-123.1689725243394
 20
4.865175592409013
 30
0.0
 10
-122.87189782357481
 20
4.209517756015985
 30
0.0
 10
-122.6183412567528
 20
3.5358341183347775
 30
0.0
 10
-122.40938859201921
 20
2.8470094961277277
 30
0.0
 10
-122.24593459676343
 20
2.1459935421774103
 30
0.0
 10
-122.12867920608706
 20
1.435788114420568
 30
0.0
 10
-122.05812452557433
 20
0.7194344215315748
 30
0.0
 10
-122.03457268119897
 20
0
 30
0.0
 10
-122.05812452557433
 20
-0.719434421531576
 30
0.0
 10
-122.12867920608706
 20
-1.4357881144205675
 30
0.0
 10
-122.24593459676343
 20
-2.145993542177411
 30
0.0
 10
-122.40938859201921
 20
-2.8470094961277286
 30
0.0
 10
-122.6183412567528
 20
-3.5358341183347775
 30
0.0
 10
-122.87189782357481
 20
-4.2095177560159875
 30
0.0
 10
-123.1689725243394
 20
-4.865175592409014
 30
0.0
 10
-123.50829323957014
 20
-5.5
 30
0.0
 10
-123.88840694587097
 20
-6.111272563215625
 30
0.0
 10
-124.30768593799539
 20
-6.696375719095927
 30
0.0
 10
-124.76433479893021
 20
-7.252803966100759
 30
0.0
 10
-125.25639808814694
 20
-7.778174593052022
 30
0.0
 10
-125.78176871509821
 20
-8.270237882268752
 30
0.0
 10
-126.33819696210304
 20
-8.726886743203586
 30
0.0
 10
-126.92330011798335
 20
-9.146165735327996
 30
0.0
 10
-127.53457268119897
 20
-9.526279441628827
 30
0.0
 10
-128.16939708878996
 20
-9.865600156859571
 30
0.0
 10
-128.82505492518297
 20
-10.162674857624154
 30
0.0
 10
-129.4987385628642
 20
-10.416231424446163
 30
0.0
 10
-130.18756318507124
 20
-10.62518408917975
 30
0.0
 10
-130.88857913902154
 20
-10.788638084435535
 30
0.0
 10
-131.5987845667784
 20
-10.905893475111915
 30
0.0
 10
-132.31513825966738
 20
-10.976448155624638
 30
0.0
 10
-133.03457268119897
 20
-11
 30
0.0
 10
-133.03457268119897
 20
-16.1
 30
0.0
 10
-132.8642018126443
 20
-17.394095225512608
 30
0.0
 10
-132.36469970012115
 20
-18.6
 30
0.0
 10
-131.5701065871317
 20
-19.63553390593274
 30
0.0
 10
-130.53457268119897
 20
-20.430127018922192
 30
0.0
 10
-129.32866790671156
 20
-20.929629131445342
 30
0.0
 10
-128.03457268119897
 20
-21.1
 30
0.0
 10
-96.93457268119897
 20
-21.1
 30
0.0
 10
-96.93457268119897
 20
-23.1
 30
0.0
 10
-128.03457268119897
 20
-23.1
 30
0.0
 10
-129.8463059969166
 20
-22.861480784023477
 30
0.0
 10
-131.53457268119897
 20
-22.16217782649107
 30
0.0
 10
-132.9843201495048
 20
-21.04974746830583
 30
0.0
 10
-134.09675050769005
 20
-19.6
 30
0.0
 10
-134.79605346522246
 20
-17.91173331571765
 30
0.0
 10
-135.03457268119897
 20
-16.1
 30
0.0
 10
-135.03457268119897
 20
16.1
 30
0.0
 10
-134.79605346522246
 20
17.911733315717647
 30
0.0
 10
-134.09675050769005
 20
19.600000000000005
 30
0.0
 10
-132.9843201495048
 20
21.049747468305835
 30
0.0
 10
-131.53457268119897
 20
22.16217782649107
 30
0.0
 10
-129.8463059969166
 20
22.86148078402348
 30
0.0
 10
-128.03457268119897
 20
23.1
 30
0.0
  0
LWPOLYLINE
  8
OpenJsCad
  90
82
  70
1
 10
96.93457268119897
 20
23.1
 30
0.0
 10
128.03457268119897
 20
23.1
 30
0.0
 10
129.8463059969166
 20
22.861480784023477
 30
0.0
 10
131.53457268119897
 20
22.16217782649107
 30
0.0
 10
132.9843201495048
 20
21.04974746830583
 30
0.0
 10
134.09675050769005
 20
19.6
 30
0.0
 10
134.79605346522246
 20
17.91173331571765
 30
0.0
 10
135.03457268119897
 20
16.1
 30
0.0
 10
135.03457268119897
 20
-16.1
 30
0.0
 10
134.79605346522246
 20
-17.911733315717647
 30
0.0
 10
134.09675050769005
 20
-19.600000000000005
 30
0.0
 10
132.9843201495048
 20
-21.049747468305835
 30
0.0
 10
131.53457268119897
 20
-22.16217782649107
 30
0.0
 10
129.8463059969166
 20
-22.86148078402348
 30
0.0
 10
128.03457268119897
 20
-23.1
 30
0.0
 10
96.93457268119897
 20
-23.1
 30
0.0
 10
96.93457268119897
 20
-21.1
 30
0.0
 10
128.03457268119897
 20
-21.1
 30
0.0
 10
129.32866790671156
 20
-20.929629131445346
 30
0.0
 10
130.53457268119897
 20
-20.430127018922192
 30
0.0
 10
131.5701065871317
 20
-19.63553390593274
 30
0.0
 10
132.36469970012115
 20
-18.600000000000005
 30
0.0
 10
132.8642018126443
 20
-17.394095225512604
 30
0.0
 10
133.03457268119897
 20
-16.1
 30
0.0
 10
133.03457268119897
 20
-11
 30
0.0
 10
132.31513825966738
 20
-10.976448155624638
 30
0.0
 10
131.5987845667784
 20
-10.905893475111913
 30
0.0
 10
130.88857913902154
 20
-10.788638084435535
 30
0.0
 10
130.18756318507124
 20
-10.62518408917975
 30
0.0
 10
129.4987385628642
 20
-10.416231424446163
 30
0.0
 10
128.82505492518297
 20
-10.162674857624154
 30
0.0
 10
128.16939708878994
 20
-9.86560015685957
 30
0.0
 10
127.53457268119897
 20
-9.526279441628827
 30
0.0
 10
126.92330011798335
 20
-9.146165735327994
 30
0.0
 10
126.33819696210304
 20
-8.726886743203586
 30
0.0
 10
125.78176871509821
 20
-8.27023788226875
 30
0.0
 10
125.25639808814694
 20
-7.778174593052021
 30
0.0
 10
124.76433479893021
 20
-7.252803966100759
 30
0.0
 10
124.30768593799539
 20
-6.696375719095927
 30
0.0
 10
123.88840694587097
 20
-6.111272563215625
 30
0.0
 10
123.50829323957014
 20
-5.499999999999997
 30
0.0
 10
123.1689725243394
 20
-4.865175592409013
 30
0.0
 10
122.87189782357481
 20
-4.209517756015985
 30
0.0
 10
122.6183412567528
 20
-3.5358341183347775
 30
0.0
 10
122.40938859201921
 20
-2.8470094961277277
 30
0.0
 10
122.24593459676343
 20
-2.1459935421774103
 30
0.0
 10
122.12867920608706
 20
-1.435788114420568
 30
0.0
 10
122.05812452557433
 20
-0.7194344215315748
 30
0.0
 10
122.03457268119897
 20
0
 30
0.0
 10
122.05812452557433
 20
0.719434421531576
 30
0.0
 10
122.12867920608706
 20
1.4357881144205675
 30
0.0
 10
122.24593459676343
 20
2.145993542177411
 30
0.0
 10
122.40938859201921
 20
2.8470094961277286
 30
0.0
 10
122.6183412567528
 20
3.5358341183347775
 30
0.0
 10
122.87189782357481
 20
4.2095177560159875
 30
0.0
 10
123.1689725243394
 20
4.865175592409014
 30
0.0
 10
123.50829323957014
 20
5.5
 30
0.0
 10
123.88840694587097
 20
6.111272563215625
 30
0.0
 10
124.30768593799539
 20
6.696375719095927
 30
0.0
 10
124.76433479893021
 20
7.252803966100759
 30
0.0
 10
125.25639808814694
 20
7.778174593052022
 30
0.0
 10
125.78176871509821
 20
8.270237882268752
 30
0.0
 10
126.33819696210304
 20
8.726886743203586
 30
0.0
 10
126.92330011798335
 20
9.146165735327996
 30
0.0
 10
127.53457268119897
 20
9.526279441628827
 30
0.0
 10
128.16939708878996
 20
9.865600156859571
 30
0.0
 10
128.82505492518297
 20
10.162674857624154
 30
0.0
 10
129.4987385628642
 20
10.416231424446163
 30
0.0
 10
130.18756318507124
 20
10.62518408917975
 30
0.0
 10
130.88857913902154
 20
10.788638084435535
 30
0.0
 10
131.5987845667784
 20
10.905893475111915
 30
0.0
 10
132.31513825966738
 20
10.976448155624638
 30
0.0
 10
133.03457268119897
 20
11
 30
0.0
 10
133.03457268119897
 20
16.1
 30
0.0
 10
132.8642018126443
 20
17.394095225512608
 30
0.0
 10
132.36469970012115
 20
18.6
 30
0.0
 10
131.5701065871317
 20
19.63553390593274
 30
0.0
 10
130.53457268119897
 20
20.430127018922192
 30
0.0
 10
129.32866790671156
 20
20.929629131445342
 30
0.0
 10
128.03457268119897
 20
21.1
 30
0.0
 10
96.93457268119897
 20
21.1
 30
0.0
 10
96.93457268119897
 20
23.1
 30
0.0
  0
LWPOLYLINE
  8
OpenJsCad
  90
25
  70
1
 10
-117.14634411354518
 20
14.051111260566397
 30
0.0
 10
-117.53457268119897
 20
14
 30
0.0
 10
-117.92280124885275
 20
14.051111260566397
 30
0.0
 10
-118.28457268119897
 20
14.200961894323342
 30
0.0
 10
-118.59523285297878
 20
14.439339828220179
 30
0.0
 10
-118.83361078687562
 20
14.75
 30
0.0
 10
-118.98346142063257
 20
15.11177143234622
 30
0.0
 10
-119.03457268119897
 20
15.5
 30
0.0
 10
-118.98346142063257
 20
15.888228567653782
 30
0.0
 10
-118.83361078687562
 20
16.25
 30
0.0
 10
-118.59523285297878
 20
16.560660171779823
 30
0.0
 10
-118.28457268119897
 20
16.799038105676658
 30
0.0
 10
-117.92280124885275
 20
16.948888739433603
 30
0.0
 10
-117.53457268119897
 20
17
 30
0.0
 10
-117.14634411354518
 20
16.948888739433603
 30
0.0
 10
-116.78457268119897
 20
16.799038105676658
 30
0.0
 10
-116.47391250941914
 20
16.560660171779823
 30
0.0
 10
-116.23553457552231
 20
16.25
 30
0.0
 10
-116.08568394176537
 20
15.888228567653782
 30
0.0
 10
-116.03457268119897
 20
15.5
 30
0.0
 10
-116.08568394176537
 20
15.111771432346218
 30
0.0
 10
-116.23553457552231
 20
14.75
 30
0.0
 10
-116.47391250941914
 20
14.439339828220179
 30
0.0
 10
-116.78457268119897
 20
14.200961894323342
 30
0.0
 10
-117.14634411354518
 20
14.051111260566397
 30
0.0
  0
LWPOLYLINE
  8
OpenJsCad
  90
25
  70
1
 10
-117.14634411354518
 20
-16.948888739433603
 30
0.0
 10
-117.53457268119897
 20
-17
 30
0.0
 10
-117.92280124885275
 20
-16.948888739433603
 30
0.0
 10
-118.28457268119897
 20
-16.799038105676658
 30
0.0
 10
-118.59523285297878
 20
-16.560660171779823
 30
0.0
 10
-118.83361078687562
 20
-16.25
 30
0.0
 10
-118.98346142063257
 20
-15.88822856765378
 30
0.0
 10
-119.03457268119897
 20
-15.5
 30
0.0
 10
-118.98346142063257
 20
-15.111771432346218
 30
0.0
 10
-118.83361078687562
 20
-14.75
 30
0.0
 10
-118.59523285297878
 20
-14.439339828220177
 30
0.0
 10
-118.28457268119897
 20
-14.200961894323342
 30
0.0
 10
-117.92280124885275
 20
-14.051111260566397
 30
0.0
 10
-117.53457268119897
 20
-14
 30
0.0
 10
-117.14634411354518
 20
-14.051111260566397
 30
0.0
 10
-116.78457268119897
 20
-14.200961894323342
 30
0.0
 10
-116.47391250941914
 20
-14.439339828220179
 30
0.0
 10
-116.23553457552231
 20
-14.75
 30
0.0
 10
-116.08568394176537
 20
-15.111771432346218
 30
0.0
 10
-116.03457268119897
 20
-15.5
 30
0.0
 10
-116.08568394176537
 20
-15.888228567653782
 30
0.0
 10
-116.23553457552231
 20
-16.25
 30
0.0
 10
-116.47391250941914
 20
-16.560660171779823
 30
0.0
 10
-116.78457268119897
 20
-16.799038105676658
 30
0.0
 10
-117.14634411354518
 20
-16.948888739433603
 30
0.0
  0
LWPOLYLINE
  8
OpenJsCad
  90
5
  70
1
 10
-99.93457268119897
 20
5
 30
0.0
 10
-97.93457268119897
 20
5
 30
0.0
 10
-97.93457268119897
 20
-5
 30
0.0
 10
-99.93457268119897
 20
-5
 30
0.0
 10
-99.93457268119897
 20
5
 30
0.0
  0
LWPOLYLINE
  8
OpenJsCad
  90
5
  70
1
 10
97.93457268119897
 20
5
 30
0.0
 10
99.93457268119897
 20
5
 30
0.0
 10
99.93457268119897
 20
-5
 30
0.0
 10
97.93457268119897
 20
-5
 30
0.0
 10
97.93457268119897
 20
5
 30
0.0
  0
LWPOLYLINE
  8
OpenJsCad
  90
25
  70
1
 10
117.14634411354518
 20
-14.051111260566397
 30
0.0
 10
117.53457268119897
 20
-14
 30
0.0
 10
117.92280124885275
 20
-14.051111260566397
 30
0.0
 10
118.28457268119897
 20
-14.200961894323342
 30
0.0
 10
118.59523285297878
 20
-14.439339828220179
 30
0.0
 10
118.83361078687562
 20
-14.75
 30
0.0
 10
118.98346142063257
 20
-15.11177143234622
 30
0.0
 10
119.03457268119897
 20
-15.5
 30
0.0
 10
118.98346142063257
 20
-15.888228567653782
 30
0.0
 10
118.83361078687562
 20
-16.25
 30
0.0
 10
118.59523285297878
 20
-16.560660171779823
 30
0.0
 10
118.28457268119897
 20
-16.799038105676658
 30
0.0
 10
117.92280124885275
 20
-16.948888739433603
 30
0.0
 10
117.53457268119897
 20
-17
 30
0.0
 10
117.14634411354518
 20
-16.948888739433603
 30
0.0
 10
116.78457268119897
 20
-16.799038105676658
 30
0.0
 10
116.47391250941914
 20
-16.560660171779823
 30
0.0
 10
116.23553457552231
 20
-16.25
 30
0.0
 10
116.08568394176537
 20
-15.888228567653782
 30
0.0
 10
116.03457268119897
 20
-15.5
 30
0.0
 10
116.08568394176537
 20
-15.111771432346218
 30
0.0
 10
116.23553457552231
 20
-14.75
 30
0.0
 10
116.47391250941914
 20
-14.439339828220179
 30
0.0
 10
116.78457268119897
 20
-14.200961894323342
 30
0.0
 10
117.14634411354518
 20
-14.051111260566397
 30
0.0
  0
LWPOLYLINE
  8
OpenJsCad
  90
25
  70
1
 10
117.14634411354518
 20
16.948888739433603
 30
0.0
 10
117.53457268119897
 20
17
 30
0.0
 10
117.92280124885275
 20
16.948888739433603
 30
0.0
 10
118.28457268119897
 20
16.799038105676658
 30
0.0
 10
118.59523285297878
 20
16.560660171779823
 30
0.0
 10
118.83361078687562
 20
16.25
 30
0.0
 10
118.98346142063257
 20
15.88822856765378
 30
0.0
 10
119.03457268119897
 20
15.5
 30
0.0
 10
118.98346142063257
 20
15.111771432346218
 30
0.0
 10
118.83361078687562
 20
14.75
 30
0.0
 10
118.59523285297878
 20
14.439339828220177
 30
0.0
 10
118.28457268119897
 20
14.200961894323342
 30
0.0
 10
117.92280124885275
 20
14.051111260566397
 30
0.0
 10
117.53457268119897
 20
14
 30
0.0
 10
117.14634411354518
 20
14.051111260566397
 30
0.0
 10
116.78457268119897
 20
14.200961894323342
 30
0.0
 10
116.47391250941914
 20
14.439339828220179
 30
0.0
 10
116.23553457552231
 20
14.75
 30
0.0
 10
116.08568394176537
 20
15.111771432346218
 30
0.0
 10
116.03457268119897
 20
15.5
 30
0.0
 10
116.08568394176537
 20
15.888228567653782
 30
0.0
 10
116.23553457552231
 20
16.25
 30
0.0
 10
116.47391250941914
 20
16.560660171779823
 30
0.0
 10
116.78457268119897
 20
16.799038105676658
 30
0.0
 10
117.14634411354518
 20
16.948888739433603
 30
0.0
  0
ENDSEC
  0
EOF
