999
DXF generated by OpenJsCad
  0
SECTION
  2
HEADER
  0
ENDSEC
  0
SECTION
  2
TABLES
  0
TABLE
  2
LTYPE
  70
1
  0
LTYPE
  2
CONTINUOUS
  3
Solid Line
  72
65
  73
0
  40
0.0
  0
ENDTAB
  0
TABLE
  2
LAYER
  70
1
  0
LAYER
  2
OpenJsCad
  62
7
  6
continuous
  0
ENDTAB
  0
TABLE
  2
STYLE
  70
0
  0
ENDTAB
  0
TABLE
  2
VIEW
  70
0
  0
ENDTAB
  0
ENDSEC
  0
SECTION
  2
BLOCKS
  0
ENDSEC
  0
SECTION
  2
ENTITIES
  0
LWPOLYLINE
  8
OpenJsCad
  90
145
  70
1
 10
-165.88457268119896
 20
-72.67949192431118
 30
0.0
 10
-145.88457268119896
 20
-107.32050807568874
 30
0.0
 10
-145.88457268119893
 20
-109.32050807568879
 30
0.0
 10
-155.88457268119893
 20
-109.32050807568879
 30
0.0
 10
-158.47276313222415
 20
-109.6612498127981
 30
0.0
 10
-160.88457268119893
 20
-110.6602540378444
 30
0.0
 10
-162.9556404930644
 20
-112.24944026382332
 30
0.0
 10
-164.54482671904333
 20
-114.32050807568879
 30
0.0
 10
-165.54383094408962
 20
-116.73231762466358
 30
0.0
 10
-165.88457268119893
 20
-119.32050807568879
 30
0.0
 10
-165.88457268119893
 20
-179.3205080756888
 30
0.0
 10
-165.54383094408962
 20
-181.908698526714
 30
0.0
 10
-164.54482671904333
 20
-184.3205080756888
 30
0.0
 10
-162.9556404930644
 20
-186.39157588755427
 30
0.0
 10
-160.88457268119893
 20
-187.98076211353316
 30
0.0
 10
-158.47276313222415
 20
-188.97976633857948
 30
0.0
 10
-155.88457268119893
 20
-189.3205080756888
 30
0.0
 10
-145.88457268119893
 20
-189.3205080756888
 30
0.0
 10
-145.88457268119893
 20
-199.3205080756888
 30
0.0
 10
-145.54383094408962
 20
-201.908698526714
 30
0.0
 10
-144.54482671904333
 20
-204.3205080756888
 30
0.0
 10
-142.9556404930644
 20
-206.39157588755427
 30
0.0
 10
-140.88457268119893
 20
-207.98076211353316
 30
0.0
 10
-138.47276313222415
 20
-208.97976633857948
 30
0.0
 10
-135.88457268119893
 20
-209.3205080756888
 30
0.0
 10
135.88457268119893
 20
-209.3205080756888
 30
0.0
 10
138.47276313222415
 20
-208.97976633857948
 30
0.0
 10
140.88457268119893
 20
-207.98076211353316
 30
0.0
 10
142.9556404930644
 20
-206.39157588755427
 30
0.0
 10
144.54482671904333
 20
-204.3205080756888
 30
0.0
 10
145.54383094408962
 20
-201.908698526714
 30
0.0
 10
145.88457268119896
 20
-199.3205080756888
 30
0.0
 10
145.88457268119896
 20
-189.3205080756888
 30
0.0
 10
155.88457268119893
 20
-189.3205080756888
 30
0.0
 10
158.47276313222415
 20
-188.97976633857948
 30
0.0
 10
160.88457268119893
 20
-187.98076211353316
 30
0.0
 10
162.9556404930644
 20
-186.39157588755427
 30
0.0
 10
164.54482671904333
 20
-184.3205080756888
 30
0.0
 10
165.54383094408962
 20
-181.908698526714
 30
0.0
 10
165.88457268119893
 20
-179.3205080756888
 30
0.0
 10
165.88457268119893
 20
-119.32050807568879
 30
0.0
 10
165.54383094408962
 20
-116.73231762466358
 30
0.0
 10
164.54482671904333
 20
-114.32050807568879
 30
0.0
 10
162.9556404930644
 20
-112.24944026382332
 30
0.0
 10
160.88457268119893
 20
-110.66025403784441
 30
0.0
 10
158.47276313222415
 20
-109.6612498127981
 30
0.0
 10
155.88457268119893
 20
-109.32050807568879
 30
0.0
 10
145.88457268119896
 20
-109.32050807568879
 30
0.0
 10
145.88457268119896
 20
-107.32050807568874
 30
0.0
 10
165.88457268119896
 20
-72.67949192431118
 30
0.0
 10
167.6166234887677
 20
-71.67949192431095
 30
0.0
 10
172.6166234887678
 20
-80.33974596215577
 30
0.0
 10
174.20580971474672
 20
-82.41081377402108
 30
0.0
 10
176.27687752661217
 20
-84
 30
0.0
 10
178.68868707558698
 20
-84.99900422504629
 30
0.0
 10
181.2768775266122
 20
-85.33974596215563
 30
0.0
 10
183.8650679776374
 20
-84.9990042250463
 30
0.0
 10
186.2768775266122
 20
-84
 30
0.0
 10
238.23840175367852
 20
-54.000000000000014
 30
0.0
 10
240.30946956554402
 20
-52.41081377402111
 30
0.0
 10
241.8986557915229
 20
-50.33974596215565
 30
0.0
 10
242.8976600165692
 20
-47.92793641318083
 30
0.0
 10
243.2384017536785
 20
-45.33974596215565
 30
0.0
 10
242.8976600165692
 20
-42.75155551113042
 30
0.0
 10
241.89865579152806
 20
-40.33974596215296
 30
0.0
 10
236.89865579152297
 20
-31.67949192431108
 30
0.0
 10
245.55890982936734
 20
-26.679491924311122
 30
0.0
 10
247.62997764123278
 20
-25.090305698332344
 30
0.0
 10
249.2191638672117
 20
-23.01923788646687
 30
0.0
 10
250.218168092258
 20
-20.607428337492067
 30
0.0
 10
250.55890982936728
 20
-18.01923788646687
 30
0.0
 10
250.218168092258
 20
-15.431047435441656
 30
0.0
 10
249.2191638672117
 20
-13.019237886466854
 30
0.0
 10
113.33459118601282
 20
222.33974596215558
 30
0.0
 10
111.74540496003391
 20
224.41081377402105
 30
0.0
 10
109.67433714816842
 20
225.99999999999994
 30
0.0
 10
107.26252759919363
 20
226.99900422504624
 30
0.0
 10
104.67433714816843
 20
227.33974596215558
 30
0.0
 10
102.08614669714322
 20
226.99900422504626
 30
0.0
 10
99.67433714816808
 20
226.0000000000008
 30
0.0
 10
91.01408311032371
 20
221.00000000000074
 30
0.0
 10
86.01408311032397
 20
229.6602540378443
 30
0.0
 10
84.42489688434512
 20
231.73132184970981
 30
0.0
 10
82.35382907247964
 20
233.32050807568874
 30
0.0
 10
79.94201952350488
 20
234.31951230073503
 30
0.0
 10
77.35382907247966
 20
234.66025403784437
 30
0.0
 10
74.76563862145447
 20
234.31951230073503
 30
0.0
 10
72.35382907247967
 20
233.32050807568874
 30
0.0
 10
20.39230484541335
 20
203.32050807568874
 30
0.0
 10
18.32123703354786
 20
201.73132184970984
 30
0.0
 10
16.732050807568953
 20
199.66025403784437
 30
0.0
 10
15.733046582522661
 20
197.24844448886955
 30
0.0
 10
15.39230484541335
 20
194.66025403784437
 30
0.0
 10
15.733046582522633
 20
192.07206358681916
 30
0.0
 10
16.732050807570516
 20
189.66025403784528
 30
0.0
 10
21.73205080756894
 20
181.00000000000006
 30
0.0
 10
20
 20
180
 30
0.0
 10
-20
 20
180
 30
0.0
 10
-21.732050807569152
 20
180.9999999999995
 30
0.0
 10
-16.732050807568683
 20
189.66025403784448
 30
0.0
 10
-15.733046582522505
 20
192.07206358681916
 30
0.0
 10
-15.392304845413179
 20
194.66025403784437
 30
0.0
 10
-15.733046582522505
 20
197.2484444888696
 30
0.0
 10
-16.732050807568797
 20
199.6602540378444
 30
0.0
 10
-18.321237033547703
 20
201.73132184970984
 30
0.0
 10
-20.392304845413193
 20
203.32050807568876
 30
0.0
 10
-72.3538290724795
 20
233.3205080756888
 30
0.0
 10
-74.76563862145427
 20
234.31951230073508
 30
0.0
 10
-77.35382907247948
 20
234.66025403784442
 30
0.0
 10
-79.94201952350468
 20
234.3195123007351
 30
0.0
 10
-82.35382907247947
 20
233.3205080756888
 30
0.0
 10
-84.42489688434496
 20
231.7313218497099
 30
0.0
 10
-86.01408311032736
 20
229.66025403784647
 30
0.0
 10
-91.01408311032408
 20
220.99999999999994
 30
0.0
 10
-99.67433714816848
 20
226
 30
0.0
 10
-102.08614669714306
 20
226.99900422504635
 30
0.0
 10
-104.67433714816825
 20
227.33974596215566
 30
0.0
 10
-107.26252759919349
 20
226.99900422504635
 30
0.0
 10
-109.67433714816825
 20
226.00000000000003
 30
0.0
 10
-111.74540496003374
 20
224.41081377402116
 30
0.0
 10
-113.33459118601264
 20
222.33974596215566
 30
0.0
 10
-249.2191638672117
 20
-13.01923788646667
 30
0.0
 10
-250.218168092258
 20
-15.43104743544147
 30
0.0
 10
-250.55890982936728
 20
-18.019237886466698
 30
0.0
 10
-250.218168092258
 20
-20.607428337491896
 30
0.0
 10
-249.2191638672117
 20
-23.019237886466698
 30
0.0
 10
-247.6299776412328
 20
-25.09030569833216
 30
0.0
 10
-245.55890982936776
 20
-26.679491924311606
 30
0.0
 10
-236.89865579152334
 20
-31.67949192431155
 30
0.0
 10
-241.89865579152294
 20
-40.339745962155575
 30
0.0
 10
-242.89766001656926
 20
-42.751555511130235
 30
0.0
 10
-243.23840175367854
 20
-45.33974596215546
 30
0.0
 10
-242.89766001656923
 20
-47.927936413180674
 30
0.0
 10
-241.89865579152297
 20
-50.33974596215546
 30
0.0
 10
-240.30946956554402
 20
-52.41081377402092
 30
0.0
 10
-238.23840175367857
 20
-53.99999999999983
 30
0.0
 10
-186.27687752661228
 20
-83.99999999999986
 30
0.0
 10
-183.86506797763747
 20
-84.99900422504618
 30
0.0
 10
-181.27687752661228
 20
-85.33974596215549
 30
0.0
 10
-178.68868707558704
 20
-84.99900422504618
 30
0.0
 10
-176.27687752661228
 20
-83.99999999999987
 30
0.0
 10
-174.2058097147468
 20
-82.41081377402097
 30
0.0
 10
-172.6166234887698
 20
-80.33974596215455
 30
0.0
 10
-167.6166234887679
 20
-71.67949192431112
 30
0.0
 10
-165.88457268119896
 20
-72.67949192431118
 30
0.0
  0
LWPOLYLINE
  8
OpenJsCad
  90
61
  70
1
 10
23.1
 20
121.98962634515894
 30
0.0
 10
117.19611541307916
 20
-40.98962634515905
 30
0.0
 10
133.74618447398427
 20
-50.54481317257952
 30
0.0
 10
132.74618447398427
 20
-52.27686398014841
 30
0.0
 10
98.7979886456343
 20
-32.6768639801484
 30
0.0
 10
97.59208387114688
 20
-32.177361867625244
 30
0.0
 10
96.29798864563428
 20
-32.00699099907059
 30
0.0
 10
95.00389342012168
 20
-32.17736186762525
 30
0.0
 10
93.79798864563428
 20
-32.67686398014839
 30
0.0
 10
92.76245473970154
 20
-33.47145709313785
 30
0.0
 10
91.9678616267121
 20
-34.50699099907059
 30
0.0
 10
75.86786162671207
 20
-62.3930090009295
 30
0.0
 10
75.36835951418892
 20
-63.598913775416904
 30
0.0
 10
75.19798864563425
 20
-64.89300900092951
 30
0.0
 10
75.36835951418892
 20
-66.1871042264421
 30
0.0
 10
75.86786162671207
 20
-67.3930090009295
 30
0.0
 10
76.66245473970153
 20
-68.42854290686223
 30
0.0
 10
77.6979886456343
 20
-69.22313601985172
 30
0.0
 10
111.64618447398423
 20
-88.82313601985172
 30
0.0
 10
110.64618447398423
 20
-90.55518682742058
 30
0.0
 10
94.09611541307889
 20
-80.99999999999997
 30
0.0
 10
-94.096115413079
 20
-80.99999999999994
 30
0.0
 10
-110.6461844739843
 20
-90.5551868274205
 30
0.0
 10
-111.64618447398448
 20
-88.82313601985176
 30
0.0
 10
-77.69798864563433
 20
-69.22313601985164
 30
0.0
 10
-76.66245473970157
 20
-68.42854290686219
 30
0.0
 10
-75.86786162671213
 20
-67.39300900092945
 30
0.0
 10
-75.36835951418897
 20
-66.18710422644205
 30
0.0
 10
-75.19798864563431
 20
-64.89300900092945
 30
0.0
 10
-75.36835951418897
 20
-63.59891377541684
 30
0.0
 10
-75.86786162671211
 20
-62.393009000929446
 30
0.0
 10
-91.96786162671211
 20
-34.50699099907052
 30
0.0
 10
-92.76245473970155
 20
-33.47145709313777
 30
0.0
 10
-93.7979886456343
 20
-32.676863980148326
 30
0.0
 10
-95.0038934201217
 20
-32.17736186762518
 30
0.0
 10
-96.29798864563429
 20
-32.00699099907051
 30
0.0
 10
-97.5920838711469
 20
-32.17736186762518
 30
0.0
 10
-98.79798864563429
 20
-32.67686398014832
 30
0.0
 10
-132.74618447398433
 20
-52.276863980148335
 30
0.0
 10
-133.7461844739843
 20
-50.54481317257944
 30
0.0
 10
-117.19611541307913
 20
-40.98962634515891
 30
0.0
 10
-23.10000000000001
 20
121.98962634515892
 30
0.0
 10
-23.1
 20
141.1
 30
0.0
 10
-21.1
 20
141.1
 30
0.0
 10
-21.1
 20
101.9
 30
0.0
 10
-20.929629131445346
 20
100.6059047744874
 30
0.0
 10
-20.430127018922192
 20
99.4
 30
0.0
 10
-19.63553390593274
 20
98.36446609406727
 30
0.0
 10
-18.600000000000005
 20
97.56987298107781
 30
0.0
 10
-17.394095225512604
 20
97.07037086855466
 30
0.0
 10
-16.1
 20
96.9
 30
0.0
 10
16.1
 20
96.9
 30
0.0
 10
17.394095225512608
 20
97.07037086855466
 30
0.0
 10
18.6
 20
97.56987298107781
 30
0.0
 10
19.63553390593274
 20
98.36446609406727
 30
0.0
 10
20.430127018922192
 20
99.39999999999999
 30
0.0
 10
20.929629131445342
 20
100.6059047744874
 30
0.0
 10
21.1
 20
101.9
 30
0.0
 10
21.1
 20
141.1
 30
0.0
 10
23.1
 20
141.1
 30
0.0
 10
23.1
 20
121.98962634515894
 30
0.0
  0
LWPOLYLINE
  8
OpenJsCad
  90
25
  70
1
 10
-153.46975811547625
 20
-178.6734604629325
 30
0.0
 10
-153.38457268119893
 20
-179.3205080756888
 30
0.0
 10
-153.46975811547625
 20
-179.9675556884451
 30
0.0
 10
-153.71950917173783
 20
-180.5705080756888
 30
0.0
 10
-154.11680572823258
 20
-181.08827502865518
 30
0.0
 10
-154.63457268119893
 20
-181.4855715851499
 30
0.0
 10
-155.23752506844264
 20
-181.73532264141147
 30
0.0
 10
-155.88457268119893
 20
-181.8205080756888
 30
0.0
 10
-156.53162029395523
 20
-181.73532264141147
 30
0.0
 10
-157.13457268119893
 20
-181.4855715851499
 30
0.0
 10
-157.65233963416532
 20
-181.08827502865518
 30
0.0
 10
-158.04963619066004
 20
-180.5705080756888
 30
0.0
 10
-158.2993872469216
 20
-179.9675556884451
 30
0.0
 10
-158.38457268119893
 20
-179.3205080756888
 30
0.0
 10
-158.2993872469216
 20
-178.6734604629325
 30
0.0
 10
-158.04963619066004
 20
-178.0705080756888
 30
0.0
 10
-157.6523396341653
 20
-177.5527411227224
 30
0.0
 10
-157.13457268119893
 20
-177.1554445662277
 30
0.0
 10
-156.53162029395523
 20
-176.9056935099661
 30
0.0
 10
-155.88457268119893
 20
-176.8205080756888
 30
0.0
 10
-155.23752506844264
 20
-176.9056935099661
 30
0.0
 10
-154.63457268119893
 20
-177.1554445662277
 30
0.0
 10
-154.11680572823258
 20
-177.5527411227224
 30
0.0
 10
-153.71950917173783
 20
-178.0705080756888
 30
0.0
 10
-153.46975811547625
 20
-178.6734604629325
 30
0.0
  0
LWPOLYLINE
  8
OpenJsCad
  90
25
  70
1
 10
-153.46975811547625
 20
-118.6734604629325
 30
0.0
 10
-153.38457268119893
 20
-119.32050807568879
 30
0.0
 10
-153.46975811547625
 20
-119.96755568844509
 30
0.0
 10
-153.71950917173783
 20
-120.57050807568879
 30
0.0
 10
-154.11680572823258
 20
-121.08827502865516
 30
0.0
 10
-154.63457268119893
 20
-121.48557158514988
 30
0.0
 10
-155.23752506844264
 20
-121.73532264141147
 30
0.0
 10
-155.88457268119893
 20
-121.82050807568879
 30
0.0
 10
-156.53162029395523
 20
-121.73532264141147
 30
0.0
 10
-157.13457268119893
 20
-121.48557158514988
 30
0.0
 10
-157.65233963416532
 20
-121.08827502865516
 30
0.0
 10
-158.04963619066004
 20
-120.57050807568879
 30
0.0
 10
-158.2993872469216
 20
-119.96755568844509
 30
0.0
 10
-158.38457268119893
 20
-119.32050807568879
 30
0.0
 10
-158.2993872469216
 20
-118.6734604629325
 30
0.0
 10
-158.04963619066004
 20
-118.07050807568879
 30
0.0
 10
-157.6523396341653
 20
-117.55274112272242
 30
0.0
 10
-157.13457268119893
 20
-117.15544456622769
 30
0.0
 10
-156.53162029395523
 20
-116.90569350996611
 30
0.0
 10
-155.88457268119893
 20
-116.82050807568879
 30
0.0
 10
-155.23752506844264
 20
-116.90569350996611
 30
0.0
 10
-154.63457268119893
 20
-117.15544456622769
 30
0.0
 10
-154.11680572823258
 20
-117.55274112272242
 30
0.0
 10
-153.71950917173783
 20
-118.07050807568879
 30
0.0
 10
-153.46975811547625
 20
-118.6734604629325
 30
0.0
  0
LWPOLYLINE
  8
OpenJsCad
  90
25
  70
1
 10
158.2993872469216
 20
-178.6734604629325
 30
0.0
 10
158.38457268119893
 20
-179.3205080756888
 30
0.0
 10
158.2993872469216
 20
-179.9675556884451
 30
0.0
 10
158.04963619066004
 20
-180.5705080756888
 30
0.0
 10
157.6523396341653
 20
-181.08827502865518
 30
0.0
 10
157.13457268119893
 20
-181.4855715851499
 30
0.0
 10
156.53162029395523
 20
-181.73532264141147
 30
0.0
 10
155.88457268119893
 20
-181.8205080756888
 30
0.0
 10
155.23752506844264
 20
-181.73532264141147
 30
0.0
 10
154.63457268119893
 20
-181.4855715851499
 30
0.0
 10
154.11680572823255
 20
-181.08827502865518
 30
0.0
 10
153.71950917173783
 20
-180.5705080756888
 30
0.0
 10
153.46975811547625
 20
-179.9675556884451
 30
0.0
 10
153.38457268119893
 20
-179.3205080756888
 30
0.0
 10
153.46975811547625
 20
-178.6734604629325
 30
0.0
 10
153.71950917173783
 20
-178.0705080756888
 30
0.0
 10
154.11680572823258
 20
-177.5527411227224
 30
0.0
 10
154.63457268119893
 20
-177.1554445662277
 30
0.0
 10
155.23752506844264
 20
-176.9056935099661
 30
0.0
 10
155.88457268119893
 20
-176.8205080756888
 30
0.0
 10
156.53162029395523
 20
-176.9056935099661
 30
0.0
 10
157.13457268119893
 20
-177.1554445662277
 30
0.0
 10
157.6523396341653
 20
-177.5527411227224
 30
0.0
 10
158.04963619066004
 20
-178.0705080756888
 30
0.0
 10
158.2993872469216
 20
-178.6734604629325
 30
0.0
  0
LWPOLYLINE
  8
OpenJsCad
  90
25
  70
1
 10
158.2993872469216
 20
-118.6734604629325
 30
0.0
 10
158.38457268119893
 20
-119.32050807568879
 30
0.0
 10
158.2993872469216
 20
-119.96755568844509
 30
0.0
 10
158.04963619066004
 20
-120.57050807568879
 30
0.0
 10
157.6523396341653
 20
-121.08827502865516
 30
0.0
 10
157.13457268119893
 20
-121.48557158514988
 30
0.0
 10
156.53162029395523
 20
-121.73532264141147
 30
0.0
 10
155.88457268119893
 20
-121.82050807568879
 30
0.0
 10
155.23752506844264
 20
-121.73532264141147
 30
0.0
 10
154.63457268119893
 20
-121.48557158514988
 30
0.0
 10
154.11680572823255
 20
-121.08827502865516
 30
0.0
 10
153.71950917173783
 20
-120.57050807568879
 30
0.0
 10
153.46975811547625
 20
-119.96755568844509
 30
0.0
 10
153.38457268119893
 20
-119.32050807568879
 30
0.0
 10
153.46975811547625
 20
-118.6734604629325
 30
0.0
 10
153.71950917173783
 20
-118.07050807568879
 30
0.0
 10
154.11680572823258
 20
-117.55274112272242
 30
0.0
 10
154.63457268119893
 20
-117.15544456622769
 30
0.0
 10
155.23752506844264
 20
-116.90569350996611
 30
0.0
 10
155.88457268119893
 20
-116.82050807568879
 30
0.0
 10
156.53162029395523
 20
-116.90569350996611
 30
0.0
 10
157.13457268119893
 20
-117.15544456622769
 30
0.0
 10
157.6523396341653
 20
-117.55274112272242
 30
0.0
 10
158.04963619066004
 20
-118.07050807568879
 30
0.0
 10
158.2993872469216
 20
-118.6734604629325
 30
0.0
  0
LWPOLYLINE
  8
OpenJsCad
  90
25
  70
1
 10
231.47063480071216
 20
-43.57197900918926
 30
0.0
 10
231.98840175367854
 20
-43.17468245269454
 30
0.0
 10
232.5913541409222
 20
-42.92493139643297
 30
0.0
 10
233.23840175367854
 20
-42.83974596215562
 30
0.0
 10
233.88544936643484
 20
-42.92493139643297
 30
0.0
 10
234.48840175367854
 20
-43.17468245269454
 30
0.0
 10
235.00616870664493
 20
-43.57197900918926
 30
0.0
 10
235.40346526313965
 20
-44.08974596215565
 30
0.0
 10
235.65321631940122
 20
-44.69269834939932
 30
0.0
 10
235.73840175367854
 20
-45.33974596215562
 30
0.0
 10
235.65321631940122
 20
-45.98679357491194
 30
0.0
 10
235.40346526313965
 20
-46.58974596215565
 30
0.0
 10
235.00616870664487
 20
-47.107512915122
 30
0.0
 10
234.48840175367854
 20
-47.504809471616724
 30
0.0
 10
233.88544936643484
 20
-47.7545605278783
 30
0.0
 10
233.23840175367854
 20
-47.83974596215565
 30
0.0
 10
232.5913541409222
 20
-47.7545605278783
 30
0.0
 10
231.98840175367854
 20
-47.504809471616724
 30
0.0
 10
231.47063480071216
 20
-47.107512915122
 30
0.0
 10
231.07333824421744
 20
-46.58974596215565
 30
0.0
 10
230.82358718795587
 20
-45.98679357491194
 30
0.0
 10
230.73840175367854
 20
-45.33974596215565
 30
0.0
 10
230.82358718795584
 20
-44.69269834939935
 30
0.0
 10
231.07333824421744
 20
-44.08974596215562
 30
0.0
 10
231.47063480071216
 20
-43.57197900918926
 30
0.0
  0
LWPOLYLINE
  8
OpenJsCad
  90
25
  70
1
 10
179.50911057364584
 20
-73.57197900918925
 30
0.0
 10
180.02687752661222
 20
-73.17468245269453
 30
0.0
 10
180.62982991385587
 20
-72.92493139643295
 30
0.0
 10
181.2768775266122
 20
-72.8397459621556
 30
0.0
 10
181.92392513936852
 20
-72.92493139643295
 30
0.0
 10
182.5268775266122
 20
-73.17468245269453
 30
0.0
 10
183.04464447957858
 20
-73.57197900918925
 30
0.0
 10
183.4419410360733
 20
-74.08974596215563
 30
0.0
 10
183.69169209233488
 20
-74.69269834939931
 30
0.0
 10
183.7768775266122
 20
-75.3397459621556
 30
0.0
 10
183.69169209233488
 20
-75.98679357491193
 30
0.0
 10
183.4419410360733
 20
-76.58974596215563
 30
0.0
 10
183.04464447957855
 20
-77.10751291512199
 30
0.0
 10
182.52687752661222
 20
-77.50480947161671
 30
0.0
 10
181.92392513936852
 20
-77.75456052787828
 30
0.0
 10
181.27687752661222
 20
-77.83974596215563
 30
0.0
 10
180.6298299138559
 20
-77.75456052787828
 30
0.0
 10
180.0268775266122
 20
-77.50480947161671
 30
0.0
 10
179.50911057364584
 20
-77.10751291512199
 30
0.0
 10
179.11181401715112
 20
-76.58974596215563
 30
0.0
 10
178.86206296088955
 20
-75.98679357491193
 30
0.0
 10
178.7768775266122
 20
-75.33974596215563
 30
0.0
 10
178.86206296088955
 20
-74.69269834939934
 30
0.0
 10
179.11181401715112
 20
-74.0897459621556
 30
0.0
 10
179.50911057364584
 20
-73.57197900918925
 30
0.0
  0
LWPOLYLINE
  8
OpenJsCad
  90
25
  70
1
 10
75.58606211951327
 20
226.4280209908107
 30
0.0
 10
76.10382907247966
 20
226.82531754730542
 30
0.0
 10
76.70678145972333
 20
227.075068603567
 30
0.0
 10
77.35382907247966
 20
227.16025403784437
 30
0.0
 10
78.00087668523597
 20
227.075068603567
 30
0.0
 10
78.60382907247966
 20
226.82531754730542
 30
0.0
 10
79.12159602544604
 20
226.4280209908107
 30
0.0
 10
79.51889258194076
 20
225.91025403784437
 30
0.0
 10
79.76864363820233
 20
225.30730165060066
 30
0.0
 10
79.85382907247966
 20
224.66025403784437
 30
0.0
 10
79.76864363820233
 20
224.01320642508801
 30
0.0
 10
79.51889258194076
 20
223.4102540378443
 30
0.0
 10
79.12159602544601
 20
222.89248708487798
 30
0.0
 10
78.60382907247966
 20
222.49519052838326
 30
0.0
 10
78.00087668523595
 20
222.2454394721217
 30
0.0
 10
77.35382907247966
 20
222.1602540378443
 30
0.0
 10
76.70678145972332
 20
222.2454394721217
 30
0.0
 10
76.10382907247966
 20
222.49519052838326
 30
0.0
 10
75.58606211951327
 20
222.89248708487798
 30
0.0
 10
75.18876556301855
 20
223.41025403784437
 30
0.0
 10
74.93901450675698
 20
224.01320642508801
 30
0.0
 10
74.85382907247966
 20
224.6602540378443
 30
0.0
 10
74.93901450675696
 20
225.3073016506006
 30
0.0
 10
75.18876556301855
 20
225.91025403784437
 30
0.0
 10
75.58606211951327
 20
226.4280209908107
 30
0.0
  0
LWPOLYLINE
  8
OpenJsCad
  90
25
  70
1
 10
23.624537892446966
 20
196.42802099081072
 30
0.0
 10
24.142304845413335
 20
196.82531754730545
 30
0.0
 10
24.74525723265701
 20
197.07506860356702
 30
0.0
 10
25.39230484541332
 20
197.16025403784437
 30
0.0
 10
26.03935245816963
 20
197.07506860356702
 30
0.0
 10
26.64230484541332
 20
196.82531754730545
 30
0.0
 10
27.160071798379704
 20
196.42802099081072
 30
0.0
 10
27.557368354874427
 20
195.91025403784437
 30
0.0
 10
27.807119411136
 20
195.30730165060066
 30
0.0
 10
27.89230484541332
 20
194.66025403784437
 30
0.0
 10
27.807119411136
 20
194.01320642508804
 30
0.0
 10
27.557368354874427
 20
193.41025403784434
 30
0.0
 10
27.16007179837969
 20
192.89248708487798
 30
0.0
 10
26.642304845413335
 20
192.49519052838326
 30
0.0
 10
26.039352458169645
 20
192.2454394721217
 30
0.0
 10
25.392304845413335
 20
192.16025403784434
 30
0.0
 10
24.745257232657025
 20
192.2454394721217
 30
0.0
 10
24.14230484541332
 20
192.49519052838326
 30
0.0
 10
23.624537892446952
 20
192.89248708487798
 30
0.0
 10
23.22724133595223
 20
193.41025403784437
 30
0.0
 10
22.977490279690656
 20
194.01320642508804
 30
0.0
 10
22.89230484541332
 20
194.66025403784434
 30
0.0
 10
22.97749027969067
 20
195.30730165060064
 30
0.0
 10
23.22724133595223
 20
195.91025403784437
 30
0.0
 10
23.624537892446966
 20
196.42802099081072
 30
0.0
  0
LWPOLYLINE
  8
OpenJsCad
  90
25
  70
1
 10
-78.0008766852358
 20
222.24543947212175
 30
0.0
 10
-78.6038290724795
 20
222.49519052838332
 30
0.0
 10
-79.12159602544585
 20
222.89248708487804
 30
0.0
 10
-79.5188925819406
 20
223.41025403784442
 30
0.0
 10
-79.76864363820216
 20
224.01320642508813
 30
0.0
 10
-79.8538290724795
 20
224.66025403784442
 30
0.0
 10
-79.76864363820218
 20
225.30730165060072
 30
0.0
 10
-79.51889258194058
 20
225.91025403784442
 30
0.0
 10
-79.12159602544588
 20
226.42802099081078
 30
0.0
 10
-78.6038290724795
 20
226.82531754730553
 30
0.0
 10
-78.0008766852358
 20
227.0750686035671
 30
0.0
 10
-77.3538290724795
 20
227.16025403784442
 30
0.0
 10
-76.70678145972317
 20
227.0750686035671
 30
0.0
 10
-76.1038290724795
 20
226.8253175473055
 30
0.0
 10
-75.58606211951312
 20
226.4280209908108
 30
0.0
 10
-75.18876556301839
 20
225.91025403784442
 30
0.0
 10
-74.9390145067568
 20
225.3073016506007
 30
0.0
 10
-74.85382907247947
 20
224.66025403784442
 30
0.0
 10
-74.93901450675682
 20
224.0132064250881
 30
0.0
 10
-75.18876556301839
 20
223.41025403784442
 30
0.0
 10
-75.58606211951312
 20
222.89248708487804
 30
0.0
 10
-76.10382907247947
 20
222.49519052838332
 30
0.0
 10
-76.70678145972316
 20
222.24543947212175
 30
0.0
 10
-77.3538290724795
 20
222.16025403784442
 30
0.0
 10
-78.0008766852358
 20
222.24543947212175
 30
0.0
  0
LWPOLYLINE
  8
OpenJsCad
  90
25
  70
1
 10
-26.039352458169503
 20
192.24543947212172
 30
0.0
 10
-26.642304845413193
 20
192.4951905283833
 30
0.0
 10
-27.160071798379562
 20
192.892487084878
 30
0.0
 10
-27.557368354874285
 20
193.4102540378444
 30
0.0
 10
-27.807119411135858
 20
194.0132064250881
 30
0.0
 10
-27.89230484541318
 20
194.6602540378444
 30
0.0
 10
-27.807119411135858
 20
195.3073016506007
 30
0.0
 10
-27.557368354874285
 20
195.9102540378444
 30
0.0
 10
-27.160071798379562
 20
196.42802099081075
 30
0.0
 10
-26.64230484541318
 20
196.8253175473055
 30
0.0
 10
-26.03935245816949
 20
197.07506860356708
 30
0.0
 10
-25.39230484541318
 20
197.1602540378444
 30
0.0
 10
-24.745257232656883
 20
197.07506860356708
 30
0.0
 10
-24.142304845413193
 20
196.82531754730547
 30
0.0
 10
-23.624537892446824
 20
196.42802099081078
 30
0.0
 10
-23.227241335952087
 20
195.9102540378444
 30
0.0
 10
-22.977490279690528
 20
195.30730165060066
 30
0.0
 10
-22.89230484541318
 20
194.6602540378444
 30
0.0
 10
-22.977490279690514
 20
194.01320642508807
 30
0.0
 10
-23.227241335952087
 20
193.4102540378444
 30
0.0
 10
-23.62453789244681
 20
192.892487084878
 30
0.0
 10
-24.14230484541318
 20
192.4951905283833
 30
0.0
 10
-24.745257232656883
 20
192.24543947212172
 30
0.0
 10
-25.392304845413193
 20
192.1602540378444
 30
0.0
 10
-26.039352458169503
 20
192.24543947212172
 30
0.0
  0
LWPOLYLINE
  8
OpenJsCad
  90
25
  70
1
 10
-233.88544936643487
 20
-47.75456052787814
 30
0.0
 10
-234.48840175367857
 20
-47.50480947161654
 30
0.0
 10
-235.00616870664493
 20
-47.107512915121845
 30
0.0
 10
-235.40346526313968
 20
-46.58974596215546
 30
0.0
 10
-235.65321631940122
 20
-45.98679357491173
 30
0.0
 10
-235.73840175367857
 20
-45.33974596215546
 30
0.0
 10
-235.65321631940125
 20
-44.69269834939914
 30
0.0
 10
-235.40346526313965
 20
-44.08974596215546
 30
0.0
 10
-235.00616870664496
 20
-43.57197900918908
 30
0.0
 10
-234.48840175367857
 20
-43.174682452694356
 30
0.0
 10
-233.88544936643487
 20
-42.924931396432754
 30
0.0
 10
-233.23840175367857
 20
-42.83974596215546
 30
0.0
 10
-232.59135414092225
 20
-42.92493139643278
 30
0.0
 10
-231.98840175367857
 20
-43.174682452694356
 30
0.0
 10
-231.4706348007122
 20
-43.57197900918908
 30
0.0
 10
-231.07333824421747
 20
-44.08974596215546
 30
0.0
 10
-230.82358718795587
 20
-44.692698349399166
 30
0.0
 10
-230.73840175367854
 20
-45.33974596215546
 30
0.0
 10
-230.8235871879559
 20
-45.98679357491176
 30
0.0
 10
-231.07333824421747
 20
-46.58974596215546
 30
0.0
 10
-231.4706348007122
 20
-47.107512915121816
 30
0.0
 10
-231.98840175367854
 20
-47.50480947161657
 30
0.0
 10
-232.59135414092225
 20
-47.75456052787811
 30
0.0
 10
-233.23840175367857
 20
-47.83974596215546
 30
0.0
 10
-233.88544936643487
 20
-47.75456052787814
 30
0.0
  0
LWPOLYLINE
  8
OpenJsCad
  90
25
  70
1
 10
-181.92392513936858
 20
-77.75456052787817
 30
0.0
 10
-182.52687752661228
 20
-77.50480947161657
 30
0.0
 10
-183.04464447957864
 20
-77.10751291512187
 30
0.0
 10
-183.44194103607336
 20
-76.58974596215549
 30
0.0
 10
-183.69169209233493
 20
-75.98679357491176
 30
0.0
 10
-183.77687752661225
 20
-75.33974596215549
 30
0.0
 10
-183.69169209233493
 20
-74.69269834939917
 30
0.0
 10
-183.44194103607336
 20
-74.08974596215549
 30
0.0
 10
-183.04464447957864
 20
-73.5719790091891
 30
0.0
 10
-182.52687752661225
 20
-73.17468245269438
 30
0.0
 10
-181.92392513936858
 20
-72.92493139643278
 30
0.0
 10
-181.27687752661225
 20
-72.83974596215549
 30
0.0
 10
-180.62982991385596
 20
-72.92493139643281
 30
0.0
 10
-180.02687752661228
 20
-73.17468245269438
 30
0.0
 10
-179.5091105736459
 20
-73.5719790091891
 30
0.0
 10
-179.11181401715118
 20
-74.08974596215549
 30
0.0
 10
-178.8620629608896
 20
-74.6926983493992
 30
0.0
 10
-178.77687752661225
 20
-75.33974596215549
 30
0.0
 10
-178.8620629608896
 20
-75.98679357491179
 30
0.0
 10
-179.11181401715118
 20
-76.58974596215549
 30
0.0
 10
-179.5091105736459
 20
-77.10751291512184
 30
0.0
 10
-180.02687752661225
 20
-77.5048094716166
 30
0.0
 10
-180.62982991385596
 20
-77.75456052787814
 30
0.0
 10
-181.27687752661228
 20
-77.83974596215549
 30
0.0
 10
-181.92392513936858
 20
-77.75456052787817
 30
0.0
  0
LWPOLYLINE
  8
OpenJsCad
  90
61
  70
1
 10
10.939740849051006
 20
119.14981309594418
 30
0.0
 10
11
 20
118
 30
0.0
 10
10.939740849051006
 20
116.85018690405582
 30
0.0
 10
10.759623608071863
 20
115.71297140100465
 30
0.0
 10
10.461621679246688
 20
114.60081306187557
 30
0.0
 10
10.04900003406861
 20
113.5258969261662
 30
0.0
 10
9.526279441628827
 20
112.5
 30
0.0
 10
8.899186938124421
 20
111.5343622247828
 30
0.0
 10
8.174593080251336
 20
110.63956333005257
 30
0.0
 10
7.360436669947443
 20
109.82540691974867
 30
0.0
 10
6.465637775217202
 20
109.10081306187558
 30
0.0
 10
5.500000000000001
 20
108.47372055837117
 30
0.0
 10
4.474103073833797
 20
107.95099996593139
 30
0.0
 10
3.3991869381244193
 20
107.53837832075331
 30
0.0
 10
2.2870285989953536
 20
107.24037639192814
 30
0.0
 10
1.1498130959441828
 20
107.060259150949
 30
0.0
 10
-2.0206004838069225e-15
 20
107
 30
0.0
 10
-1.1498130959441966
 20
107.060259150949
 30
0.0
 10
-2.2870285989953576
 20
107.24037639192814
 30
0.0
 10
-3.3991869381244233
 20
107.53837832075331
 30
0.0
 10
-4.47410307383381
 20
107.9509999659314
 30
0.0
 10
-5.500000000000005
 20
108.47372055837118
 30
0.0
 10
-6.465637775217206
 20
109.10081306187558
 30
0.0
 10
-7.360436669947443
 20
109.82540691974867
 30
0.0
 10
-8.174593080251336
 20
110.63956333005255
 30
0.0
 10
-8.899186938124423
 20
111.5343622247828
 30
0.0
 10
-9.526279441628827
 20
112.5
 30
0.0
 10
-10.049000034068609
 20
113.5258969261662
 30
0.0
 10
-10.46162167924669
 20
114.60081306187558
 30
0.0
 10
-10.759623608071863
 20
115.71297140100465
 30
0.0
 10
-10.939740849051008
 20
116.85018690405582
 30
0.0
 10
-11
 20
118
 30
0.0
 10
-10.939740849051008
 20
119.14981309594418
 30
0.0
 10
-10.759623608071863
 20
120.28702859899535
 30
0.0
 10
-10.461621679246688
 20
121.39918693812442
 30
0.0
 10
-10.04900003406861
 20
122.4741030738338
 30
0.0
 10
-9.526279441628827
 20
123.5
 30
0.0
 10
-8.899186938124421
 20
124.4656377752172
 30
0.0
 10
-8.174593080251334
 20
125.36043666994745
 30
0.0
 10
-7.360436669947437
 20
126.17459308025134
 30
0.0
 10
-6.465637775217203
 20
126.89918693812442
 30
0.0
 10
-5.499999999999997
 20
127.52627944162883
 30
0.0
 10
-4.474103073833801
 20
128.0490000340686
 30
0.0
 10
-3.3991869381244206
 20
128.4616216792467
 30
0.0
 10
-2.2870285989953527
 20
128.75962360807188
 30
0.0
 10
-1.1498130959441866
 20
128.93974084905102
 30
0.0
 10
3.116024148777652e-15
 20
129
 30
0.0
 10
1.1498130959441881
 20
128.93974084905102
 30
0.0
 10
2.2870285989953514
 20
128.75962360807188
 30
0.0
 10
3.399186938124422
 20
128.4616216792467
 30
0.0
 10
4.474103073833804
 20
128.0490000340686
 30
0.0
 10
5.500000000000001
 20
127.52627944162883
 30
0.0
 10
6.465637775217204
 20
126.89918693812442
 30
0.0
 10
7.360436669947441
 20
126.17459308025134
 30
0.0
 10
8.174593080251336
 20
125.36043666994745
 30
0.0
 10
8.899186938124423
 20
124.4656377752172
 30
0.0
 10
9.526279441628827
 20
123.5
 30
0.0
 10
10.049000034068609
 20
122.4741030738338
 30
0.0
 10
10.461621679246688
 20
121.39918693812442
 30
0.0
 10
10.759623608071863
 20
120.28702859899535
 30
0.0
 10
10.939740849051006
 20
119.14981309594418
 30
0.0
  0
LWPOLYLINE
  8
OpenJsCad
  90
25
  70
1
 10
-14.051111260566397
 20
102.88822856765378
 30
0.0
 10
-14
 20
102.5
 30
0.0
 10
-14.051111260566397
 20
102.11177143234622
 30
0.0
 10
-14.200961894323342
 20
101.75
 30
0.0
 10
-14.439339828220179
 20
101.43933982822017
 30
0.0
 10
-14.75
 20
101.20096189432334
 30
0.0
 10
-15.11177143234622
 20
101.0511112605664
 30
0.0
 10
-15.5
 20
101
 30
0.0
 10
-15.888228567653782
 20
101.0511112605664
 30
0.0
 10
-16.25
 20
101.20096189432334
 30
0.0
 10
-16.560660171779823
 20
101.43933982822018
 30
0.0
 10
-16.799038105676658
 20
101.75
 30
0.0
 10
-16.948888739433603
 20
102.11177143234622
 30
0.0
 10
-17
 20
102.5
 30
0.0
 10
-16.948888739433603
 20
102.88822856765378
 30
0.0
 10
-16.799038105676658
 20
103.25
 30
0.0
 10
-16.560660171779823
 20
103.56066017177982
 30
0.0
 10
-16.25
 20
103.79903810567666
 30
0.0
 10
-15.888228567653782
 20
103.9488887394336
 30
0.0
 10
-15.5
 20
104
 30
0.0
 10
-15.111771432346218
 20
103.9488887394336
 30
0.0
 10
-14.75
 20
103.79903810567666
 30
0.0
 10
-14.439339828220179
 20
103.56066017177982
 30
0.0
 10
-14.200961894323342
 20
103.25
 30
0.0
 10
-14.051111260566397
 20
102.88822856765378
 30
0.0
  0
LWPOLYLINE
  8
OpenJsCad
  90
25
  70
1
 10
-14.051111260566397
 20
133.88822856765378
 30
0.0
 10
-14
 20
133.5
 30
0.0
 10
-14.051111260566397
 20
133.11177143234622
 30
0.0
 10
-14.200961894323342
 20
132.75
 30
0.0
 10
-14.439339828220179
 20
132.43933982822017
 30
0.0
 10
-14.75
 20
132.20096189432334
 30
0.0
 10
-15.11177143234622
 20
132.0511112605664
 30
0.0
 10
-15.5
 20
132
 30
0.0
 10
-15.888228567653782
 20
132.0511112605664
 30
0.0
 10
-16.25
 20
132.20096189432334
 30
0.0
 10
-16.560660171779823
 20
132.43933982822017
 30
0.0
 10
-16.799038105676658
 20
132.75
 30
0.0
 10
-16.948888739433603
 20
133.11177143234622
 30
0.0
 10
-17
 20
133.5
 30
0.0
 10
-16.948888739433603
 20
133.88822856765378
 30
0.0
 10
-16.799038105676658
 20
134.25
 30
0.0
 10
-16.560660171779823
 20
134.56066017177983
 30
0.0
 10
-16.25
 20
134.79903810567666
 30
0.0
 10
-15.888228567653782
 20
134.9488887394336
 30
0.0
 10
-15.5
 20
135
 30
0.0
 10
-15.111771432346218
 20
134.9488887394336
 30
0.0
 10
-14.75
 20
134.79903810567666
 30
0.0
 10
-14.439339828220179
 20
134.56066017177983
 30
0.0
 10
-14.200961894323342
 20
134.25
 30
0.0
 10
-14.051111260566397
 20
133.88822856765378
 30
0.0
  0
LWPOLYLINE
  8
OpenJsCad
  90
25
  70
1
 10
16.948888739433603
 20
102.88822856765378
 30
0.0
 10
17
 20
102.5
 30
0.0
 10
16.948888739433603
 20
102.11177143234622
 30
0.0
 10
16.799038105676658
 20
101.75
 30
0.0
 10
16.560660171779823
 20
101.43933982822017
 30
0.0
 10
16.25
 20
101.20096189432334
 30
0.0
 10
15.88822856765378
 20
101.0511112605664
 30
0.0
 10
15.5
 20
101
 30
0.0
 10
15.111771432346218
 20
101.0511112605664
 30
0.0
 10
14.75
 20
101.20096189432334
 30
0.0
 10
14.439339828220177
 20
101.43933982822018
 30
0.0
 10
14.200961894323342
 20
101.75
 30
0.0
 10
14.051111260566397
 20
102.11177143234622
 30
0.0
 10
14
 20
102.5
 30
0.0
 10
14.051111260566397
 20
102.88822856765378
 30
0.0
 10
14.200961894323342
 20
103.25
 30
0.0
 10
14.439339828220179
 20
103.56066017177982
 30
0.0
 10
14.75
 20
103.79903810567666
 30
0.0
 10
15.111771432346218
 20
103.9488887394336
 30
0.0
 10
15.5
 20
104
 30
0.0
 10
15.888228567653782
 20
103.9488887394336
 30
0.0
 10
16.25
 20
103.79903810567666
 30
0.0
 10
16.560660171779823
 20
103.56066017177982
 30
0.0
 10
16.799038105676658
 20
103.25
 30
0.0
 10
16.948888739433603
 20
102.88822856765378
 30
0.0
  0
LWPOLYLINE
  8
OpenJsCad
  90
25
  70
1
 10
16.948888739433603
 20
133.88822856765378
 30
0.0
 10
17
 20
133.5
 30
0.0
 10
16.948888739433603
 20
133.11177143234622
 30
0.0
 10
16.799038105676658
 20
132.75
 30
0.0
 10
16.560660171779823
 20
132.43933982822017
 30
0.0
 10
16.25
 20
132.20096189432334
 30
0.0
 10
15.88822856765378
 20
132.0511112605664
 30
0.0
 10
15.5
 20
132
 30
0.0
 10
15.111771432346218
 20
132.0511112605664
 30
0.0
 10
14.75
 20
132.20096189432334
 30
0.0
 10
14.439339828220177
 20
132.43933982822017
 30
0.0
 10
14.200961894323342
 20
132.75
 30
0.0
 10
14.051111260566397
 20
133.11177143234622
 30
0.0
 10
14
 20
133.5
 30
0.0
 10
14.051111260566397
 20
133.88822856765378
 30
0.0
 10
14.200961894323342
 20
134.25
 30
0.0
 10
14.439339828220179
 20
134.56066017177983
 30
0.0
 10
14.75
 20
134.79903810567666
 30
0.0
 10
15.111771432346218
 20
134.9488887394336
 30
0.0
 10
15.5
 20
135
 30
0.0
 10
15.888228567653782
 20
134.9488887394336
 30
0.0
 10
16.25
 20
134.79903810567666
 30
0.0
 10
16.560660171779823
 20
134.56066017177983
 30
0.0
 10
16.799038105676658
 20
134.25
 30
0.0
 10
16.948888739433603
 20
133.88822856765378
 30
0.0
  0
LWPOLYLINE
  8
OpenJsCad
  90
5
  70
1
 10
-5
 20
139
 30
0.0
 10
-5
 20
141
 30
0.0
 10
5
 20
141
 30
0.0
 10
5
 20
139
 30
0.0
 10
-5
 20
139
 30
0.0
  0
LWPOLYLINE
  8
OpenJsCad
  90
61
  70
1
 10
-108.65663542178096
 20
-50.10081306187555
 30
0.0
 10
-107.69099764656377
 20
-49.47372055837114
 30
0.0
 10
-106.66510072039756
 20
-48.950999965931366
 30
0.0
 10
-105.59018458468819
 20
-48.53837832075328
 30
0.0
 10
-104.47802624555911
 20
-48.24037639192811
 30
0.0
 10
-103.34081074250795
 20
-48.060259150948966
 30
0.0
 10
-102.19099764656376
 20
-47.99999999999997
 30
0.0
 10
-101.04118455061958
 20
-48.06025915094897
 30
0.0
 10
-99.90396904756841
 20
-48.24037639192812
 30
0.0
 10
-98.79181070843934
 20
-48.53837832075329
 30
0.0
 10
-97.71689457272997
 20
-48.95099996593137
 30
0.0
 10
-96.69099764656376
 20
-49.47372055837115
 30
0.0
 10
-95.72535987134655
 20
-50.10081306187556
 30
0.0
 10
-94.83056097661633
 20
-50.825406919748644
 30
0.0
 10
-94.01640456631243
 20
-51.63956333005254
 30
0.0
 10
-93.29181070843934
 20
-52.53436222478278
 30
0.0
 10
-92.66471820493494
 20
-53.49999999999998
 30
0.0
 10
-92.14199761249516
 20
-54.52589692616618
 30
0.0
 10
-91.72937596731707
 20
-55.60081306187556
 30
0.0
 10
-91.43137403849191
 20
-56.71297140100463
 30
0.0
 10
-91.25125679751277
 20
-57.8501869040558
 30
0.0
 10
-91.19099764656377
 20
-58.999999999999986
 30
0.0
 10
-91.25125679751277
 20
-60.14981309594417
 30
0.0
 10
-91.43137403849191
 20
-61.28702859899534
 30
0.0
 10
-91.72937596731708
 20
-62.399186938124394
 30
0.0
 10
-92.14199761249516
 20
-63.47410307383378
 30
0.0
 10
-92.66471820493494
 20
-64.49999999999997
 30
0.0
 10
-93.29181070843936
 20
-65.46563777521717
 30
0.0
 10
-94.01640456631243
 20
-66.36043666994742
 30
0.0
 10
-94.83056097661634
 20
-67.17459308025131
 30
0.0
 10
-95.72535987134657
 20
-67.8991869381244
 30
0.0
 10
-96.69099764656377
 20
-68.5262794416288
 30
0.0
 10
-97.71689457272997
 20
-69.04900003406858
 30
0.0
 10
-98.79181070843934
 20
-69.46162167924666
 30
0.0
 10
-99.90396904756841
 20
-69.75962360807183
 30
0.0
 10
-101.04118455061959
 20
-69.93974084905098
 30
0.0
 10
-102.19099764656377
 20
-69.99999999999997
 30
0.0
 10
-103.34081074250795
 20
-69.93974084905098
 30
0.0
 10
-104.47802624555914
 20
-69.75962360807183
 30
0.0
 10
-105.5901845846882
 20
-69.46162167924666
 30
0.0
 10
-106.66510072039756
 20
-69.04900003406858
 30
0.0
 10
-107.69099764656377
 20
-68.5262794416288
 30
0.0
 10
-108.65663542178098
 20
-67.89918693812439
 30
0.0
 10
-109.5514343165112
 20
-67.17459308025131
 30
0.0
 10
-110.36559072681511
 20
-66.36043666994742
 30
0.0
 10
-111.0901845846882
 20
-65.46563777521717
 30
0.0
 10
-111.71727708819259
 20
-64.49999999999997
 30
0.0
 10
-112.23999768063238
 20
-63.47410307383378
 30
0.0
 10
-112.65261932581048
 20
-62.3991869381244
 30
0.0
 10
-112.95062125463562
 20
-61.28702859899533
 30
0.0
 10
-113.13073849561476
 20
-60.149813095944154
 30
0.0
 10
-113.19099764656377
 20
-58.99999999999997
 30
0.0
 10
-113.13073849561476
 20
-57.85018690405578
 30
0.0
 10
-112.95062125463564
 20
-56.71297140100462
 30
0.0
 10
-112.65261932581046
 20
-55.600813061875556
 30
0.0
 10
-112.23999768063237
 20
-54.52589692616617
 30
0.0
 10
-111.71727708819259
 20
-53.49999999999997
 30
0.0
 10
-111.09018458468819
 20
-52.53436222478277
 30
0.0
 10
-110.3655907268151
 20
-51.639563330052525
 30
0.0
 10
-109.55143431651119
 20
-50.82540691974863
 30
0.0
 10
-108.65663542178096
 20
-50.10081306187555
 30
0.0
  0
LWPOLYLINE
  8
OpenJsCad
  90
25
  70
1
 10
-82.0782640596848
 20
-63.61273358687896
 30
0.0
 10
-81.76760388790497
 20
-63.37435565298212
 30
0.0
 10
-81.40583245555875
 20
-63.22450501922518
 30
0.0
 10
-81.01760388790497
 20
-63.173393758658776
 30
0.0
 10
-80.62937532025119
 20
-63.22450501922517
 30
0.0
 10
-80.26760388790497
 20
-63.37435565298212
 30
0.0
 10
-79.95694371612515
 20
-63.61273358687896
 30
0.0
 10
-79.71856578222831
 20
-63.923393758658776
 30
0.0
 10
-79.56871514847137
 20
-64.285165191005
 30
0.0
 10
-79.51760388790497
 20
-64.67339375865878
 30
0.0
 10
-79.56871514847137
 20
-65.06162232631256
 30
0.0
 10
-79.71856578222831
 20
-65.42339375865878
 30
0.0
 10
-79.95694371612515
 20
-65.73405393043859
 30
0.0
 10
-80.26760388790497
 20
-65.97243186433543
 30
0.0
 10
-80.6293753202512
 20
-66.12228249809237
 30
0.0
 10
-81.01760388790497
 20
-66.17339375865878
 30
0.0
 10
-81.40583245555874
 20
-66.12228249809237
 30
0.0
 10
-81.76760388790497
 20
-65.97243186433543
 30
0.0
 10
-82.07826405968478
 20
-65.73405393043859
 30
0.0
 10
-82.31664199358163
 20
-65.42339375865878
 30
0.0
 10
-82.46649262733857
 20
-65.06162232631256
 30
0.0
 10
-82.51760388790497
 20
-64.67339375865878
 30
0.0
 10
-82.46649262733857
 20
-64.28516519100499
 30
0.0
 10
-82.31664199358163
 20
-63.923393758658776
 30
0.0
 10
-82.0782640596848
 20
-63.61273358687896
 30
0.0
  0
LWPOLYLINE
  8
OpenJsCad
  90
25
  70
1
 10
-108.92505157700239
 20
-79.11273358687895
 30
0.0
 10
-108.61439140522256
 20
-78.87435565298212
 30
0.0
 10
-108.25261997287635
 20
-78.72450501922516
 30
0.0
 10
-107.86439140522256
 20
-78.67339375865878
 30
0.0
 10
-107.47616283756878
 20
-78.72450501922516
 30
0.0
 10
-107.11439140522256
 20
-78.87435565298212
 30
0.0
 10
-106.80373123344273
 20
-79.11273358687895
 30
0.0
 10
-106.5653532995459
 20
-79.42339375865878
 30
0.0
 10
-106.41550266578895
 20
-79.78516519100498
 30
0.0
 10
-106.36439140522256
 20
-80.17339375865878
 30
0.0
 10
-106.41550266578895
 20
-80.56162232631254
 30
0.0
 10
-106.5653532995459
 20
-80.92339375865878
 30
0.0
 10
-106.80373123344275
 20
-81.23405393043859
 30
0.0
 10
-107.11439140522256
 20
-81.47243186433543
 30
0.0
 10
-107.4761628375688
 20
-81.62228249809237
 30
0.0
 10
-107.86439140522256
 20
-81.67339375865878
 30
0.0
 10
-108.25261997287635
 20
-81.62228249809237
 30
0.0
 10
-108.61439140522256
 20
-81.47243186433543
 30
0.0
 10
-108.92505157700239
 20
-81.23405393043859
 30
0.0
 10
-109.16342951089922
 20
-80.92339375865878
 30
0.0
 10
-109.31328014465618
 20
-80.56162232631256
 30
0.0
 10
-109.36439140522256
 20
-80.17339375865878
 30
0.0
 10
-109.31328014465618
 20
-79.78516519100499
 30
0.0
 10
-109.16342951089922
 20
-79.42339375865878
 30
0.0
 10
-108.92505157700239
 20
-79.11273358687895
 30
0.0
  0
LWPOLYLINE
  8
OpenJsCad
  90
25
  70
1
 10
-97.57826405968478
 20
-36.76594606956136
 30
0.0
 10
-97.26760388790497
 20
-36.527568135664524
 30
0.0
 10
-96.90583245555874
 20
-36.377717501907576
 30
0.0
 10
-96.51760388790497
 20
-36.32660624134118
 30
0.0
 10
-96.12937532025117
 20
-36.37771750190757
 30
0.0
 10
-95.76760388790497
 20
-36.527568135664524
 30
0.0
 10
-95.45694371612515
 20
-36.76594606956136
 30
0.0
 10
-95.21856578222831
 20
-37.07660624134118
 30
0.0
 10
-95.06871514847137
 20
-37.4383776736874
 30
0.0
 10
-95.01760388790497
 20
-37.82660624134118
 30
0.0
 10
-95.06871514847137
 20
-38.214834808994965
 30
0.0
 10
-95.21856578222831
 20
-38.57660624134118
 30
0.0
 10
-95.45694371612514
 20
-38.887266413121
 30
0.0
 10
-95.76760388790497
 20
-39.12564434701784
 30
0.0
 10
-96.12937532025119
 20
-39.27549498077478
 30
0.0
 10
-96.51760388790497
 20
-39.32660624134118
 30
0.0
 10
-96.90583245555874
 20
-39.27549498077478
 30
0.0
 10
-97.26760388790497
 20
-39.12564434701784
 30
0.0
 10
-97.57826405968478
 20
-38.887266413121
 30
0.0
 10
-97.81664199358163
 20
-38.57660624134118
 30
0.0
 10
-97.96649262733857
 20
-38.21483480899496
 30
0.0
 10
-98.01760388790497
 20
-37.82660624134118
 30
0.0
 10
-97.96649262733857
 20
-37.43837767368739
 30
0.0
 10
-97.81664199358163
 20
-37.07660624134118
 30
0.0
 10
-97.57826405968478
 20
-36.76594606956136
 30
0.0
  0
LWPOLYLINE
  8
OpenJsCad
  90
25
  70
1
 10
-124.42505157700238
 20
-52.26594606956135
 30
0.0
 10
-124.11439140522256
 20
-52.02756813566451
 30
0.0
 10
-123.75261997287633
 20
-51.87771750190757
 30
0.0
 10
-123.36439140522256
 20
-51.82660624134117
 30
0.0
 10
-122.97616283756878
 20
-51.87771750190756
 30
0.0
 10
-122.61439140522256
 20
-52.02756813566451
 30
0.0
 10
-122.30373123344273
 20
-52.265946069561345
 30
0.0
 10
-122.0653532995459
 20
-52.57660624134117
 30
0.0
 10
-121.91550266578895
 20
-52.938377673687384
 30
0.0
 10
-121.86439140522256
 20
-53.32660624134117
 30
0.0
 10
-121.91550266578895
 20
-53.71483480899495
 30
0.0
 10
-122.0653532995459
 20
-54.07660624134117
 30
0.0
 10
-122.30373123344273
 20
-54.38726641312099
 30
0.0
 10
-122.61439140522256
 20
-54.625644347017825
 30
0.0
 10
-122.97616283756878
 20
-54.77549498077477
 30
0.0
 10
-123.36439140522256
 20
-54.82660624134117
 30
0.0
 10
-123.75261997287635
 20
-54.77549498077478
 30
0.0
 10
-124.11439140522256
 20
-54.625644347017825
 30
0.0
 10
-124.42505157700239
 20
-54.387266413121
 30
0.0
 10
-124.66342951089922
 20
-54.07660624134117
 30
0.0
 10
-124.81328014465618
 20
-53.71483480899496
 30
0.0
 10
-124.86439140522256
 20
-53.32660624134117
 30
0.0
 10
-124.81328014465618
 20
-52.93837767368739
 30
0.0
 10
-124.66342951089922
 20
-52.57660624134117
 30
0.0
 10
-124.42505157700238
 20
-52.26594606956135
 30
0.0
  0
LWPOLYLINE
  8
OpenJsCad
  90
5
  70
1
 10
-117.87753112603698
 20
-73.83012701892217
 30
0.0
 10
-119.60958193360585
 20
-74.83012701892217
 30
0.0
 10
-124.60958193360585
 20
-66.16987298107777
 30
0.0
 10
-122.87753112603698
 20
-65.16987298107777
 30
0.0
 10
-117.87753112603698
 20
-73.83012701892217
 30
0.0
  0
LWPOLYLINE
  8
OpenJsCad
  90
61
  70
1
 10
97.71689457272991
 20
-69.04900003406865
 30
0.0
 10
96.69099764656373
 20
-68.52627944162887
 30
0.0
 10
95.72535987134653
 20
-67.89918693812447
 30
0.0
 10
94.83056097661628
 20
-67.17459308025138
 30
0.0
 10
94.01640456631239
 20
-66.36043666994749
 30
0.0
 10
93.2918107084393
 20
-65.46563777521725
 30
0.0
 10
92.6647182049349
 20
-64.50000000000004
 30
0.0
 10
92.14199761249512
 20
-63.47410307383385
 30
0.0
 10
91.72937596731704
 20
-62.39918693812447
 30
0.0
 10
91.43137403849187
 20
-61.287028598995406
 30
0.0
 10
91.25125679751272
 20
-60.14981309594424
 30
0.0
 10
91.19099764656373
 20
-59.00000000000004
 30
0.0
 10
91.25125679751272
 20
-57.85018690405585
 30
0.0
 10
91.43137403849187
 20
-56.712971401004694
 30
0.0
 10
91.72937596731704
 20
-55.60081306187563
 30
0.0
 10
92.14199761249513
 20
-54.52589692616624
 30
0.0
 10
92.6647182049349
 20
-53.50000000000005
 30
0.0
 10
93.29181070843933
 20
-52.53436222478284
 30
0.0
 10
94.0164045663124
 20
-51.6395633300526
 30
0.0
 10
94.83056097661628
 20
-50.825406919748715
 30
0.0
 10
95.72535987134654
 20
-50.10081306187563
 30
0.0
 10
96.69099764656374
 20
-49.47372055837123
 30
0.0
 10
97.71689457272993
 20
-48.950999965931445
 30
0.0
 10
98.79181070843933
 20
-48.53837832075337
 30
0.0
 10
99.90396904756838
 20
-48.24037639192819
 30
0.0
 10
101.04118455061953
 20
-48.060259150949044
 30
0.0
 10
102.19099764656374
 20
-48.00000000000005
 30
0.0
 10
103.34081074250793
 20
-48.06025915094905
 30
0.0
 10
104.4780262455591
 20
-48.240376391928194
 30
0.0
 10
105.59018458468816
 20
-48.53837832075337
 30
0.0
 10
106.66510072039755
 20
-48.950999965931445
 30
0.0
 10
107.69099764656373
 20
-49.47372055837123
 30
0.0
 10
108.65663542178093
 20
-50.10081306187563
 30
0.0
 10
109.55143431651118
 20
-50.82540691974872
 30
0.0
 10
110.36559072681506
 20
-51.63956333005262
 30
0.0
 10
111.09018458468816
 20
-52.53436222478285
 30
0.0
 10
111.71727708819256
 20
-53.50000000000006
 30
0.0
 10
112.23999768063233
 20
-54.525896926166254
 30
0.0
 10
112.65261932581043
 20
-55.60081306187564
 30
0.0
 10
112.95062125463559
 20
-56.71297140100471
 30
0.0
 10
113.13073849561472
 20
-57.85018690405587
 30
0.0
 10
113.19099764656373
 20
-59.000000000000064
 30
0.0
 10
113.13073849561474
 20
-60.14981309594424
 30
0.0
 10
112.95062125463558
 20
-61.28702859899541
 30
0.0
 10
112.65261932581043
 20
-62.39918693812449
 30
0.0
 10
112.23999768063234
 20
-63.47410307383387
 30
0.0
 10
111.71727708819255
 20
-64.50000000000006
 30
0.0
 10
111.09018458468816
 20
-65.46563777521727
 30
0.0
 10
110.36559072681507
 20
-66.3604366699475
 30
0.0
 10
109.55143431651116
 20
-67.1745930802514
 30
0.0
 10
108.65663542178092
 20
-67.89918693812447
 30
0.0
 10
107.69099764656373
 20
-68.52627944162889
 30
0.0
 10
106.66510072039752
 20
-69.04900003406865
 30
0.0
 10
105.59018458468816
 20
-69.46162167924675
 30
0.0
 10
104.47802624555908
 20
-69.75962360807192
 30
0.0
 10
103.3408107425079
 20
-69.93974084905106
 30
0.0
 10
102.19099764656372
 20
-70.00000000000006
 30
0.0
 10
101.04118455061953
 20
-69.93974084905106
 30
0.0
 10
99.90396904756837
 20
-69.7596236080719
 30
0.0
 10
98.7918107084393
 20
-69.46162167924675
 30
0.0
 10
97.71689457272991
 20
-69.04900003406865
 30
0.0
  0
LWPOLYLINE
  8
OpenJsCad
  90
25
  70
1
 10
96.12937532025116
 20
-39.27549498077485
 30
0.0
 10
95.76760388790494
 20
-39.125644347017904
 30
0.0
 10
95.45694371612512
 20
-38.88726641312107
 30
0.0
 10
95.21856578222828
 20
-38.576606241341246
 30
0.0
 10
95.06871514847133
 20
-38.21483480899502
 30
0.0
 10
95.01760388790494
 20
-37.826606241341246
 30
0.0
 10
95.06871514847134
 20
-37.43837767368747
 30
0.0
 10
95.2185657822283
 20
-37.076606241341246
 30
0.0
 10
95.45694371612511
 20
-36.76594606956143
 30
0.0
 10
95.76760388790495
 20
-36.52756813566459
 30
0.0
 10
96.12937532025116
 20
-36.37771750190765
 30
0.0
 10
96.51760388790495
 20
-36.326606241341246
 30
0.0
 10
96.90583245555872
 20
-36.37771750190765
 30
0.0
 10
97.26760388790495
 20
-36.527568135664595
 30
0.0
 10
97.57826405968476
 20
-36.76594606956143
 30
0.0
 10
97.81664199358161
 20
-37.076606241341246
 30
0.0
 10
97.96649262733854
 20
-37.43837767368746
 30
0.0
 10
98.01760388790495
 20
-37.826606241341246
 30
0.0
 10
97.96649262733854
 20
-38.21483480899503
 30
0.0
 10
97.81664199358158
 20
-38.576606241341246
 30
0.0
 10
97.57826405968477
 20
-38.88726641312107
 30
0.0
 10
97.26760388790494
 20
-39.125644347017904
 30
0.0
 10
96.90583245555872
 20
-39.275494980774845
 30
0.0
 10
96.51760388790494
 20
-39.326606241341246
 30
0.0
 10
96.12937532025116
 20
-39.27549498077485
 30
0.0
  0
LWPOLYLINE
  8
OpenJsCad
  90
25
  70
1
 10
122.97616283756875
 20
-54.775494980774866
 30
0.0
 10
122.61439140522252
 20
-54.62564434701792
 30
0.0
 10
122.3037312334427
 20
-54.38726641312108
 30
0.0
 10
122.06535329954586
 20
-54.07660624134126
 30
0.0
 10
121.91550266578892
 20
-53.714834808995036
 30
0.0
 10
121.86439140522252
 20
-53.32660624134126
 30
0.0
 10
121.91550266578892
 20
-52.93837767368748
 30
0.0
 10
122.06535329954588
 20
-52.57660624134126
 30
0.0
 10
122.30373123344269
 20
-52.26594606956144
 30
0.0
 10
122.61439140522253
 20
-52.0275681356646
 30
0.0
 10
122.97616283756874
 20
-51.877717501907654
 30
0.0
 10
123.36439140522253
 20
-51.82660624134126
 30
0.0
 10
123.7526199728763
 20
-51.87771750190766
 30
0.0
 10
124.11439140522253
 20
-52.02756813566461
 30
0.0
 10
124.42505157700235
 20
-52.265946069561444
 30
0.0
 10
124.66342951089919
 20
-52.57660624134126
 30
0.0
 10
124.81328014465613
 20
-52.938377673687484
 30
0.0
 10
124.86439140522253
 20
-53.32660624134126
 30
0.0
 10
124.81328014465613
 20
-53.71483480899505
 30
0.0
 10
124.66342951089919
 20
-54.07660624134126
 30
0.0
 10
124.42505157700236
 20
-54.38726641312109
 30
0.0
 10
124.11439140522252
 20
-54.62564434701792
 30
0.0
 10
123.75261997287632
 20
-54.775494980774866
 30
0.0
 10
123.36439140522252
 20
-54.82660624134126
 30
0.0
 10
122.97616283756875
 20
-54.775494980774866
 30
0.0
  0
LWPOLYLINE
  8
OpenJsCad
  90
25
  70
1
 10
80.62937532025114
 20
-66.12228249809245
 30
0.0
 10
80.26760388790493
 20
-65.97243186433549
 30
0.0
 10
79.95694371612511
 20
-65.73405393043866
 30
0.0
 10
79.71856578222827
 20
-65.42339375865883
 30
0.0
 10
79.56871514847131
 20
-65.06162232631262
 30
0.0
 10
79.51760388790493
 20
-64.67339375865883
 30
0.0
 10
79.56871514847133
 20
-64.28516519100506
 30
0.0
 10
79.71856578222827
 20
-63.92339375865884
 30
0.0
 10
79.9569437161251
 20
-63.61273358687902
 30
0.0
 10
80.26760388790494
 20
-63.37435565298218
 30
0.0
 10
80.62937532025114
 20
-63.224505019225234
 30
0.0
 10
81.01760388790494
 20
-63.17339375865884
 30
0.0
 10
81.40583245555871
 20
-63.224505019225234
 30
0.0
 10
81.76760388790494
 20
-63.37435565298218
 30
0.0
 10
82.07826405968474
 20
-63.61273358687902
 30
0.0
 10
82.3166419935816
 20
-63.92339375865884
 30
0.0
 10
82.46649262733852
 20
-64.28516519100505
 30
0.0
 10
82.51760388790494
 20
-64.67339375865883
 30
0.0
 10
82.46649262733852
 20
-65.06162232631262
 30
0.0
 10
82.31664199358158
 20
-65.42339375865883
 30
0.0
 10
82.07826405968476
 20
-65.73405393043866
 30
0.0
 10
81.76760388790493
 20
-65.97243186433549
 30
0.0
 10
81.40583245555871
 20
-66.12228249809243
 30
0.0
 10
81.01760388790493
 20
-66.17339375865883
 30
0.0
 10
80.62937532025114
 20
-66.12228249809245
 30
0.0
  0
LWPOLYLINE
  8
OpenJsCad
  90
25
  70
1
 10
107.47616283756874
 20
-81.62228249809246
 30
0.0
 10
107.1143914052225
 20
-81.4724318643355
 30
0.0
 10
106.80373123344269
 20
-81.23405393043868
 30
0.0
 10
106.56535329954585
 20
-80.92339375865885
 30
0.0
 10
106.4155026657889
 20
-80.56162232631263
 30
0.0
 10
106.3643914052225
 20
-80.17339375865885
 30
0.0
 10
106.4155026657889
 20
-79.78516519100506
 30
0.0
 10
106.56535329954585
 20
-79.42339375865885
 30
0.0
 10
106.80373123344268
 20
-79.11273358687902
 30
0.0
 10
107.11439140522252
 20
-78.87435565298219
 30
0.0
 10
107.47616283756872
 20
-78.72450501922525
 30
0.0
 10
107.86439140522252
 20
-78.67339375865885
 30
0.0
 10
108.25261997287629
 20
-78.72450501922525
 30
0.0
 10
108.61439140522252
 20
-78.87435565298219
 30
0.0
 10
108.92505157700234
 20
-79.11273358687903
 30
0.0
 10
109.16342951089918
 20
-79.42339375865885
 30
0.0
 10
109.31328014465612
 20
-79.78516519100508
 30
0.0
 10
109.36439140522252
 20
-80.17339375865885
 30
0.0
 10
109.31328014465612
 20
-80.56162232631263
 30
0.0
 10
109.16342951089916
 20
-80.92339375865885
 30
0.0
 10
108.92505157700235
 20
-81.23405393043868
 30
0.0
 10
108.6143914052225
 20
-81.4724318643355
 30
0.0
 10
108.2526199728763
 20
-81.62228249809246
 30
0.0
 10
107.8643914052225
 20
-81.67339375865885
 30
0.0
 10
107.47616283756874
 20
-81.62228249809246
 30
0.0
  0
LWPOLYLINE
  8
OpenJsCad
  90
5
  70
1
 10
122.87753112603693
 20
-65.16987298107786
 30
0.0
 10
124.60958193360581
 20
-66.16987298107786
 30
0.0
 10
119.60958193360581
 20
-74.83012701892225
 30
0.0
 10
117.87753112603693
 20
-73.83012701892225
 30
0.0
 10
122.87753112603693
 20
-65.16987298107786
 30
0.0
  0
ENDSEC
  0
EOF
