999
DXF generated by OpenJsCad
  0
SECTION
  2
HEADER
  0
ENDSEC
  0
SECTION
  2
TABLES
  0
TABLE
  2
LTYPE
  70
1
  0
LTYPE
  2
CONTINUOUS
  3
Solid Line
  72
65
  73
0
  40
0.0
  0
ENDTAB
  0
TABLE
  2
LAYER
  70
1
  0
LAYER
  2
OpenJsCad
  62
7
  6
continuous
  0
ENDTAB
  0
TABLE
  2
STYLE
  70
0
  0
ENDTAB
  0
TABLE
  2
VIEW
  70
0
  0
ENDTAB
  0
ENDSEC
  0
SECTION
  2
BLOCKS
  0
ENDSEC
  0
SECTION
  2
ENTITIES
  0
LWPOLYLINE
  8
OpenJsCad
  90
7
  70
1
 10
-20
 20
180
 30
0.0
 10
-165.88457268119896
 20
-72.67949192431118
 30
0.0
 10
-145.88457268119896
 20
-107.32050807568874
 30
0.0
 10
145.88457268119896
 20
-107.32050807568874
 30
0.0
 10
165.88457268119896
 20
-72.67949192431118
 30
0.0
 10
20
 20
180
 30
0.0
 10
-20
 20
180
 30
0.0
  0
LWPOLYLINE
  8
OpenJsCad
  90
100
  70
1
 10
31.176914536239806
 20
108
 30
0.0
 10
109.11920087683927
 20
-26.999999999999993
 30
0.0
 10
110.22970503577626
 20
-29.077607152115945
 30
0.0
 10
111.20194951100581
 20
-31.223396434856742
 30
0.0
 10
112.0317710024233
 20
-33.42817924908617
 30
0.0
 10
112.71561608700597
 20
-35.682514376309285
 30
0.0
 10
113.25055643511578
 20
-37.976748407419365
 30
0.0
 10
113.63430135005667
 20
-40.301057080078174
 30
0.0
 10
113.86520757718921
 20
-42.64548734771485
 30
0.0
 10
113.94228634059948
 20
-45.00000000000002
 30
0.0
 10
113.86520757718921
 20
-47.35451265228515
 30
0.0
 10
113.63430135005665
 20
-49.69894291992187
 30
0.0
 10
113.25055643511578
 20
-52.023251592580614
 30
0.0
 10
112.71561608700593
 20
-54.31748562369076
 30
0.0
 10
112.03177100242328
 20
-56.571820750913815
 30
0.0
 10
111.20194951100581
 20
-58.77660356514324
 30
0.0
 10
110.22970503577625
 20
-60.92239284788406
 30
0.0
 10
109.11920087683927
 20
-63
 30
0.0
 10
107.87519238349111
 20
-65.00052838870569
 30
0.0
 10
106.50300659108396
 20
-66.91541144431395
 30
0.0
 10
105.00851940984266
 20
-68.73644934360249
 30
0.0
 10
103.3981304633152
 20
-70.4558441227157
 30
0.0
 10
101.67873568420197
 20
-72.0662330692432
 30
0.0
 10
99.85769778491343
 20
-73.56072025048445
 30
0.0
 10
97.94281472930516
 20
-74.93290604289162
 30
0.0
 10
95.94228634059948
 20
-76.17691453623979
 30
0.0
 10
93.86467918848354
 20
-77.28741869517677
 30
0.0
 10
91.7188899057427
 20
-78.25966317040633
 30
0.0
 10
89.51410709151332
 20
-79.0894846618238
 30
0.0
 10
87.25977196429022
 20
-79.77332974640646
 30
0.0
 10
84.96553793318007
 20
-80.3082700945163
 30
0.0
 10
82.64122926052136
 20
-80.69201500945717
 30
0.0
 10
80.29679899288463
 20
-80.92292123658973
 30
0.0
 10
77.94228634059947
 20
-81
 30
0.0
 10
-77.94228634059951
 20
-80.99999999999996
 30
0.0
 10
-80.29679899288466
 20
-80.92292123658969
 30
0.0
 10
-82.64122926052136
 20
-80.69201500945715
 30
0.0
 10
-84.96553793318012
 20
-80.30827009451626
 30
0.0
 10
-87.25977196429024
 20
-79.77332974640643
 30
0.0
 10
-89.51410709151332
 20
-79.08948466182378
 30
0.0
 10
-91.71888990574271
 20
-78.25966317040631
 30
0.0
 10
-93.86467918848356
 20
-77.28741869517673
 30
0.0
 10
-95.94228634059951
 20
-76.17691453623976
 30
0.0
 10
-97.9428147293052
 20
-74.93290604289157
 30
0.0
 10
-99.85769778491346
 20
-73.56072025048444
 30
0.0
 10
-101.678735684202
 20
-72.06623306924314
 30
0.0
 10
-103.3981304633152
 20
-70.45584412271569
 30
0.0
 10
-105.0085194098427
 20
-68.73644934360243
 30
0.0
 10
-106.50300659108396
 20
-66.91541144431392
 30
0.0
 10
-107.87519238349113
 20
-65.00052838870563
 30
0.0
 10
-109.1192008768393
 20
-62.99999999999994
 30
0.0
 10
-110.22970503577629
 20
-60.922392847884
 30
0.0
 10
-111.20194951100584
 20
-58.77660356514318
 30
0.0
 10
-112.03177100242331
 20
-56.57182075091377
 30
0.0
 10
-112.71561608700597
 20
-54.317485623690715
 30
0.0
 10
-113.25055643511581
 20
-52.02325159258056
 30
0.0
 10
-113.63430135005669
 20
-49.698942919921784
 30
0.0
 10
-113.86520757718921
 20
-47.35451265228509
 30
0.0
 10
-113.94228634059951
 20
-44.999999999999936
 30
0.0
 10
-113.86520757718921
 20
-42.6454873477148
 30
0.0
 10
-113.63430135005666
 20
-40.30105708007808
 30
0.0
 10
-113.2505564351158
 20
-37.97674840741933
 30
0.0
 10
-112.71561608700597
 20
-35.68251437630918
 30
0.0
 10
-112.0317710024233
 20
-33.42817924908613
 30
0.0
 10
-111.20194951100582
 20
-31.22339643485671
 30
0.0
 10
-110.22970503577626
 20
-29.077607152115903
 30
0.0
 10
-109.11920087683929
 20
-26.999999999999957
 30
0.0
 10
-31.176914536239764
 20
108
 30
0.0
 10
-29.932906042891616
 20
110.00052838870567
 30
0.0
 10
-28.56072025048445
 20
111.91541144431395
 30
0.0
 10
-27.06623306924319
 20
113.73644934360246
 30
0.0
 10
-25.45584412271569
 20
115.45584412271572
 30
0.0
 10
-23.736449343602466
 20
117.06623306924317
 30
0.0
 10
-21.915411444313925
 20
118.56072025048445
 30
0.0
 10
-20.000528388705668
 20
119.93290604289163
 30
0.0
 10
-17.999999999999993
 20
121.17691453623979
 30
0.0
 10
-15.922392847884034
 20
122.28741869517677
 30
0.0
 10
-13.776603565143233
 20
123.2596631704063
 30
0.0
 10
-11.571820750913815
 20
124.0894846618238
 30
0.0
 10
-9.317485623690736
 20
124.77332974640646
 30
0.0
 10
-7.023251592580614
 20
125.30827009451627
 30
0.0
 10
-4.698942919921848
 20
125.69201500945715
 30
0.0
 10
-2.3545126522851447
 20
125.92292123658972
 30
0.0
 10
1.4210854715202004e-14
 20
126
 30
0.0
 10
2.354512652285166
 20
125.92292123658973
 30
0.0
 10
4.698942919921876
 20
125.69201500945718
 30
0.0
 10
7.023251592580628
 20
125.30827009451629
 30
0.0
 10
9.317485623690757
 20
124.77332974640645
 30
0.0
 10
11.571820750913837
 20
124.0894846618238
 30
0.0
 10
13.776603565143255
 20
123.25966317040631
 30
0.0
 10
15.922392847884062
 20
122.28741869517677
 30
0.0
 10
18.000000000000007
 20
121.17691453623979
 30
0.0
 10
20.000528388705696
 20
119.93290604289163
 30
0.0
 10
21.91541144431396
 20
118.56072025048445
 30
0.0
 10
23.736449343602494
 20
117.0662330692432
 30
0.0
 10
25.455844122715725
 20
115.4558441227157
 30
0.0
 10
27.066233069243196
 20
113.73644934360247
 30
0.0
 10
28.56072025048448
 20
111.91541144431395
 30
0.0
 10
29.932906042891638
 20
110.00052838870567
 30
0.0
 10
31.176914536239806
 20
108
 30
0.0
  0
LWPOLYLINE
  8
OpenJsCad
  90
29
  70
1
 10
-165.88457268119893
 20
-119.32050807568879
 30
0.0
 10
-165.88457268119893
 20
-179.3205080756888
 30
0.0
 10
-165.54383094408962
 20
-181.908698526714
 30
0.0
 10
-164.54482671904333
 20
-184.3205080756888
 30
0.0
 10
-162.9556404930644
 20
-186.39157588755427
 30
0.0
 10
-160.88457268119893
 20
-187.98076211353316
 30
0.0
 10
-158.47276313222415
 20
-188.97976633857948
 30
0.0
 10
-155.88457268119893
 20
-189.3205080756888
 30
0.0
 10
155.88457268119893
 20
-189.3205080756888
 30
0.0
 10
158.47276313222415
 20
-188.97976633857948
 30
0.0
 10
160.88457268119893
 20
-187.98076211353316
 30
0.0
 10
162.9556404930644
 20
-186.39157588755427
 30
0.0
 10
164.54482671904333
 20
-184.3205080756888
 30
0.0
 10
165.54383094408962
 20
-181.908698526714
 30
0.0
 10
165.88457268119893
 20
-179.3205080756888
 30
0.0
 10
165.88457268119893
 20
-119.32050807568879
 30
0.0
 10
165.54383094408962
 20
-116.73231762466358
 30
0.0
 10
164.54482671904333
 20
-114.32050807568879
 30
0.0
 10
162.9556404930644
 20
-112.24944026382332
 30
0.0
 10
160.88457268119893
 20
-110.66025403784441
 30
0.0
 10
158.47276313222415
 20
-109.6612498127981
 30
0.0
 10
155.88457268119893
 20
-109.32050807568879
 30
0.0
 10
-155.88457268119893
 20
-109.32050807568879
 30
0.0
 10
-158.47276313222415
 20
-109.6612498127981
 30
0.0
 10
-160.88457268119893
 20
-110.6602540378444
 30
0.0
 10
-162.9556404930644
 20
-112.24944026382332
 30
0.0
 10
-164.54482671904333
 20
-114.32050807568879
 30
0.0
 10
-165.54383094408962
 20
-116.73231762466358
 30
0.0
 10
-165.88457268119893
 20
-119.32050807568879
 30
0.0
  0
LWPOLYLINE
  8
OpenJsCad
  90
25
  70
1
 10
-153.46975811547625
 20
-178.6734604629325
 30
0.0
 10
-153.38457268119893
 20
-179.3205080756888
 30
0.0
 10
-153.46975811547625
 20
-179.9675556884451
 30
0.0
 10
-153.71950917173783
 20
-180.5705080756888
 30
0.0
 10
-154.11680572823258
 20
-181.08827502865518
 30
0.0
 10
-154.63457268119893
 20
-181.4855715851499
 30
0.0
 10
-155.23752506844264
 20
-181.73532264141147
 30
0.0
 10
-155.88457268119893
 20
-181.8205080756888
 30
0.0
 10
-156.53162029395523
 20
-181.73532264141147
 30
0.0
 10
-157.13457268119893
 20
-181.4855715851499
 30
0.0
 10
-157.65233963416532
 20
-181.08827502865518
 30
0.0
 10
-158.04963619066004
 20
-180.5705080756888
 30
0.0
 10
-158.2993872469216
 20
-179.9675556884451
 30
0.0
 10
-158.38457268119893
 20
-179.3205080756888
 30
0.0
 10
-158.2993872469216
 20
-178.6734604629325
 30
0.0
 10
-158.04963619066004
 20
-178.0705080756888
 30
0.0
 10
-157.6523396341653
 20
-177.5527411227224
 30
0.0
 10
-157.13457268119893
 20
-177.1554445662277
 30
0.0
 10
-156.53162029395523
 20
-176.9056935099661
 30
0.0
 10
-155.88457268119893
 20
-176.8205080756888
 30
0.0
 10
-155.23752506844264
 20
-176.9056935099661
 30
0.0
 10
-154.63457268119893
 20
-177.1554445662277
 30
0.0
 10
-154.11680572823258
 20
-177.5527411227224
 30
0.0
 10
-153.71950917173783
 20
-178.0705080756888
 30
0.0
 10
-153.46975811547625
 20
-178.6734604629325
 30
0.0
  0
LWPOLYLINE
  8
OpenJsCad
  90
25
  70
1
 10
-153.46975811547625
 20
-118.6734604629325
 30
0.0
 10
-153.38457268119893
 20
-119.32050807568879
 30
0.0
 10
-153.46975811547625
 20
-119.96755568844509
 30
0.0
 10
-153.71950917173783
 20
-120.57050807568879
 30
0.0
 10
-154.11680572823258
 20
-121.08827502865516
 30
0.0
 10
-154.63457268119893
 20
-121.48557158514988
 30
0.0
 10
-155.23752506844264
 20
-121.73532264141147
 30
0.0
 10
-155.88457268119893
 20
-121.82050807568879
 30
0.0
 10
-156.53162029395523
 20
-121.73532264141147
 30
0.0
 10
-157.13457268119893
 20
-121.48557158514988
 30
0.0
 10
-157.65233963416532
 20
-121.08827502865516
 30
0.0
 10
-158.04963619066004
 20
-120.57050807568879
 30
0.0
 10
-158.2993872469216
 20
-119.96755568844509
 30
0.0
 10
-158.38457268119893
 20
-119.32050807568879
 30
0.0
 10
-158.2993872469216
 20
-118.6734604629325
 30
0.0
 10
-158.04963619066004
 20
-118.07050807568879
 30
0.0
 10
-157.6523396341653
 20
-117.55274112272242
 30
0.0
 10
-157.13457268119893
 20
-117.15544456622769
 30
0.0
 10
-156.53162029395523
 20
-116.90569350996611
 30
0.0
 10
-155.88457268119893
 20
-116.82050807568879
 30
0.0
 10
-155.23752506844264
 20
-116.90569350996611
 30
0.0
 10
-154.63457268119893
 20
-117.15544456622769
 30
0.0
 10
-154.11680572823258
 20
-117.55274112272242
 30
0.0
 10
-153.71950917173783
 20
-118.07050807568879
 30
0.0
 10
-153.46975811547625
 20
-118.6734604629325
 30
0.0
  0
LWPOLYLINE
  8
OpenJsCad
  90
25
  70
1
 10
158.2993872469216
 20
-178.6734604629325
 30
0.0
 10
158.38457268119893
 20
-179.3205080756888
 30
0.0
 10
158.2993872469216
 20
-179.9675556884451
 30
0.0
 10
158.04963619066004
 20
-180.5705080756888
 30
0.0
 10
157.6523396341653
 20
-181.08827502865518
 30
0.0
 10
157.13457268119893
 20
-181.4855715851499
 30
0.0
 10
156.53162029395523
 20
-181.73532264141147
 30
0.0
 10
155.88457268119893
 20
-181.8205080756888
 30
0.0
 10
155.23752506844264
 20
-181.73532264141147
 30
0.0
 10
154.63457268119893
 20
-181.4855715851499
 30
0.0
 10
154.11680572823255
 20
-181.08827502865518
 30
0.0
 10
153.71950917173783
 20
-180.5705080756888
 30
0.0
 10
153.46975811547625
 20
-179.9675556884451
 30
0.0
 10
153.38457268119893
 20
-179.3205080756888
 30
0.0
 10
153.46975811547625
 20
-178.6734604629325
 30
0.0
 10
153.71950917173783
 20
-178.0705080756888
 30
0.0
 10
154.11680572823258
 20
-177.5527411227224
 30
0.0
 10
154.63457268119893
 20
-177.1554445662277
 30
0.0
 10
155.23752506844264
 20
-176.9056935099661
 30
0.0
 10
155.88457268119893
 20
-176.8205080756888
 30
0.0
 10
156.53162029395523
 20
-176.9056935099661
 30
0.0
 10
157.13457268119893
 20
-177.1554445662277
 30
0.0
 10
157.6523396341653
 20
-177.5527411227224
 30
0.0
 10
158.04963619066004
 20
-178.0705080756888
 30
0.0
 10
158.2993872469216
 20
-178.6734604629325
 30
0.0
  0
LWPOLYLINE
  8
OpenJsCad
  90
25
  70
1
 10
158.2993872469216
 20
-118.6734604629325
 30
0.0
 10
158.38457268119893
 20
-119.32050807568879
 30
0.0
 10
158.2993872469216
 20
-119.96755568844509
 30
0.0
 10
158.04963619066004
 20
-120.57050807568879
 30
0.0
 10
157.6523396341653
 20
-121.08827502865516
 30
0.0
 10
157.13457268119893
 20
-121.48557158514988
 30
0.0
 10
156.53162029395523
 20
-121.73532264141147
 30
0.0
 10
155.88457268119893
 20
-121.82050807568879
 30
0.0
 10
155.23752506844264
 20
-121.73532264141147
 30
0.0
 10
154.63457268119893
 20
-121.48557158514988
 30
0.0
 10
154.11680572823255
 20
-121.08827502865516
 30
0.0
 10
153.71950917173783
 20
-120.57050807568879
 30
0.0
 10
153.46975811547625
 20
-119.96755568844509
 30
0.0
 10
153.38457268119893
 20
-119.32050807568879
 30
0.0
 10
153.46975811547625
 20
-118.6734604629325
 30
0.0
 10
153.71950917173783
 20
-118.07050807568879
 30
0.0
 10
154.11680572823258
 20
-117.55274112272242
 30
0.0
 10
154.63457268119893
 20
-117.15544456622769
 30
0.0
 10
155.23752506844264
 20
-116.90569350996611
 30
0.0
 10
155.88457268119893
 20
-116.82050807568879
 30
0.0
 10
156.53162029395523
 20
-116.90569350996611
 30
0.0
 10
157.13457268119893
 20
-117.15544456622769
 30
0.0
 10
157.6523396341653
 20
-117.55274112272242
 30
0.0
 10
158.04963619066004
 20
-118.07050807568879
 30
0.0
 10
158.2993872469216
 20
-118.6734604629325
 30
0.0
  0
LWPOLYLINE
  8
OpenJsCad
  90
33
  70
1
 10
-18.684572681198937
 20
-172.4205080756888
 30
0.0
 10
-87.88457268119893
 20
-172.4205080756888
 30
0.0
 10
-87.88457268119893
 20
-170.4205080756888
 30
0.0
 10
-18.684572681198937
 20
-170.4205080756888
 30
0.0
 10
-17.390477455686334
 20
-170.25013720713415
 30
0.0
 10
-16.184572681198937
 20
-169.75063509461097
 30
0.0
 10
-15.149038775266199
 20
-168.95604198162152
 30
0.0
 10
-14.354445662276746
 20
-167.9205080756888
 30
0.0
 10
-13.854943549753596
 20
-166.7146033012014
 30
0.0
 10
-13.684572681198937
 20
-165.4205080756888
 30
0.0
 10
-13.684572681198937
 20
-133.2205080756888
 30
0.0
 10
-13.854943549753596
 20
-131.92641285017618
 30
0.0
 10
-14.354445662276746
 20
-130.7205080756888
 30
0.0
 10
-15.149038775266199
 20
-129.68497416975606
 30
0.0
 10
-16.184572681198933
 20
-128.8903810567666
 30
0.0
 10
-17.390477455686334
 20
-128.39087894424344
 30
0.0
 10
-18.684572681198937
 20
-128.2205080756888
 30
0.0
 10
-87.88457268119893
 20
-128.2205080756888
 30
0.0
 10
-87.88457268119893
 20
-126.2205080756888
 30
0.0
 10
-18.684572681198937
 20
-126.2205080756888
 30
0.0
 10
-16.87283936548129
 20
-126.45902729166531
 30
0.0
 10
-15.184572681198933
 20
-127.15833024919772
 30
0.0
 10
-13.734825212893103
 20
-128.27076060738295
 30
0.0
 10
-12.622394854707867
 20
-129.7205080756888
 30
0.0
 10
-11.92309189717546
 20
-131.40877475997115
 30
0.0
 10
-11.684572681198937
 20
-133.2205080756888
 30
0.0
 10
-11.684572681198937
 20
-165.4205080756888
 30
0.0
 10
-11.92309189717546
 20
-167.23224139140643
 30
0.0
 10
-12.622394854707867
 20
-168.9205080756888
 30
0.0
 10
-13.734825212893107
 20
-170.37025554399463
 30
0.0
 10
-15.184572681198937
 20
-171.48268590217987
 30
0.0
 10
-16.872839365481294
 20
-172.18198885971228
 30
0.0
 10
-18.684572681198937
 20
-172.4205080756888
 30
0.0
  0
LWPOLYLINE
  8
OpenJsCad
  90
33
  70
1
 10
87.88457268119893
 20
-172.4205080756888
 30
0.0
 10
18.684572681198937
 20
-172.4205080756888
 30
0.0
 10
16.87283936548129
 20
-172.18198885971228
 30
0.0
 10
15.184572681198933
 20
-171.48268590217987
 30
0.0
 10
13.734825212893103
 20
-170.37025554399463
 30
0.0
 10
12.622394854707867
 20
-168.9205080756888
 30
0.0
 10
11.92309189717546
 20
-167.23224139140643
 30
0.0
 10
11.684572681198937
 20
-165.4205080756888
 30
0.0
 10
11.684572681198937
 20
-133.2205080756888
 30
0.0
 10
11.92309189717546
 20
-131.40877475997115
 30
0.0
 10
12.622394854707867
 20
-129.7205080756888
 30
0.0
 10
13.734825212893107
 20
-128.27076060738295
 30
0.0
 10
15.184572681198937
 20
-127.15833024919772
 30
0.0
 10
16.872839365481294
 20
-126.45902729166531
 30
0.0
 10
18.684572681198937
 20
-126.2205080756888
 30
0.0
 10
87.88457268119893
 20
-126.2205080756888
 30
0.0
 10
87.88457268119893
 20
-128.2205080756888
 30
0.0
 10
18.684572681198937
 20
-128.2205080756888
 30
0.0
 10
17.390477455686334
 20
-128.39087894424344
 30
0.0
 10
16.184572681198937
 20
-128.8903810567666
 30
0.0
 10
15.149038775266199
 20
-129.68497416975606
 30
0.0
 10
14.354445662276746
 20
-130.7205080756888
 30
0.0
 10
13.854943549753596
 20
-131.92641285017618
 30
0.0
 10
13.684572681198937
 20
-133.2205080756888
 30
0.0
 10
13.684572681198937
 20
-165.4205080756888
 30
0.0
 10
13.854943549753596
 20
-166.7146033012014
 30
0.0
 10
14.354445662276746
 20
-167.9205080756888
 30
0.0
 10
15.149038775266199
 20
-168.95604198162152
 30
0.0
 10
16.184572681198933
 20
-169.75063509461097
 30
0.0
 10
17.390477455686334
 20
-170.25013720713415
 30
0.0
 10
18.684572681198937
 20
-170.4205080756888
 30
0.0
 10
87.88457268119893
 20
-170.4205080756888
 30
0.0
 10
87.88457268119893
 20
-172.4205080756888
 30
0.0
  0
LWPOLYLINE
  8
OpenJsCad
  90
97
  70
1
 10
-35.50400710273051
 20
-138.34405992006415
 30
0.0
 10
-34.78457268119894
 20
-138.3205080756888
 30
0.0
 10
-34.065138259667364
 20
-138.34405992006415
 30
0.0
 10
-33.34878456677837
 20
-138.41461460057687
 30
0.0
 10
-32.63857913902152
 20
-138.53186999125325
 30
0.0
 10
-31.9375631850712
 20
-138.69532398650904
 30
0.0
 10
-31.24873856286416
 20
-138.90427665124264
 30
0.0
 10
-30.575054925182954
 20
-139.15783321806464
 30
0.0
 10
-29.91939708878992
 20
-139.45490791882924
 30
0.0
 10
-29.28457268119893
 20
-139.79422863405998
 30
0.0
 10
-28.673300117983302
 20
-140.1743423403608
 30
0.0
 10
-28.08819696210301
 20
-140.5936213324852
 30
0.0
 10
-27.53176871509818
 20
-141.05027019342003
 30
0.0
 10
-27.006398088146913
 20
-141.54233348263676
 30
0.0
 10
-26.51433479893019
 20
-142.06770410958802
 30
0.0
 10
-26.057685937995345
 20
-142.62413235659287
 30
0.0
 10
-25.63840694587094
 20
-143.20923551247319
 30
0.0
 10
-25.258293239570115
 20
-143.8205080756888
 30
0.0
 10
-24.918972524339367
 20
-144.4553324832798
 30
0.0
 10
-24.62189782357478
 20
-145.11099031967282
 30
0.0
 10
-24.368341256752775
 20
-145.78467395735402
 30
0.0
 10
-24.159388592019184
 20
-146.47349857956107
 30
0.0
 10
-23.995934596763405
 20
-147.17451453351137
 30
0.0
 10
-23.87867920608702
 20
-147.88471996126822
 30
0.0
 10
-23.8081245255743
 20
-148.60107365415723
 30
0.0
 10
-23.784572681198938
 20
-149.3205080756888
 30
0.0
 10
-23.8081245255743
 20
-150.03994249722035
 30
0.0
 10
-23.87867920608702
 20
-150.75629619010937
 30
0.0
 10
-23.995934596763405
 20
-151.46650161786621
 30
0.0
 10
-24.159388592019187
 20
-152.16751757181652
 30
0.0
 10
-24.368341256752778
 20
-152.85634219402357
 30
0.0
 10
-24.621897823574784
 20
-153.5300258317048
 30
0.0
 10
-24.918972524339367
 20
-154.1856836680978
 30
0.0
 10
-25.258293239570115
 20
-154.8205080756888
 30
0.0
 10
-25.63840694587094
 20
-155.43178063890443
 30
0.0
 10
-26.057685937995352
 20
-156.01688379478472
 30
0.0
 10
-26.514334798930186
 20
-156.57331204178956
 30
0.0
 10
-27.00639808814692
 20
-157.09868266874082
 30
0.0
 10
-27.53176871509818
 20
-157.59074595795755
 30
0.0
 10
-28.088196962103012
 20
-158.04739481889237
 30
0.0
 10
-28.673300117983317
 20
-158.4666738110168
 30
0.0
 10
-29.28457268119894
 20
-158.8467875173176
 30
0.0
 10
-29.91939708878992
 20
-159.18610823254835
 30
0.0
 10
-30.575054925182954
 20
-159.48318293331295
 30
0.0
 10
-31.248738562864162
 20
-159.73673950013495
 30
0.0
 10
-31.93756318507121
 20
-159.94569216486855
 30
0.0
 10
-32.63857913902153
 20
-160.10914616012434
 30
0.0
 10
-33.34878456677837
 20
-160.22640155080072
 30
0.0
 10
-34.065138259667364
 20
-160.29695623131343
 30
0.0
 10
-34.78457268119894
 20
-160.3205080756888
 30
0.0
 10
-35.50400710273051
 20
-160.29695623131343
 30
0.0
 10
-36.22036079561951
 20
-160.22640155080072
 30
0.0
 10
-36.930566223376346
 20
-160.10914616012434
 30
0.0
 10
-37.63158217732667
 20
-159.94569216486855
 30
0.0
 10
-38.320406799533714
 20
-159.73673950013495
 30
0.0
 10
-38.99409043721493
 20
-159.48318293331295
 30
0.0
 10
-39.649748273607955
 20
-159.18610823254835
 30
0.0
 10
-40.28457268119894
 20
-158.8467875173176
 30
0.0
 10
-40.895845244414566
 20
-158.4666738110168
 30
0.0
 10
-41.48094840029487
 20
-158.04739481889237
 30
0.0
 10
-42.037376647299695
 20
-157.59074595795755
 30
0.0
 10
-42.56274727425096
 20
-157.09868266874082
 30
0.0
 10
-43.05481056346769
 20
-156.57331204178953
 30
0.0
 10
-43.511459424402524
 20
-156.01688379478472
 30
0.0
 10
-43.930738416526935
 20
-155.43178063890443
 30
0.0
 10
-44.31085212282777
 20
-154.8205080756888
 30
0.0
 10
-44.65017283805851
 20
-154.1856836680978
 30
0.0
 10
-44.94724753882309
 20
-153.5300258317048
 30
0.0
 10
-45.200804105645105
 20
-152.85634219402357
 30
0.0
 10
-45.40975677037869
 20
-152.16751757181652
 30
0.0
 10
-45.57321076563447
 20
-151.46650161786621
 30
0.0
 10
-45.690466156310855
 20
-150.75629619010937
 30
0.0
 10
-45.761020836823576
 20
-150.03994249722038
 30
0.0
 10
-45.78457268119894
 20
-149.3205080756888
 30
0.0
 10
-45.761020836823576
 20
-148.6010736541572
 30
0.0
 10
-45.690466156310855
 20
-147.88471996126822
 30
0.0
 10
-45.57321076563447
 20
-147.17451453351137
 30
0.0
 10
-45.40975677037869
 20
-146.47349857956107
 30
0.0
 10
-45.2008041056451
 20
-145.78467395735402
 30
0.0
 10
-44.94724753882309
 20
-145.1109903196728
 30
0.0
 10
-44.65017283805851
 20
-144.4553324832798
 30
0.0
 10
-44.31085212282776
 20
-143.8205080756888
 30
0.0
 10
-43.930738416526935
 20
-143.20923551247316
 30
0.0
 10
-43.511459424402524
 20
-142.62413235659287
 30
0.0
 10
-43.05481056346769
 20
-142.06770410958802
 30
0.0
 10
-42.56274727425096
 20
-141.54233348263676
 30
0.0
 10
-42.037376647299695
 20
-141.05027019342003
 30
0.0
 10
-41.480948400294864
 20
-140.5936213324852
 30
0.0
 10
-40.89584524441456
 20
-140.1743423403608
 30
0.0
 10
-40.28457268119894
 20
-139.79422863405998
 30
0.0
 10
-39.649748273607955
 20
-139.45490791882924
 30
0.0
 10
-38.99409043721492
 20
-139.15783321806464
 30
0.0
 10
-38.320406799533714
 20
-138.90427665124264
 30
0.0
 10
-37.63158217732666
 20
-138.69532398650904
 30
0.0
 10
-36.930566223376346
 20
-138.53186999125325
 30
0.0
 10
-36.220360795619506
 20
-138.41461460057687
 30
0.0
 10
-35.50400710273051
 20
-138.34405992006415
 30
0.0
  0
LWPOLYLINE
  8
OpenJsCad
  90
25
  70
1
 10
-19.67280124885272
 20
-163.37161933625518
 30
0.0
 10
-19.284572681198938
 20
-163.3205080756888
 30
0.0
 10
-18.896344113545155
 20
-163.37161933625518
 30
0.0
 10
-18.534572681198938
 20
-163.52146997001213
 30
0.0
 10
-18.223912509419115
 20
-163.75984790390896
 30
0.0
 10
-17.98553457552228
 20
-164.0705080756888
 30
0.0
 10
-17.835683941765335
 20
-164.432279508035
 30
0.0
 10
-17.784572681198938
 20
-164.8205080756888
 30
0.0
 10
-17.835683941765335
 20
-165.20873664334258
 30
0.0
 10
-17.98553457552228
 20
-165.5705080756888
 30
0.0
 10
-18.22391250941912
 20
-165.88116824746862
 30
0.0
 10
-18.534572681198938
 20
-166.11954618136545
 30
0.0
 10
-18.896344113545158
 20
-166.2693968151224
 30
0.0
 10
-19.284572681198938
 20
-166.3205080756888
 30
0.0
 10
-19.67280124885272
 20
-166.2693968151224
 30
0.0
 10
-20.034572681198938
 20
-166.11954618136545
 30
0.0
 10
-20.34523285297876
 20
-165.88116824746862
 30
0.0
 10
-20.583610786875596
 20
-165.5705080756888
 30
0.0
 10
-20.733461420632544
 20
-165.20873664334258
 30
0.0
 10
-20.784572681198938
 20
-164.8205080756888
 30
0.0
 10
-20.733461420632544
 20
-164.432279508035
 30
0.0
 10
-20.583610786875596
 20
-164.0705080756888
 30
0.0
 10
-20.34523285297876
 20
-163.75984790390896
 30
0.0
 10
-20.034572681198938
 20
-163.52146997001213
 30
0.0
 10
-19.67280124885272
 20
-163.37161933625518
 30
0.0
  0
LWPOLYLINE
  8
OpenJsCad
  90
25
  70
1
 10
-50.67280124885272
 20
-163.37161933625518
 30
0.0
 10
-50.28457268119894
 20
-163.3205080756888
 30
0.0
 10
-49.896344113545155
 20
-163.37161933625518
 30
0.0
 10
-49.53457268119894
 20
-163.52146997001213
 30
0.0
 10
-49.223912509419115
 20
-163.75984790390896
 30
0.0
 10
-48.98553457552228
 20
-164.0705080756888
 30
0.0
 10
-48.83568394176534
 20
-164.432279508035
 30
0.0
 10
-48.78457268119894
 20
-164.8205080756888
 30
0.0
 10
-48.83568394176534
 20
-165.20873664334258
 30
0.0
 10
-48.98553457552228
 20
-165.5705080756888
 30
0.0
 10
-49.22391250941912
 20
-165.88116824746862
 30
0.0
 10
-49.53457268119894
 20
-166.11954618136545
 30
0.0
 10
-49.896344113545155
 20
-166.2693968151224
 30
0.0
 10
-50.28457268119894
 20
-166.3205080756888
 30
0.0
 10
-50.67280124885272
 20
-166.2693968151224
 30
0.0
 10
-51.03457268119894
 20
-166.11954618136545
 30
0.0
 10
-51.34523285297876
 20
-165.88116824746862
 30
0.0
 10
-51.583610786875596
 20
-165.5705080756888
 30
0.0
 10
-51.73346142063254
 20
-165.20873664334258
 30
0.0
 10
-51.78457268119894
 20
-164.8205080756888
 30
0.0
 10
-51.73346142063254
 20
-164.432279508035
 30
0.0
 10
-51.583610786875596
 20
-164.0705080756888
 30
0.0
 10
-51.34523285297876
 20
-163.75984790390896
 30
0.0
 10
-51.03457268119894
 20
-163.52146997001213
 30
0.0
 10
-50.67280124885272
 20
-163.37161933625518
 30
0.0
  0
LWPOLYLINE
  8
OpenJsCad
  90
25
  70
1
 10
-19.672801248852718
 20
-132.37161933625518
 30
0.0
 10
-19.284572681198938
 20
-132.3205080756888
 30
0.0
 10
-18.896344113545155
 20
-132.37161933625518
 30
0.0
 10
-18.534572681198938
 20
-132.52146997001213
 30
0.0
 10
-18.223912509419115
 20
-132.75984790390896
 30
0.0
 10
-17.98553457552228
 20
-133.0705080756888
 30
0.0
 10
-17.835683941765335
 20
-133.432279508035
 30
0.0
 10
-17.784572681198938
 20
-133.8205080756888
 30
0.0
 10
-17.835683941765335
 20
-134.20873664334258
 30
0.0
 10
-17.98553457552228
 20
-134.5705080756888
 30
0.0
 10
-18.22391250941912
 20
-134.88116824746862
 30
0.0
 10
-18.534572681198938
 20
-135.11954618136545
 30
0.0
 10
-18.896344113545155
 20
-135.2693968151224
 30
0.0
 10
-19.284572681198938
 20
-135.3205080756888
 30
0.0
 10
-19.67280124885272
 20
-135.2693968151224
 30
0.0
 10
-20.034572681198938
 20
-135.11954618136545
 30
0.0
 10
-20.34523285297876
 20
-134.88116824746862
 30
0.0
 10
-20.583610786875596
 20
-134.5705080756888
 30
0.0
 10
-20.733461420632537
 20
-134.20873664334258
 30
0.0
 10
-20.784572681198938
 20
-133.8205080756888
 30
0.0
 10
-20.733461420632537
 20
-133.432279508035
 30
0.0
 10
-20.583610786875596
 20
-133.0705080756888
 30
0.0
 10
-20.345232852978757
 20
-132.75984790390896
 30
0.0
 10
-20.034572681198938
 20
-132.52146997001213
 30
0.0
 10
-19.672801248852718
 20
-132.37161933625518
 30
0.0
  0
LWPOLYLINE
  8
OpenJsCad
  90
25
  70
1
 10
-50.67280124885272
 20
-132.37161933625518
 30
0.0
 10
-50.28457268119894
 20
-132.3205080756888
 30
0.0
 10
-49.896344113545155
 20
-132.37161933625518
 30
0.0
 10
-49.53457268119894
 20
-132.52146997001213
 30
0.0
 10
-49.223912509419115
 20
-132.75984790390896
 30
0.0
 10
-48.98553457552228
 20
-133.0705080756888
 30
0.0
 10
-48.83568394176533
 20
-133.432279508035
 30
0.0
 10
-48.78457268119894
 20
-133.8205080756888
 30
0.0
 10
-48.83568394176533
 20
-134.20873664334258
 30
0.0
 10
-48.98553457552228
 20
-134.5705080756888
 30
0.0
 10
-49.223912509419115
 20
-134.88116824746862
 30
0.0
 10
-49.53457268119894
 20
-135.11954618136545
 30
0.0
 10
-49.896344113545155
 20
-135.2693968151224
 30
0.0
 10
-50.28457268119894
 20
-135.3205080756888
 30
0.0
 10
-50.67280124885272
 20
-135.2693968151224
 30
0.0
 10
-51.03457268119894
 20
-135.11954618136545
 30
0.0
 10
-51.34523285297876
 20
-134.88116824746862
 30
0.0
 10
-51.583610786875596
 20
-134.5705080756888
 30
0.0
 10
-51.73346142063254
 20
-134.20873664334258
 30
0.0
 10
-51.78457268119894
 20
-133.8205080756888
 30
0.0
 10
-51.73346142063254
 20
-133.432279508035
 30
0.0
 10
-51.583610786875596
 20
-133.0705080756888
 30
0.0
 10
-51.34523285297876
 20
-132.75984790390896
 30
0.0
 10
-51.03457268119894
 20
-132.52146997001213
 30
0.0
 10
-50.67280124885272
 20
-132.37161933625518
 30
0.0
  0
LWPOLYLINE
  8
OpenJsCad
  90
5
  70
1
 10
-84.88457268119893
 20
-154.3205080756888
 30
0.0
 10
-86.88457268119893
 20
-154.3205080756888
 30
0.0
 10
-86.88457268119893
 20
-144.32050807568888
 30
0.0
 10
-84.88457268119893
 20
-144.3205080756888
 30
0.0
 10
-84.88457268119893
 20
-154.3205080756888
 30
0.0
  0
LWPOLYLINE
  8
OpenJsCad
  90
5
  70
1
 10
86.88457268119893
 20
-154.3205080756888
 30
0.0
 10
84.88457268119893
 20
-154.3205080756888
 30
0.0
 10
84.88457268119893
 20
-144.32050807568157
 30
0.0
 10
86.88457268119893
 20
-144.3205080756815
 30
0.0
 10
86.88457268119893
 20
-154.3205080756888
 30
0.0
  0
LWPOLYLINE
  8
OpenJsCad
  90
97
  70
1
 10
35.50400710273051
 20
-160.29695623131343
 30
0.0
 10
34.78457268119894
 20
-160.3205080756888
 30
0.0
 10
34.06513825966737
 20
-160.29695623131343
 30
0.0
 10
33.34878456677837
 20
-160.22640155080072
 30
0.0
 10
32.63857913902152
 20
-160.10914616012434
 30
0.0
 10
31.937563185071202
 20
-159.94569216486855
 30
0.0
 10
31.24873856286416
 20
-159.73673950013495
 30
0.0
 10
30.575054925182954
 20
-159.48318293331295
 30
0.0
 10
29.91939708878992
 20
-159.18610823254835
 30
0.0
 10
29.284572681198934
 20
-158.8467875173176
 30
0.0
 10
28.673300117983306
 20
-158.4666738110168
 30
0.0
 10
28.08819696210301
 20
-158.04739481889237
 30
0.0
 10
27.53176871509818
 20
-157.59074595795755
 30
0.0
 10
27.006398088146916
 20
-157.09868266874082
 30
0.0
 10
26.51433479893019
 20
-156.57331204178956
 30
0.0
 10
26.057685937995345
 20
-156.01688379478472
 30
0.0
 10
25.63840694587094
 20
-155.4317806389044
 30
0.0
 10
25.258293239570115
 20
-154.8205080756888
 30
0.0
 10
24.918972524339367
 20
-154.1856836680978
 30
0.0
 10
24.62189782357478
 20
-153.53002583170476
 30
0.0
 10
24.368341256752775
 20
-152.85634219402357
 30
0.0
 10
24.159388592019184
 20
-152.16751757181652
 30
0.0
 10
23.995934596763405
 20
-151.46650161786621
 30
0.0
 10
23.87867920608702
 20
-150.75629619010937
 30
0.0
 10
23.8081245255743
 20
-150.03994249722035
 30
0.0
 10
23.784572681198938
 20
-149.3205080756888
 30
0.0
 10
23.8081245255743
 20
-148.60107365415723
 30
0.0
 10
23.87867920608702
 20
-147.88471996126822
 30
0.0
 10
23.995934596763405
 20
-147.17451453351137
 30
0.0
 10
24.159388592019187
 20
-146.47349857956107
 30
0.0
 10
24.368341256752778
 20
-145.78467395735402
 30
0.0
 10
24.621897823574784
 20
-145.1109903196728
 30
0.0
 10
24.918972524339367
 20
-144.4553324832798
 30
0.0
 10
25.258293239570115
 20
-143.8205080756888
 30
0.0
 10
25.63840694587094
 20
-143.20923551247316
 30
0.0
 10
26.057685937995352
 20
-142.62413235659287
 30
0.0
 10
26.514334798930186
 20
-142.06770410958802
 30
0.0
 10
27.00639808814692
 20
-141.54233348263676
 30
0.0
 10
27.53176871509818
 20
-141.05027019342003
 30
0.0
 10
28.08819696210301
 20
-140.5936213324852
 30
0.0
 10
28.673300117983317
 20
-140.1743423403608
 30
0.0
 10
29.284572681198938
 20
-139.79422863405998
 30
0.0
 10
29.91939708878992
 20
-139.45490791882924
 30
0.0
 10
30.57505492518295
 20
-139.15783321806464
 30
0.0
 10
31.248738562864162
 20
-138.90427665124264
 30
0.0
 10
31.93756318507121
 20
-138.69532398650904
 30
0.0
 10
32.63857913902153
 20
-138.53186999125325
 30
0.0
 10
33.34878456677837
 20
-138.41461460057687
 30
0.0
 10
34.065138259667364
 20
-138.34405992006415
 30
0.0
 10
34.78457268119894
 20
-138.3205080756888
 30
0.0
 10
35.50400710273051
 20
-138.34405992006415
 30
0.0
 10
36.22036079561951
 20
-138.41461460057687
 30
0.0
 10
36.930566223376346
 20
-138.53186999125325
 30
0.0
 10
37.63158217732667
 20
-138.69532398650904
 30
0.0
 10
38.320406799533714
 20
-138.90427665124264
 30
0.0
 10
38.99409043721492
 20
-139.15783321806464
 30
0.0
 10
39.649748273607955
 20
-139.45490791882924
 30
0.0
 10
40.28457268119894
 20
-139.79422863405998
 30
0.0
 10
40.895845244414566
 20
-140.1743423403608
 30
0.0
 10
41.480948400294864
 20
-140.5936213324852
 30
0.0
 10
42.037376647299695
 20
-141.05027019342003
 30
0.0
 10
42.56274727425096
 20
-141.54233348263676
 30
0.0
 10
43.05481056346769
 20
-142.06770410958802
 30
0.0
 10
43.511459424402524
 20
-142.62413235659287
 30
0.0
 10
43.930738416526935
 20
-143.20923551247316
 30
0.0
 10
44.31085212282777
 20
-143.8205080756888
 30
0.0
 10
44.65017283805851
 20
-144.4553324832798
 30
0.0
 10
44.94724753882309
 20
-145.1109903196728
 30
0.0
 10
45.200804105645105
 20
-145.78467395735402
 30
0.0
 10
45.40975677037869
 20
-146.47349857956107
 30
0.0
 10
45.57321076563447
 20
-147.17451453351137
 30
0.0
 10
45.690466156310855
 20
-147.88471996126822
 30
0.0
 10
45.761020836823576
 20
-148.6010736541572
 30
0.0
 10
45.78457268119894
 20
-149.3205080756888
 30
0.0
 10
45.761020836823576
 20
-150.03994249722038
 30
0.0
 10
45.690466156310855
 20
-150.75629619010937
 30
0.0
 10
45.57321076563447
 20
-151.46650161786621
 30
0.0
 10
45.40975677037869
 20
-152.16751757181652
 30
0.0
 10
45.2008041056451
 20
-152.85634219402357
 30
0.0
 10
44.94724753882309
 20
-153.5300258317048
 30
0.0
 10
44.65017283805851
 20
-154.1856836680978
 30
0.0
 10
44.31085212282776
 20
-154.8205080756888
 30
0.0
 10
43.930738416526935
 20
-155.43178063890443
 30
0.0
 10
43.511459424402524
 20
-156.01688379478472
 30
0.0
 10
43.05481056346769
 20
-156.57331204178953
 30
0.0
 10
42.56274727425096
 20
-157.09868266874082
 30
0.0
 10
42.037376647299695
 20
-157.59074595795755
 30
0.0
 10
41.480948400294864
 20
-158.04739481889237
 30
0.0
 10
40.89584524441456
 20
-158.4666738110168
 30
0.0
 10
40.28457268119894
 20
-158.8467875173176
 30
0.0
 10
39.649748273607955
 20
-159.18610823254835
 30
0.0
 10
38.99409043721493
 20
-159.48318293331295
 30
0.0
 10
38.320406799533714
 20
-159.73673950013495
 30
0.0
 10
37.63158217732666
 20
-159.94569216486855
 30
0.0
 10
36.930566223376346
 20
-160.10914616012434
 30
0.0
 10
36.220360795619506
 20
-160.22640155080072
 30
0.0
 10
35.50400710273051
 20
-160.29695623131343
 30
0.0
  0
LWPOLYLINE
  8
OpenJsCad
  90
25
  70
1
 10
19.67280124885272
 20
-135.2693968151224
 30
0.0
 10
19.284572681198938
 20
-135.3205080756888
 30
0.0
 10
18.896344113545155
 20
-135.2693968151224
 30
0.0
 10
18.534572681198938
 20
-135.11954618136545
 30
0.0
 10
18.223912509419115
 20
-134.88116824746862
 30
0.0
 10
17.98553457552228
 20
-134.5705080756888
 30
0.0
 10
17.835683941765335
 20
-134.20873664334258
 30
0.0
 10
17.784572681198938
 20
-133.8205080756888
 30
0.0
 10
17.835683941765335
 20
-133.432279508035
 30
0.0
 10
17.98553457552228
 20
-133.0705080756888
 30
0.0
 10
18.22391250941912
 20
-132.75984790390896
 30
0.0
 10
18.534572681198938
 20
-132.52146997001213
 30
0.0
 10
18.896344113545155
 20
-132.37161933625518
 30
0.0
 10
19.284572681198938
 20
-132.3205080756888
 30
0.0
 10
19.672801248852718
 20
-132.37161933625518
 30
0.0
 10
20.034572681198938
 20
-132.52146997001213
 30
0.0
 10
20.345232852978757
 20
-132.75984790390896
 30
0.0
 10
20.583610786875596
 20
-133.0705080756888
 30
0.0
 10
20.733461420632537
 20
-133.432279508035
 30
0.0
 10
20.784572681198938
 20
-133.8205080756888
 30
0.0
 10
20.733461420632537
 20
-134.20873664334258
 30
0.0
 10
20.583610786875596
 20
-134.5705080756888
 30
0.0
 10
20.34523285297876
 20
-134.88116824746862
 30
0.0
 10
20.034572681198938
 20
-135.11954618136545
 30
0.0
 10
19.67280124885272
 20
-135.2693968151224
 30
0.0
  0
LWPOLYLINE
  8
OpenJsCad
  90
25
  70
1
 10
50.67280124885272
 20
-135.2693968151224
 30
0.0
 10
50.28457268119894
 20
-135.3205080756888
 30
0.0
 10
49.896344113545155
 20
-135.2693968151224
 30
0.0
 10
49.53457268119894
 20
-135.11954618136545
 30
0.0
 10
49.223912509419115
 20
-134.88116824746862
 30
0.0
 10
48.98553457552228
 20
-134.5705080756888
 30
0.0
 10
48.83568394176533
 20
-134.20873664334258
 30
0.0
 10
48.78457268119894
 20
-133.8205080756888
 30
0.0
 10
48.83568394176533
 20
-133.432279508035
 30
0.0
 10
48.98553457552228
 20
-133.0705080756888
 30
0.0
 10
49.223912509419115
 20
-132.75984790390896
 30
0.0
 10
49.53457268119894
 20
-132.52146997001213
 30
0.0
 10
49.896344113545155
 20
-132.37161933625518
 30
0.0
 10
50.28457268119894
 20
-132.3205080756888
 30
0.0
 10
50.67280124885272
 20
-132.37161933625518
 30
0.0
 10
51.03457268119894
 20
-132.52146997001213
 30
0.0
 10
51.34523285297876
 20
-132.75984790390896
 30
0.0
 10
51.583610786875596
 20
-133.0705080756888
 30
0.0
 10
51.73346142063254
 20
-133.432279508035
 30
0.0
 10
51.78457268119894
 20
-133.8205080756888
 30
0.0
 10
51.73346142063254
 20
-134.20873664334258
 30
0.0
 10
51.583610786875596
 20
-134.5705080756888
 30
0.0
 10
51.34523285297876
 20
-134.88116824746862
 30
0.0
 10
51.03457268119894
 20
-135.11954618136545
 30
0.0
 10
50.67280124885272
 20
-135.2693968151224
 30
0.0
  0
LWPOLYLINE
  8
OpenJsCad
  90
25
  70
1
 10
19.67280124885272
 20
-166.2693968151224
 30
0.0
 10
19.284572681198938
 20
-166.3205080756888
 30
0.0
 10
18.896344113545158
 20
-166.2693968151224
 30
0.0
 10
18.534572681198938
 20
-166.11954618136545
 30
0.0
 10
18.223912509419115
 20
-165.88116824746862
 30
0.0
 10
17.98553457552228
 20
-165.5705080756888
 30
0.0
 10
17.835683941765335
 20
-165.20873664334258
 30
0.0
 10
17.784572681198938
 20
-164.8205080756888
 30
0.0
 10
17.835683941765335
 20
-164.432279508035
 30
0.0
 10
17.98553457552228
 20
-164.0705080756888
 30
0.0
 10
18.22391250941912
 20
-163.75984790390896
 30
0.0
 10
18.534572681198938
 20
-163.52146997001213
 30
0.0
 10
18.896344113545155
 20
-163.37161933625518
 30
0.0
 10
19.284572681198938
 20
-163.3205080756888
 30
0.0
 10
19.67280124885272
 20
-163.37161933625518
 30
0.0
 10
20.034572681198938
 20
-163.52146997001213
 30
0.0
 10
20.34523285297876
 20
-163.75984790390896
 30
0.0
 10
20.583610786875596
 20
-164.0705080756888
 30
0.0
 10
20.733461420632544
 20
-164.432279508035
 30
0.0
 10
20.784572681198938
 20
-164.8205080756888
 30
0.0
 10
20.733461420632544
 20
-165.20873664334258
 30
0.0
 10
20.583610786875596
 20
-165.5705080756888
 30
0.0
 10
20.34523285297876
 20
-165.88116824746862
 30
0.0
 10
20.034572681198938
 20
-166.11954618136545
 30
0.0
 10
19.67280124885272
 20
-166.2693968151224
 30
0.0
  0
LWPOLYLINE
  8
OpenJsCad
  90
25
  70
1
 10
50.67280124885272
 20
-166.2693968151224
 30
0.0
 10
50.28457268119894
 20
-166.3205080756888
 30
0.0
 10
49.896344113545155
 20
-166.2693968151224
 30
0.0
 10
49.53457268119894
 20
-166.11954618136545
 30
0.0
 10
49.22391250941912
 20
-165.88116824746862
 30
0.0
 10
48.98553457552228
 20
-165.5705080756888
 30
0.0
 10
48.83568394176534
 20
-165.20873664334258
 30
0.0
 10
48.78457268119894
 20
-164.8205080756888
 30
0.0
 10
48.83568394176534
 20
-164.432279508035
 30
0.0
 10
48.98553457552228
 20
-164.0705080756888
 30
0.0
 10
49.223912509419115
 20
-163.75984790390896
 30
0.0
 10
49.53457268119894
 20
-163.52146997001213
 30
0.0
 10
49.896344113545155
 20
-163.37161933625518
 30
0.0
 10
50.28457268119894
 20
-163.3205080756888
 30
0.0
 10
50.67280124885272
 20
-163.37161933625518
 30
0.0
 10
51.03457268119894
 20
-163.52146997001213
 30
0.0
 10
51.34523285297876
 20
-163.75984790390896
 30
0.0
 10
51.583610786875596
 20
-164.0705080756888
 30
0.0
 10
51.73346142063254
 20
-164.432279508035
 30
0.0
 10
51.78457268119894
 20
-164.8205080756888
 30
0.0
 10
51.73346142063254
 20
-165.20873664334258
 30
0.0
 10
51.583610786875596
 20
-165.5705080756888
 30
0.0
 10
51.34523285297876
 20
-165.88116824746862
 30
0.0
 10
51.03457268119894
 20
-166.11954618136545
 30
0.0
 10
50.67280124885272
 20
-166.2693968151224
 30
0.0
  0
LWPOLYLINE
  8
OpenJsCad
  90
29
  70
1
 10
186.2768775266122
 20
-84
 30
0.0
 10
238.23840175367852
 20
-54.000000000000014
 30
0.0
 10
240.30946956554402
 20
-52.41081377402111
 30
0.0
 10
241.8986557915229
 20
-50.33974596215565
 30
0.0
 10
242.8976600165692
 20
-47.92793641318083
 30
0.0
 10
243.2384017536785
 20
-45.33974596215565
 30
0.0
 10
242.8976600165692
 20
-42.75155551113042
 30
0.0
 10
241.8986557915229
 20
-40.33974596215565
 30
0.0
 10
86.01408311032405
 20
229.66025403784437
 30
0.0
 10
84.42489688434512
 20
231.73132184970981
 30
0.0
 10
82.35382907247964
 20
233.32050807568874
 30
0.0
 10
79.94201952350488
 20
234.31951230073503
 30
0.0
 10
77.35382907247966
 20
234.66025403784437
 30
0.0
 10
74.76563862145447
 20
234.31951230073503
 30
0.0
 10
72.35382907247967
 20
233.32050807568874
 30
0.0
 10
20.39230484541335
 20
203.32050807568874
 30
0.0
 10
18.32123703354786
 20
201.73132184970984
 30
0.0
 10
16.732050807568953
 20
199.66025403784437
 30
0.0
 10
15.733046582522661
 20
197.24844448886955
 30
0.0
 10
15.39230484541335
 20
194.66025403784437
 30
0.0
 10
15.733046582522633
 20
192.07206358681916
 30
0.0
 10
16.73205080756894
 20
189.66025403784437
 30
0.0
 10
172.6166234887678
 20
-80.33974596215563
 30
0.0
 10
174.20580971474672
 20
-82.41081377402108
 30
0.0
 10
176.27687752661217
 20
-84
 30
0.0
 10
178.68868707558698
 20
-84.99900422504629
 30
0.0
 10
181.2768775266122
 20
-85.33974596215563
 30
0.0
 10
183.8650679776374
 20
-84.9990042250463
 30
0.0
 10
186.2768775266122
 20
-84
 30
0.0
  0
LWPOLYLINE
  8
OpenJsCad
  90
25
  70
1
 10
231.47063480071216
 20
-43.57197900918926
 30
0.0
 10
231.98840175367854
 20
-43.17468245269454
 30
0.0
 10
232.5913541409222
 20
-42.92493139643297
 30
0.0
 10
233.23840175367854
 20
-42.83974596215562
 30
0.0
 10
233.88544936643484
 20
-42.92493139643297
 30
0.0
 10
234.48840175367854
 20
-43.17468245269454
 30
0.0
 10
235.00616870664493
 20
-43.57197900918926
 30
0.0
 10
235.40346526313965
 20
-44.08974596215565
 30
0.0
 10
235.65321631940122
 20
-44.69269834939932
 30
0.0
 10
235.73840175367854
 20
-45.33974596215562
 30
0.0
 10
235.65321631940122
 20
-45.98679357491194
 30
0.0
 10
235.40346526313965
 20
-46.58974596215565
 30
0.0
 10
235.00616870664487
 20
-47.107512915122
 30
0.0
 10
234.48840175367854
 20
-47.504809471616724
 30
0.0
 10
233.88544936643484
 20
-47.7545605278783
 30
0.0
 10
233.23840175367854
 20
-47.83974596215565
 30
0.0
 10
232.5913541409222
 20
-47.7545605278783
 30
0.0
 10
231.98840175367854
 20
-47.504809471616724
 30
0.0
 10
231.47063480071216
 20
-47.107512915122
 30
0.0
 10
231.07333824421744
 20
-46.58974596215565
 30
0.0
 10
230.82358718795587
 20
-45.98679357491194
 30
0.0
 10
230.73840175367854
 20
-45.33974596215565
 30
0.0
 10
230.82358718795584
 20
-44.69269834939935
 30
0.0
 10
231.07333824421744
 20
-44.08974596215562
 30
0.0
 10
231.47063480071216
 20
-43.57197900918926
 30
0.0
  0
LWPOLYLINE
  8
OpenJsCad
  90
25
  70
1
 10
179.50911057364584
 20
-73.57197900918925
 30
0.0
 10
180.02687752661222
 20
-73.17468245269453
 30
0.0
 10
180.62982991385587
 20
-72.92493139643295
 30
0.0
 10
181.2768775266122
 20
-72.8397459621556
 30
0.0
 10
181.92392513936852
 20
-72.92493139643295
 30
0.0
 10
182.5268775266122
 20
-73.17468245269453
 30
0.0
 10
183.04464447957858
 20
-73.57197900918925
 30
0.0
 10
183.4419410360733
 20
-74.08974596215563
 30
0.0
 10
183.69169209233488
 20
-74.69269834939931
 30
0.0
 10
183.7768775266122
 20
-75.3397459621556
 30
0.0
 10
183.69169209233488
 20
-75.98679357491193
 30
0.0
 10
183.4419410360733
 20
-76.58974596215563
 30
0.0
 10
183.04464447957855
 20
-77.10751291512199
 30
0.0
 10
182.52687752661222
 20
-77.50480947161671
 30
0.0
 10
181.92392513936852
 20
-77.75456052787828
 30
0.0
 10
181.27687752661222
 20
-77.83974596215563
 30
0.0
 10
180.6298299138559
 20
-77.75456052787828
 30
0.0
 10
180.0268775266122
 20
-77.50480947161671
 30
0.0
 10
179.50911057364584
 20
-77.10751291512199
 30
0.0
 10
179.11181401715112
 20
-76.58974596215563
 30
0.0
 10
178.86206296088955
 20
-75.98679357491193
 30
0.0
 10
178.7768775266122
 20
-75.33974596215563
 30
0.0
 10
178.86206296088955
 20
-74.69269834939934
 30
0.0
 10
179.11181401715112
 20
-74.0897459621556
 30
0.0
 10
179.50911057364584
 20
-73.57197900918925
 30
0.0
  0
LWPOLYLINE
  8
OpenJsCad
  90
25
  70
1
 10
75.58606211951327
 20
226.4280209908107
 30
0.0
 10
76.10382907247966
 20
226.82531754730542
 30
0.0
 10
76.70678145972333
 20
227.075068603567
 30
0.0
 10
77.35382907247966
 20
227.16025403784437
 30
0.0
 10
78.00087668523597
 20
227.075068603567
 30
0.0
 10
78.60382907247966
 20
226.82531754730542
 30
0.0
 10
79.12159602544604
 20
226.4280209908107
 30
0.0
 10
79.51889258194076
 20
225.91025403784437
 30
0.0
 10
79.76864363820233
 20
225.30730165060066
 30
0.0
 10
79.85382907247966
 20
224.66025403784437
 30
0.0
 10
79.76864363820233
 20
224.01320642508801
 30
0.0
 10
79.51889258194076
 20
223.4102540378443
 30
0.0
 10
79.12159602544601
 20
222.89248708487798
 30
0.0
 10
78.60382907247966
 20
222.49519052838326
 30
0.0
 10
78.00087668523595
 20
222.2454394721217
 30
0.0
 10
77.35382907247966
 20
222.1602540378443
 30
0.0
 10
76.70678145972332
 20
222.2454394721217
 30
0.0
 10
76.10382907247966
 20
222.49519052838326
 30
0.0
 10
75.58606211951327
 20
222.89248708487798
 30
0.0
 10
75.18876556301855
 20
223.41025403784437
 30
0.0
 10
74.93901450675698
 20
224.01320642508801
 30
0.0
 10
74.85382907247966
 20
224.6602540378443
 30
0.0
 10
74.93901450675696
 20
225.3073016506006
 30
0.0
 10
75.18876556301855
 20
225.91025403784437
 30
0.0
 10
75.58606211951327
 20
226.4280209908107
 30
0.0
  0
LWPOLYLINE
  8
OpenJsCad
  90
25
  70
1
 10
23.624537892446966
 20
196.42802099081072
 30
0.0
 10
24.142304845413335
 20
196.82531754730545
 30
0.0
 10
24.74525723265701
 20
197.07506860356702
 30
0.0
 10
25.39230484541332
 20
197.16025403784437
 30
0.0
 10
26.03935245816963
 20
197.07506860356702
 30
0.0
 10
26.64230484541332
 20
196.82531754730545
 30
0.0
 10
27.160071798379704
 20
196.42802099081072
 30
0.0
 10
27.557368354874427
 20
195.91025403784437
 30
0.0
 10
27.807119411136
 20
195.30730165060066
 30
0.0
 10
27.89230484541332
 20
194.66025403784437
 30
0.0
 10
27.807119411136
 20
194.01320642508804
 30
0.0
 10
27.557368354874427
 20
193.41025403784434
 30
0.0
 10
27.16007179837969
 20
192.89248708487798
 30
0.0
 10
26.642304845413335
 20
192.49519052838326
 30
0.0
 10
26.039352458169645
 20
192.2454394721217
 30
0.0
 10
25.392304845413335
 20
192.16025403784434
 30
0.0
 10
24.745257232657025
 20
192.2454394721217
 30
0.0
 10
24.14230484541332
 20
192.49519052838326
 30
0.0
 10
23.624537892446952
 20
192.89248708487798
 30
0.0
 10
23.22724133595223
 20
193.41025403784437
 30
0.0
 10
22.977490279690656
 20
194.01320642508804
 30
0.0
 10
22.89230484541332
 20
194.66025403784434
 30
0.0
 10
22.97749027969067
 20
195.30730165060064
 30
0.0
 10
23.22724133595223
 20
195.91025403784437
 30
0.0
 10
23.624537892446966
 20
196.42802099081072
 30
0.0
  0
LWPOLYLINE
  8
OpenJsCad
  90
33
  70
1
 10
158.6628264675659
 20
70.02893943706935
 30
0.0
 10
193.2628264675659
 20
10.0999814951862
 30
0.0
 10
191.530775659997
 20
9.09998149518617
 30
0.0
 10
156.930775659997
 20
69.02893943706935
 30
0.0
 10
156.1361825470076
 20
70.06447334300209
 30
0.0
 10
155.10064864107483
 20
70.85906645599154
 30
0.0
 10
153.89474386658748
 20
71.3585685685147
 30
0.0
 10
152.60064864107486
 20
71.52893943706934
 30
0.0
 10
151.30655341556226
 20
71.3585685685147
 30
0.0
 10
150.10064864107486
 20
70.85906645599154
 30
0.0
 10
122.21463063921594
 20
54.759066455991565
 30
0.0
 10
121.17909673328317
 20
53.9644733430021
 30
0.0
 10
120.38450362029374
 20
52.92893943706937
 30
0.0
 10
119.8850015077706
 20
51.72303466258197
 30
0.0
 10
119.71463063921594
 20
50.428939437069374
 30
0.0
 10
119.88500150777058
 20
49.134844211556754
 30
0.0
 10
120.38450362029374
 20
47.92893943706939
 30
0.0
 10
154.9845036202937
 20
-12.00001850481378
 30
0.0
 10
153.2524528127248
 20
-13.000018504813774
 30
0.0
 10
118.65245281272485
 20
46.92893943706936
 30
0.0
 10
117.95314985519244
 20
48.617206121351714
 30
0.0
 10
117.71463063921591
 20
50.42893943706937
 30
0.0
 10
117.95314985519245
 20
52.240672752787006
 30
0.0
 10
118.65245281272486
 20
53.92893943706937
 30
0.0
 10
119.7648831709101
 20
55.378686905375204
 30
0.0
 10
121.21463063921594
 20
56.49111726356044
 30
0.0
 10
149.10064864107486
 20
72.59111726356042
 30
0.0
 10
150.7889153253572
 20
73.29042022109283
 30
0.0
 10
152.60064864107486
 20
73.52893943706935
 30
0.0
 10
154.4123819567925
 20
73.29042022109283
 30
0.0
 10
156.10064864107486
 20
72.59111726356042
 30
0.0
 10
157.5503961093807
 20
71.47868690537518
 30
0.0
 10
158.6628264675659
 20
70.02893943706935
 30
0.0
  0
LWPOLYLINE
  8
OpenJsCad
  90
33
  70
1
 10
105.37825378636697
 20
162.32052658050253
 30
0.0
 10
139.97825378636696
 20
102.39156863861936
 30
0.0
 10
140.6775567438994
 20
100.70330195433701
 30
0.0
 10
140.91607595987594
 20
98.89156863861936
 30
0.0
 10
140.6775567438994
 20
97.07983532290172
 30
0.0
 10
139.978253786367
 20
95.39156863861935
 30
0.0
 10
138.86582342818173
 20
93.94182117031352
 30
0.0
 10
137.41607595987594
 20
92.82939081212828
 30
0.0
 10
109.530057958017
 20
76.7293908121283
 30
0.0
 10
107.84179127373464
 20
76.03008785459589
 30
0.0
 10
106.030057958017
 20
75.79156863861937
 30
0.0
 10
104.21832464229935
 20
76.03008785459589
 30
0.0
 10
102.53005795801698
 20
76.7293908121283
 30
0.0
 10
101.08031048971115
 20
77.84182117031354
 30
0.0
 10
99.96788013152593
 20
79.29156863861937
 30
0.0
 10
65.36788013152596
 20
139.2205265805025
 30
0.0
 10
67.09993093909486
 20
140.2205265805025
 30
0.0
 10
101.69993093909481
 20
80.2915686386194
 30
0.0
 10
102.49452405208426
 20
79.25603473268663
 30
0.0
 10
103.53005795801701
 20
78.46144161969718
 30
0.0
 10
104.73596273250439
 20
77.96193950717404
 30
0.0
 10
106.03005795801701
 20
77.79156863861937
 30
0.0
 10
107.32415318352959
 20
77.96193950717402
 30
0.0
 10
108.530057958017
 20
78.46144161969718
 30
0.0
 10
136.41607595987594
 20
94.56144161969716
 30
0.0
 10
137.45160986580865
 20
95.35603473268662
 30
0.0
 10
138.2462029787981
 20
96.39156863861936
 30
0.0
 10
138.74570509132127
 20
97.59747341310674
 30
0.0
 10
138.9160759598759
 20
98.89156863861935
 30
0.0
 10
138.74570509132127
 20
100.18566386413197
 30
0.0
 10
138.2462029787981
 20
101.39156863861935
 30
0.0
 10
103.64620297879807
 20
161.32052658050253
 30
0.0
 10
105.37825378636697
 20
162.32052658050253
 30
0.0
  0
LWPOLYLINE
  8
OpenJsCad
  90
97
  70
1
 10
137.56147390481738
 20
38.42465787292428
 30
0.0
 10
137.18136019851656
 20
39.03593043613991
 30
0.0
 10
136.84203948328582
 20
39.67075484373089
 30
0.0
 10
136.54496478252122
 20
40.32641268012391
 30
0.0
 10
136.29140821569922
 20
41.00009631780512
 30
0.0
 10
136.08245555096562
 20
41.68892094001218
 30
0.0
 10
135.91900155570985
 20
42.3899368939625
 30
0.0
 10
135.80174616503348
 20
43.10014232171933
 30
0.0
 10
135.73119148452076
 20
43.81649601460833
 30
0.0
 10
135.7076396401454
 20
44.535930436139914
 30
0.0
 10
135.73119148452074
 20
45.25536485767148
 30
0.0
 10
135.80174616503348
 20
45.971718550560475
 30
0.0
 10
135.91900155570985
 20
46.68192397831731
 30
0.0
 10
136.08245555096562
 20
47.38293993226763
 30
0.0
 10
136.29140821569922
 20
48.07176455447467
 30
0.0
 10
136.54496478252125
 20
48.74544819215589
 30
0.0
 10
136.84203948328584
 20
49.401106028548924
 30
0.0
 10
137.18136019851656
 20
50.0359304361399
 30
0.0
 10
137.5614739048174
 20
50.64720299935553
 30
0.0
 10
137.98075289694182
 20
51.23230615523584
 30
0.0
 10
138.43740175787664
 20
51.788734402240664
 30
0.0
 10
138.92946504709337
 20
52.31410502919193
 30
0.0
 10
139.45483567404463
 20
52.80616831840865
 30
0.0
 10
140.01126392104945
 20
53.262817179343486
 30
0.0
 10
140.59636707692977
 20
53.682096171467904
 30
0.0
 10
141.2076396401454
 20
54.06220987776872
 30
0.0
 10
141.84246404773634
 20
54.401530592999464
 30
0.0
 10
142.4981218841294
 20
54.69860529376406
 30
0.0
 10
143.17180552181063
 20
54.952161860586074
 30
0.0
 10
143.86063014401768
 20
55.16111452531965
 30
0.0
 10
144.56164609796798
 20
55.32456852057543
 30
0.0
 10
145.27185152572483
 20
55.441823911251824
 30
0.0
 10
145.9882052186138
 20
55.51237859176453
 30
0.0
 10
146.70763964014537
 20
55.5359304361399
 30
0.0
 10
147.427074061677
 20
55.512378591764545
 30
0.0
 10
148.14342775456598
 20
55.44182391125182
 30
0.0
 10
148.85363318232282
 20
55.32456852057544
 30
0.0
 10
149.55464913627313
 20
55.161114525319654
 30
0.0
 10
150.24347375848018
 20
54.95216186058607
 30
0.0
 10
150.91715739616137
 20
54.69860529376405
 30
0.0
 10
151.57281523255443
 20
54.40153059299947
 30
0.0
 10
152.2076396401454
 20
54.06220987776872
 30
0.0
 10
152.81891220336098
 20
53.68209617146789
 30
0.0
 10
153.40401535924133
 20
53.262817179343486
 30
0.0
 10
153.96044360624614
 20
52.80616831840865
 30
0.0
 10
154.48581423319743
 20
52.31410502919193
 30
0.0
 10
154.97787752241413
 20
51.78873440224065
 30
0.0
 10
155.43452638334898
 20
51.23230615523582
 30
0.0
 10
155.85380537547337
 20
50.647202999355514
 30
0.0
 10
156.23391908177422
 20
50.03593043613989
 30
0.0
 10
156.57323979700496
 20
49.4011060285489
 30
0.0
 10
156.87031449776956
 20
48.74544819215588
 30
0.0
 10
157.12387106459155
 20
48.07176455447467
 30
0.0
 10
157.33282372932516
 20
47.382939932267625
 30
0.0
 10
157.49627772458092
 20
46.68192397831731
 30
0.0
 10
157.61353311525733
 20
45.97171855056047
 30
0.0
 10
157.68408779577
 20
45.255364857671466
 30
0.0
 10
157.7076396401454
 20
44.5359304361399
 30
0.0
 10
157.68408779577004
 20
43.816496014608326
 30
0.0
 10
157.6135331152573
 20
43.100142321719325
 30
0.0
 10
157.49627772458092
 20
42.38993689396249
 30
0.0
 10
157.33282372932513
 20
41.688920940012174
 30
0.0
 10
157.12387106459153
 20
41.00009631780512
 30
0.0
 10
156.87031449776956
 20
40.326412680123916
 30
0.0
 10
156.573239797005
 20
39.67075484373089
 30
0.0
 10
156.2339190817742
 20
39.0359304361399
 30
0.0
 10
155.85380537547337
 20
38.42465787292427
 30
0.0
 10
155.43452638334898
 20
37.83955471704398
 30
0.0
 10
154.97787752241413
 20
37.283126470039136
 30
0.0
 10
154.48581423319743
 20
36.75775584308787
 30
0.0
 10
153.96044360624614
 20
36.265692553871155
 30
0.0
 10
153.40401535924133
 20
35.809043692936314
 30
0.0
 10
152.818912203361
 20
35.38976470081191
 30
0.0
 10
152.2076396401454
 20
35.00965099451108
 30
0.0
 10
151.57281523255438
 20
34.67033027928032
 30
0.0
 10
150.91715739616137
 20
34.37325557851574
 30
0.0
 10
150.24347375848015
 20
34.11969901169373
 30
0.0
 10
149.55464913627313
 20
33.910746346960146
 30
0.0
 10
148.8536331823228
 20
33.74729235170437
 30
0.0
 10
148.14342775456595
 20
33.63003696102798
 30
0.0
 10
147.42707406167696
 20
33.55948228051527
 30
0.0
 10
146.70763964014537
 20
33.5359304361399
 30
0.0
 10
145.9882052186138
 20
33.559482280515255
 30
0.0
 10
145.27185152572483
 20
33.63003696102799
 30
0.0
 10
144.56164609796798
 20
33.74729235170436
 30
0.0
 10
143.86063014401765
 20
33.910746346960146
 30
0.0
 10
143.1718055218106
 20
34.11969901169373
 30
0.0
 10
142.4981218841294
 20
34.37325557851575
 30
0.0
 10
141.84246404773637
 20
34.670330279280336
 30
0.0
 10
141.2076396401454
 20
35.009650994511084
 30
0.0
 10
140.59636707692977
 20
35.38976470081191
 30
0.0
 10
140.01126392104948
 20
35.80904369293632
 30
0.0
 10
139.45483567404463
 20
36.265692553871155
 30
0.0
 10
138.92946504709337
 20
36.75775584308788
 30
0.0
 10
138.43740175787661
 20
37.283126470039136
 30
0.0
 10
137.9807528969418
 20
37.83955471704397
 30
0.0
 10
137.56147390481738
 20
38.42465787292428
 30
0.0
  0
LWPOLYLINE
  8
OpenJsCad
  90
25
  70
1
 10
151.32037322702436
 20
64.64866402301885
 30
0.0
 10
151.08199529312753
 20
64.95932419479868
 30
0.0
 10
150.93214465937058
 20
65.3210956271449
 30
0.0
 10
150.8810333988042
 20
65.70932419479868
 30
0.0
 10
150.93214465937058
 20
66.09755276245247
 30
0.0
 10
151.08199529312753
 20
66.45932419479868
 30
0.0
 10
151.3203732270244
 20
66.76998436657851
 30
0.0
 10
151.6310333988042
 20
67.00836230047534
 30
0.0
 10
151.99280483115044
 20
67.1582129342323
 30
0.0
 10
152.3810333988042
 20
67.20932419479868
 30
0.0
 10
152.76926196645798
 20
67.1582129342323
 30
0.0
 10
153.1310333988042
 20
67.00836230047534
 30
0.0
 10
153.44169357058402
 20
66.76998436657851
 30
0.0
 10
153.68007150448085
 20
66.45932419479868
 30
0.0
 10
153.8299221382378
 20
66.09755276245247
 30
0.0
 10
153.8810333988042
 20
65.70932419479868
 30
0.0
 10
153.8299221382378
 20
65.32109562714491
 30
0.0
 10
153.68007150448085
 20
64.95932419479868
 30
0.0
 10
153.44169357058402
 20
64.64866402301887
 30
0.0
 10
153.1310333988042
 20
64.41028608912202
 30
0.0
 10
152.76926196645798
 20
64.26043545536508
 30
0.0
 10
152.3810333988042
 20
64.20932419479868
 30
0.0
 10
151.9928048311504
 20
64.26043545536508
 30
0.0
 10
151.6310333988042
 20
64.41028608912202
 30
0.0
 10
151.32037322702436
 20
64.64866402301885
 30
0.0
  0
LWPOLYLINE
  8
OpenJsCad
  90
25
  70
1
 10
166.82037322702436
 20
37.80187650570126
 30
0.0
 10
166.58199529312753
 20
38.11253667748109
 30
0.0
 10
166.43214465937058
 20
38.474308109827305
 30
0.0
 10
166.3810333988042
 20
38.86253667748109
 30
0.0
 10
166.43214465937058
 20
39.250765245134865
 30
0.0
 10
166.58199529312753
 20
39.61253667748109
 30
0.0
 10
166.82037322702436
 20
39.923196849260904
 30
0.0
 10
167.1310333988042
 20
40.16157478315775
 30
0.0
 10
167.4928048311504
 20
40.31142541691469
 30
0.0
 10
167.8810333988042
 20
40.36253667748109
 30
0.0
 10
168.26926196645798
 20
40.31142541691469
 30
0.0
 10
168.6310333988042
 20
40.16157478315775
 30
0.0
 10
168.94169357058402
 20
39.92319684926092
 30
0.0
 10
169.18007150448085
 20
39.61253667748109
 30
0.0
 10
169.3299221382378
 20
39.25076524513487
 30
0.0
 10
169.3810333988042
 20
38.86253667748109
 30
0.0
 10
169.3299221382378
 20
38.47430810982731
 30
0.0
 10
169.18007150448085
 20
38.11253667748109
 30
0.0
 10
168.94169357058402
 20
37.80187650570127
 30
0.0
 10
168.6310333988042
 20
37.56349857180443
 30
0.0
 10
168.26926196645798
 20
37.41364793804749
 30
0.0
 10
167.8810333988042
 20
37.36253667748109
 30
0.0
 10
167.4928048311504
 20
37.41364793804748
 30
0.0
 10
167.1310333988042
 20
37.56349857180443
 30
0.0
 10
166.82037322702436
 20
37.80187650570126
 30
0.0
  0
LWPOLYLINE
  8
OpenJsCad
  90
25
  70
1
 10
124.47358570970677
 20
49.14866402301888
 30
0.0
 10
124.23520777580994
 20
49.4593241947987
 30
0.0
 10
124.08535714205298
 20
49.82109562714491
 30
0.0
 10
124.0342458814866
 20
50.2093241947987
 30
0.0
 10
124.08535714205298
 20
50.59755276245248
 30
0.0
 10
124.23520777580994
 20
50.959324194798704
 30
0.0
 10
124.47358570970677
 20
51.26998436657852
 30
0.0
 10
124.7842458814866
 20
51.50836230047536
 30
0.0
 10
125.14601731383281
 20
51.6582129342323
 30
0.0
 10
125.5342458814866
 20
51.709324194798704
 30
0.0
 10
125.92247444914038
 20
51.65821293423231
 30
0.0
 10
126.2842458814866
 20
51.508362300475355
 30
0.0
 10
126.59490605326643
 20
51.26998436657853
 30
0.0
 10
126.83328398716326
 20
50.9593241947987
 30
0.0
 10
126.98313462092021
 20
50.59755276245249
 30
0.0
 10
127.0342458814866
 20
50.2093241947987
 30
0.0
 10
126.9831346209202
 20
49.82109562714493
 30
0.0
 10
126.83328398716326
 20
49.4593241947987
 30
0.0
 10
126.59490605326641
 20
49.14866402301888
 30
0.0
 10
126.2842458814866
 20
48.91028608912204
 30
0.0
 10
125.92247444914037
 20
48.7604354553651
 30
0.0
 10
125.5342458814866
 20
48.7093241947987
 30
0.0
 10
125.1460173138328
 20
48.7604354553651
 30
0.0
 10
124.7842458814866
 20
48.91028608912204
 30
0.0
 10
124.47358570970677
 20
49.14866402301888
 30
0.0
  0
LWPOLYLINE
  8
OpenJsCad
  90
25
  70
1
 10
139.97358570970675
 20
22.301876505701273
 30
0.0
 10
139.73520777580993
 20
22.612536677481103
 30
0.0
 10
139.58535714205297
 20
22.97430810982732
 30
0.0
 10
139.53424588148658
 20
23.362536677481103
 30
0.0
 10
139.58535714205297
 20
23.75076524513488
 30
0.0
 10
139.73520777580993
 20
24.112536677481103
 30
0.0
 10
139.97358570970675
 20
24.423196849260925
 30
0.0
 10
140.28424588148658
 20
24.66157478315776
 30
0.0
 10
140.6460173138328
 20
24.81142541691471
 30
0.0
 10
141.03424588148658
 20
24.862536677481103
 30
0.0
 10
141.42247444914037
 20
24.81142541691471
 30
0.0
 10
141.78424588148658
 20
24.66157478315776
 30
0.0
 10
142.0949060532664
 20
24.423196849260933
 30
0.0
 10
142.33328398716324
 20
24.112536677481103
 30
0.0
 10
142.4831346209202
 20
23.750765245134886
 30
0.0
 10
142.53424588148658
 20
23.362536677481103
 30
0.0
 10
142.4831346209202
 20
22.974308109827327
 30
0.0
 10
142.33328398716324
 20
22.612536677481103
 30
0.0
 10
142.0949060532664
 20
22.301876505701287
 30
0.0
 10
141.78424588148658
 20
22.063498571804445
 30
0.0
 10
141.42247444914037
 20
21.913647938047504
 30
0.0
 10
141.03424588148658
 20
21.862536677481103
 30
0.0
 10
140.6460173138328
 20
21.913647938047497
 30
0.0
 10
140.28424588148658
 20
22.063498571804445
 30
0.0
 10
139.97358570970675
 20
22.301876505701273
 30
0.0
  0
LWPOLYLINE
  8
OpenJsCad
  90
5
  70
1
 10
176.0877666590676
 20
3.648057706539518
 30
0.0
 10
177.0877666590676
 20
1.9160068989706218
 30
0.0
 10
168.4275126212235
 20
-3.0839931010291792
 30
0.0
 10
167.42751262122317
 20
-1.3519422934604677
 30
0.0
 10
176.0877666590676
 20
3.648057706539518
 30
0.0
  0
LWPOLYLINE
  8
OpenJsCad
  90
5
  70
1
 10
90.20319397786938
 20
152.40450117671844
 30
0.0
 10
91.20319397786935
 20
150.6724503691496
 30
0.0
 10
82.54293994002437
 20
145.67245036914926
 30
0.0
 10
81.54293994002435
 20
147.40450117671813
 30
0.0
 10
90.20319397786938
 20
152.40450117671844
 30
0.0
  0
LWPOLYLINE
  8
OpenJsCad
  90
97
  70
1
 10
121.06923269427446
 20
110.89585020276445
 30
0.0
 10
121.44934640057528
 20
110.28457763954881
 30
0.0
 10
121.78866711580604
 20
109.64975323195785
 30
0.0
 10
122.08574181657062
 20
108.99409539556481
 30
0.0
 10
122.33929838339263
 20
108.3204117578836
 30
0.0
 10
122.54825104812623
 20
107.63158713567655
 30
0.0
 10
122.711705043382
 20
106.93057118172624
 30
0.0
 10
122.82896043405839
 20
106.2203657539694
 30
0.0
 10
122.89951511457109
 20
105.5040120610804
 30
0.0
 10
122.92306695894648
 20
104.78457763954883
 30
0.0
 10
122.89951511457112
 20
104.06514321801725
 30
0.0
 10
122.82896043405839
 20
103.34878952512827
 30
0.0
 10
122.71170504338201
 20
102.63858409737142
 30
0.0
 10
122.54825104812622
 20
101.93756814342112
 30
0.0
 10
122.33929838339265
 20
101.24874352121407
 30
0.0
 10
122.08574181657063
 20
100.57505988353284
 30
0.0
 10
121.78866711580602
 20
99.91940204713981
 30
0.0
 10
121.44934640057528
 20
99.28457763954884
 30
0.0
 10
121.06923269427445
 20
98.67330507633321
 30
0.0
 10
120.64995370215004
 20
98.08820192045289
 30
0.0
 10
120.19330484121521
 20
97.53177367344807
 30
0.0
 10
119.70124155199849
 20
97.00640304649681
 30
0.0
 10
119.17587092504724
 20
96.51433975728008
 30
0.0
 10
118.6194426780424
 20
96.05769089634525
 30
0.0
 10
118.03433952216206
 20
95.63841190422083
 30
0.0
 10
117.42306695894646
 20
95.25829819792001
 30
0.0
 10
116.78824255135548
 20
94.91897748268927
 30
0.0
 10
116.13258471496245
 20
94.62190278192467
 30
0.0
 10
115.45890107728123
 20
94.36834621510266
 30
0.0
 10
114.77007645507419
 20
94.15939355036909
 30
0.0
 10
114.06906050112389
 20
93.9959395551133
 30
0.0
 10
113.35885507336701
 20
93.87868416443692
 30
0.0
 10
112.64250138047805
 20
93.8081294839242
 30
0.0
 10
111.92306695894646
 20
93.78457763954884
 30
0.0
 10
111.20363253741488
 20
93.80812948392419
 30
0.0
 10
110.4872788445259
 20
93.87868416443692
 30
0.0
 10
109.77707341676904
 20
93.9959395551133
 30
0.0
 10
109.07605746281872
 20
94.15939355036909
 30
0.0
 10
108.38723284061167
 20
94.36834621510266
 30
0.0
 10
107.7135492029305
 20
94.62190278192469
 30
0.0
 10
107.05789136653745
 20
94.91897748268926
 30
0.0
 10
106.42306695894646
 20
95.25829819792001
 30
0.0
 10
105.81179439573086
 20
95.63841190422085
 30
0.0
 10
105.22669123985054
 20
96.05769089634525
 30
0.0
 10
104.67026299284572
 20
96.51433975728008
 30
0.0
 10
104.14489236589445
 20
97.00640304649681
 30
0.0
 10
103.6528290766777
 20
97.53177367344807
 30
0.0
 10
103.19618021574287
 20
98.0882019204529
 30
0.0
 10
102.77690122361847
 20
98.67330507633321
 30
0.0
 10
102.39678751731765
 20
99.28457763954883
 30
0.0
 10
102.05746680208689
 20
99.91940204713981
 30
0.0
 10
101.76039210132231
 20
100.57505988353284
 30
0.0
 10
101.5068355345003
 20
101.24874352121405
 30
0.0
 10
101.29788286976671
 20
101.93756814342112
 30
0.0
 10
101.13442887451095
 20
102.63858409737142
 30
0.0
 10
101.01717348383455
 20
103.34878952512827
 30
0.0
 10
100.94661880332184
 20
104.06514321801727
 30
0.0
 10
100.92306695894648
 20
104.78457763954884
 30
0.0
 10
100.94661880332183
 20
105.5040120610804
 30
0.0
 10
101.01717348383457
 20
106.2203657539694
 30
0.0
 10
101.13442887451092
 20
106.93057118172624
 30
0.0
 10
101.29788286976671
 20
107.63158713567657
 30
0.0
 10
101.5068355345003
 20
108.3204117578836
 30
0.0
 10
101.76039210132231
 20
108.99409539556481
 30
0.0
 10
102.05746680208689
 20
109.64975323195785
 30
0.0
 10
102.39678751731763
 20
110.28457763954884
 30
0.0
 10
102.77690122361848
 20
110.89585020276446
 30
0.0
 10
103.19618021574287
 20
111.48095335864475
 30
0.0
 10
103.65282907667772
 20
112.0373816056496
 30
0.0
 10
104.14489236589445
 20
112.56275223260087
 30
0.0
 10
104.6702629928457
 20
113.05481552181757
 30
0.0
 10
105.22669123985054
 20
113.51146438275242
 30
0.0
 10
105.81179439573083
 20
113.93074337487683
 30
0.0
 10
106.42306695894648
 20
114.31085708117766
 30
0.0
 10
107.05789136653746
 20
114.65017779640841
 30
0.0
 10
107.7135492029305
 20
114.947252497173
 30
0.0
 10
108.3872328406117
 20
115.200809063995
 30
0.0
 10
109.07605746281875
 20
115.4097617287286
 30
0.0
 10
109.77707341676904
 20
115.57321572398436
 30
0.0
 10
110.4872788445259
 20
115.69047111466075
 30
0.0
 10
111.20363253741488
 20
115.76102579517347
 30
0.0
 10
111.92306695894646
 20
115.78457763954884
 30
0.0
 10
112.64250138047807
 20
115.76102579517348
 30
0.0
 10
113.35885507336704
 20
115.69047111466074
 30
0.0
 10
114.06906050112387
 20
115.57321572398436
 30
0.0
 10
114.7700764550742
 20
115.4097617287286
 30
0.0
 10
115.45890107728125
 20
115.200809063995
 30
0.0
 10
116.13258471496246
 20
114.94725249717298
 30
0.0
 10
116.7882425513555
 20
114.6501777964084
 30
0.0
 10
117.42306695894648
 20
114.31085708117766
 30
0.0
 10
118.03433952216207
 20
113.93074337487683
 30
0.0
 10
118.6194426780424
 20
113.51146438275242
 30
0.0
 10
119.1758709250472
 20
113.05481552181757
 30
0.0
 10
119.70124155199849
 20
112.56275223260086
 30
0.0
 10
120.19330484121522
 20
112.03738160564959
 30
0.0
 10
120.64995370215006
 20
111.48095335864475
 30
0.0
 10
121.06923269427446
 20
110.89585020276445
 30
0.0
  0
LWPOLYLINE
  8
OpenJsCad
  90
25
  70
1
 10
107.31033337206749
 20
84.67184405266985
 30
0.0
 10
107.54871130596432
 20
84.36118388089004
 30
0.0
 10
107.69856193972127
 20
83.99941244854382
 30
0.0
 10
107.74967320028766
 20
83.61118388089004
 30
0.0
 10
107.69856193972127
 20
83.22295531323626
 30
0.0
 10
107.54871130596432
 20
82.86118388089004
 30
0.0
 10
107.31033337206749
 20
82.55052370911021
 30
0.0
 10
106.99967320028766
 20
82.31214577521338
 30
0.0
 10
106.63790176794144
 20
82.16229514145643
 30
0.0
 10
106.24967320028766
 20
82.11118388089004
 30
0.0
 10
105.86144463263388
 20
82.16229514145643
 30
0.0
 10
105.49967320028766
 20
82.31214577521338
 30
0.0
 10
105.18901302850783
 20
82.55052370911021
 30
0.0
 10
104.950635094611
 20
82.86118388089004
 30
0.0
 10
104.80078446085405
 20
83.22295531323624
 30
0.0
 10
104.74967320028766
 20
83.61118388089004
 30
0.0
 10
104.80078446085406
 20
83.99941244854381
 30
0.0
 10
104.950635094611
 20
84.36118388089004
 30
0.0
 10
105.18901302850784
 20
84.67184405266985
 30
0.0
 10
105.49967320028766
 20
84.9102219865667
 30
0.0
 10
105.86144463263389
 20
85.06007262032364
 30
0.0
 10
106.24967320028766
 20
85.11118388089004
 30
0.0
 10
106.63790176794146
 20
85.06007262032364
 30
0.0
 10
106.99967320028766
 20
84.9102219865667
 30
0.0
 10
107.31033337206749
 20
84.67184405266985
 30
0.0
  0
LWPOLYLINE
  8
OpenJsCad
  90
25
  70
1
 10
91.8103333720675
 20
111.51863156998746
 30
0.0
 10
92.04871130596433
 20
111.20797139820763
 30
0.0
 10
92.19856193972129
 20
110.84619996586142
 30
0.0
 10
92.24967320028767
 20
110.45797139820763
 30
0.0
 10
92.19856193972129
 20
110.06974283055385
 30
0.0
 10
92.04871130596433
 20
109.70797139820763
 30
0.0
 10
91.8103333720675
 20
109.3973112264278
 30
0.0
 10
91.49967320028767
 20
109.15893329253097
 30
0.0
 10
91.13790176794146
 20
109.00908265877402
 30
0.0
 10
90.74967320028767
 20
108.95797139820763
 30
0.0
 10
90.36144463263389
 20
109.00908265877402
 30
0.0
 10
89.99967320028767
 20
109.15893329253097
 30
0.0
 10
89.68901302850784
 20
109.3973112264278
 30
0.0
 10
89.45063509461102
 20
109.70797139820763
 30
0.0
 10
89.30078446085406
 20
110.06974283055385
 30
0.0
 10
89.24967320028767
 20
110.45797139820763
 30
0.0
 10
89.30078446085406
 20
110.84619996586142
 30
0.0
 10
89.45063509461102
 20
111.20797139820763
 30
0.0
 10
89.68901302850784
 20
111.51863156998745
 30
0.0
 10
89.99967320028767
 20
111.75700950388429
 30
0.0
 10
90.36144463263389
 20
111.90686013764123
 30
0.0
 10
90.74967320028767
 20
111.95797139820763
 30
0.0
 10
91.13790176794146
 20
111.90686013764125
 30
0.0
 10
91.49967320028767
 20
111.75700950388429
 30
0.0
 10
91.8103333720675
 20
111.51863156998746
 30
0.0
  0
LWPOLYLINE
  8
OpenJsCad
  90
25
  70
1
 10
134.1571208893851
 20
100.17184405266985
 30
0.0
 10
134.3954988232819
 20
99.86118388089002
 30
0.0
 10
134.5453494570389
 20
99.49941244854381
 30
0.0
 10
134.59646071760525
 20
99.11118388089002
 30
0.0
 10
134.54534945703887
 20
98.72295531323624
 30
0.0
 10
134.39549882328194
 20
98.36118388089002
 30
0.0
 10
134.15712088938508
 20
98.0505237091102
 30
0.0
 10
133.84646071760525
 20
97.81214577521337
 30
0.0
 10
133.48468928525904
 20
97.66229514145641
 30
0.0
 10
133.09646071760528
 20
97.61118388089002
 30
0.0
 10
132.70823214995147
 20
97.66229514145641
 30
0.0
 10
132.34646071760525
 20
97.81214577521337
 30
0.0
 10
132.03580054582545
 20
98.0505237091102
 30
0.0
 10
131.7974226119286
 20
98.36118388089002
 30
0.0
 10
131.64757197817167
 20
98.72295531323624
 30
0.0
 10
131.59646071760525
 20
99.11118388089002
 30
0.0
 10
131.64757197817164
 20
99.4994124485438
 30
0.0
 10
131.79742261192862
 20
99.86118388089002
 30
0.0
 10
132.03580054582545
 20
100.17184405266984
 30
0.0
 10
132.34646071760525
 20
100.41022198656668
 30
0.0
 10
132.7082321499515
 20
100.56007262032362
 30
0.0
 10
133.09646071760528
 20
100.61118388089002
 30
0.0
 10
133.48468928525904
 20
100.56007262032362
 30
0.0
 10
133.84646071760525
 20
100.41022198656668
 30
0.0
 10
134.1571208893851
 20
100.17184405266985
 30
0.0
  0
LWPOLYLINE
  8
OpenJsCad
  90
25
  70
1
 10
118.65712088938511
 20
127.01863156998745
 30
0.0
 10
118.89549882328193
 20
126.70797139820762
 30
0.0
 10
119.0453494570389
 20
126.3461999658614
 30
0.0
 10
119.09646071760527
 20
125.95797139820762
 30
0.0
 10
119.04534945703887
 20
125.56974283055385
 30
0.0
 10
118.89549882328194
 20
125.20797139820762
 30
0.0
 10
118.6571208893851
 20
124.8973112264278
 30
0.0
 10
118.34646071760527
 20
124.65893329253096
 30
0.0
 10
117.98468928525905
 20
124.50908265877402
 30
0.0
 10
117.59646071760528
 20
124.45797139820762
 30
0.0
 10
117.20823214995147
 20
124.50908265877402
 30
0.0
 10
116.84646071760527
 20
124.65893329253096
 30
0.0
 10
116.53580054582545
 20
124.89731122642779
 30
0.0
 10
116.29742261192861
 20
125.20797139820762
 30
0.0
 10
116.14757197817167
 20
125.56974283055384
 30
0.0
 10
116.09646071760527
 20
125.95797139820762
 30
0.0
 10
116.14757197817165
 20
126.34619996586139
 30
0.0
 10
116.29742261192862
 20
126.70797139820762
 30
0.0
 10
116.53580054582545
 20
127.01863156998743
 30
0.0
 10
116.84646071760527
 20
127.25700950388428
 30
0.0
 10
117.2082321499515
 20
127.40686013764122
 30
0.0
 10
117.59646071760528
 20
127.45797139820762
 30
0.0
 10
117.98468928525905
 20
127.40686013764122
 30
0.0
 10
118.34646071760527
 20
127.25700950388428
 30
0.0
 10
118.65712088938511
 20
127.01863156998745
 30
0.0
  0
LWPOLYLINE
  8
OpenJsCad
  90
29
  70
1
 10
-20.392304845413193
 20
203.32050807568876
 30
0.0
 10
-72.3538290724795
 20
233.3205080756888
 30
0.0
 10
-74.76563862145427
 20
234.31951230073508
 30
0.0
 10
-77.35382907247948
 20
234.66025403784442
 30
0.0
 10
-79.94201952350468
 20
234.3195123007351
 30
0.0
 10
-82.35382907247947
 20
233.3205080756888
 30
0.0
 10
-84.42489688434496
 20
231.7313218497099
 30
0.0
 10
-86.01408311032387
 20
229.66025403784442
 30
0.0
 10
-241.89865579152294
 20
-40.33974596215546
 30
0.0
 10
-242.89766001656926
 20
-42.751555511130235
 30
0.0
 10
-243.23840175367854
 20
-45.33974596215546
 30
0.0
 10
-242.89766001656923
 20
-47.927936413180674
 30
0.0
 10
-241.89865579152297
 20
-50.33974596215546
 30
0.0
 10
-240.30946956554402
 20
-52.41081377402092
 30
0.0
 10
-238.23840175367857
 20
-53.99999999999983
 30
0.0
 10
-186.27687752661228
 20
-83.99999999999986
 30
0.0
 10
-183.86506797763747
 20
-84.99900422504618
 30
0.0
 10
-181.27687752661228
 20
-85.33974596215549
 30
0.0
 10
-178.68868707558704
 20
-84.99900422504618
 30
0.0
 10
-176.27687752661228
 20
-83.99999999999987
 30
0.0
 10
-174.2058097147468
 20
-82.41081377402097
 30
0.0
 10
-172.61662348876789
 20
-80.33974596215549
 30
0.0
 10
-16.73205080756881
 20
189.6602540378444
 30
0.0
 10
-15.733046582522505
 20
192.07206358681916
 30
0.0
 10
-15.392304845413179
 20
194.66025403784437
 30
0.0
 10
-15.733046582522505
 20
197.2484444888696
 30
0.0
 10
-16.732050807568797
 20
199.6602540378444
 30
0.0
 10
-18.321237033547703
 20
201.73132184970984
 30
0.0
 10
-20.392304845413193
 20
203.32050807568876
 30
0.0
  0
LWPOLYLINE
  8
OpenJsCad
  90
25
  70
1
 10
-78.0008766852358
 20
222.24543947212175
 30
0.0
 10
-78.6038290724795
 20
222.49519052838332
 30
0.0
 10
-79.12159602544585
 20
222.89248708487804
 30
0.0
 10
-79.5188925819406
 20
223.41025403784442
 30
0.0
 10
-79.76864363820216
 20
224.01320642508813
 30
0.0
 10
-79.8538290724795
 20
224.66025403784442
 30
0.0
 10
-79.76864363820218
 20
225.30730165060072
 30
0.0
 10
-79.51889258194058
 20
225.91025403784442
 30
0.0
 10
-79.12159602544588
 20
226.42802099081078
 30
0.0
 10
-78.6038290724795
 20
226.82531754730553
 30
0.0
 10
-78.0008766852358
 20
227.0750686035671
 30
0.0
 10
-77.3538290724795
 20
227.16025403784442
 30
0.0
 10
-76.70678145972317
 20
227.0750686035671
 30
0.0
 10
-76.1038290724795
 20
226.8253175473055
 30
0.0
 10
-75.58606211951312
 20
226.4280209908108
 30
0.0
 10
-75.18876556301839
 20
225.91025403784442
 30
0.0
 10
-74.9390145067568
 20
225.3073016506007
 30
0.0
 10
-74.85382907247947
 20
224.66025403784442
 30
0.0
 10
-74.93901450675682
 20
224.0132064250881
 30
0.0
 10
-75.18876556301839
 20
223.41025403784442
 30
0.0
 10
-75.58606211951312
 20
222.89248708487804
 30
0.0
 10
-76.10382907247947
 20
222.49519052838332
 30
0.0
 10
-76.70678145972316
 20
222.24543947212175
 30
0.0
 10
-77.3538290724795
 20
222.16025403784442
 30
0.0
 10
-78.0008766852358
 20
222.24543947212175
 30
0.0
  0
LWPOLYLINE
  8
OpenJsCad
  90
25
  70
1
 10
-26.039352458169503
 20
192.24543947212172
 30
0.0
 10
-26.642304845413193
 20
192.4951905283833
 30
0.0
 10
-27.160071798379562
 20
192.892487084878
 30
0.0
 10
-27.557368354874285
 20
193.4102540378444
 30
0.0
 10
-27.807119411135858
 20
194.0132064250881
 30
0.0
 10
-27.89230484541318
 20
194.6602540378444
 30
0.0
 10
-27.807119411135858
 20
195.3073016506007
 30
0.0
 10
-27.557368354874285
 20
195.9102540378444
 30
0.0
 10
-27.160071798379562
 20
196.42802099081075
 30
0.0
 10
-26.64230484541318
 20
196.8253175473055
 30
0.0
 10
-26.03935245816949
 20
197.07506860356708
 30
0.0
 10
-25.39230484541318
 20
197.1602540378444
 30
0.0
 10
-24.745257232656883
 20
197.07506860356708
 30
0.0
 10
-24.142304845413193
 20
196.82531754730547
 30
0.0
 10
-23.624537892446824
 20
196.42802099081078
 30
0.0
 10
-23.227241335952087
 20
195.9102540378444
 30
0.0
 10
-22.977490279690528
 20
195.30730165060066
 30
0.0
 10
-22.89230484541318
 20
194.6602540378444
 30
0.0
 10
-22.977490279690514
 20
194.01320642508807
 30
0.0
 10
-23.227241335952087
 20
193.4102540378444
 30
0.0
 10
-23.62453789244681
 20
192.892487084878
 30
0.0
 10
-24.14230484541318
 20
192.4951905283833
 30
0.0
 10
-24.745257232656883
 20
192.24543947212172
 30
0.0
 10
-25.392304845413193
 20
192.1602540378444
 30
0.0
 10
-26.039352458169503
 20
192.24543947212172
 30
0.0
  0
LWPOLYLINE
  8
OpenJsCad
  90
25
  70
1
 10
-233.88544936643487
 20
-47.75456052787814
 30
0.0
 10
-234.48840175367857
 20
-47.50480947161654
 30
0.0
 10
-235.00616870664493
 20
-47.107512915121845
 30
0.0
 10
-235.40346526313968
 20
-46.58974596215546
 30
0.0
 10
-235.65321631940122
 20
-45.98679357491173
 30
0.0
 10
-235.73840175367857
 20
-45.33974596215546
 30
0.0
 10
-235.65321631940125
 20
-44.69269834939914
 30
0.0
 10
-235.40346526313965
 20
-44.08974596215546
 30
0.0
 10
-235.00616870664496
 20
-43.57197900918908
 30
0.0
 10
-234.48840175367857
 20
-43.174682452694356
 30
0.0
 10
-233.88544936643487
 20
-42.924931396432754
 30
0.0
 10
-233.23840175367857
 20
-42.83974596215546
 30
0.0
 10
-232.59135414092225
 20
-42.92493139643278
 30
0.0
 10
-231.98840175367857
 20
-43.174682452694356
 30
0.0
 10
-231.4706348007122
 20
-43.57197900918908
 30
0.0
 10
-231.07333824421747
 20
-44.08974596215546
 30
0.0
 10
-230.82358718795587
 20
-44.692698349399166
 30
0.0
 10
-230.73840175367854
 20
-45.33974596215546
 30
0.0
 10
-230.8235871879559
 20
-45.98679357491176
 30
0.0
 10
-231.07333824421747
 20
-46.58974596215546
 30
0.0
 10
-231.4706348007122
 20
-47.107512915121816
 30
0.0
 10
-231.98840175367854
 20
-47.50480947161657
 30
0.0
 10
-232.59135414092225
 20
-47.75456052787811
 30
0.0
 10
-233.23840175367857
 20
-47.83974596215546
 30
0.0
 10
-233.88544936643487
 20
-47.75456052787814
 30
0.0
  0
LWPOLYLINE
  8
OpenJsCad
  90
25
  70
1
 10
-181.92392513936858
 20
-77.75456052787817
 30
0.0
 10
-182.52687752661228
 20
-77.50480947161657
 30
0.0
 10
-183.04464447957864
 20
-77.10751291512187
 30
0.0
 10
-183.44194103607336
 20
-76.58974596215549
 30
0.0
 10
-183.69169209233493
 20
-75.98679357491176
 30
0.0
 10
-183.77687752661225
 20
-75.33974596215549
 30
0.0
 10
-183.69169209233493
 20
-74.69269834939917
 30
0.0
 10
-183.44194103607336
 20
-74.08974596215549
 30
0.0
 10
-183.04464447957864
 20
-73.5719790091891
 30
0.0
 10
-182.52687752661225
 20
-73.17468245269438
 30
0.0
 10
-181.92392513936858
 20
-72.92493139643278
 30
0.0
 10
-181.27687752661225
 20
-72.83974596215549
 30
0.0
 10
-180.62982991385596
 20
-72.92493139643281
 30
0.0
 10
-180.02687752661228
 20
-73.17468245269438
 30
0.0
 10
-179.5091105736459
 20
-73.5719790091891
 30
0.0
 10
-179.11181401715118
 20
-74.08974596215549
 30
0.0
 10
-178.8620629608896
 20
-74.6926983493992
 30
0.0
 10
-178.77687752661225
 20
-75.33974596215549
 30
0.0
 10
-178.8620629608896
 20
-75.98679357491179
 30
0.0
 10
-179.11181401715118
 20
-76.58974596215549
 30
0.0
 10
-179.5091105736459
 20
-77.10751291512184
 30
0.0
 10
-180.02687752661225
 20
-77.5048094716166
 30
0.0
 10
-180.62982991385596
 20
-77.75456052787814
 30
0.0
 10
-181.27687752661228
 20
-77.83974596215549
 30
0.0
 10
-181.92392513936858
 20
-77.75456052787817
 30
0.0
  0
LWPOLYLINE
  8
OpenJsCad
  90
33
  70
1
 10
-139.97825378636688
 20
102.39156863861945
 30
0.0
 10
-105.37825378636688
 20
162.32052658050256
 30
0.0
 10
-103.64620297879802
 20
161.3205265805026
 30
0.0
 10
-138.24620297879804
 20
101.39156863861946
 30
0.0
 10
-138.7457050913212
 20
100.18566386413207
 30
0.0
 10
-138.91607595987583
 20
98.89156863861946
 30
0.0
 10
-138.7457050913212
 20
97.59747341310685
 30
0.0
 10
-138.24620297879804
 20
96.39156863861946
 30
0.0
 10
-137.4516098658086
 20
95.35603473268674
 30
0.0
 10
-136.41607595987585
 20
94.56144161969726
 30
0.0
 10
-108.53005795801695
 20
78.46144161969725
 30
0.0
 10
-107.32415318352953
 20
77.96193950717411
 30
0.0
 10
-106.03005795801695
 20
77.79156863861945
 30
0.0
 10
-104.73596273250435
 20
77.96193950717411
 30
0.0
 10
-103.53005795801697
 20
78.46144161969725
 30
0.0
 10
-102.4945240520842
 20
79.2560347326867
 30
0.0
 10
-101.69993093909474
 20
80.29156863861945
 30
0.0
 10
-67.09993093909469
 20
140.22052658050256
 30
0.0
 10
-65.36788013152582
 20
139.22052658050256
 30
0.0
 10
-99.96788013152586
 20
79.29156863861944
 30
0.0
 10
-101.08031048971111
 20
77.84182117031361
 30
0.0
 10
-102.53005795801694
 20
76.72939081212837
 30
0.0
 10
-104.2183246422993
 20
76.03008785459596
 30
0.0
 10
-106.03005795801695
 20
75.79156863861945
 30
0.0
 10
-107.84179127373459
 20
76.03008785459598
 30
0.0
 10
-109.53005795801695
 20
76.72939081212839
 30
0.0
 10
-137.41607595987585
 20
92.8293908121284
 30
0.0
 10
-138.86582342818167
 20
93.94182117031363
 30
0.0
 10
-139.97825378636693
 20
95.39156863861946
 30
0.0
 10
-140.67755674389934
 20
97.07983532290183
 30
0.0
 10
-140.91607595987585
 20
98.89156863861946
 30
0.0
 10
-140.67755674389934
 20
100.70330195433712
 30
0.0
 10
-139.97825378636688
 20
102.39156863861945
 30
0.0
  0
LWPOLYLINE
  8
OpenJsCad
  90
33
  70
1
 10
-193.26282646756587
 20
10.099981495186327
 30
0.0
 10
-158.66282646756585
 20
70.02893943706945
 30
0.0
 10
-157.55039610938064
 20
71.47868690537531
 30
0.0
 10
-156.10064864107483
 20
72.59111726356055
 30
0.0
 10
-154.41238195679244
 20
73.29042022109296
 30
0.0
 10
-152.6006486410748
 20
73.52893943706947
 30
0.0
 10
-150.78891532535715
 20
73.29042022109294
 30
0.0
 10
-149.10064864107483
 20
72.59111726356053
 30
0.0
 10
-121.2146306392159
 20
56.491117263560525
 30
0.0
 10
-119.76488317091007
 20
55.37868690537529
 30
0.0
 10
-118.65245281272482
 20
53.92893943706946
 30
0.0
 10
-117.95314985519242
 20
52.2406727527871
 30
0.0
 10
-117.71463063921588
 20
50.42893943706945
 30
0.0
 10
-117.95314985519241
 20
48.617206121351806
 30
0.0
 10
-118.65245281272482
 20
46.928939437069445
 30
0.0
 10
-153.25245281272487
 20
-13.000018504813688
 30
0.0
 10
-154.98450362029376
 20
-12.000018504813667
 30
0.0
 10
-120.3845036202937
 20
47.92893943706945
 30
0.0
 10
-119.88500150777055
 20
49.134844211556846
 30
0.0
 10
-119.71463063921591
 20
50.42893943706947
 30
0.0
 10
-119.88500150777055
 20
51.723034662582066
 30
0.0
 10
-120.38450362029371
 20
52.92893943706946
 30
0.0
 10
-121.17909673328315
 20
53.96447334300219
 30
0.0
 10
-122.2146306392159
 20
54.75906645599165
 30
0.0
 10
-150.10064864107483
 20
70.85906645599167
 30
0.0
 10
-151.3065534155622
 20
71.35856856851481
 30
0.0
 10
-152.6006486410748
 20
71.52893943706947
 30
0.0
 10
-153.89474386658742
 20
71.35856856851481
 30
0.0
 10
-155.1006486410748
 20
70.85906645599167
 30
0.0
 10
-156.13618254700754
 20
70.06447334300222
 30
0.0
 10
-156.930775659997
 20
69.02893943706945
 30
0.0
 10
-191.53077565999703
 20
9.099981495186341
 30
0.0
 10
-193.26282646756587
 20
10.099981495186327
 30
0.0
  0
LWPOLYLINE
  8
OpenJsCad
  90
97
  70
1
 10
-102.05746680208682
 20
99.9194020471399
 30
0.0
 10
-102.39678751731758
 20
99.2845776395489
 30
0.0
 10
-102.77690122361841
 20
98.67330507633328
 30
0.0
 10
-103.1961802157428
 20
98.08820192045297
 30
0.0
 10
-103.65282907667765
 20
97.53177367344814
 30
0.0
 10
-104.14489236589438
 20
97.00640304649687
 30
0.0
 10
-104.67026299284565
 20
96.51433975728015
 30
0.0
 10
-105.22669123985048
 20
96.05769089634532
 30
0.0
 10
-105.8117943957308
 20
95.63841190422092
 30
0.0
 10
-106.42306695894641
 20
95.25829819792008
 30
0.0
 10
-107.05789136653739
 20
94.91897748268933
 30
0.0
 10
-107.71354920293041
 20
94.62190278192476
 30
0.0
 10
-108.38723284061162
 20
94.36834621510275
 30
0.0
 10
-109.07605746281867
 20
94.15939355036915
 30
0.0
 10
-109.77707341676897
 20
93.99593955511337
 30
0.0
 10
-110.48727884452585
 20
93.87868416443699
 30
0.0
 10
-111.20363253741483
 20
93.80812948392428
 30
0.0
 10
-111.92306695894641
 20
93.78457763954891
 30
0.0
 10
-112.64250138047798
 20
93.80812948392429
 30
0.0
 10
-113.35885507336698
 20
93.87868416443702
 30
0.0
 10
-114.06906050112381
 20
93.99593955511338
 30
0.0
 10
-114.77007645507413
 20
94.15939355036917
 30
0.0
 10
-115.45890107728117
 20
94.36834621510276
 30
0.0
 10
-116.13258471496238
 20
94.62190278192476
 30
0.0
 10
-116.78824255135541
 20
94.91897748268936
 30
0.0
 10
-117.4230669589464
 20
95.2582981979201
 30
0.0
 10
-118.03433952216201
 20
95.63841190422092
 30
0.0
 10
-118.61944267804233
 20
96.05769089634533
 30
0.0
 10
-119.17587092504716
 20
96.51433975728018
 30
0.0
 10
-119.70124155199842
 20
97.0064030464969
 30
0.0
 10
-120.19330484121517
 20
97.53177367344817
 30
0.0
 10
-120.64995370215
 20
98.088201920453
 30
0.0
 10
-121.06923269427438
 20
98.67330507633329
 30
0.0
 10
-121.44934640057522
 20
99.28457763954893
 30
0.0
 10
-121.78866711580598
 20
99.91940204713991
 30
0.0
 10
-122.08574181657055
 20
100.57505988353293
 30
0.0
 10
-122.33929838339257
 20
101.24874352121415
 30
0.0
 10
-122.54825104812615
 20
101.9375681434212
 30
0.0
 10
-122.71170504338194
 20
102.63858409737152
 30
0.0
 10
-122.8289604340583
 20
103.34878952512835
 30
0.0
 10
-122.89951511457105
 20
104.06514321801735
 30
0.0
 10
-122.9230669589464
 20
104.78457763954893
 30
0.0
 10
-122.89951511457102
 20
105.50401206108049
 30
0.0
 10
-122.8289604340583
 20
106.22036575396949
 30
0.0
 10
-122.71170504338191
 20
106.93057118172632
 30
0.0
 10
-122.54825104812615
 20
107.63158713567665
 30
0.0
 10
-122.33929838339256
 20
108.3204117578837
 30
0.0
 10
-122.08574181657055
 20
108.99409539556491
 30
0.0
 10
-121.78866711580596
 20
109.64975323195793
 30
0.0
 10
-121.44934640057521
 20
110.28457763954893
 30
0.0
 10
-121.06923269427438
 20
110.89585020276455
 30
0.0
 10
-120.64995370214997
 20
111.48095335864485
 30
0.0
 10
-120.19330484121514
 20
112.03738160564968
 30
0.0
 10
-119.70124155199841
 20
112.56275223260096
 30
0.0
 10
-119.17587092504714
 20
113.05481552181766
 30
0.0
 10
-118.61944267804232
 20
113.51146438275251
 30
0.0
 10
-118.03433952216199
 20
113.93074337487691
 30
0.0
 10
-117.4230669589464
 20
114.31085708117774
 30
0.0
 10
-116.78824255135541
 20
114.65017779640849
 30
0.0
 10
-116.13258471496238
 20
114.94725249717308
 30
0.0
 10
-115.45890107728117
 20
115.20080906399508
 30
0.0
 10
-114.77007645507412
 20
115.40976172872868
 30
0.0
 10
-114.06906050112379
 20
115.57321572398445
 30
0.0
 10
-113.35885507336695
 20
115.69047111466082
 30
0.0
 10
-112.64250138047798
 20
115.76102579517357
 30
0.0
 10
-111.9230669589464
 20
115.78457763954893
 30
0.0
 10
-111.20363253741479
 20
115.76102579517355
 30
0.0
 10
-110.48727884452583
 20
115.69047111466084
 30
0.0
 10
-109.77707341676899
 20
115.57321572398445
 30
0.0
 10
-109.07605746281865
 20
115.40976172872867
 30
0.0
 10
-108.38723284061162
 20
115.20080906399508
 30
0.0
 10
-107.71354920293041
 20
114.94725249717308
 30
0.0
 10
-107.0578913665374
 20
114.6501777964085
 30
0.0
 10
-106.42306695894638
 20
114.31085708117774
 30
0.0
 10
-105.81179439573077
 20
113.93074337487691
 30
0.0
 10
-105.22669123985045
 20
113.51146438275251
 30
0.0
 10
-104.67026299284562
 20
113.05481552181766
 30
0.0
 10
-104.14489236589438
 20
112.56275223260094
 30
0.0
 10
-103.65282907667763
 20
112.03738160564967
 30
0.0
 10
-103.1961802157428
 20
111.48095335864484
 30
0.0
 10
-102.7769012236184
 20
110.89585020276455
 30
0.0
 10
-102.39678751731756
 20
110.2845776395489
 30
0.0
 10
-102.05746680208682
 20
109.64975323195792
 30
0.0
 10
-101.76039210132225
 20
108.9940953955649
 30
0.0
 10
-101.50683553450021
 20
108.32041175788368
 30
0.0
 10
-101.29788286976664
 20
107.63158713567663
 30
0.0
 10
-101.13442887451085
 20
106.93057118172632
 30
0.0
 10
-101.01717348383448
 20
106.22036575396947
 30
0.0
 10
-100.94661880332175
 20
105.50401206108047
 30
0.0
 10
-100.92306695894641
 20
104.78457763954891
 30
0.0
 10
-100.94661880332177
 20
104.06514321801734
 30
0.0
 10
-101.01717348383448
 20
103.34878952512834
 30
0.0
 10
-101.13442887451087
 20
102.6385840973715
 30
0.0
 10
-101.29788286976664
 20
101.93756814342117
 30
0.0
 10
-101.50683553450023
 20
101.24874352121412
 30
0.0
 10
-101.76039210132222
 20
100.57505988353292
 30
0.0
 10
-102.05746680208682
 20
99.9194020471399
 30
0.0
  0
LWPOLYLINE
  8
OpenJsCad
  90
25
  70
1
 10
-131.64757197817158
 20
98.72295531323634
 30
0.0
 10
-131.79742261192854
 20
98.36118388089012
 30
0.0
 10
-132.03580054582537
 20
98.0505237091103
 30
0.0
 10
-132.3464607176052
 20
97.81214577521347
 30
0.0
 10
-132.7082321499514
 20
97.66229514145653
 30
0.0
 10
-133.0964607176052
 20
97.61118388089012
 30
0.0
 10
-133.48468928525898
 20
97.66229514145653
 30
0.0
 10
-133.8464607176052
 20
97.81214577521347
 30
0.0
 10
-134.15712088938503
 20
98.05052370911031
 30
0.0
 10
-134.39549882328186
 20
98.36118388089012
 30
0.0
 10
-134.5453494570388
 20
98.72295531323635
 30
0.0
 10
-134.5964607176052
 20
99.11118388089012
 30
0.0
 10
-134.5453494570388
 20
99.49941244854392
 30
0.0
 10
-134.39549882328186
 20
99.86118388089012
 30
0.0
 10
-134.15712088938503
 20
100.17184405266995
 30
0.0
 10
-133.8464607176052
 20
100.41022198656678
 30
0.0
 10
-133.48468928525898
 20
100.56007262032374
 30
0.0
 10
-133.0964607176052
 20
100.61118388089012
 30
0.0
 10
-132.7082321499514
 20
100.56007262032374
 30
0.0
 10
-132.3464607176052
 20
100.41022198656678
 30
0.0
 10
-132.03580054582537
 20
100.17184405266995
 30
0.0
 10
-131.79742261192854
 20
99.86118388089012
 30
0.0
 10
-131.64757197817158
 20
99.49941244854391
 30
0.0
 10
-131.5964607176052
 20
99.11118388089012
 30
0.0
 10
-131.64757197817158
 20
98.72295531323634
 30
0.0
  0
LWPOLYLINE
  8
OpenJsCad
  90
25
  70
1
 10
-116.14757197817158
 20
125.56974283055393
 30
0.0
 10
-116.29742261192851
 20
125.20797139820772
 30
0.0
 10
-116.53580054582537
 20
124.89731122642789
 30
0.0
 10
-116.84646071760517
 20
124.65893329253106
 30
0.0
 10
-117.20823214995139
 20
124.5090826587741
 30
0.0
 10
-117.5964607176052
 20
124.45797139820772
 30
0.0
 10
-117.98468928525897
 20
124.50908265877412
 30
0.0
 10
-118.34646071760517
 20
124.65893329253106
 30
0.0
 10
-118.65712088938501
 20
124.8973112264279
 30
0.0
 10
-118.89549882328186
 20
125.20797139820772
 30
0.0
 10
-119.04534945703878
 20
125.56974283055393
 30
0.0
 10
-119.09646071760517
 20
125.95797139820772
 30
0.0
 10
-119.04534945703881
 20
126.3461999658615
 30
0.0
 10
-118.89549882328183
 20
126.70797139820772
 30
0.0
 10
-118.65712088938503
 20
127.01863156998755
 30
0.0
 10
-118.34646071760517
 20
127.25700950388438
 30
0.0
 10
-117.98468928525897
 20
127.40686013764133
 30
0.0
 10
-117.5964607176052
 20
127.45797139820772
 30
0.0
 10
-117.20823214995141
 20
127.40686013764132
 30
0.0
 10
-116.84646071760517
 20
127.25700950388438
 30
0.0
 10
-116.53580054582537
 20
127.01863156998753
 30
0.0
 10
-116.29742261192854
 20
126.70797139820772
 30
0.0
 10
-116.14757197817157
 20
126.3461999658615
 30
0.0
 10
-116.09646071760517
 20
125.95797139820772
 30
0.0
 10
-116.14757197817158
 20
125.56974283055393
 30
0.0
  0
LWPOLYLINE
  8
OpenJsCad
  90
25
  70
1
 10
-104.800784460854
 20
83.22295531323633
 30
0.0
 10
-104.95063509461094
 20
82.86118388089011
 30
0.0
 10
-105.18901302850777
 20
82.55052370911028
 30
0.0
 10
-105.4996732002876
 20
82.31214577521345
 30
0.0
 10
-105.86144463263382
 20
82.16229514145651
 30
0.0
 10
-106.24967320028762
 20
82.11118388089011
 30
0.0
 10
-106.63790176794139
 20
82.16229514145651
 30
0.0
 10
-106.99967320028762
 20
82.31214577521345
 30
0.0
 10
-107.31033337206743
 20
82.5505237091103
 30
0.0
 10
-107.54871130596428
 20
82.86118388089011
 30
0.0
 10
-107.69856193972122
 20
83.22295531323634
 30
0.0
 10
-107.7496732002876
 20
83.61118388089011
 30
0.0
 10
-107.69856193972122
 20
83.9994124485439
 30
0.0
 10
-107.54871130596426
 20
84.36118388089011
 30
0.0
 10
-107.31033337206743
 20
84.67184405266994
 30
0.0
 10
-106.9996732002876
 20
84.91022198656677
 30
0.0
 10
-106.6379017679414
 20
85.06007262032372
 30
0.0
 10
-106.2496732002876
 20
85.11118388089011
 30
0.0
 10
-105.86144463263383
 20
85.06007262032371
 30
0.0
 10
-105.4996732002876
 20
84.91022198656677
 30
0.0
 10
-105.18901302850779
 20
84.67184405266993
 30
0.0
 10
-104.95063509461094
 20
84.36118388089011
 30
0.0
 10
-104.800784460854
 20
83.9994124485439
 30
0.0
 10
-104.7496732002876
 20
83.61118388089011
 30
0.0
 10
-104.800784460854
 20
83.22295531323633
 30
0.0
  0
LWPOLYLINE
  8
OpenJsCad
  90
25
  70
1
 10
-89.30078446085398
 20
110.06974283055392
 30
0.0
 10
-89.45063509461093
 20
109.7079713982077
 30
0.0
 10
-89.68901302850776
 20
109.39731122642787
 30
0.0
 10
-89.99967320028759
 20
109.15893329253105
 30
0.0
 10
-90.3614446326338
 20
109.0090826587741
 30
0.0
 10
-90.74967320028759
 20
108.9579713982077
 30
0.0
 10
-91.13790176794137
 20
109.0090826587741
 30
0.0
 10
-91.49967320028759
 20
109.15893329253105
 30
0.0
 10
-91.81033337206742
 20
109.39731122642789
 30
0.0
 10
-92.04871130596425
 20
109.7079713982077
 30
0.0
 10
-92.1985619397212
 20
110.06974283055393
 30
0.0
 10
-92.24967320028759
 20
110.4579713982077
 30
0.0
 10
-92.1985619397212
 20
110.84619996586149
 30
0.0
 10
-92.04871130596425
 20
111.2079713982077
 30
0.0
 10
-91.81033337206742
 20
111.51863156998753
 30
0.0
 10
-91.49967320028759
 20
111.75700950388436
 30
0.0
 10
-91.13790176794139
 20
111.9068601376413
 30
0.0
 10
-90.74967320028759
 20
111.9579713982077
 30
0.0
 10
-90.36144463263382
 20
111.9068601376413
 30
0.0
 10
-89.99967320028759
 20
111.75700950388436
 30
0.0
 10
-89.68901302850777
 20
111.51863156998752
 30
0.0
 10
-89.45063509461093
 20
111.2079713982077
 30
0.0
 10
-89.30078446085399
 20
110.84619996586147
 30
0.0
 10
-89.24967320028759
 20
110.4579713982077
 30
0.0
 10
-89.30078446085398
 20
110.06974283055392
 30
0.0
  0
LWPOLYLINE
  8
OpenJsCad
  90
5
  70
1
 10
-91.20319397786855
 20
150.6724503691493
 30
0.0
 10
-90.20319397786858
 20
152.40450117671816
 30
0.0
 10
-81.5429399400245
 20
147.40450117671836
 30
0.0
 10
-82.54293994002418
 20
145.67245036914926
 30
0.0
 10
-91.20319397786855
 20
150.6724503691493
 30
0.0
  0
LWPOLYLINE
  8
OpenJsCad
  90
5
  70
1
 10
-177.0877666590668
 20
1.9160068989703092
 30
0.0
 10
-176.0877666590668
 20
3.6480577065392055
 30
0.0
 10
-167.42751262122326
 20
-1.3519422934602972
 30
0.0
 10
-168.42751262122326
 20
-3.0839931010291792
 30
0.0
 10
-177.0877666590668
 20
1.9160068989703092
 30
0.0
  0
LWPOLYLINE
  8
OpenJsCad
  90
97
  70
1
 10
-156.57323979700493
 20
49.40110602854902
 30
0.0
 10
-156.23391908177416
 20
50.03593043614001
 30
0.0
 10
-155.85380537547334
 20
50.64720299935563
 30
0.0
 10
-155.43452638334895
 20
51.232306155235946
 30
0.0
 10
-154.9778775224141
 20
51.78873440224078
 30
0.0
 10
-154.48581423319737
 20
52.31410502919204
 30
0.0
 10
-153.9604436062461
 20
52.806168318408766
 30
0.0
 10
-153.4040153592413
 20
53.2628171793436
 30
0.0
 10
-152.81891220336095
 20
53.682096171468004
 30
0.0
 10
-152.20763964014535
 20
54.06220987776884
 30
0.0
 10
-151.57281523255438
 20
54.40153059299959
 30
0.0
 10
-150.91715739616134
 20
54.69860529376416
 30
0.0
 10
-150.24347375848015
 20
54.95216186058617
 30
0.0
 10
-149.5546491362731
 20
55.16111452531976
 30
0.0
 10
-148.8536331823228
 20
55.32456852057555
 30
0.0
 10
-148.14342775456592
 20
55.44182391125193
 30
0.0
 10
-147.4270740616769
 20
55.512378591764644
 30
0.0
 10
-146.70763964014537
 20
55.535930436140006
 30
0.0
 10
-145.98820521861376
 20
55.512378591764644
 30
0.0
 10
-145.27185152572477
 20
55.441823911251916
 30
0.0
 10
-144.56164609796795
 20
55.324568520575546
 30
0.0
 10
-143.86063014401762
 20
55.16111452531976
 30
0.0
 10
-143.1718055218106
 20
54.95216186058617
 30
0.0
 10
-142.49812188412938
 20
54.698605293764174
 30
0.0
 10
-141.84246404773634
 20
54.40153059299958
 30
0.0
 10
-141.20763964014535
 20
54.06220987776884
 30
0.0
 10
-140.59636707692974
 20
53.68209617146802
 30
0.0
 10
-140.01126392104942
 20
53.2628171793436
 30
0.0
 10
-139.4548356740446
 20
52.80616831840875
 30
0.0
 10
-138.92946504709334
 20
52.314105029192035
 30
0.0
 10
-138.43740175787661
 20
51.78873440224076
 30
0.0
 10
-137.98075289694177
 20
51.23230615523593
 30
0.0
 10
-137.56147390481738
 20
50.64720299935564
 30
0.0
 10
-137.18136019851653
 20
50.03593043613999
 30
0.0
 10
-136.8420394832858
 20
49.40110602854901
 30
0.0
 10
-136.54496478252122
 20
48.74544819215598
 30
0.0
 10
-136.2914082156992
 20
48.07176455447477
 30
0.0
 10
-136.08245555096562
 20
47.38293993226772
 30
0.0
 10
-135.91900155570983
 20
46.6819239783174
 30
0.0
 10
-135.80174616503345
 20
45.97171855056057
 30
0.0
 10
-135.73119148452074
 20
45.255364857671566
 30
0.0
 10
-135.70763964014537
 20
44.535930436140006
 30
0.0
 10
-135.73119148452074
 20
43.81649601460843
 30
0.0
 10
-135.80174616503345
 20
43.10014232171943
 30
0.0
 10
-135.91900155570983
 20
42.38993689396259
 30
0.0
 10
-136.0824555509656
 20
41.68892094001227
 30
0.0
 10
-136.2914082156992
 20
41.000096317805216
 30
0.0
 10
-136.5449647825212
 20
40.32641268012401
 30
0.0
 10
-136.8420394832858
 20
39.67075484373099
 30
0.0
 10
-137.18136019851653
 20
39.03593043614
 30
0.0
 10
-137.56147390481738
 20
38.42465787292437
 30
0.0
 10
-137.98075289694177
 20
37.83955471704406
 30
0.0
 10
-138.43740175787661
 20
37.283126470039235
 30
0.0
 10
-138.92946504709334
 20
36.75775584308797
 30
0.0
 10
-139.45483567404463
 20
36.265692553871254
 30
0.0
 10
-140.01126392104945
 20
35.80904369293641
 30
0.0
 10
-140.59636707692977
 20
35.38976470081201
 30
0.0
 10
-141.20763964014537
 20
35.009650994511176
 30
0.0
 10
-141.84246404773637
 20
34.67033027928043
 30
0.0
 10
-142.49812188412938
 20
34.37325557851585
 30
0.0
 10
-143.17180552181057
 20
34.11969901169383
 30
0.0
 10
-143.86063014401765
 20
33.910746346960245
 30
0.0
 10
-144.56164609796792
 20
33.74729235170446
 30
0.0
 10
-145.2718515257248
 20
33.63003696102809
 30
0.0
 10
-145.98820521861379
 20
33.559482280515354
 30
0.0
 10
-146.70763964014537
 20
33.53593043614
 30
0.0
 10
-147.42707406167693
 20
33.55948228051538
 30
0.0
 10
-148.14342775456592
 20
33.6300369610281
 30
0.0
 10
-148.85363318232277
 20
33.74729235170448
 30
0.0
 10
-149.5546491362731
 20
33.910746346960266
 30
0.0
 10
-150.24347375848015
 20
34.11969901169385
 30
0.0
 10
-150.91715739616134
 20
34.37325557851585
 30
0.0
 10
-151.57281523255438
 20
34.670330279280435
 30
0.0
 10
-152.20763964014537
 20
35.00965099451119
 30
0.0
 10
-152.818912203361
 20
35.38976470081202
 30
0.0
 10
-153.4040153592413
 20
35.80904369293643
 30
0.0
 10
-153.96044360624614
 20
36.26569255387127
 30
0.0
 10
-154.4858142331974
 20
36.75775584308799
 30
0.0
 10
-154.97787752241413
 20
37.28312647003926
 30
0.0
 10
-155.43452638334898
 20
37.839554717044095
 30
0.0
 10
-155.85380537547334
 20
38.424657872924385
 30
0.0
 10
-156.2339190817742
 20
39.03593043614002
 30
0.0
 10
-156.57323979700496
 20
39.670754843731004
 30
0.0
 10
-156.87031449776953
 20
40.32641268012403
 30
0.0
 10
-157.12387106459153
 20
41.00009631780523
 30
0.0
 10
-157.33282372932513
 20
41.68892094001229
 30
0.0
 10
-157.4962777245809
 20
42.389936893962606
 30
0.0
 10
-157.61353311525727
 20
43.100142321719446
 30
0.0
 10
-157.68408779577
 20
43.81649601460845
 30
0.0
 10
-157.70763964014537
 20
44.535930436140006
 30
0.0
 10
-157.68408779576998
 20
45.25536485767158
 30
0.0
 10
-157.61353311525727
 20
45.97171855056058
 30
0.0
 10
-157.4962777245809
 20
46.68192397831742
 30
0.0
 10
-157.33282372932513
 20
47.382939932267746
 30
0.0
 10
-157.12387106459153
 20
48.0717645544748
 30
0.0
 10
-156.87031449776953
 20
48.745448192156005
 30
0.0
 10
-156.57323979700493
 20
49.40110602854902
 30
0.0
  0
LWPOLYLINE
  8
OpenJsCad
  90
25
  70
1
 10
-126.98313462092018
 20
50.59755276245258
 30
0.0
 10
-126.83328398716323
 20
50.959324194798796
 30
0.0
 10
-126.5949060532664
 20
51.269984366578626
 30
0.0
 10
-126.28424588148657
 20
51.508362300475454
 30
0.0
 10
-125.92247444914035
 20
51.6582129342324
 30
0.0
 10
-125.53424588148656
 20
51.709324194798796
 30
0.0
 10
-125.14601731383279
 20
51.658212934232395
 30
0.0
 10
-124.78424588148656
 20
51.508362300475454
 30
0.0
 10
-124.47358570970674
 20
51.26998436657861
 30
0.0
 10
-124.2352077758099
 20
50.959324194798796
 30
0.0
 10
-124.08535714205296
 20
50.597552762452565
 30
0.0
 10
-124.03424588148657
 20
50.209324194798796
 30
0.0
 10
-124.08535714205296
 20
49.82109562714501
 30
0.0
 10
-124.23520777580991
 20
49.459324194798796
 30
0.0
 10
-124.47358570970673
 20
49.148664023018966
 30
0.0
 10
-124.78424588148657
 20
48.91028608912214
 30
0.0
 10
-125.14601731383277
 20
48.76043545536519
 30
0.0
 10
-125.53424588148657
 20
48.709324194798796
 30
0.0
 10
-125.92247444914034
 20
48.7604354553652
 30
0.0
 10
-126.28424588148657
 20
48.91028608912214
 30
0.0
 10
-126.59490605326639
 20
49.14866402301898
 30
0.0
 10
-126.83328398716323
 20
49.459324194798796
 30
0.0
 10
-126.98313462092017
 20
49.82109562714501
 30
0.0
 10
-127.03424588148657
 20
50.209324194798796
 30
0.0
 10
-126.98313462092018
 20
50.59755276245258
 30
0.0
  0
LWPOLYLINE
  8
OpenJsCad
  90
25
  70
1
 10
-142.4831346209202
 20
23.750765245134986
 30
0.0
 10
-142.33328398716324
 20
24.112536677481202
 30
0.0
 10
-142.0949060532664
 20
24.423196849261032
 30
0.0
 10
-141.78424588148658
 20
24.66157478315786
 30
0.0
 10
-141.42247444914037
 20
24.81142541691481
 30
0.0
 10
-141.03424588148658
 20
24.862536677481202
 30
0.0
 10
-140.6460173138328
 20
24.81142541691481
 30
0.0
 10
-140.28424588148658
 20
24.66157478315786
 30
0.0
 10
-139.97358570970675
 20
24.423196849261025
 30
0.0
 10
-139.73520777580993
 20
24.112536677481202
 30
0.0
 10
-139.58535714205297
 20
23.75076524513498
 30
0.0
 10
-139.53424588148658
 20
23.362536677481202
 30
0.0
 10
-139.58535714205297
 20
22.97430810982742
 30
0.0
 10
-139.73520777580993
 20
22.612536677481202
 30
0.0
 10
-139.97358570970675
 20
22.301876505701372
 30
0.0
 10
-140.28424588148658
 20
22.063498571804544
 30
0.0
 10
-140.6460173138328
 20
21.913647938047596
 30
0.0
 10
-141.03424588148658
 20
21.862536677481202
 30
0.0
 10
-141.42247444914034
 20
21.913647938047603
 30
0.0
 10
-141.78424588148658
 20
22.063498571804544
 30
0.0
 10
-142.0949060532664
 20
22.301876505701387
 30
0.0
 10
-142.33328398716324
 20
22.612536677481202
 30
0.0
 10
-142.4831346209202
 20
22.974308109827426
 30
0.0
 10
-142.53424588148658
 20
23.362536677481202
 30
0.0
 10
-142.4831346209202
 20
23.750765245134986
 30
0.0
  0
LWPOLYLINE
  8
OpenJsCad
  90
25
  70
1
 10
-153.82992213823778
 20
66.0975527624526
 30
0.0
 10
-153.6800715044808
 20
66.45932419479881
 30
0.0
 10
-153.441693570584
 20
66.76998436657863
 30
0.0
 10
-153.13103339880414
 20
67.00836230047547
 30
0.0
 10
-152.76926196645792
 20
67.15821293423241
 30
0.0
 10
-152.38103339880416
 20
67.20932419479881
 30
0.0
 10
-151.99280483115038
 20
67.15821293423241
 30
0.0
 10
-151.63103339880414
 20
67.00836230047547
 30
0.0
 10
-151.32037322702433
 20
66.76998436657863
 30
0.0
 10
-151.0819952931275
 20
66.45932419479881
 30
0.0
 10
-150.93214465937052
 20
66.09755276245258
 30
0.0
 10
-150.88103339880414
 20
65.70932419479881
 30
0.0
 10
-150.93214465937055
 20
65.32109562714503
 30
0.0
 10
-151.08199529312748
 20
64.95932419479881
 30
0.0
 10
-151.32037322702433
 20
64.64866402301898
 30
0.0
 10
-151.63103339880414
 20
64.41028608912215
 30
0.0
 10
-151.99280483115035
 20
64.2604354553652
 30
0.0
 10
-152.38103339880416
 20
64.20932419479881
 30
0.0
 10
-152.76926196645795
 20
64.2604354553652
 30
0.0
 10
-153.13103339880414
 20
64.41028608912215
 30
0.0
 10
-153.441693570584
 20
64.64866402301898
 30
0.0
 10
-153.68007150448082
 20
64.95932419479881
 30
0.0
 10
-153.82992213823775
 20
65.32109562714503
 30
0.0
 10
-153.88103339880414
 20
65.70932419479881
 30
0.0
 10
-153.82992213823778
 20
66.0975527624526
 30
0.0
  0
LWPOLYLINE
  8
OpenJsCad
  90
25
  70
1
 10
-169.32992213823778
 20
39.250765245135
 30
0.0
 10
-169.18007150448082
 20
39.612536677481216
 30
0.0
 10
-168.941693570584
 20
39.923196849261046
 30
0.0
 10
-168.63103339880416
 20
40.161574783157874
 30
0.0
 10
-168.26926196645795
 20
40.31142541691482
 30
0.0
 10
-167.88103339880416
 20
40.362536677481216
 30
0.0
 10
-167.4928048311504
 20
40.311425416914815
 30
0.0
 10
-167.13103339880416
 20
40.161574783157874
 30
0.0
 10
-166.82037322702433
 20
39.92319684926103
 30
0.0
 10
-166.5819952931275
 20
39.612536677481216
 30
0.0
 10
-166.43214465937055
 20
39.25076524513499
 30
0.0
 10
-166.38103339880416
 20
38.862536677481216
 30
0.0
 10
-166.43214465937055
 20
38.47430810982743
 30
0.0
 10
-166.5819952931275
 20
38.112536677481216
 30
0.0
 10
-166.82037322702433
 20
37.80187650570139
 30
0.0
 10
-167.13103339880416
 20
37.56349857180456
 30
0.0
 10
-167.49280483115038
 20
37.41364793804761
 30
0.0
 10
-167.88103339880416
 20
37.362536677481216
 30
0.0
 10
-168.26926196645795
 20
37.41364793804762
 30
0.0
 10
-168.63103339880416
 20
37.56349857180456
 30
0.0
 10
-168.941693570584
 20
37.8018765057014
 30
0.0
 10
-169.18007150448082
 20
38.112536677481216
 30
0.0
 10
-169.32992213823778
 20
38.47430810982744
 30
0.0
 10
-169.38103339880416
 20
38.862536677481216
 30
0.0
 10
-169.32992213823778
 20
39.250765245135
 30
0.0
  0
ENDSEC
  0
EOF
