999
DXF generated by OpenJsCad
  0
SECTION
  2
HEADER
  0
ENDSEC
  0
SECTION
  2
TABLES
  0
TABLE
  2
LTYPE
  70
1
  0
LTYPE
  2
CONTINUOUS
  3
Solid Line
  72
65
  73
0
  40
0.0
  0
ENDTAB
  0
TABLE
  2
LAYER
  70
1
  0
LAYER
  2
OpenJsCad
  62
7
  6
continuous
  0
ENDTAB
  0
TABLE
  2
STYLE
  70
0
  0
ENDTAB
  0
TABLE
  2
VIEW
  70
0
  0
ENDTAB
  0
ENDSEC
  0
SECTION
  2
BLOCKS
  0
ENDSEC
  0
SECTION
  2
ENTITIES
  0
LWPOLYLINE
  8
OpenJsCad
  90
364
  70
1
 10
-140
 20
118.4
 30
0.0
 10
-140
 20
108.65732066148767
 30
0.0
 10
-126.6006671458886
 20
100.92121223120505
 30
0.0
 10
-128.10066714588902
 20
98.323136019852
 30
0.0
 10
-147.23982856952466
 20
109.37313601985173
 30
0.0
 10
-148.02972785289631
 20
109.74147210485908
 30
0.0
 10
-148.87158768119002
 20
109.9670477659906
 30
0.0
 10
-149.73982856952466
 20
110.04300900092954
 30
0.0
 10
-150.60806945785936
 20
109.9670477659906
 30
0.0
 10
-151.44992928615304
 20
109.7414721048591
 30
0.0
 10
-152.23982856952466
 20
109.37313601985174
 30
0.0
 10
-152.95376661795734
 20
108.87323121652443
 30
0.0
 10
-153.57005078511955
 20
108.25694704936224
 30
0.0
 10
-154.06995558844687
 20
107.54300900092959
 30
0.0
 10
-156.6199555884469
 20
103.12627944162891
 30
0.0
 10
-155.65431781322968
 20
102.49918693812452
 30
0.0
 10
-154.75951891849942
 20
101.77459308025142
 30
0.0
 10
-153.94536250819553
 20
100.96043666994754
 30
0.0
 10
-153.22076865032247
 20
100.0656377752173
 30
0.0
 10
-152.59367614681804
 20
99.1000000000001
 30
0.0
 10
-152.07095555437826
 20
98.0741030738339
 30
0.0
 10
-151.6583339092002
 20
96.99918693812451
 30
0.0
 10
-151.36033198037504
 20
95.88702859899544
 30
0.0
 10
-151.1802147393959
 20
94.74981309594428
 30
0.0
 10
-151.11995558844689
 20
93.6000000000001
 30
0.0
 10
-151.18021473939586
 20
92.45018690405591
 30
0.0
 10
-151.360331980375
 20
91.31297140100475
 30
0.0
 10
-151.65833390920022
 20
90.20081306187568
 30
0.0
 10
-152.07095555437826
 20
89.12589692616628
 30
0.0
 10
-152.59367614681807
 20
88.1000000000001
 30
0.0
 10
-153.22076865032247
 20
87.13436222478289
 30
0.0
 10
-153.94536250819556
 20
86.23956333005266
 30
0.0
 10
-154.75951891849945
 20
85.42540691974875
 30
0.0
 10
-155.65431781322968
 20
84.70081306187568
 30
0.0
 10
-156.61995558844689
 20
84.07372055837128
 30
0.0
 10
-157.6458525146131
 20
83.55099996593148
 30
0.0
 10
-158.72076865032247
 20
83.13837832075342
 30
0.0
 10
-159.83292698945152
 20
82.84037639192823
 30
0.0
 10
-160.9701424925027
 20
82.66025915094909
 30
0.0
 10
-162.11995558844689
 20
82.6000000000001
 30
0.0
 10
-163.2697686843911
 20
82.6602591509491
 30
0.0
 10
-164.40698418744225
 20
82.84037639192823
 30
0.0
 10
-165.5191425265713
 20
83.1383783207534
 30
0.0
 10
-166.5940586622807
 20
83.5509999659315
 30
0.0
 10
-167.61995558844694
 20
84.07372055837129
 30
0.0
 10
-170.16995558844695
 20
79.65699099907066
 30
0.0
 10
-170.5382916734542
 20
78.86709171569898
 30
0.0
 10
-170.76386733458574
 20
78.0252318874053
 30
0.0
 10
-170.83982856952468
 20
77.15699099907063
 30
0.0
 10
-170.76386733458574
 20
76.28875011073598
 30
0.0
 10
-170.53829167345424
 20
75.4468902824423
 30
0.0
 10
-170.1699555884469
 20
74.65699099907064
 30
0.0
 10
-169.6700507851196
 20
73.94305295063793
 30
0.0
 10
-169.0537666179574
 20
73.32676878347576
 30
0.0
 10
-168.3398285695247
 20
72.82686398014849
 30
0.0
 10
-149.20066714588864
 20
61.77686398014845
 30
0.0
 10
-150.70066714588862
 20
59.17878776879512
 30
0.0
 10
-164.0999999999999
 20
66.91489619907745
 30
0.0
 10
-172.53740780807743
 20
62.04355652982126
 30
0.0
 10
-187.53740780807743
 20
88.02431864335463
 30
0.0
 10
-188.5372174147321
 20
89.45219474022
 30
0.0
 10
-189.7697857490565
 20
90.68476307454438
 30
0.0
 10
-191.1976618459219
 20
91.684572681199
 30
0.0
 10
-192.77746041266522
 20
92.42124485121367
 30
0.0
 10
-194.46118006925258
 20
92.87239617347669
 30
0.0
 10
-196.1976618459219
 20
93.02431864335462
 30
0.0
 10
-197.9341436225912
 20
92.8723961734767
 30
0.0
 10
-199.61786327917858
 20
92.42124485121369
 30
0.0
 10
-201.19766184592189
 20
91.68457268119899
 30
0.0
 10
-253.15918607298823
 20
61.684572681199
 30
0.0
 10
-254.58706216985362
 20
60.68476307454439
 30
0.0
 10
-255.819630504178
 20
59.45219474022002
 30
0.0
 10
-256.8194401108326
 20
58.02431864335463
 30
0.0
 10
-257.5561122808473
 20
56.44452007661131
 30
0.0
 10
-258.0072636031103
 20
54.76080042002391
 30
0.0
 10
-258.15918607298823
 20
53.02431864335462
 30
0.0
 10
-258.0072636031103
 20
51.28783686668531
 30
0.0
 10
-257.5561122808473
 20
49.604117210097925
 30
0.0
 10
-256.8194401108323
 20
48.02431864335472
 30
0.0
 10
-241.81944011083272
 20
22.04355652982143
 30
0.0
 10
-250.47969414867714
 20
17.043556529821444
 30
0.0
 10
-251.9075702455424
 20
16.04374692316685
 30
0.0
 10
-253.1401385798668
 20
14.811178588842466
 30
0.0
 10
-254.1399481865214
 20
13.383302491977076
 30
0.0
 10
-254.87662035653608
 20
11.803503925233755
 30
0.0
 10
-255.32777167879908
 20
10.11978426864637
 30
0.0
 10
-255.479694148677
 20
8.383302491977062
 30
0.0
 10
-255.32777167879908
 20
6.6468207153077685
 30
0.0
 10
-254.87662035653608
 20
4.963101058720383
 30
0.0
 10
-254.1399481865214
 20
3.3833024919770764
 30
0.0
 10
-124.13994818652145
 20
-221.783302491977
 30
0.0
 10
-123.14013857986684
 20
-223.2111785888424
 30
0.0
 10
-121.90757024554244
 20
-224.44374692316677
 30
0.0
 10
-120.47969414867705
 20
-225.44355652982136
 30
0.0
 10
-118.89989558193373
 20
-226.18022869983605
 30
0.0
 10
-117.21617592534636
 20
-226.63138002209905
 30
0.0
 10
-115.47969414867707
 20
-226.783302491977
 30
0.0
 10
-113.74321237200776
 20
-226.63138002209908
 30
0.0
 10
-112.05949271542038
 20
-226.18022869983608
 30
0.0
 10
-110.4796941486771
 20
-225.4435565298212
 30
0.0
 10
-101.81944011083273
 20
-220.44355652982125
 30
0.0
 10
-86.81944011083266
 20
-246.42431864335458
 30
0.0
 10
-85.8196305041781
 20
-247.85219474021994
 30
0.0
 10
-84.5870621698537
 20
-249.0847630745443
 30
0.0
 10
-83.1591860729883
 20
-250.08457268119895
 30
0.0
 10
-81.57938750624498
 20
-250.8212448512136
 30
0.0
 10
-79.89566784965761
 20
-251.27239617347664
 30
0.0
 10
-78.15918607298829
 20
-251.42431864335455
 30
0.0
 10
-76.42270429631901
 20
-251.27239617347664
 30
0.0
 10
-74.73898463973163
 20
-250.82124485121363
 30
0.0
 10
-73.1591860729883
 20
-250.08457268119892
 30
0.0
 10
-21.19766184592197
 20
-220.08457268119895
 30
0.0
 10
-19.76978574905658
 20
-219.08476307454433
 30
0.0
 10
-18.537217414732197
 20
-217.85219474021994
 30
0.0
 10
-17.53740780807759
 20
-216.42431864335458
 30
0.0
 10
-16.800735638062903
 20
-214.84452007661125
 30
0.0
 10
-16.349584315799902
 20
-213.16080042002386
 30
0.0
 10
-16.197661845921985
 20
-211.42431864335455
 30
0.0
 10
-16.349584315799902
 20
-209.68783686668525
 30
0.0
 10
-16.80073563806289
 20
-208.00411721009786
 30
0.0
 10
-17.53740780807813
 20
-206.42431864335487
 30
0.0
 10
-32.53740780807756
 20
-180.4435565298213
 30
0.0
 10
-24.100000000000023
 20
-175.5722168605651
 30
0.0
 10
-24.1
 20
-160.10000000000002
 30
0.0
 10
-21.1
 20
-160.10000000000002
 30
0.0
 10
-21.1
 20
-182.20000000000002
 30
0.0
 10
-21.024038765061043
 20
-183.06824088833466
 30
0.0
 10
-20.798463103929542
 20
-183.91010071662836
 30
0.0
 10
-20.430127018922192
 20
-184.70000000000002
 30
0.0
 10
-19.930222215594892
 20
-185.41393804843273
 30
0.0
 10
-19.3139380484327
 20
-186.0302222155949
 30
0.0
 10
-18.600000000000005
 20
-186.5301270189222
 30
0.0
 10
-17.810100716628348
 20
-186.89846310392954
 30
0.0
 10
-16.968240888334652
 20
-187.12403876506104
 30
0.0
 10
-16.1
 20
-187.20000000000002
 30
0.0
 10
-11
 20
-187.20000000000002
 30
0.0
 10
-10.939740849051008
 20
-186.05018690405583
 30
0.0
 10
-10.759623608071863
 20
-184.91297140100465
 30
0.0
 10
-10.461621679246688
 20
-183.8008130618756
 30
0.0
 10
-10.04900003406861
 20
-182.72589692616623
 30
0.0
 10
-9.526279441628827
 20
-181.70000000000002
 30
0.0
 10
-8.899186938124421
 20
-180.7343622247828
 30
0.0
 10
-8.174593080251334
 20
-179.83956333005258
 30
0.0
 10
-7.360436669947437
 20
-179.0254069197487
 30
0.0
 10
-6.465637775217203
 20
-178.3008130618756
 30
0.0
 10
-5.499999999999997
 20
-177.6737205583712
 30
0.0
 10
-4.474103073833801
 20
-177.15099996593142
 30
0.0
 10
-3.3991869381244206
 20
-176.73837832075333
 30
0.0
 10
-2.2870285989953527
 20
-176.44037639192817
 30
0.0
 10
-1.1498130959441866
 20
-176.260259150949
 30
0.0
 10
3.116024148777652e-15
 20
-176.20000000000002
 30
0.0
 10
1.1498130959441881
 20
-176.26025915094903
 30
0.0
 10
2.2870285989953514
 20
-176.44037639192817
 30
0.0
 10
3.399186938124422
 20
-176.73837832075333
 30
0.0
 10
4.474103073833804
 20
-177.15099996593142
 30
0.0
 10
5.500000000000001
 20
-177.6737205583712
 30
0.0
 10
6.465637775217204
 20
-178.3008130618756
 30
0.0
 10
7.360436669947441
 20
-179.0254069197487
 30
0.0
 10
8.174593080251336
 20
-179.83956333005258
 30
0.0
 10
8.899186938124423
 20
-180.7343622247828
 30
0.0
 10
9.526279441628827
 20
-181.70000000000002
 30
0.0
 10
10.049000034068609
 20
-182.72589692616623
 30
0.0
 10
10.461621679246688
 20
-183.8008130618756
 30
0.0
 10
10.759623608071863
 20
-184.91297140100465
 30
0.0
 10
10.939740849051006
 20
-186.05018690405583
 30
0.0
 10
11.000000000000004
 20
-187.20000000000002
 30
0.0
 10
16.1
 20
-187.20000000000002
 30
0.0
 10
16.968240888334652
 20
-187.12403876506104
 30
0.0
 10
17.81010071662834
 20
-186.89846310392957
 30
0.0
 10
18.6
 20
-186.5301270189222
 30
0.0
 10
19.313938048432696
 20
-186.0302222155949
 30
0.0
 10
19.930222215594892
 20
-185.41393804843273
 30
0.0
 10
20.430127018922192
 20
-184.70000000000002
 30
0.0
 10
20.798463103929542
 20
-183.91010071662836
 30
0.0
 10
21.024038765061043
 20
-183.06824088833469
 30
0.0
 10
21.1
 20
-182.20000000000002
 30
0.0
 10
21.1
 20
-160.10000000000002
 30
0.0
 10
24.1
 20
-160.10000000000002
 30
0.0
 10
24.09999999999998
 20
-175.57221686056533
 30
0.0
 10
32.53740780807745
 20
-180.44355652982148
 30
0.0
 10
17.537407808077404
 20
-206.42431864335464
 30
0.0
 10
16.800735638062733
 20
-208.0041172100979
 30
0.0
 10
16.349584315799746
 20
-209.68783686668527
 30
0.0
 10
16.19766184592183
 20
-211.42431864335458
 30
0.0
 10
16.34958431579973
 20
-213.16080042002386
 30
0.0
 10
16.800735638062733
 20
-214.84452007661127
 30
0.0
 10
17.53740780807742
 20
-216.42431864335458
 30
0.0
 10
18.537217414732027
 20
-217.85219474021994
 30
0.0
 10
19.76978574905641
 20
-219.08476307454436
 30
0.0
 10
21.1976618459218
 20
-220.08457268119895
 30
0.0
 10
73.15918607298812
 20
-250.084572681199
 30
0.0
 10
74.73898463973141
 20
-250.8212448512137
 30
0.0
 10
76.4227042963188
 20
-251.2723961734767
 30
0.0
 10
78.1591860729881
 20
-251.42431864335464
 30
0.0
 10
79.8956678496574
 20
-251.2723961734767
 30
0.0
 10
81.5793875062448
 20
-250.8212448512137
 30
0.0
 10
83.15918607298813
 20
-250.084572681199
 30
0.0
 10
84.5870621698535
 20
-249.08476307454438
 30
0.0
 10
85.8196305041779
 20
-247.85219474022
 30
0.0
 10
86.81944011083141
 20
-246.4243186433541
 30
0.0
 10
101.81944011083257
 20
-220.44355652982148
 30
0.0
 10
110.47969414867697
 20
-225.44355652982148
 30
0.0
 10
112.05949271542023
 20
-226.18022869983616
 30
0.0
 10
113.74321237200762
 20
-226.63138002209917
 30
0.0
 10
115.4796941486769
 20
-226.7833024919771
 30
0.0
 10
117.21617592534622
 20
-226.63138002209917
 30
0.0
 10
118.89989558193359
 20
-226.18022869983616
 30
0.0
 10
120.47969414867691
 20
-225.44355652982148
 30
0.0
 10
121.9075702455423
 20
-224.44374692316688
 30
0.0
 10
123.14013857986667
 20
-223.21117858884247
 30
0.0
 10
124.13994818652128
 20
-221.7833024919771
 30
0.0
 10
254.1399481865214
 20
3.3833024919768917
 30
0.0
 10
254.87662035653608
 20
4.9631010587201985
 30
0.0
 10
255.3277716787991
 20
6.646820715307584
 30
0.0
 10
255.47969414867703
 20
8.383302491976877
 30
0.0
 10
255.32777167879908
 20
10.119784268646185
 30
0.0
 10
254.8766203565361
 20
11.80350392523357
 30
0.0
 10
254.1399481865214
 20
13.383302491976892
 30
0.0
 10
253.1401385798668
 20
14.811178588842267
 30
0.0
 10
251.90757024554244
 20
16.043746923166665
 30
0.0
 10
250.47969414867708
 20
17.043556529821302
 30
0.0
 10
241.81944011083266
 20
22.043556529821316
 30
0.0
 10
256.8194401108328
 20
48.02431864335452
 30
0.0
 10
257.55611228084734
 20
49.60411721009774
 30
0.0
 10
258.00726360311035
 20
51.287836866685126
 30
0.0
 10
258.1591860729883
 20
53.024318643354434
 30
0.0
 10
258.00726360311035
 20
54.76080042002373
 30
0.0
 10
257.55611228084734
 20
56.44452007661113
 30
0.0
 10
256.81944011083266
 20
58.02431864335445
 30
0.0
 10
255.81963050417806
 20
59.45219474021981
 30
0.0
 10
254.58706216985365
 20
60.68476307454421
 30
0.0
 10
253.1591860729883
 20
61.684572681198816
 30
0.0
 10
201.19766184592197
 20
91.68457268119884
 30
0.0
 10
199.61786327917866
 20
92.42124485121354
 30
0.0
 10
197.93414362259128
 20
92.87239617347653
 30
0.0
 10
196.19766184592197
 20
93.02431864335448
 30
0.0
 10
194.4611800692527
 20
92.87239617347655
 30
0.0
 10
192.77746041266528
 20
92.42124485121353
 30
0.0
 10
191.19766184592197
 20
91.68457268119886
 30
0.0
 10
189.76978574905658
 20
90.68476307454424
 30
0.0
 10
188.5372174147322
 20
89.45219474021985
 30
0.0
 10
187.53740780807777
 20
88.02431864335438
 30
0.0
 10
172.53740780807757
 20
62.04355652982133
 30
0.0
 10
164.1
 20
66.91489619907759
 30
0.0
 10
150.70066714588864
 20
59.17878776879499
 30
0.0
 10
149.20066714588881
 20
61.77686398014842
 30
0.0
 10
168.3398285695247
 20
72.82686398014829
 30
0.0
 10
169.05376661795745
 20
73.3267687834756
 30
0.0
 10
169.67005078511963
 20
73.9430529506378
 30
0.0
 10
170.16995558844692
 20
74.6569909990705
 30
0.0
 10
170.5382916734543
 20
75.44689028244215
 30
0.0
 10
170.7638673345858
 20
76.28875011073585
 30
0.0
 10
170.83982856952474
 20
77.1569909990705
 30
0.0
 10
170.76386733458577
 20
78.02523188740514
 30
0.0
 10
170.5382916734543
 20
78.86709171569883
 30
0.0
 10
170.169955588447
 20
79.65699099907046
 30
0.0
 10
167.61995558844697
 20
84.07372055837115
 30
0.0
 10
166.59405866228076
 20
83.55099996593135
 30
0.0
 10
165.51914252657136
 20
83.13837832075328
 30
0.0
 10
164.40698418744228
 20
82.8403763919281
 30
0.0
 10
163.26976868439115
 20
82.66025915094896
 30
0.0
 10
162.11995558844694
 20
82.59999999999997
 30
0.0
 10
160.97014249250276
 20
82.66025915094896
 30
0.0
 10
159.83292698945158
 20
82.8403763919281
 30
0.0
 10
158.72076865032253
 20
83.13837832075329
 30
0.0
 10
157.64585251461315
 20
83.55099996593135
 30
0.0
 10
156.61995558844694
 20
84.07372055837115
 30
0.0
 10
155.65431781322977
 20
84.70081306187555
 30
0.0
 10
154.7595189184995
 20
85.42540691974862
 30
0.0
 10
153.94536250819561
 20
86.23956333005253
 30
0.0
 10
153.2207686503225
 20
87.13436222478276
 30
0.0
 10
152.59367614681813
 20
88.09999999999997
 30
0.0
 10
152.07095555437834
 20
89.12589692616618
 30
0.0
 10
151.65833390920028
 20
90.20081306187555
 30
0.0
 10
151.36033198037507
 20
91.31297140100462
 30
0.0
 10
151.18021473939595
 20
92.45018690405578
 30
0.0
 10
151.11995558844694
 20
93.59999999999997
 30
0.0
 10
151.18021473939595
 20
94.74981309594416
 30
0.0
 10
151.3603319803751
 20
95.88702859899533
 30
0.0
 10
151.65833390920025
 20
96.9991869381244
 30
0.0
 10
152.07095555437832
 20
98.07410307383377
 30
0.0
 10
152.5936761468181
 20
99.09999999999997
 30
0.0
 10
153.22076865032253
 20
100.06563777521717
 30
0.0
 10
153.94536250819561
 20
100.96043666994741
 30
0.0
 10
154.75951891849948
 20
101.7745930802513
 30
0.0
 10
155.65431781322974
 20
102.4991869381244
 30
0.0
 10
156.6199555884469
 20
103.12627944162878
 30
0.0
 10
154.0699555884469
 20
107.54300900092942
 30
0.0
 10
153.57005078511963
 20
108.25694704936213
 30
0.0
 10
152.95376661795748
 20
108.87323121652432
 30
0.0
 10
152.23982856952472
 20
109.37313601985161
 30
0.0
 10
151.4499292861531
 20
109.74147210485897
 30
0.0
 10
150.60806945785941
 20
109.96704776599049
 30
0.0
 10
149.73982856952475
 20
110.04300900092943
 30
0.0
 10
148.8715876811901
 20
109.96704776599047
 30
0.0
 10
148.0297278528964
 20
109.74147210485899
 30
0.0
 10
147.23982856952475
 20
109.37313601985161
 30
0.0
 10
128.10066714588868
 20
98.32313601985163
 30
0.0
 10
126.60066714588866
 20
100.92121223120495
 30
0.0
 10
140
 20
108.6573206614875
 30
0.0
 10
140
 20
118.4
 30
0.0
 10
170
 20
118.4
 30
0.0
 10
171.7364817766693
 20
118.55192246987792
 30
0.0
 10
173.4202014332567
 20
119.00307379214092
 30
0.0
 10
175
 20
119.73974596215562
 30
0.0
 10
176.4278760968654
 20
120.73955556881023
 30
0.0
 10
177.66044443118977
 20
121.97212390313462
 30
0.0
 10
178.6602540378444
 20
123.4
 30
0.0
 10
179.39692620785908
 20
124.97979856674331
 30
0.0
 10
179.84807753012208
 20
126.6635182233307
 30
0.0
 10
180
 20
128.4
 30
0.0
 10
180
 20
188.4
 30
0.0
 10
179.84807753012208
 20
190.1364817766693
 30
0.0
 10
179.39692620785908
 20
191.8202014332567
 30
0.0
 10
178.6602540378444
 20
193.4
 30
0.0
 10
177.66044443118977
 20
194.8278760968654
 30
0.0
 10
176.4278760968654
 20
196.06044443118978
 30
0.0
 10
175
 20
197.0602540378444
 30
0.0
 10
173.4202014332567
 20
197.7969262078591
 30
0.0
 10
171.7364817766693
 20
198.2480775301221
 30
0.0
 10
170
 20
198.4
 30
0.0
 10
140
 20
198.4
 30
0.0
 10
140
 20
208.4
 30
0.0
 10
139.84807753012208
 20
210.1364817766693
 30
0.0
 10
139.39692620785908
 20
211.8202014332567
 30
0.0
 10
138.6602540378444
 20
213.4
 30
0.0
 10
137.66044443118977
 20
214.8278760968654
 30
0.0
 10
136.4278760968654
 20
216.06044443118978
 30
0.0
 10
135
 20
217.0602540378444
 30
0.0
 10
133.4202014332567
 20
217.7969262078591
 30
0.0
 10
131.7364817766693
 20
218.2480775301221
 30
0.0
 10
130
 20
218.4
 30
0.0
 10
-130
 20
218.4
 30
0.0
 10
-131.7364817766693
 20
218.2480775301221
 30
0.0
 10
-133.4202014332567
 20
217.7969262078591
 30
0.0
 10
-135
 20
217.0602540378444
 30
0.0
 10
-136.4278760968654
 20
216.06044443118978
 30
0.0
 10
-137.66044443118977
 20
214.8278760968654
 30
0.0
 10
-138.6602540378444
 20
213.4
 30
0.0
 10
-139.39692620785908
 20
211.8202014332567
 30
0.0
 10
-139.84807753012208
 20
210.1364817766693
 30
0.0
 10
-140
 20
208.4
 30
0.0
 10
-140
 20
198.4
 30
0.0
 10
-170
 20
198.4
 30
0.0
 10
-171.7364817766693
 20
198.2480775301221
 30
0.0
 10
-173.4202014332567
 20
197.7969262078591
 30
0.0
 10
-175
 20
197.0602540378444
 30
0.0
 10
-176.4278760968654
 20
196.06044443118978
 30
0.0
 10
-177.66044443118977
 20
194.8278760968654
 30
0.0
 10
-178.6602540378444
 20
193.4
 30
0.0
 10
-179.39692620785908
 20
191.8202014332567
 30
0.0
 10
-179.84807753012208
 20
190.1364817766693
 30
0.0
 10
-180
 20
188.4
 30
0.0
 10
-180
 20
128.4
 30
0.0
 10
-179.84807753012208
 20
126.6635182233307
 30
0.0
 10
-179.39692620785908
 20
124.97979856674331
 30
0.0
 10
-178.6602540378444
 20
123.4
 30
0.0
 10
-177.66044443118977
 20
121.97212390313462
 30
0.0
 10
-176.4278760968654
 20
120.73955556881023
 30
0.0
 10
-175
 20
119.73974596215562
 30
0.0
 10
-173.4202014332567
 20
119.00307379214092
 30
0.0
 10
-171.7364817766693
 20
118.55192246987792
 30
0.0
 10
-170
 20
118.4
 30
0.0
 10
-140
 20
118.4
 30
0.0
  0
LWPOLYLINE
  8
OpenJsCad
  90
37
  70
1
 10
-14.022788370481688
 20
-171.43952773349963
 30
0.0
 10
-14
 20
-171.70000000000002
 30
0.0
 10
-14.022788370481688
 20
-171.9604722665004
 30
0.0
 10
-14.090461068821137
 20
-172.21303021498852
 30
0.0
 10
-14.200961894323342
 20
-172.45000000000002
 30
0.0
 10
-14.350933335321534
 20
-172.66418141452982
 30
0.0
 10
-14.53581858547019
 20
-172.84906666467847
 30
0.0
 10
-14.750000000000002
 20
-172.99903810567668
 30
0.0
 10
-14.986969785011496
 20
-173.1095389311789
 30
0.0
 10
-15.239527733499605
 20
-173.17721162951833
 30
0.0
 10
-15.5
 20
-173.20000000000002
 30
0.0
 10
-15.760472266500395
 20
-173.17721162951833
 30
0.0
 10
-16.013030214988504
 20
-173.1095389311789
 30
0.0
 10
-16.25
 20
-172.99903810567668
 30
0.0
 10
-16.464181414529808
 20
-172.84906666467847
 30
0.0
 10
-16.649066664678468
 20
-172.66418141452982
 30
0.0
 10
-16.799038105676658
 20
-172.45000000000002
 30
0.0
 10
-16.90953893117886
 20
-172.21303021498852
 30
0.0
 10
-16.97721162951831
 20
-171.9604722665004
 30
0.0
 10
-17
 20
-171.70000000000002
 30
0.0
 10
-16.97721162951831
 20
-171.43952773349963
 30
0.0
 10
-16.90953893117886
 20
-171.1869697850115
 30
0.0
 10
-16.799038105676658
 20
-170.95000000000002
 30
0.0
 10
-16.649066664678468
 20
-170.7358185854702
 30
0.0
 10
-16.464181414529808
 20
-170.55093333532156
 30
0.0
 10
-16.25
 20
-170.40096189432336
 30
0.0
 10
-16.013030214988504
 20
-170.29046106882114
 30
0.0
 10
-15.760472266500395
 20
-170.2227883704817
 30
0.0
 10
-15.5
 20
-170.20000000000002
 30
0.0
 10
-15.239527733499605
 20
-170.2227883704817
 30
0.0
 10
-14.986969785011496
 20
-170.29046106882114
 30
0.0
 10
-14.75
 20
-170.40096189432336
 30
0.0
 10
-14.53581858547019
 20
-170.55093333532156
 30
0.0
 10
-14.350933335321534
 20
-170.7358185854702
 30
0.0
 10
-14.200961894323342
 20
-170.95000000000002
 30
0.0
 10
-14.090461068821137
 20
-171.1869697850115
 30
0.0
 10
-14.022788370481688
 20
-171.43952773349963
 30
0.0
  0
LWPOLYLINE
  8
OpenJsCad
  90
37
  70
1
 10
16.97721162951831
 20
-171.43952773349963
 30
0.0
 10
17
 20
-171.70000000000002
 30
0.0
 10
16.97721162951831
 20
-171.9604722665004
 30
0.0
 10
16.90953893117886
 20
-172.21303021498852
 30
0.0
 10
16.799038105676658
 20
-172.45000000000002
 30
0.0
 10
16.649066664678468
 20
-172.66418141452982
 30
0.0
 10
16.464181414529808
 20
-172.84906666467847
 30
0.0
 10
16.25
 20
-172.99903810567668
 30
0.0
 10
16.013030214988504
 20
-173.1095389311789
 30
0.0
 10
15.760472266500395
 20
-173.17721162951833
 30
0.0
 10
15.5
 20
-173.20000000000002
 30
0.0
 10
15.239527733499605
 20
-173.17721162951833
 30
0.0
 10
14.986969785011498
 20
-173.1095389311789
 30
0.0
 10
14.75
 20
-172.99903810567668
 30
0.0
 10
14.53581858547019
 20
-172.84906666467847
 30
0.0
 10
14.350933335321532
 20
-172.66418141452982
 30
0.0
 10
14.200961894323342
 20
-172.45000000000002
 30
0.0
 10
14.090461068821137
 20
-172.21303021498852
 30
0.0
 10
14.022788370481688
 20
-171.9604722665004
 30
0.0
 10
14
 20
-171.70000000000002
 30
0.0
 10
14.022788370481688
 20
-171.43952773349963
 30
0.0
 10
14.090461068821138
 20
-171.1869697850115
 30
0.0
 10
14.200961894323342
 20
-170.95000000000002
 30
0.0
 10
14.350933335321534
 20
-170.7358185854702
 30
0.0
 10
14.53581858547019
 20
-170.55093333532156
 30
0.0
 10
14.75
 20
-170.40096189432336
 30
0.0
 10
14.986969785011498
 20
-170.29046106882114
 30
0.0
 10
15.239527733499605
 20
-170.2227883704817
 30
0.0
 10
15.5
 20
-170.20000000000002
 30
0.0
 10
15.760472266500395
 20
-170.2227883704817
 30
0.0
 10
16.013030214988504
 20
-170.29046106882114
 30
0.0
 10
16.25
 20
-170.40096189432336
 30
0.0
 10
16.464181414529808
 20
-170.55093333532156
 30
0.0
 10
16.649066664678468
 20
-170.7358185854702
 30
0.0
 10
16.799038105676658
 20
-170.95000000000002
 30
0.0
 10
16.90953893117886
 20
-171.1869697850115
 30
0.0
 10
16.97721162951831
 20
-171.43952773349963
 30
0.0
  0
LWPOLYLINE
  8
OpenJsCad
  90
37
  70
1
 10
155.48238041525835
 20
73.57567290601963
 30
0.0
 10
155.69656182978815
 20
73.72564434701782
 30
0.0
 10
155.93353161479962
 20
73.83614517252002
 30
0.0
 10
156.18608956328774
 20
73.90381787085948
 30
0.0
 10
156.44656182978812
 20
73.92660624134116
 30
0.0
 10
156.70703409628854
 20
73.90381787085947
 30
0.0
 10
156.95959204477663
 20
73.83614517252002
 30
0.0
 10
157.19656182978815
 20
73.72564434701782
 30
0.0
 10
157.41074324431796
 20
73.57567290601963
 30
0.0
 10
157.59562849446658
 20
73.39078765587098
 30
0.0
 10
157.7455999354648
 20
73.17660624134116
 30
0.0
 10
157.856100760967
 20
72.93963645632967
 30
0.0
 10
157.92377345930646
 20
72.68707850784156
 30
0.0
 10
157.94656182978815
 20
72.42660624134116
 30
0.0
 10
157.92377345930643
 20
72.16613397484076
 30
0.0
 10
157.856100760967
 20
71.91357602635266
 30
0.0
 10
157.74559993546478
 20
71.67660624134116
 30
0.0
 10
157.5956284944666
 20
71.46242482681136
 30
0.0
 10
157.41074324431793
 20
71.27753957666269
 30
0.0
 10
157.19656182978815
 20
71.1275681356645
 30
0.0
 10
156.95959204477666
 20
71.0170673101623
 30
0.0
 10
156.70703409628854
 20
70.94939461182285
 30
0.0
 10
156.44656182978812
 20
70.92660624134116
 30
0.0
 10
156.18608956328774
 20
70.94939461182285
 30
0.0
 10
155.93353161479962
 20
71.0170673101623
 30
0.0
 10
155.69656182978815
 20
71.1275681356645
 30
0.0
 10
155.48238041525832
 20
71.27753957666269
 30
0.0
 10
155.2974951651097
 20
71.46242482681136
 30
0.0
 10
155.1475237241115
 20
71.67660624134116
 30
0.0
 10
155.03702289860928
 20
71.91357602635267
 30
0.0
 10
154.96935020026982
 20
72.16613397484076
 30
0.0
 10
154.94656182978815
 20
72.42660624134116
 30
0.0
 10
154.96935020026982
 20
72.68707850784156
 30
0.0
 10
155.03702289860928
 20
72.93963645632967
 30
0.0
 10
155.14752372411147
 20
73.17660624134116
 30
0.0
 10
155.29749516510967
 20
73.39078765587098
 30
0.0
 10
155.48238041525835
 20
73.57567290601963
 30
0.0
  0
LWPOLYLINE
  8
OpenJsCad
  90
37
  70
1
 10
139.98238041525835
 20
100.42246042333724
 30
0.0
 10
140.19656182978815
 20
100.57243186433543
 30
0.0
 10
140.43353161479962
 20
100.68293268983763
 30
0.0
 10
140.68608956328774
 20
100.75060538817708
 30
0.0
 10
140.94656182978815
 20
100.77339375865877
 30
0.0
 10
141.20703409628854
 20
100.75060538817708
 30
0.0
 10
141.45959204477666
 20
100.68293268983763
 30
0.0
 10
141.69656182978815
 20
100.57243186433543
 30
0.0
 10
141.91074324431798
 20
100.42246042333724
 30
0.0
 10
142.09562849446658
 20
100.23757517318857
 30
0.0
 10
142.2455999354648
 20
100.02339375865877
 30
0.0
 10
142.356100760967
 20
99.78642397364726
 30
0.0
 10
142.4237734593065
 20
99.53386602515917
 30
0.0
 10
142.44656182978815
 20
99.27339375865877
 30
0.0
 10
142.42377345930646
 20
99.01292149215837
 30
0.0
 10
142.356100760967
 20
98.76036354367025
 30
0.0
 10
142.2455999354648
 20
98.52339375865877
 30
0.0
 10
142.0956284944666
 20
98.30921234412895
 30
0.0
 10
141.91074324431793
 20
98.1243270939803
 30
0.0
 10
141.69656182978815
 20
97.97435565298211
 30
0.0
 10
141.45959204477666
 20
97.86385482747991
 30
0.0
 10
141.20703409628854
 20
97.79618212914045
 30
0.0
 10
140.94656182978815
 20
97.77339375865877
 30
0.0
 10
140.68608956328774
 20
97.79618212914046
 30
0.0
 10
140.43353161479965
 20
97.86385482747991
 30
0.0
 10
140.19656182978815
 20
97.97435565298211
 30
0.0
 10
139.98238041525835
 20
98.1243270939803
 30
0.0
 10
139.7974951651097
 20
98.30921234412895
 30
0.0
 10
139.6475237241115
 20
98.52339375865877
 30
0.0
 10
139.53702289860928
 20
98.76036354367027
 30
0.0
 10
139.46935020026984
 20
99.01292149215837
 30
0.0
 10
139.44656182978815
 20
99.27339375865877
 30
0.0
 10
139.46935020026984
 20
99.53386602515917
 30
0.0
 10
139.53702289860928
 20
99.78642397364727
 30
0.0
 10
139.6475237241115
 20
100.02339375865877
 30
0.0
 10
139.79749516510967
 20
100.23757517318857
 30
0.0
 10
139.98238041525835
 20
100.42246042333724
 30
0.0
  0
LWPOLYLINE
  8
OpenJsCad
  90
37
  70
1
 10
-141.4595920447766
 20
97.86385482748001
 30
0.0
 10
-141.6965618297881
 20
97.97435565298221
 30
0.0
 10
-141.91074324431787
 20
98.1243270939804
 30
0.0
 10
-142.09562849446655
 20
98.30921234412907
 30
0.0
 10
-142.24559993546472
 20
98.52339375865887
 30
0.0
 10
-142.35610076096694
 20
98.76036354367037
 30
0.0
 10
-142.42377345930637
 20
99.01292149215847
 30
0.0
 10
-142.4465618297881
 20
99.27339375865887
 30
0.0
 10
-142.4237734593064
 20
99.53386602515927
 30
0.0
 10
-142.3561007609669
 20
99.78642397364737
 30
0.0
 10
-142.24559993546475
 20
100.02339375865887
 30
0.0
 10
-142.09562849446652
 20
100.23757517318867
 30
0.0
 10
-141.9107432443179
 20
100.42246042333734
 30
0.0
 10
-141.6965618297881
 20
100.57243186433553
 30
0.0
 10
-141.45959204477657
 20
100.68293268983773
 30
0.0
 10
-141.20703409628848
 20
100.75060538817718
 30
0.0
 10
-140.94656182978807
 20
100.77339375865887
 30
0.0
 10
-140.68608956328768
 20
100.75060538817718
 30
0.0
 10
-140.43353161479956
 20
100.68293268983773
 30
0.0
 10
-140.1965618297881
 20
100.57243186433553
 30
0.0
 10
-139.9823804152583
 20
100.42246042333734
 30
0.0
 10
-139.7974951651096
 20
100.23757517318867
 30
0.0
 10
-139.6475237241114
 20
100.02339375865887
 30
0.0
 10
-139.53702289860922
 20
99.78642397364737
 30
0.0
 10
-139.46935020026976
 20
99.53386602515927
 30
0.0
 10
-139.4465618297881
 20
99.27339375865887
 30
0.0
 10
-139.46935020026976
 20
99.01292149215847
 30
0.0
 10
-139.53702289860922
 20
98.76036354367037
 30
0.0
 10
-139.64752372411144
 20
98.52339375865887
 30
0.0
 10
-139.7974951651096
 20
98.30921234412907
 30
0.0
 10
-139.98238041525826
 20
98.1243270939804
 30
0.0
 10
-140.1965618297881
 20
97.97435565298221
 30
0.0
 10
-140.43353161479956
 20
97.86385482748001
 30
0.0
 10
-140.68608956328768
 20
97.79618212914056
 30
0.0
 10
-140.94656182978807
 20
97.77339375865887
 30
0.0
 10
-141.20703409628848
 20
97.79618212914056
 30
0.0
 10
-141.4595920447766
 20
97.86385482748001
 30
0.0
  0
LWPOLYLINE
  8
OpenJsCad
  90
37
  70
1
 10
-156.9595920447766
 20
71.01706731016243
 30
0.0
 10
-157.1965618297881
 20
71.12756813566463
 30
0.0
 10
-157.41074324431787
 20
71.27753957666282
 30
0.0
 10
-157.59562849446655
 20
71.46242482681149
 30
0.0
 10
-157.74559993546475
 20
71.67660624134129
 30
0.0
 10
-157.85610076096694
 20
71.91357602635279
 30
0.0
 10
-157.9237734593064
 20
72.16613397484089
 30
0.0
 10
-157.9465618297881
 20
72.42660624134129
 30
0.0
 10
-157.92377345930643
 20
72.68707850784169
 30
0.0
 10
-157.85610076096694
 20
72.9396364563298
 30
0.0
 10
-157.74559993546475
 20
73.17660624134129
 30
0.0
 10
-157.59562849446655
 20
73.3907876558711
 30
0.0
 10
-157.41074324431793
 20
73.57567290601976
 30
0.0
 10
-157.1965618297881
 20
73.72564434701795
 30
0.0
 10
-156.9595920447766
 20
73.83614517252015
 30
0.0
 10
-156.70703409628848
 20
73.9038178708596
 30
0.0
 10
-156.4465618297881
 20
73.92660624134129
 30
0.0
 10
-156.18608956328768
 20
73.9038178708596
 30
0.0
 10
-155.93353161479956
 20
73.83614517252015
 30
0.0
 10
-155.6965618297881
 20
73.72564434701795
 30
0.0
 10
-155.4823804152583
 20
73.57567290601976
 30
0.0
 10
-155.2974951651096
 20
73.3907876558711
 30
0.0
 10
-155.14752372411144
 20
73.17660624134129
 30
0.0
 10
-155.03702289860922
 20
72.9396364563298
 30
0.0
 10
-154.9693502002698
 20
72.68707850784169
 30
0.0
 10
-154.9465618297881
 20
72.42660624134129
 30
0.0
 10
-154.9693502002698
 20
72.16613397484089
 30
0.0
 10
-155.03702289860925
 20
71.91357602635279
 30
0.0
 10
-155.14752372411144
 20
71.67660624134129
 30
0.0
 10
-155.29749516510964
 20
71.46242482681149
 30
0.0
 10
-155.4823804152583
 20
71.27753957666282
 30
0.0
 10
-155.6965618297881
 20
71.12756813566463
 30
0.0
 10
-155.9335316147996
 20
71.01706731016243
 30
0.0
 10
-156.18608956328768
 20
70.94939461182298
 30
0.0
 10
-156.4465618297881
 20
70.92660624134129
 30
0.0
 10
-156.70703409628848
 20
70.94939461182298
 30
0.0
 10
-156.9595920447766
 20
71.01706731016243
 30
0.0
  0
LWPOLYLINE
  8
OpenJsCad
  90
37
  70
1
 10
-167.5379806174695
 20
128.83412044416733
 30
0.0
 10
-167.5
 20
128.4
 30
0.0
 10
-167.5379806174695
 20
127.96587955583269
 30
0.0
 10
-167.65076844803522
 20
127.54494964168583
 30
0.0
 10
-167.8349364905389
 20
127.15
 30
0.0
 10
-168.08488889220254
 20
126.79303097578367
 30
0.0
 10
-168.39303097578366
 20
126.48488889220256
 30
0.0
 10
-168.75
 20
126.2349364905389
 30
0.0
 10
-169.14494964168583
 20
126.05076844803523
 30
0.0
 10
-169.56587955583268
 20
125.93798061746949
 30
0.0
 10
-170
 20
125.9
 30
0.0
 10
-170.43412044416732
 20
125.93798061746949
 30
0.0
 10
-170.85505035831417
 20
126.05076844803523
 30
0.0
 10
-171.25
 20
126.2349364905389
 30
0.0
 10
-171.60696902421634
 20
126.48488889220256
 30
0.0
 10
-171.91511110779746
 20
126.79303097578367
 30
0.0
 10
-172.1650635094611
 20
127.15
 30
0.0
 10
-172.34923155196478
 20
127.54494964168583
 30
0.0
 10
-172.4620193825305
 20
127.96587955583269
 30
0.0
 10
-172.5
 20
128.4
 30
0.0
 10
-172.4620193825305
 20
128.83412044416733
 30
0.0
 10
-172.34923155196478
 20
129.25505035831418
 30
0.0
 10
-172.1650635094611
 20
129.65
 30
0.0
 10
-171.91511110779746
 20
130.00696902421635
 30
0.0
 10
-171.60696902421634
 20
130.31511110779746
 30
0.0
 10
-171.25
 20
130.5650635094611
 30
0.0
 10
-170.85505035831417
 20
130.74923155196478
 30
0.0
 10
-170.43412044416732
 20
130.86201938253052
 30
0.0
 10
-170
 20
130.9
 30
0.0
 10
-169.56587955583268
 20
130.86201938253052
 30
0.0
 10
-169.14494964168583
 20
130.74923155196478
 30
0.0
 10
-168.75
 20
130.5650635094611
 30
0.0
 10
-168.39303097578366
 20
130.31511110779746
 30
0.0
 10
-168.08488889220254
 20
130.00696902421635
 30
0.0
 10
-167.8349364905389
 20
129.65
 30
0.0
 10
-167.65076844803522
 20
129.25505035831418
 30
0.0
 10
-167.5379806174695
 20
128.83412044416733
 30
0.0
  0
LWPOLYLINE
  8
OpenJsCad
  90
37
  70
1
 10
-167.5379806174695
 20
188.83412044416733
 30
0.0
 10
-167.5
 20
188.4
 30
0.0
 10
-167.5379806174695
 20
187.9658795558327
 30
0.0
 10
-167.65076844803522
 20
187.54494964168583
 30
0.0
 10
-167.8349364905389
 20
187.15
 30
0.0
 10
-168.08488889220254
 20
186.79303097578367
 30
0.0
 10
-168.39303097578366
 20
186.48488889220255
 30
0.0
 10
-168.75
 20
186.2349364905389
 30
0.0
 10
-169.14494964168583
 20
186.05076844803523
 30
0.0
 10
-169.56587955583268
 20
185.9379806174695
 30
0.0
 10
-170
 20
185.9
 30
0.0
 10
-170.43412044416732
 20
185.9379806174695
 30
0.0
 10
-170.85505035831417
 20
186.05076844803523
 30
0.0
 10
-171.25
 20
186.2349364905389
 30
0.0
 10
-171.60696902421634
 20
186.48488889220255
 30
0.0
 10
-171.91511110779746
 20
186.79303097578367
 30
0.0
 10
-172.1650635094611
 20
187.15
 30
0.0
 10
-172.34923155196478
 20
187.54494964168583
 30
0.0
 10
-172.4620193825305
 20
187.9658795558327
 30
0.0
 10
-172.5
 20
188.4
 30
0.0
 10
-172.4620193825305
 20
188.83412044416733
 30
0.0
 10
-172.34923155196478
 20
189.25505035831418
 30
0.0
 10
-172.1650635094611
 20
189.65
 30
0.0
 10
-171.91511110779746
 20
190.00696902421635
 30
0.0
 10
-171.60696902421634
 20
190.31511110779746
 30
0.0
 10
-171.25
 20
190.5650635094611
 30
0.0
 10
-170.85505035831417
 20
190.74923155196478
 30
0.0
 10
-170.43412044416732
 20
190.86201938253052
 30
0.0
 10
-170
 20
190.9
 30
0.0
 10
-169.56587955583268
 20
190.86201938253052
 30
0.0
 10
-169.14494964168583
 20
190.74923155196478
 30
0.0
 10
-168.75
 20
190.5650635094611
 30
0.0
 10
-168.39303097578366
 20
190.31511110779746
 30
0.0
 10
-168.08488889220254
 20
190.00696902421635
 30
0.0
 10
-167.8349364905389
 20
189.65
 30
0.0
 10
-167.65076844803522
 20
189.25505035831418
 30
0.0
 10
-167.5379806174695
 20
188.83412044416733
 30
0.0
  0
LWPOLYLINE
  8
OpenJsCad
  90
37
  70
1
 10
172.4620193825305
 20
128.83412044416733
 30
0.0
 10
172.5
 20
128.4
 30
0.0
 10
172.4620193825305
 20
127.96587955583269
 30
0.0
 10
172.34923155196478
 20
127.54494964168583
 30
0.0
 10
172.1650635094611
 20
127.15
 30
0.0
 10
171.91511110779746
 20
126.79303097578367
 30
0.0
 10
171.60696902421634
 20
126.48488889220256
 30
0.0
 10
171.25
 20
126.2349364905389
 30
0.0
 10
170.85505035831417
 20
126.05076844803523
 30
0.0
 10
170.43412044416732
 20
125.93798061746949
 30
0.0
 10
170
 20
125.9
 30
0.0
 10
169.56587955583268
 20
125.93798061746949
 30
0.0
 10
169.14494964168583
 20
126.05076844803523
 30
0.0
 10
168.75
 20
126.2349364905389
 30
0.0
 10
168.39303097578366
 20
126.48488889220256
 30
0.0
 10
168.08488889220254
 20
126.79303097578367
 30
0.0
 10
167.8349364905389
 20
127.15
 30
0.0
 10
167.65076844803522
 20
127.54494964168583
 30
0.0
 10
167.5379806174695
 20
127.96587955583269
 30
0.0
 10
167.5
 20
128.4
 30
0.0
 10
167.5379806174695
 20
128.83412044416733
 30
0.0
 10
167.65076844803522
 20
129.25505035831418
 30
0.0
 10
167.8349364905389
 20
129.65
 30
0.0
 10
168.08488889220254
 20
130.00696902421635
 30
0.0
 10
168.39303097578366
 20
130.31511110779746
 30
0.0
 10
168.75
 20
130.5650635094611
 30
0.0
 10
169.14494964168583
 20
130.74923155196478
 30
0.0
 10
169.56587955583268
 20
130.86201938253052
 30
0.0
 10
170
 20
130.9
 30
0.0
 10
170.43412044416732
 20
130.86201938253052
 30
0.0
 10
170.85505035831417
 20
130.74923155196478
 30
0.0
 10
171.25
 20
130.5650635094611
 30
0.0
 10
171.60696902421634
 20
130.31511110779746
 30
0.0
 10
171.91511110779746
 20
130.00696902421635
 30
0.0
 10
172.1650635094611
 20
129.65
 30
0.0
 10
172.34923155196478
 20
129.25505035831418
 30
0.0
 10
172.4620193825305
 20
128.83412044416733
 30
0.0
  0
LWPOLYLINE
  8
OpenJsCad
  90
37
  70
1
 10
172.4620193825305
 20
188.83412044416733
 30
0.0
 10
172.5
 20
188.4
 30
0.0
 10
172.4620193825305
 20
187.9658795558327
 30
0.0
 10
172.34923155196478
 20
187.54494964168583
 30
0.0
 10
172.1650635094611
 20
187.15
 30
0.0
 10
171.91511110779746
 20
186.79303097578367
 30
0.0
 10
171.60696902421634
 20
186.48488889220255
 30
0.0
 10
171.25
 20
186.2349364905389
 30
0.0
 10
170.85505035831417
 20
186.05076844803523
 30
0.0
 10
170.43412044416732
 20
185.9379806174695
 30
0.0
 10
170
 20
185.9
 30
0.0
 10
169.56587955583268
 20
185.9379806174695
 30
0.0
 10
169.14494964168583
 20
186.05076844803523
 30
0.0
 10
168.75
 20
186.2349364905389
 30
0.0
 10
168.39303097578366
 20
186.48488889220255
 30
0.0
 10
168.08488889220254
 20
186.79303097578367
 30
0.0
 10
167.8349364905389
 20
187.15
 30
0.0
 10
167.65076844803522
 20
187.54494964168583
 30
0.0
 10
167.5379806174695
 20
187.9658795558327
 30
0.0
 10
167.5
 20
188.4
 30
0.0
 10
167.5379806174695
 20
188.83412044416733
 30
0.0
 10
167.65076844803522
 20
189.25505035831418
 30
0.0
 10
167.8349364905389
 20
189.65
 30
0.0
 10
168.08488889220254
 20
190.00696902421635
 30
0.0
 10
168.39303097578366
 20
190.31511110779746
 30
0.0
 10
168.75
 20
190.5650635094611
 30
0.0
 10
169.14494964168583
 20
190.74923155196478
 30
0.0
 10
169.56587955583268
 20
190.86201938253052
 30
0.0
 10
170
 20
190.9
 30
0.0
 10
170.43412044416732
 20
190.86201938253052
 30
0.0
 10
170.85505035831417
 20
190.74923155196478
 30
0.0
 10
171.25
 20
190.5650635094611
 30
0.0
 10
171.60696902421634
 20
190.31511110779746
 30
0.0
 10
171.91511110779746
 20
190.00696902421635
 30
0.0
 10
172.1650635094611
 20
189.65
 30
0.0
 10
172.34923155196478
 20
189.25505035831418
 30
0.0
 10
172.4620193825305
 20
188.83412044416733
 30
0.0
  0
LWPOLYLINE
  8
OpenJsCad
  90
37
  70
1
 10
-27.80463087013831
 20
-209.5092075355571
 30
0.0
 10
-27.44766184592197
 20
-209.25925513389348
 30
0.0
 10
-27.05271220423616
 20
-209.07508709138978
 30
0.0
 10
-26.631782290089305
 20
-208.96229926082404
 30
0.0
 10
-26.197661845921985
 20
-208.92431864335452
 30
0.0
 10
-25.763541401754665
 20
-208.96229926082404
 30
0.0
 10
-25.342611487607797
 20
-209.07508709138978
 30
0.0
 10
-24.94766184592197
 20
-209.25925513389348
 30
0.0
 10
-24.59069282170563
 20
-209.5092075355571
 30
0.0
 10
-24.28255073812454
 20
-209.8173496191382
 30
0.0
 10
-24.03259833646088
 20
-210.17431864335458
 30
0.0
 10
-23.84843029395722
 20
-210.56926828504038
 30
0.0
 10
-23.735642463391457
 20
-210.99019819918723
 30
0.0
 10
-23.69766184592197
 20
-211.42431864335452
 30
0.0
 10
-23.735642463391457
 20
-211.85843908752187
 30
0.0
 10
-23.848430293957207
 20
-212.27936900166875
 30
0.0
 10
-24.03259833646088
 20
-212.67431864335458
 30
0.0
 10
-24.282550738124527
 20
-213.03128766757092
 30
0.0
 10
-24.590692821705645
 20
-213.339429751152
 30
0.0
 10
-24.94766184592197
 20
-213.58938215281563
 30
0.0
 10
-25.342611487607797
 20
-213.77355019531933
 30
0.0
 10
-25.76354140175465
 20
-213.8863380258851
 30
0.0
 10
-26.19766184592197
 20
-213.92431864335458
 30
0.0
 10
-26.63178229008929
 20
-213.8863380258851
 30
0.0
 10
-27.05271220423616
 20
-213.77355019531933
 30
0.0
 10
-27.447661845921985
 20
-213.58938215281563
 30
0.0
 10
-27.804630870138325
 20
-213.339429751152
 30
0.0
 10
-28.112772953719414
 20
-213.0312876675709
 30
0.0
 10
-28.362725355383077
 20
-212.67431864335458
 30
0.0
 10
-28.546893397886734
 20
-212.27936900166873
 30
0.0
 10
-28.6596812284525
 20
-211.85843908752187
 30
0.0
 10
-28.697661845921985
 20
-211.42431864335458
 30
0.0
 10
-28.6596812284525
 20
-210.99019819918723
 30
0.0
 10
-28.54689339788675
 20
-210.56926828504038
 30
0.0
 10
-28.362725355383077
 20
-210.17431864335452
 30
0.0
 10
-28.11277295371943
 20
-209.8173496191382
 30
0.0
 10
-27.80463087013831
 20
-209.5092075355571
 30
0.0
  0
LWPOLYLINE
  8
OpenJsCad
  90
37
  70
1
 10
-79.76615509720465
 20
-239.5092075355571
 30
0.0
 10
-79.4091860729883
 20
-239.25925513389345
 30
0.0
 10
-79.01423643130248
 20
-239.07508709138978
 30
0.0
 10
-78.59330651715564
 20
-238.962299260824
 30
0.0
 10
-78.1591860729883
 20
-238.92431864335452
 30
0.0
 10
-77.725065628821
 20
-238.962299260824
 30
0.0
 10
-77.30413571467412
 20
-239.07508709138978
 30
0.0
 10
-76.9091860729883
 20
-239.25925513389345
 30
0.0
 10
-76.55221704877195
 20
-239.5092075355571
 30
0.0
 10
-76.24407496519085
 20
-239.8173496191382
 30
0.0
 10
-75.9941225635272
 20
-240.17431864335455
 30
0.0
 10
-75.80995452102353
 20
-240.56926828504038
 30
0.0
 10
-75.69716669045778
 20
-240.9901981991872
 30
0.0
 10
-75.6591860729883
 20
-241.42431864335452
 30
0.0
 10
-75.69716669045778
 20
-241.85843908752184
 30
0.0
 10
-75.80995452102354
 20
-242.27936900166873
 30
0.0
 10
-75.9941225635272
 20
-242.67431864335455
 30
0.0
 10
-76.24407496519086
 20
-243.0312876675709
 30
0.0
 10
-76.55221704877196
 20
-243.33942975115198
 30
0.0
 10
-76.9091860729883
 20
-243.58938215281563
 30
0.0
 10
-77.30413571467413
 20
-243.7735501953193
 30
0.0
 10
-77.72506562882097
 20
-243.8863380258851
 30
0.0
 10
-78.1591860729883
 20
-243.92431864335455
 30
0.0
 10
-78.59330651715561
 20
-243.8863380258851
 30
0.0
 10
-79.01423643130249
 20
-243.77355019531933
 30
0.0
 10
-79.4091860729883
 20
-243.58938215281563
 30
0.0
 10
-79.76615509720466
 20
-243.339429751152
 30
0.0
 10
-80.07429718078573
 20
-243.0312876675709
 30
0.0
 10
-80.32424958244938
 20
-242.67431864335455
 30
0.0
 10
-80.50841762495305
 20
-242.27936900166873
 30
0.0
 10
-80.62120545551883
 20
-241.85843908752184
 30
0.0
 10
-80.6591860729883
 20
-241.42431864335455
 30
0.0
 10
-80.62120545551883
 20
-240.9901981991872
 30
0.0
 10
-80.50841762495307
 20
-240.56926828504038
 30
0.0
 10
-80.32424958244941
 20
-240.17431864335452
 30
0.0
 10
-80.07429718078575
 20
-239.8173496191382
 30
0.0
 10
-79.76615509720465
 20
-239.5092075355571
 30
0.0
  0
LWPOLYLINE
  8
OpenJsCad
  90
37
  70
1
 10
-197.80463087013823
 20
84.93942975115205
 30
0.0
 10
-197.44766184592189
 20
85.1893821528157
 30
0.0
 10
-197.05271220423606
 20
85.37355019531937
 30
0.0
 10
-196.63178229008923
 20
85.48633802588515
 30
0.0
 10
-196.1976618459219
 20
85.52431864335462
 30
0.0
 10
-195.7635414017546
 20
85.48633802588515
 30
0.0
 10
-195.3426114876077
 20
85.37355019531938
 30
0.0
 10
-194.94766184592189
 20
85.1893821528157
 30
0.0
 10
-194.59069282170555
 20
84.93942975115206
 30
0.0
 10
-194.28255073812446
 20
84.63128766757096
 30
0.0
 10
-194.0325983364608
 20
84.27431864335462
 30
0.0
 10
-193.84843029395714
 20
83.87936900166879
 30
0.0
 10
-193.73564246339137
 20
83.45843908752192
 30
0.0
 10
-193.69766184592189
 20
83.02431864335462
 30
0.0
 10
-193.73564246339137
 20
82.59019819918728
 30
0.0
 10
-193.8484302939571
 20
82.16926828504043
 30
0.0
 10
-194.0325983364608
 20
81.77431864335459
 30
0.0
 10
-194.28255073812443
 20
81.41734961913826
 30
0.0
 10
-194.59069282170555
 20
81.10920753555716
 30
0.0
 10
-194.94766184592189
 20
80.85925513389351
 30
0.0
 10
-195.3426114876077
 20
80.67508709138984
 30
0.0
 10
-195.76354140175457
 20
80.56229926082409
 30
0.0
 10
-196.19766184592189
 20
80.52431864335459
 30
0.0
 10
-196.6317822900892
 20
80.56229926082409
 30
0.0
 10
-197.05271220423606
 20
80.67508709138983
 30
0.0
 10
-197.4476618459219
 20
80.85925513389351
 30
0.0
 10
-197.80463087013823
 20
81.10920753555715
 30
0.0
 10
-198.11277295371934
 20
81.41734961913828
 30
0.0
 10
-198.362725355383
 20
81.77431864335462
 30
0.0
 10
-198.54689339788666
 20
82.16926828504045
 30
0.0
 10
-198.65968122845243
 20
82.59019819918728
 30
0.0
 10
-198.6976618459219
 20
83.02431864335459
 30
0.0
 10
-198.65968122845243
 20
83.45843908752192
 30
0.0
 10
-198.54689339788666
 20
83.8793690016688
 30
0.0
 10
-198.362725355383
 20
84.27431864335462
 30
0.0
 10
-198.11277295371934
 20
84.63128766757097
 30
0.0
 10
-197.80463087013823
 20
84.93942975115205
 30
0.0
  0
LWPOLYLINE
  8
OpenJsCad
  90
37
  70
1
 10
-249.76615509720455
 20
54.93942975115206
 30
0.0
 10
-249.40918607298823
 20
55.18938215281571
 30
0.0
 10
-249.01423643130238
 20
55.37355019531938
 30
0.0
 10
-248.59330651715555
 20
55.48633802588516
 30
0.0
 10
-248.15918607298823
 20
55.52431864335463
 30
0.0
 10
-247.72506562882091
 20
55.48633802588516
 30
0.0
 10
-247.30413571467403
 20
55.373550195319396
 30
0.0
 10
-246.90918607298823
 20
55.18938215281571
 30
0.0
 10
-246.55221704877187
 20
54.939429751152076
 30
0.0
 10
-246.24407496519075
 20
54.63128766757097
 30
0.0
 10
-245.99412256352713
 20
54.27431864335463
 30
0.0
 10
-245.80995452102343
 20
53.879369001668806
 30
0.0
 10
-245.6971666904577
 20
53.45843908752194
 30
0.0
 10
-245.65918607298823
 20
53.02431864335463
 30
0.0
 10
-245.6971666904577
 20
52.5901981991873
 30
0.0
 10
-245.80995452102346
 20
52.169268285040445
 30
0.0
 10
-245.99412256352713
 20
51.774318643354604
 30
0.0
 10
-246.24407496519078
 20
51.41734961913828
 30
0.0
 10
-246.55221704877187
 20
51.109207535557175
 30
0.0
 10
-246.90918607298823
 20
50.85925513389353
 30
0.0
 10
-247.30413571467403
 20
50.675087091389855
 30
0.0
 10
-247.7250656288209
 20
50.562299260824105
 30
0.0
 10
-248.15918607298823
 20
50.524318643354604
 30
0.0
 10
-248.59330651715553
 20
50.562299260824105
 30
0.0
 10
-249.0142364313024
 20
50.67508709138984
 30
0.0
 10
-249.40918607298823
 20
50.85925513389353
 30
0.0
 10
-249.76615509720457
 20
51.10920753555716
 30
0.0
 10
-250.07429718078566
 20
51.41734961913829
 30
0.0
 10
-250.32424958244928
 20
51.77431864335463
 30
0.0
 10
-250.50841762495298
 20
52.16926828504046
 30
0.0
 10
-250.62120545551875
 20
52.5901981991873
 30
0.0
 10
-250.65918607298823
 20
53.024318643354604
 30
0.0
 10
-250.62120545551875
 20
53.45843908752194
 30
0.0
 10
-250.50841762495298
 20
53.87936900166882
 30
0.0
 10
-250.32424958244934
 20
54.27431864335463
 30
0.0
 10
-250.07429718078566
 20
54.63128766757099
 30
0.0
 10
-249.76615509720455
 20
54.93942975115206
 30
0.0
  0
LWPOLYLINE
  8
OpenJsCad
  90
37
  70
1
 10
195.34261148760777
 20
80.6750870913897
 30
0.0
 10
194.94766184592197
 20
80.85925513389337
 30
0.0
 10
194.59069282170563
 20
81.10920753555702
 30
0.0
 10
194.2825507381245
 20
81.41734961913812
 30
0.0
 10
194.03259833646086
 20
81.77431864335445
 30
0.0
 10
193.8484302939572
 20
82.16926828504029
 30
0.0
 10
193.73564246339146
 20
82.59019819918714
 30
0.0
 10
193.69766184592197
 20
83.02431864335448
 30
0.0
 10
193.73564246339146
 20
83.45843908752178
 30
0.0
 10
193.84843029395722
 20
83.87936900166865
 30
0.0
 10
194.03259833646086
 20
84.27431864335448
 30
0.0
 10
194.28255073812454
 20
84.63128766757082
 30
0.0
 10
194.5906928217056
 20
84.93942975115192
 30
0.0
 10
194.94766184592197
 20
85.18938215281555
 30
0.0
 10
195.34261148760777
 20
85.37355019531924
 30
0.0
 10
195.76354140175465
 20
85.486338025885
 30
0.0
 10
196.19766184592197
 20
85.52431864335448
 30
0.0
 10
196.6317822900893
 20
85.48633802588498
 30
0.0
 10
197.05271220423614
 20
85.37355019531923
 30
0.0
 10
197.44766184592197
 20
85.18938215281555
 30
0.0
 10
197.80463087013828
 20
84.9394297511519
 30
0.0
 10
198.1127729537194
 20
84.6312876675708
 30
0.0
 10
198.36272535538308
 20
84.27431864335448
 30
0.0
 10
198.54689339788672
 20
83.87936900166866
 30
0.0
 10
198.65968122845248
 20
83.45843908752178
 30
0.0
 10
198.69766184592197
 20
83.02431864335445
 30
0.0
 10
198.65968122845248
 20
82.59019819918714
 30
0.0
 10
198.54689339788672
 20
82.1692682850403
 30
0.0
 10
198.36272535538308
 20
81.77431864335448
 30
0.0
 10
198.1127729537194
 20
81.41734961913814
 30
0.0
 10
197.8046308701383
 20
81.109207535557
 30
0.0
 10
197.44766184592197
 20
80.85925513389337
 30
0.0
 10
197.05271220423614
 20
80.67508709138968
 30
0.0
 10
196.6317822900893
 20
80.56229926082395
 30
0.0
 10
196.19766184592197
 20
80.52431864335445
 30
0.0
 10
195.76354140175465
 20
80.56229926082395
 30
0.0
 10
195.34261148760777
 20
80.6750870913897
 30
0.0
  0
LWPOLYLINE
  8
OpenJsCad
  90
37
  70
1
 10
247.3041357146741
 20
50.67508709138967
 30
0.0
 10
246.9091860729883
 20
50.85925513389334
 30
0.0
 10
246.55221704877192
 20
51.10920753555699
 30
0.0
 10
246.2440749651908
 20
51.41734961913809
 30
0.0
 10
245.99412256352718
 20
51.77431864335442
 30
0.0
 10
245.80995452102349
 20
52.16926828504026
 30
0.0
 10
245.69716669045775
 20
52.590198199187114
 30
0.0
 10
245.65918607298823
 20
53.02431864335445
 30
0.0
 10
245.69716669045775
 20
53.458439087521754
 30
0.0
 10
245.80995452102349
 20
53.87936900166862
 30
0.0
 10
245.99412256352718
 20
54.27431864335445
 30
0.0
 10
246.2440749651908
 20
54.63128766757079
 30
0.0
 10
246.55221704877192
 20
54.93942975115189
 30
0.0
 10
246.90918607298823
 20
55.189382152815526
 30
0.0
 10
247.3041357146741
 20
55.37355019531921
 30
0.0
 10
247.72506562882094
 20
55.486338025884976
 30
0.0
 10
248.1591860729883
 20
55.52431864335445
 30
0.0
 10
248.59330651715558
 20
55.48633802588495
 30
0.0
 10
249.01423643130244
 20
55.3735501953192
 30
0.0
 10
249.4091860729883
 20
55.189382152815526
 30
0.0
 10
249.7661550972046
 20
54.93942975115188
 30
0.0
 10
250.07429718078572
 20
54.631287667570774
 30
0.0
 10
250.32424958244934
 20
54.27431864335445
 30
0.0
 10
250.50841762495304
 20
53.879369001668636
 30
0.0
 10
250.6212054555188
 20
53.458439087521754
 30
0.0
 10
250.6591860729883
 20
53.02431864335442
 30
0.0
 10
250.6212054555188
 20
52.590198199187114
 30
0.0
 10
250.50841762495304
 20
52.169268285040275
 30
0.0
 10
250.32424958244934
 20
51.77431864335445
 30
0.0
 10
250.07429718078572
 20
51.41734961913811
 30
0.0
 10
249.76615509720463
 20
51.109207535556976
 30
0.0
 10
249.4091860729883
 20
50.85925513389334
 30
0.0
 10
249.01423643130246
 20
50.675087091389656
 30
0.0
 10
248.59330651715558
 20
50.56229926082392
 30
0.0
 10
248.15918607298823
 20
50.52431864335442
 30
0.0
 10
247.72506562882094
 20
50.56229926082392
 30
0.0
 10
247.3041357146741
 20
50.67508709138967
 30
0.0
  0
LWPOLYLINE
  8
OpenJsCad
  90
37
  70
1
 10
25.34261148760764
 20
-213.77355019531933
 30
0.0
 10
24.947661845921814
 20
-213.5893821528157
 30
0.0
 10
24.59069282170549
 20
-213.339429751152
 30
0.0
 10
24.28255073812437
 20
-213.03128766757092
 30
0.0
 10
24.032598336460723
 20
-212.67431864335458
 30
0.0
 10
23.84843029395705
 20
-212.27936900166878
 30
0.0
 10
23.7356424633913
 20
-211.8584390875219
 30
0.0
 10
23.697661845921814
 20
-211.42431864335458
 30
0.0
 10
23.7356424633913
 20
-210.99019819918726
 30
0.0
 10
23.848430293957065
 20
-210.56926828504044
 30
0.0
 10
24.032598336460723
 20
-210.17431864335458
 30
0.0
 10
24.282550738124385
 20
-209.81734961913827
 30
0.0
 10
24.590692821705474
 20
-209.50920753555712
 30
0.0
 10
24.947661845921814
 20
-209.25925513389348
 30
0.0
 10
25.34261148760764
 20
-209.0750870913898
 30
0.0
 10
25.76354140175451
 20
-208.96229926082407
 30
0.0
 10
26.19766184592183
 20
-208.92431864335458
 30
0.0
 10
26.63178229008915
 20
-208.96229926082407
 30
0.0
 10
27.052712204236002
 20
-209.07508709138983
 30
0.0
 10
27.447661845921814
 20
-209.25925513389348
 30
0.0
 10
27.804630870138155
 20
-209.50920753555715
 30
0.0
 10
28.112772953719272
 20
-209.81734961913824
 30
0.0
 10
28.36272535538292
 20
-210.17431864335458
 30
0.0
 10
28.546893397886592
 20
-210.5692682850404
 30
0.0
 10
28.659681228452342
 20
-210.99019819918726
 30
0.0
 10
28.69766184592183
 20
-211.42431864335458
 30
0.0
 10
28.659681228452342
 20
-211.8584390875219
 30
0.0
 10
28.546893397886578
 20
-212.27936900166878
 30
0.0
 10
28.36272535538292
 20
-212.67431864335458
 30
0.0
 10
28.112772953719258
 20
-213.03128766757095
 30
0.0
 10
27.80463087013817
 20
-213.33942975115204
 30
0.0
 10
27.44766184592183
 20
-213.5893821528157
 30
0.0
 10
27.052712204236002
 20
-213.77355019531936
 30
0.0
 10
26.631782290089134
 20
-213.88633802588512
 30
0.0
 10
26.197661845921814
 20
-213.92431864335458
 30
0.0
 10
25.763541401754495
 20
-213.8863380258851
 30
0.0
 10
25.34261148760764
 20
-213.77355019531933
 30
0.0
  0
LWPOLYLINE
  8
OpenJsCad
  90
37
  70
1
 10
77.30413571467396
 20
-243.7735501953194
 30
0.0
 10
76.90918607298813
 20
-243.5893821528157
 30
0.0
 10
76.5522170487718
 20
-243.33942975115207
 30
0.0
 10
76.24407496519066
 20
-243.03128766757095
 30
0.0
 10
75.99412256352703
 20
-242.67431864335464
 30
0.0
 10
75.80995452102334
 20
-242.2793690016688
 30
0.0
 10
75.6971666904576
 20
-241.85843908752193
 30
0.0
 10
75.6591860729881
 20
-241.42431864335458
 30
0.0
 10
75.6971666904576
 20
-240.9901981991873
 30
0.0
 10
75.80995452102336
 20
-240.56926828504044
 30
0.0
 10
75.99412256352703
 20
-240.17431864335464
 30
0.0
 10
76.24407496519068
 20
-239.81734961913827
 30
0.0
 10
76.55221704877178
 20
-239.50920753555715
 30
0.0
 10
76.9091860729881
 20
-239.25925513389353
 30
0.0
 10
77.30413571467395
 20
-239.07508709138983
 30
0.0
 10
77.7250656288208
 20
-238.9622992608241
 30
0.0
 10
78.15918607298813
 20
-238.92431864335458
 30
0.0
 10
78.59330651715544
 20
-238.9622992608241
 30
0.0
 10
79.01423643130231
 20
-239.07508709138983
 30
0.0
 10
79.40918607298813
 20
-239.25925513389353
 30
0.0
 10
79.76615509720448
 20
-239.50920753555715
 30
0.0
 10
80.07429718078558
 20
-239.81734961913827
 30
0.0
 10
80.32424958244921
 20
-240.17431864335458
 30
0.0
 10
80.5084176249529
 20
-240.56926828504044
 30
0.0
 10
80.62120545551866
 20
-240.9901981991873
 30
0.0
 10
80.65918607298813
 20
-241.42431864335464
 30
0.0
 10
80.62120545551866
 20
-241.85843908752193
 30
0.0
 10
80.50841762495288
 20
-242.27936900166878
 30
0.0
 10
80.32424958244921
 20
-242.67431864335464
 30
0.0
 10
80.07429718078556
 20
-243.03128766757095
 30
0.0
 10
79.76615509720449
 20
-243.33942975115207
 30
0.0
 10
79.40918607298813
 20
-243.5893821528157
 30
0.0
 10
79.01423643130232
 20
-243.7735501953194
 30
0.0
 10
78.59330651715544
 20
-243.88633802588515
 30
0.0
 10
78.1591860729881
 20
-243.92431864335464
 30
0.0
 10
77.7250656288208
 20
-243.88633802588512
 30
0.0
 10
77.30413571467396
 20
-243.7735501953194
 30
0.0
  0
LWPOLYLINE
  8
OpenJsCad
  90
148
  70
1
 10
-69.28203230275507
 20
80.00000000000003
 30
0.0
 10
69.28203230275511
 20
80
 30
0.0
 10
71.02680779736856
 20
79.96192886327431
 30
0.0
 10
72.76826201266145
 20
79.84778792366981
 30
0.0
 10
74.50307999155714
 20
79.65779445495241
 30
0.0
 10
76.22795940943234
 20
79.39231012048832
 30
0.0
 10
77.93961686027923
 20
79.05184028479732
 30
0.0
 10
79.63479410685596
 20
78.63703305156271
 30
0.0
 10
81.31026428292603
 20
78.14867802992907
 30
0.0
 10
82.96283803578186
 20
77.58770483143633
 30
0.0
 10
84.58936959735874
 20
76.95518130045146
 30
0.0
 10
86.18676277238308
 20
76.252311481466
 30
0.0
 10
87.75197683215646
 20
75.48043332712886
 30
0.0
 10
89.28203230275513
 20
74.64101615137753
 30
0.0
 10
90.77401663662806
 20
73.73565783251543
 30
0.0
 10
92.22508975679693
 20
72.76608177155967
 30
0.0
 10
93.63248946310395
 20
71.73413361164938
 30
0.0
 10
94.99353669021667
 20
70.64177772475912
 30
0.0
 10
96.30564060738152
 20
69.49109347240494
 30
0.0
 10
97.56630355021701
 20
68.28427124746187
 30
0.0
 10
98.77312577516004
 20
67.0236083046264
 30
0.0
 10
99.92381002751424
 20
65.71150438746156
 30
0.0
 10
101.01616591440451
 20
64.35045716034881
 30
0.0
 10
102.04811407431475
 20
62.94305745404185
 30
0.0
 10
103.01769013527053
 20
61.491984333872935
 30
0.0
 10
103.92304845413264
 20
59.999999999999986
 30
0.0
 10
104.76246562988395
 20
58.469944529401374
 30
0.0
 10
105.5343437842211
 20
56.904730469627964
 30
0.0
 10
106.23721360320656
 20
55.30733729460358
 30
0.0
 10
106.86973713419145
 20
53.68080573302671
 30
0.0
 10
107.43071033268417
 20
52.028231980170915
 30
0.0
 10
107.91906535431782
 20
50.35276180410082
 30
0.0
 10
108.33387258755243
 20
48.65758455752408
 30
0.0
 10
108.67434242324342
 20
46.94592710667721
 30
0.0
 10
108.93982675770751
 20
45.22104768880206
 30
0.0
 10
109.12982022642493
 20
43.4862297099063
 30
0.0
 10
109.24396116602941
 20
41.74477549461345
 30
0.0
 10
109.28203230275508
 20
39.99999999999997
 30
0.0
 10
109.24396116602941
 20
38.25522450538653
 30
0.0
 10
109.12982022642493
 20
36.513770290093646
 30
0.0
 10
108.93982675770751
 20
34.77895231119791
 30
0.0
 10
108.67434242324342
 20
33.05407289332276
 30
0.0
 10
108.33387258755242
 20
31.342415442475865
 30
0.0
 10
107.91906535431784
 20
29.647238195899153
 30
0.0
 10
107.43071033268417
 20
27.971768019829057
 30
0.0
 10
106.86973713419144
 20
26.31919426697324
 30
0.0
 10
106.23721360320657
 20
24.6926627053964
 30
0.0
 10
105.5343437842211
 20
23.09526953037202
 30
0.0
 10
104.76246562988396
 20
21.53005547059863
 30
0.0
 10
103.92304845413264
 20
19.99999999999999
 30
0.0
 10
34.641016151377485
 20
-100
 30
0.0
 10
33.73565783251536
 20
-101.49198433387298
 30
0.0
 10
32.76608177155963
 20
-102.94305745404183
 30
0.0
 10
31.734133611649355
 20
-104.35045716034881
 30
0.0
 10
30.641777724759056
 20
-105.7115043874616
 30
0.0
 10
29.4910934724049
 20
-107.02360830462644
 30
0.0
 10
28.28427124746186
 20
-108.28427124746189
 30
0.0
 10
27.023608304626343
 20
-109.49109347240497
 30
0.0
 10
25.711504387461506
 20
-110.64177772475912
 30
0.0
 10
24.3504571603488
 20
-111.7341336116494
 30
0.0
 10
22.94305745404179
 20
-112.76608177155968
 30
0.0
 10
21.491984333872892
 20
-113.73565783251543
 30
0.0
 10
19.999999999999943
 20
-114.64101615137754
 30
0.0
 10
18.469944529401303
 20
-115.48043332712886
 30
0.0
 10
16.90473046962792
 20
-116.25231148146601
 30
0.0
 10
15.307337294603542
 20
-116.95518130045147
 30
0.0
 10
13.680805733026702
 20
-117.58770483143633
 30
0.0
 10
12.02823198017088
 20
-118.14867802992907
 30
0.0
 10
10.35276180410078
 20
-118.63703305156274
 30
0.0
 10
8.657584557524032
 20
-119.05184028479734
 30
0.0
 10
6.945927106677139
 20
-119.39231012048833
 30
0.0
 10
5.221047688802024
 20
-119.65779445495241
 30
0.0
 10
3.4862297099062474
 20
-119.84778792366981
 30
0.0
 10
1.7447754946133642
 20
-119.96192886327432
 30
0.0
 10
-7.105427357601002e-14
 20
-120.00000000000001
 30
0.0
 10
-1.7447754946135063
 20
-119.96192886327432
 30
0.0
 10
-3.4862297099063966
 20
-119.84778792366981
 30
0.0
 10
-5.221047688802123
 20
-119.65779445495241
 30
0.0
 10
-6.945927106677281
 20
-119.3923101204883
 30
0.0
 10
-8.657584557524174
 20
-119.05184028479734
 30
0.0
 10
-10.352761804100886
 20
-118.63703305156274
 30
0.0
 10
-12.028231980171
 20
-118.14867802992907
 30
0.0
 10
-13.680805733026794
 20
-117.58770483143633
 30
0.0
 10
-15.307337294603641
 20
-116.95518130045147
 30
0.0
 10
-16.90473046962805
 20
-116.252311481466
 30
0.0
 10
-18.469944529401424
 20
-115.48043332712885
 30
0.0
 10
-20.000000000000057
 20
-114.64101615137756
 30
0.0
 10
-21.49198433387302
 20
-113.73565783251541
 30
0.0
 10
-22.9430574540419
 20
-112.76608177155967
 30
0.0
 10
-24.350457160348896
 20
-111.73413361164938
 30
0.0
 10
-25.711504387461645
 20
-110.64177772475912
 30
0.0
 10
-27.023608304626457
 20
-109.49109347240497
 30
0.0
 10
-28.28427124746198
 20
-108.28427124746187
 30
0.0
 10
-29.49109347240502
 20
-107.0236083046264
 30
0.0
 10
-30.641777724759173
 20
-105.71150438746159
 30
0.0
 10
-31.73413361164947
 20
-104.35045716034884
 30
0.0
 10
-32.76608177155973
 20
-102.94305745404182
 30
0.0
 10
-33.73565783251548
 20
-101.49198433387296
 30
0.0
 10
-34.641016151377606
 20
-99.99999999999997
 30
0.0
 10
-103.92304845413264
 20
20.000000000000036
 30
0.0
 10
-104.76246562988396
 20
21.530055470598676
 30
0.0
 10
-105.53434378422108
 20
23.095269530372057
 30
0.0
 10
-106.23721360320656
 20
24.692662705396422
 30
0.0
 10
-106.86973713419141
 20
26.319194266973277
 30
0.0
 10
-107.43071033268417
 20
27.971768019829106
 30
0.0
 10
-107.91906535431781
 20
29.647238195899206
 30
0.0
 10
-108.3338725875524
 20
31.34241544247591
 30
0.0
 10
-108.67434242324342
 20
33.05407289332282
 30
0.0
 10
-108.93982675770751
 20
34.77895231119797
 30
0.0
 10
-109.1298202264249
 20
36.5137702900937
 30
0.0
 10
-109.24396116602938
 20
38.255224505386586
 30
0.0
 10
-109.28203230275507
 20
40.00000000000002
 30
0.0
 10
-109.24396116602938
 20
41.74477549461346
 30
0.0
 10
-109.1298202264249
 20
43.486229709906375
 30
0.0
 10
-108.9398267577075
 20
45.22104768880209
 30
0.0
 10
-108.67434242324339
 20
46.94592710667725
 30
0.0
 10
-108.3338725875524
 20
48.65758455752415
 30
0.0
 10
-107.91906535431781
 20
50.35276180410085
 30
0.0
 10
-107.43071033268416
 20
52.02823198017094
 30
0.0
 10
-106.86973713419141
 20
53.68080573302678
 30
0.0
 10
-106.23721360320654
 20
55.307337294603606
 30
0.0
 10
-105.53434378422108
 20
56.90473046962801
 30
0.0
 10
-104.76246562988393
 20
58.46994452940139
 30
0.0
 10
-103.92304845413261
 20
60.00000000000003
 30
0.0
 10
-103.0176901352705
 20
61.49198433387298
 30
0.0
 10
-102.04811407431475
 20
62.94305745404188
 30
0.0
 10
-101.01616591440448
 20
64.35045716034885
 30
0.0
 10
-99.92381002751421
 20
65.7115043874616
 30
0.0
 10
-98.77312577516004
 20
67.02360830462645
 30
0.0
 10
-97.56630355021699
 20
68.28427124746193
 30
0.0
 10
-96.30564060738149
 20
69.491093472405
 30
0.0
 10
-94.99353669021664
 20
70.64177772475915
 30
0.0
 10
-93.6324894631039
 20
71.73413361164944
 30
0.0
 10
-92.22508975679693
 20
72.7660817715597
 30
0.0
 10
-90.77401663662803
 20
73.73565783251546
 30
0.0
 10
-89.28203230275508
 20
74.64101615137757
 30
0.0
 10
-87.75197683215643
 20
75.48043332712889
 30
0.0
 10
-86.18676277238306
 20
76.25231148146602
 30
0.0
 10
-84.58936959735867
 20
76.9551813004515
 30
0.0
 10
-82.96283803578183
 20
77.58770483143635
 30
0.0
 10
-81.310264282926
 20
78.1486780299291
 30
0.0
 10
-79.6347941068559
 20
78.63703305156277
 30
0.0
 10
-77.93961686027919
 20
79.05184028479735
 30
0.0
 10
-76.22795940943229
 20
79.39231012048835
 30
0.0
 10
-74.50307999155714
 20
79.65779445495244
 30
0.0
 10
-72.76826201266141
 20
79.84778792366984
 30
0.0
 10
-71.0268077973685
 20
79.96192886327432
 30
0.0
 10
-69.28203230275507
 20
80.00000000000003
 30
0.0
  0
ENDSEC
  0
EOF
